<svg width="56" height="56" viewBox="0 0 56 56" fill="none" xmlns="http://www.w3.org/2000/svg">
<path d="M19.2045 41.7132C17.9773 41.7132 16.8068 41.5371 15.6932 41.1848C14.5909 40.8326 13.6136 40.3155 12.7614 39.6337C11.9091 38.9632 11.233 38.1223 10.733 37.111C10.2443 36.111 10 34.9689 10 33.6848C10 32.8894 10.0625 32.0371 10.1875 31.128C10.3125 30.2303 10.5 29.3326 10.75 28.4348C11 27.5485 11.3068 26.6792 11.6705 25.8269C12.0341 24.986 12.4489 24.2246 12.9148 23.5428C13.0739 23.2928 13.3068 23.1678 13.6136 23.1678C13.8068 23.1678 13.9773 23.2303 14.125 23.3553C14.2727 23.4689 14.3636 23.6337 14.3977 23.8496V23.9348C14.3977 24.0939 14.3523 24.253 14.2614 24.4121C14.0568 24.7757 13.875 25.1962 13.7159 25.6735C13.5682 26.1621 13.4432 26.6564 13.3409 27.1564C13.25 27.6678 13.1761 28.1735 13.1193 28.6735C13.0739 29.1735 13.0511 29.628 13.0511 30.0371C13.0511 30.8326 13.1761 31.5712 13.4261 32.253C13.6761 32.9348 14.0455 33.5257 14.5341 34.0257C15.0341 34.5371 15.6591 34.9348 16.4091 35.2189C17.1591 35.503 18.0682 35.6451 19.1364 35.6451C21.2955 35.6451 23.1591 35.2814 24.7273 34.5542C26.3068 33.8269 27.5511 32.736 28.4602 31.2814C28.4375 30.6792 28.3409 30.0655 28.1705 29.4405C28 28.8269 27.7898 28.236 27.5398 27.6678C27.3011 27.111 27.0341 26.5882 26.7386 26.0996C26.4545 25.6223 26.1818 25.1905 25.9205 24.8042C25.6705 24.4064 25.4545 24.0598 25.2727 23.7644C25.1023 23.4689 25.017 23.236 25.017 23.0655C25.2443 22.2701 25.5114 21.5144 25.8182 20.7985C26.1364 20.0712 26.4716 19.3667 26.8239 18.6848C26.9489 18.4235 27.1364 18.2928 27.3864 18.2928C27.625 18.2928 27.8239 18.4121 27.983 18.6507C28.1307 18.8667 28.2955 19.128 28.4773 19.4348C28.6705 19.7417 28.8636 20.0428 29.0568 20.3382C29.25 20.6337 29.4261 20.8951 29.5852 21.1223C29.7443 21.3496 29.8807 21.5144 29.9943 21.6167C30.4148 22.0939 31.0909 22.3326 32.0227 22.3326C32.1932 22.3326 32.4489 22.3155 32.7898 22.2814C33.142 22.236 33.5455 22.1167 34 21.9235C34.4659 21.7189 34.8239 21.486 35.0739 21.2246C35.4943 20.7246 35.8807 20.1394 36.233 19.4689C36.5852 18.7985 36.9091 18.1507 37.2045 17.5257C37.4545 17.0257 37.8011 16.7757 38.2443 16.7757C38.2898 16.7757 38.3864 16.7871 38.5341 16.8098C38.6932 16.8326 38.8352 16.9519 38.9602 17.1678C39.0398 17.2814 39.0795 17.4121 39.0795 17.5598C39.0795 17.6507 39.0682 17.7417 39.0455 17.8326C38.9659 18.1735 38.8466 18.5712 38.6875 19.0257C38.5398 19.4689 38.4205 19.8326 38.3295 20.1167C38.375 20.2871 38.5852 20.503 38.9602 20.7644C39.3466 21.0257 39.8125 21.2473 40.358 21.4292C40.9034 21.611 41.4716 21.7303 42.0625 21.7871L42.4375 21.8042C42.8352 21.8042 43.125 21.7701 43.3068 21.7019C43.2386 21.2019 43.1023 20.628 42.8977 19.9803C42.6932 19.3326 42.4318 18.7246 42.1136 18.1564C42.4545 17.4292 42.7955 16.7985 43.1364 16.2644C43.4886 15.7189 43.858 15.1621 44.2443 14.5939C44.4034 14.3894 44.5852 14.2871 44.7898 14.2871C45.0625 14.2871 45.2386 14.4235 45.3182 14.6962C45.7727 16.4235 46 18.1053 46 19.7417C46 20.3439 45.9602 20.9462 45.8807 21.5485C45.8125 22.1507 45.6818 22.7985 45.4886 23.4917C45.3068 24.1848 45.0341 24.8269 44.6705 25.4178C44.3182 26.0087 43.8636 26.503 43.3068 26.9007C42.75 27.2985 42.0852 27.4973 41.3125 27.4973H41.1932C40.7045 27.4973 40.1989 27.4292 39.6761 27.2928C39.1648 27.1564 38.6705 26.9632 38.1932 26.7132C37.7159 26.4632 37.2784 26.1507 36.8807 25.7757C36.483 25.4007 36.2841 25.2246 36.2841 25.2473C36.1818 25.4405 35.892 25.7701 35.4148 26.236C34.9489 26.7019 34.4375 27.0769 33.8807 27.361C33.3352 27.6451 32.767 27.8553 32.1761 27.9917C31.5852 28.128 31.1477 28.1962 30.8636 28.1962C30.8523 28.1507 30.858 28.2871 30.8807 28.6053C30.9034 28.9235 30.9148 29.253 30.9148 29.5939L30.9318 30.0882C30.9318 30.2587 30.9261 30.4632 30.9148 30.7019C30.9148 30.9519 30.9034 31.1792 30.8807 31.3837C30.8011 32.9632 30.4261 34.3837 29.7557 35.6451C29.0966 36.9178 28.2443 38.003 27.1989 38.9007C26.1648 39.8098 24.9545 40.503 23.5682 40.9803C22.1818 41.4689 20.7273 41.7132 19.2045 41.7132Z" fill="white"/>
</svg>
