<svg width="56" height="56" viewBox="0 0 56 56" fill="none" xmlns="http://www.w3.org/2000/svg">
<path d="M18.4261 49.9587C17.2609 49.9587 16.0904 49.8065 14.9146 49.5021C13.7494 49.1976 12.6892 48.72 11.7339 48.0691C10.7891 47.4183 10.0123 46.6047 9.4034 45.6284C8.80504 44.6522 8.50586 43.4974 8.50586 42.1642C8.50586 41.3979 8.57409 40.5739 8.71056 39.6921C8.85753 38.8103 9.06223 37.939 9.32467 37.0782C9.58711 36.2278 9.90204 35.4195 10.2695 34.6532C10.6474 33.8974 11.062 33.2465 11.5134 32.7007C11.6604 32.5222 11.8388 32.4225 12.0488 32.4015C12.2692 32.391 12.4477 32.4435 12.5842 32.5589C12.7206 32.6849 12.7994 32.8424 12.8204 33.0313V33.1258C12.8204 33.2518 12.7836 33.383 12.7101 33.5195C12.5107 33.8659 12.327 34.249 12.159 34.669C11.9911 35.0889 11.8441 35.5245 11.7181 35.9759C11.6027 36.4378 11.5082 36.8944 11.4347 37.3458C11.3612 37.7972 11.3245 38.2276 11.3245 38.637C11.3245 39.6973 11.5449 40.5844 11.9858 41.2982C12.4372 42.012 13.0198 42.5894 13.7337 43.0303C14.4475 43.4817 15.2558 43.8019 16.1586 43.9908C17.0614 44.1903 17.9642 44.29 18.867 44.29C19.8328 44.29 20.872 44.2218 21.9848 44.0853C23.0975 43.9593 24.163 43.7441 25.1813 43.4397C26.2101 43.1353 27.1234 42.7364 27.9212 42.243C28.7295 41.7496 29.3016 41.1722 29.6375 40.5109C29.5745 40.4164 29.3856 40.2852 29.0707 40.1172C28.7662 39.9597 28.3988 39.8075 27.9684 39.6606C27.5485 39.5241 27.0919 39.4034 26.5985 39.2984C26.1051 39.1934 25.617 39.0989 25.1341 39.015C24.6512 38.931 24.1998 38.8575 23.7799 38.7945C23.3705 38.7315 22.8876 38.6528 22.3312 38.5583C22.7826 37.4876 23.1185 36.5795 23.339 35.8342C23.5699 35.0994 23.7484 34.3488 23.8743 33.5825C24.0108 32.8266 24.1 32.0341 24.142 31.2047C24.1735 30.6799 24.1893 30.113 24.1893 29.5041L24.1735 28.3389C24.1315 27.5306 24.0895 26.8167 24.0476 26.1974C24.0161 25.5675 23.9688 24.9482 23.9058 24.3393C23.8429 23.7305 23.7641 23.0796 23.6696 22.3868C23.5857 21.6834 23.4754 20.8384 23.339 19.8516C23.171 18.7283 23.0345 17.7678 22.9296 16.97C22.8351 16.1722 22.7511 15.5423 22.6776 15.0804L22.6619 14.9545C22.6619 14.713 22.7301 14.4558 22.8666 14.1829C23.0135 13.8994 23.1815 13.6108 23.3705 13.3168C23.5699 13.0124 23.7694 12.729 23.9688 12.4665C24.1683 12.2041 24.3152 11.9994 24.4097 11.8524C24.5252 11.7054 24.6722 11.632 24.8506 11.632C24.9661 11.632 25.0711 11.6687 25.1656 11.7422C25.2705 11.8052 25.3545 11.9311 25.4175 12.1201C25.6904 14.0937 25.9476 16.0042 26.1891 17.8518C26.4305 19.6889 26.7297 21.526 27.0866 23.363C27.1811 23.8459 27.2861 24.3393 27.4015 24.8432C27.517 25.3366 27.6692 25.8195 27.8582 26.2919C28.0576 26.7538 28.2886 27.1632 28.551 27.5201C28.8135 27.877 29.1389 28.1499 29.5273 28.3389C30.0417 28.6118 30.6191 28.827 31.2594 28.9845C31.9103 29.142 32.7133 29.2207 33.6686 29.2207H34.5504C34.7814 29.2207 34.9756 29.3257 35.133 29.5356C35.301 29.7351 35.4427 29.966 35.5582 30.2285C35.6737 30.4909 35.7734 30.7796 35.8574 31.0945C35.9413 31.3989 35.9833 31.6981 35.9833 31.9921C35.9833 32.307 35.9413 32.6219 35.8574 32.9368C35.7734 33.2518 35.6737 33.5352 35.5582 33.7872C35.4427 34.0391 35.301 34.27 35.133 34.48C34.9756 34.6899 34.7814 34.7949 34.5504 34.7949H33.6686C32.7133 34.7949 31.842 34.669 31.0547 34.417C30.2779 34.1756 29.5798 33.8449 28.9604 33.425C28.3411 33.0051 27.7952 32.5117 27.3228 31.9448C26.8609 31.3885 26.7192 31.2835 26.8977 31.6299V30.26C26.8977 30.4174 26.8872 30.6589 26.8662 30.9843C26.8452 31.3097 26.8137 31.6876 26.7717 32.118C26.7297 32.5589 26.6825 32.9683 26.63 33.3463C26.588 33.7347 26.567 33.9236 26.567 33.9131C26.9029 33.9866 27.3805 34.1178 27.9999 34.3068C28.6193 34.4957 29.2124 34.7372 29.7792 35.0311C30.3461 35.3251 30.8448 35.6872 31.2752 36.1176C31.7161 36.548 32.0257 37.0519 32.2042 37.6293C32.3407 38.0177 32.4089 38.4691 32.4089 38.9835C32.4089 39.4874 32.3512 40.0122 32.2357 40.5581C32.1307 41.104 31.968 41.6499 31.7475 42.1957C31.5376 42.7521 31.2752 43.2717 30.9602 43.7546C30.3199 44.7519 29.5483 45.6337 28.6455 46.4C27.7532 47.1663 26.7612 47.812 25.6694 48.3368C24.5882 48.8722 23.4334 49.2764 22.2052 49.5493C20.977 49.8222 19.7173 49.9587 18.4261 49.9587Z" fill="white"/>
<path d="M41.6048 22.4655C41.7623 22.4655 41.9355 22.4497 42.1244 22.4183C42.3239 22.3868 42.5023 22.3028 42.6598 22.1663C42.6808 22.1453 42.6913 22.1348 42.6913 22.1348C42.6913 22.1348 42.6861 22.1191 42.6756 22.0876C42.6651 22.0456 42.6283 21.9721 42.5653 21.8671C42.5128 21.7936 42.4394 21.6992 42.3449 21.5837C42.2504 21.4577 42.1454 21.3422 42.0299 21.2373C41.9145 21.1218 41.8043 21.0326 41.6993 20.9696C41.5943 20.9066 41.5103 20.8751 41.4473 20.8751C41.3319 20.8751 41.2059 20.9066 41.0694 20.9696C40.9434 21.0326 40.8227 21.1165 40.7073 21.2215C40.5918 21.3265 40.4973 21.4472 40.4238 21.5837C40.3608 21.7097 40.3293 21.8199 40.3293 21.9144C40.3503 22.0403 40.4448 22.1506 40.6128 22.245C40.7807 22.3395 40.9907 22.4025 41.2426 22.434C41.3581 22.455 41.4788 22.4655 41.6048 22.4655ZM39.1011 12.2303C38.9647 12.2303 37.9464 11.4693 36.0463 9.9471C35.9098 9.83163 35.8416 9.70041 35.8416 9.55344C35.8416 9.42747 36.5607 8.45644 37.9989 6.64036C38.1353 6.49339 38.2981 6.41991 38.487 6.41991C38.6445 6.41991 39.479 7.04451 40.9907 8.29373L42.5023 6.29393C42.6493 6.12597 42.8225 6.04199 43.022 6.04199C43.1479 6.04199 44.1452 6.80832 46.0138 8.34097C46.1608 8.42495 46.2342 8.55617 46.2342 8.73463C46.2342 8.80811 46.2132 8.90784 46.1713 9.03381L44.1557 11.632C43.9982 11.7999 43.825 11.8839 43.6361 11.8839C43.4996 11.8839 42.6651 11.2488 41.1324 9.97859L39.605 11.9941C39.4685 12.1516 39.3006 12.2303 39.1011 12.2303ZM36.1093 34.7949H35.2747C35.0543 34.7949 34.8706 34.6847 34.7236 34.4642C34.5767 34.2543 34.4454 34.0286 34.33 33.7872C34.2145 33.5457 34.1148 33.2623 34.0308 32.9368C33.9363 32.6219 33.8891 32.307 33.8891 31.9921C33.8891 31.6981 33.9363 31.3989 34.0308 31.0945C34.1148 30.7796 34.2092 30.4962 34.3142 30.2442C34.4192 29.9818 34.5504 29.7456 34.7079 29.5356C34.8653 29.3257 35.0543 29.2207 35.2747 29.2207H36.1093C36.5922 29.2207 37.1223 29.2154 37.6997 29.205C38.2771 29.184 38.8597 29.1525 39.4475 29.1105C40.0354 29.0685 40.6128 29.0107 41.1796 28.9373C41.7465 28.8638 42.2661 28.7536 42.7385 28.6066C43.2214 28.4596 43.6308 28.2917 43.9668 28.1027C44.3027 27.9137 44.5389 27.709 44.6753 27.4886V27.2681C44.6753 26.8167 44.6281 26.3653 44.5336 25.914C44.4496 25.4626 44.4811 25.3051 44.6281 25.4416C44.6386 25.4206 44.5284 25.5623 44.2974 25.8667C44.0665 26.1711 43.8093 26.4493 43.5259 26.7013C43.2424 26.9532 42.938 27.1632 42.6126 27.3311C42.2871 27.4991 41.9617 27.5883 41.6363 27.5988H41.4473C40.9539 27.5988 40.4658 27.4781 39.9829 27.2367C39.5105 26.9952 39.0906 26.6645 38.7232 26.2446C38.3663 25.8142 38.0776 25.3366 37.8572 24.8117C37.6472 24.2868 37.5422 23.7619 37.5422 23.2371C37.5422 22.7752 37.579 22.2713 37.6525 21.7254C37.7364 21.169 37.8519 20.6127 37.9989 20.0563C38.1458 19.4894 38.3243 18.933 38.5342 18.3872C38.7442 17.8413 38.9909 17.3584 39.2743 16.9385C39.5683 16.5081 39.9094 16.1459 40.2978 15.852C40.6863 15.5581 41.1324 15.4059 41.6363 15.3954H41.7465C42.4394 15.3954 43.064 15.5791 43.6203 15.9465C44.1767 16.3034 44.6648 16.7758 45.0848 17.3637C45.5152 17.9515 45.8826 18.6076 46.187 19.332C46.4914 20.0563 46.7381 20.7806 46.9271 21.505C47.1265 22.2188 47.2683 22.9116 47.3522 23.5835C47.4467 24.2553 47.494 24.8222 47.494 25.2841C47.494 25.9769 47.4415 26.738 47.3365 27.5673C47.2315 28.3966 47.0426 29.2154 46.7696 30.0238C46.4967 30.8321 46.1083 31.5669 45.6044 32.2283C45.111 32.9001 44.4759 33.3882 43.6991 33.6927C42.7018 34.0706 41.5418 34.3488 40.2191 34.5272C38.8964 34.7057 37.5265 34.7949 36.1093 34.7949Z" fill="white"/>
</svg>
