<svg width="56" height="56" viewBox="0 0 56 56" fill="none" xmlns="http://www.w3.org/2000/svg">
<path d="M13.2895 44.0136C12.3158 44.0136 11.3377 43.8864 10.3553 43.632C9.38158 43.3777 8.49561 42.9785 7.69737 42.4347C6.90789 41.8908 6.25877 41.211 5.75 40.3952C5.25 39.5794 5 38.6145 5 37.5005C5 36.8601 5.05702 36.1715 5.17105 35.4347C5.29386 34.6978 5.46491 33.9698 5.68421 33.2505C5.90351 32.5399 6.16667 31.8645 6.47368 31.2241C6.78947 30.5926 7.13596 30.0487 7.51316 29.5926C7.63596 29.4434 7.78509 29.3601 7.96053 29.3426C8.14474 29.3338 8.29386 29.3777 8.40789 29.4741C8.52193 29.5794 8.58772 29.711 8.60526 29.8689V29.9478C8.60526 30.0531 8.57456 30.1627 8.51316 30.2768C8.34649 30.5663 8.19298 30.8864 8.05263 31.2373C7.91228 31.5882 7.78947 31.9522 7.68421 32.3294C7.58772 32.7154 7.50877 33.097 7.44737 33.4741C7.38596 33.8513 7.35526 34.211 7.35526 34.5531C7.35526 35.4391 7.53947 36.1803 7.90789 36.7768C8.28509 37.3733 8.77193 37.8557 9.36842 38.2241C9.96491 38.6013 10.6404 38.8689 11.3947 39.0268C12.1491 39.1934 12.9035 39.2768 13.6579 39.2768C14.4649 39.2768 15.3333 39.2198 16.2632 39.1057C17.193 39.0005 18.0833 38.8206 18.9342 38.5663C19.7939 38.3119 20.557 37.9785 21.2237 37.5663C21.8991 37.154 22.3772 36.6715 22.6579 36.1189C22.6053 36.0399 22.4474 35.9303 22.1842 35.7899C21.9298 35.6584 21.6228 35.5312 21.2632 35.4084C20.9123 35.2943 20.5307 35.1934 20.1184 35.1057C19.7061 35.018 19.2982 34.9391 18.8947 34.8689C18.4912 34.7987 18.114 34.7373 17.7632 34.6847C17.4211 34.632 17.0175 34.5663 16.5526 34.4873C16.9298 33.5926 17.2105 32.8338 17.3947 32.211C17.5877 31.597 17.7368 30.9698 17.8421 30.3294C17.9561 29.6978 18.0307 29.0356 18.0658 28.3426C18.0921 27.904 18.1053 27.4303 18.1053 26.9215L18.0921 25.9478C18.057 25.2724 18.0219 24.6759 17.9868 24.1584C17.9605 23.632 17.9211 23.1145 17.8684 22.6057C17.8158 22.097 17.75 21.5531 17.6711 20.9741C17.6009 20.3864 17.5088 19.6803 17.3947 18.8557C17.2544 17.9171 17.1404 17.1145 17.0526 16.4478C16.9737 15.7812 16.9035 15.2548 16.8421 14.8689L16.8289 14.7636C16.8289 14.5619 16.886 14.347 17 14.1189C17.1228 13.882 17.2632 13.6408 17.4211 13.3952C17.5877 13.1408 17.7544 12.904 17.9211 12.6847C18.0877 12.4654 18.2105 12.2943 18.2895 12.1715C18.386 12.0487 18.5088 11.9873 18.6579 11.9873C18.7544 11.9873 18.8421 12.018 18.9211 12.0794C19.0088 12.132 19.0789 12.2373 19.1316 12.3952C19.3596 14.0443 19.5746 15.6408 19.7763 17.1847C19.9781 18.7198 20.2281 20.2548 20.5263 21.7899C20.6053 22.1934 20.693 22.6057 20.7895 23.0268C20.886 23.4391 21.0132 23.8426 21.1711 24.2373C21.3377 24.6233 21.5307 24.9654 21.75 25.2636C21.9693 25.5619 22.2412 25.7899 22.5658 25.9478C22.9956 26.1759 23.4781 26.3557 24.0132 26.4873C24.557 26.6189 25.2281 26.6847 26.0263 26.6847H26.7632C26.9561 26.6847 27.1184 26.7724 27.25 26.9478C27.3904 27.1145 27.5088 27.3075 27.6053 27.5268C27.7018 27.7461 27.7851 27.9873 27.8553 28.2505C27.9254 28.5048 27.9605 28.7548 27.9605 29.0005C27.9605 29.2636 27.9254 29.5268 27.8553 29.7899C27.7851 30.0531 27.7018 30.2899 27.6053 30.5005C27.5088 30.711 27.3904 30.904 27.25 31.0794C27.1184 31.2548 26.9561 31.3426 26.7632 31.3426H26.0263C25.2281 31.3426 24.5 31.2373 23.8421 31.0268C23.193 30.825 22.6096 30.5487 22.0921 30.1978C21.5746 29.847 21.1184 29.4347 20.7237 28.961C20.3377 28.4961 20.2193 28.4084 20.3684 28.6978V27.5531C20.3684 27.6847 20.3596 27.8864 20.3421 28.1584C20.3246 28.4303 20.2982 28.7461 20.2632 29.1057C20.2281 29.4741 20.1886 29.8163 20.1447 30.132C20.1096 30.4566 20.0921 30.6145 20.0921 30.6057C20.3728 30.6671 20.7719 30.7768 21.2895 30.9347C21.807 31.0926 22.3026 31.2943 22.7763 31.5399C23.25 31.7856 23.6667 32.0882 24.0263 32.4478C24.3947 32.8075 24.6535 33.2285 24.8026 33.711C24.9167 34.0356 24.9737 34.4127 24.9737 34.8426C24.9737 35.2636 24.9254 35.7022 24.8289 36.1584C24.7412 36.6145 24.6053 37.0706 24.4211 37.5268C24.2456 37.9917 24.0263 38.4259 23.7632 38.8294C23.2281 39.6627 22.5833 40.3996 21.8289 41.0399C21.0833 41.6803 20.2544 42.2198 19.3421 42.6584C18.4386 43.1057 17.4737 43.4434 16.4474 43.6715C15.4211 43.8996 14.3684 44.0136 13.2895 44.0136Z" fill="white"/>
<path d="M39.4868 26.7505C40.0833 26.7505 40.6974 26.7241 41.3289 26.6715C41.9693 26.6189 42.6184 26.5399 43.2763 26.4347C43.943 26.3294 44.5833 26.1934 45.1974 26.0268C45.8114 25.8513 46.3728 25.6408 46.8816 25.3952C47.3991 25.1408 47.7895 24.8908 48.0526 24.6452C47.614 24.1452 47.0789 23.7373 46.4474 23.4215C45.8772 23.1408 45.3026 23.0005 44.7237 23.0005H44.5921C44.0307 23.0268 43.443 23.1715 42.8289 23.4347C42.2149 23.6891 41.6228 24.018 41.0526 24.4215C40.4825 24.8163 39.9474 25.2548 39.4474 25.7373C38.9474 26.211 38.6184 26.5443 38.4605 26.7373C38.557 26.7461 38.8991 26.7505 39.4868 26.7505ZM35.3158 32.5926C34.8421 32.5926 34.6053 32.3382 34.6053 31.8294L34.6184 31.6584C34.6535 31.4303 34.693 31.2285 34.7368 31.0531C34.7807 30.8864 34.8114 30.7724 34.8289 30.711C34.3553 30.5531 33.8728 30.2768 33.3816 29.882C32.8991 29.4961 32.5658 29.1803 32.3816 28.9347C31.9254 29.6891 31.3246 30.2768 30.5789 30.6978C29.8421 31.1277 29.0088 31.3426 28.0789 31.3426H27.3421C27.1754 31.3426 27.0263 31.2505 26.8947 31.0663C26.7632 30.8908 26.6535 30.6978 26.5658 30.4873C26.4781 30.2768 26.3991 30.0399 26.3289 29.7768C26.25 29.5224 26.2105 29.2636 26.2105 29.0005C26.2105 28.7548 26.25 28.5048 26.3289 28.2505C26.3991 27.9873 26.4781 27.7505 26.5658 27.5399C26.6535 27.3206 26.7632 27.1233 26.8947 26.9478C27.0263 26.7724 27.1754 26.6847 27.3421 26.6847H28.0789C28.7105 26.6847 29.2368 26.6452 29.6579 26.5663C30.0877 26.4873 30.4605 26.347 30.7763 26.1452C31.0921 25.9347 31.3772 25.6452 31.6316 25.2768C31.8947 24.8996 32.1579 24.404 32.4211 23.7899C32.5614 23.4478 32.7939 23.2768 33.1184 23.2768C33.4342 23.2768 33.6184 23.4259 33.6711 23.7241C33.7149 24.1627 33.8202 24.5487 33.9868 24.882C34.1623 25.2154 34.3684 25.4917 34.6053 25.711C34.8509 25.9303 35.1228 26.1013 35.4211 26.2241C35.7193 26.347 35.9518 26.4127 36.1184 26.4215C36.4518 25.9391 36.8816 25.3601 37.4079 24.6847C37.9342 24.0092 38.4956 23.347 39.0921 22.6978C39.6974 22.0487 40.3158 21.4347 40.9474 20.8557C41.5789 20.2768 42.2105 19.7943 42.8421 19.4084C43.6579 18.8733 44.6404 18.6057 45.7895 18.6057C45.8947 18.6057 46.114 18.6145 46.4474 18.632C46.7895 18.6496 47.2325 18.7548 47.7763 18.9478C48.3202 19.1408 48.8202 19.3996 49.2763 19.7241C49.7325 20.0487 50.1096 20.4434 50.4079 20.9084C50.7149 21.3733 50.9123 21.9084 51 22.5136C50.9298 23.9698 50.5702 25.2285 49.9211 26.2899C49.2807 27.3426 48.4649 28.2241 47.4737 28.9347C46.4825 29.654 45.3772 30.2022 44.1579 30.5794C42.9386 30.9654 41.7149 31.1978 40.4868 31.2768C40.0307 31.3031 39.5658 31.3163 39.0921 31.3163C38.8114 31.3163 38.3991 31.3075 37.8553 31.2899C37.3202 31.2812 36.8246 31.2373 36.3684 31.1584C36.3684 31.1584 36.3377 31.2373 36.2763 31.3952C36.2237 31.5531 36.1667 31.7154 36.1053 31.882C35.9649 32.3557 35.7018 32.5926 35.3158 32.5926Z" fill="white"/>
</svg>
