<svg width="374" height="81" viewBox="0 0 374 81" fill="none" xmlns="http://www.w3.org/2000/svg">
<g clip-path="url(#clip0_7195_83728)">
<path d="M359 0H15C6.71573 0 0 6.71573 0 15V66C0 74.2843 6.71573 81 15 81H359C367.284 81 374 74.2843 374 66V15C374 6.71573 367.284 0 359 0Z" fill="#1E1E1E"/>
<path d="M242.5 49.5C148.9 33.9 97.8333 60.3333 84 75.5L79.5 81H374V8C369.167 28.3333 336.1 65.1 242.5 49.5Z" fill="#3D3D3D"/>
<mask id="mask0_7195_83728" style="mask-type:luminance" maskUnits="userSpaceOnUse" x="15" y="15" width="51" height="51">
<path d="M56 15H25C19.4772 15 15 19.4772 15 25V56C15 61.5228 19.4772 66 25 66H56C61.5228 66 66 61.5228 66 56V25C66 19.4772 61.5228 15 56 15Z" fill="white"/>
</mask>
<g mask="url(#mask0_7195_83728)">
<path d="M56 15H25C19.4772 15 15 19.4772 15 25V56C15 61.5228 19.4772 66 25 66H56C61.5228 66 66 61.5228 66 56V25C66 19.4772 61.5228 15 56 15Z" fill="#3D3D3D"/>
<g opacity="0.1">
<path d="M46.3131 27.238C44.9854 27.0887 43.6504 27.0094 42.314 27.0005C38.3573 26.9592 35.6241 29.2819 35.5764 33.602L35.5341 37.3285L31.0583 37.2821L31 42.3299L35.4228 46.6448L35.3275 55.3366L52.1604 72H62.701C64.6368 72 66.4934 71.2507 67.8622 69.9168C69.231 68.583 70 66.7739 70 64.8876V50.5802L46.3131 27.238Z" fill="#BABABA"/>
</g>
<path d="M45.9533 31.8663L43.2605 31.8347C41.1539 31.8347 40.7337 32.8257 40.7181 34.3176L40.687 37.6124L45.7094 37.6651L45.0038 42.8156L40.6299 42.7681L40.4898 56L35.2442 55.942L35.3843 42.7101L31 42.6574L31.0571 37.5017L35.4414 37.5492L35.4829 33.743C35.5296 29.3306 38.2069 26.9584 42.0827 27.0006C43.3918 27.0096 44.6995 27.0905 46 27.243L45.9533 31.8663Z" fill="white"/>
</g>
<path d="M56 15H25C19.4772 15 15 19.4772 15 25V56C15 61.5228 19.4772 66 25 66H56C61.5228 66 66 61.5228 66 56V25C66 19.4772 61.5228 15 56 15Z" stroke="#545454" stroke-width="2"/>
<path d="M86.0213 25.3184H87.8509V32.4775C87.8475 33.1337 87.7083 33.6988 87.4332 34.1728C87.1581 34.6434 86.7737 35.0064 86.2798 35.2616C85.7893 35.5135 85.2176 35.6394 84.5646 35.6394C83.968 35.6394 83.4311 35.5333 82.9538 35.3212C82.4799 35.1058 82.1037 34.7876 81.8253 34.3667C81.5469 33.9457 81.4077 33.4221 81.4077 32.7957H83.2422C83.2455 33.0707 83.3052 33.3077 83.4212 33.5066C83.5405 33.7055 83.7045 33.8579 83.9134 33.964C84.1222 34.07 84.3625 34.1231 84.6342 34.1231C84.9292 34.1231 85.1795 34.0618 85.3849 33.9391C85.5904 33.8132 85.7462 33.6276 85.8523 33.3823C85.9616 33.137 86.018 32.8354 86.0213 32.4775V25.3184ZM93.1033 35.6493C92.3576 35.6493 91.7113 35.4853 91.1644 35.1572C90.6175 34.829 90.1933 34.37 89.8917 33.78C89.5934 33.1901 89.4442 32.5007 89.4442 31.7118C89.4442 30.923 89.5934 30.232 89.8917 29.6387C90.1933 29.0454 90.6175 28.5847 91.1644 28.2566C91.7113 27.9285 92.3576 27.7644 93.1033 27.7644C93.8491 27.7644 94.4954 27.9285 95.0423 28.2566C95.5891 28.5847 96.0117 29.0454 96.31 29.6387C96.6116 30.232 96.7624 30.923 96.7624 31.7118C96.7624 32.5007 96.6116 33.1901 96.31 33.78C96.0117 34.37 95.5891 34.829 95.0423 35.1572C94.4954 35.4853 93.8491 35.6493 93.1033 35.6493ZM93.1133 34.2076C93.5176 34.2076 93.8557 34.0966 94.1275 33.8745C94.3993 33.6491 94.6014 33.3475 94.734 32.9697C94.8699 32.5918 94.9379 32.1709 94.9379 31.7069C94.9379 31.2395 94.8699 30.817 94.734 30.4391C94.6014 30.058 94.3993 29.7547 94.1275 29.5293C93.8557 29.3039 93.5176 29.1913 93.1133 29.1913C92.699 29.1913 92.3543 29.3039 92.0792 29.5293C91.8074 29.7547 91.6036 30.058 91.4677 30.4391C91.3351 30.817 91.2688 31.2395 91.2688 31.7069C91.2688 32.1709 91.3351 32.5918 91.4677 32.9697C91.6036 33.3475 91.8074 33.6491 92.0792 33.8745C92.3543 34.0966 92.699 34.2076 93.1133 34.2076ZM98.29 35.5002V27.8638H100.09V35.5002H98.29ZM99.1948 26.78C98.9097 26.78 98.6645 26.6856 98.459 26.4966C98.2535 26.3044 98.1507 26.0741 98.1507 25.8056C98.1507 25.5338 98.2535 25.3035 98.459 25.1145C98.6645 24.9223 98.9097 24.8262 99.1948 24.8262C99.4831 24.8262 99.7284 24.9223 99.9306 25.1145C100.136 25.3035 100.239 25.5338 100.239 25.8056C100.239 26.0741 100.136 26.3044 99.9306 26.4966C99.7284 26.6856 99.4831 26.78 99.1948 26.78ZM103.74 31.0258V35.5002H101.94V27.8638H103.661V29.1614H103.75C103.926 28.7339 104.206 28.3941 104.59 28.1422C104.978 27.8904 105.457 27.7644 106.027 27.7644C106.554 27.7644 107.013 27.8771 107.404 28.1025C107.799 28.3279 108.103 28.6543 108.319 29.0819C108.538 29.5094 108.645 30.0281 108.642 30.638V35.5002H106.842V30.9164C106.842 30.406 106.71 30.0066 106.445 29.7182C106.183 29.4299 105.82 29.2857 105.356 29.2857C105.041 29.2857 104.761 29.3553 104.516 29.4945C104.274 29.6304 104.083 29.8276 103.944 30.0861C103.808 30.3447 103.74 30.6579 103.74 31.0258ZM123.122 30.4093C123.122 31.5064 122.916 32.446 122.505 33.2282C122.098 34.0071 121.541 34.6037 120.835 35.018C120.132 35.4323 119.335 35.6394 118.444 35.6394C117.552 35.6394 116.753 35.4323 116.047 35.018C115.345 34.6003 114.788 34.0021 114.377 33.2232C113.969 32.441 113.765 31.503 113.765 30.4093C113.765 29.3122 113.969 28.3743 114.377 27.5954C114.788 26.8132 115.345 26.2149 116.047 25.8006C116.753 25.3863 117.552 25.1792 118.444 25.1792C119.335 25.1792 120.132 25.3863 120.835 25.8006C121.541 26.2149 122.098 26.8132 122.505 27.5954C122.916 28.3743 123.122 29.3122 123.122 30.4093ZM121.267 30.4093C121.267 29.637 121.146 28.9858 120.904 28.4555C120.666 27.9218 120.334 27.5191 119.91 27.2474C119.486 26.9723 118.997 26.8347 118.444 26.8347C117.89 26.8347 117.401 26.9723 116.977 27.2474C116.553 27.5191 116.22 27.9218 115.978 28.4555C115.739 28.9858 115.62 29.637 115.62 30.4093C115.62 31.1815 115.739 31.8345 115.978 32.3681C116.22 32.8984 116.553 33.3011 116.977 33.5762C117.401 33.848 117.89 33.9839 118.444 33.9839C118.997 33.9839 119.486 33.848 119.91 33.5762C120.334 33.3011 120.666 32.8984 120.904 32.3681C121.146 31.8345 121.267 31.1815 121.267 30.4093ZM129.653 32.2886V27.8638H131.453V35.5002H129.708V34.143H129.628C129.456 34.5705 129.173 34.9202 128.778 35.192C128.387 35.4637 127.905 35.5996 127.331 35.5996C126.831 35.5996 126.389 35.4886 126.004 35.2665C125.623 35.0412 125.325 34.7147 125.109 34.2871C124.894 33.8563 124.786 33.3359 124.786 32.7261V27.8638H126.586V32.4476C126.586 32.9315 126.718 33.316 126.983 33.6011C127.249 33.8861 127.597 34.0286 128.028 34.0286C128.293 34.0286 128.55 33.964 128.798 33.8347C129.047 33.7055 129.251 33.5132 129.41 33.258C129.572 32.9995 129.653 32.6763 129.653 32.2886ZM133.304 35.5002V27.8638H135.049V29.1366H135.128C135.267 28.6957 135.506 28.356 135.844 28.1174C136.185 27.8754 136.575 27.7545 137.012 27.7545C137.112 27.7545 137.223 27.7594 137.346 27.7694C137.471 27.776 137.576 27.7876 137.659 27.8042V29.4597C137.583 29.4332 137.462 29.41 137.296 29.3901C137.133 29.3669 136.976 29.3553 136.824 29.3553C136.495 29.3553 136.2 29.4266 135.939 29.5691C135.68 29.7083 135.476 29.9022 135.327 30.1508C135.178 30.3993 135.103 30.686 135.103 31.0109V35.5002H133.304ZM149.228 28.5698C149.145 28.3013 149.03 28.061 148.885 27.8489C148.742 27.6335 148.57 27.4495 148.368 27.2971C148.169 27.1446 147.94 27.0303 147.681 26.954C147.423 26.8745 147.141 26.8347 146.836 26.8347C146.289 26.8347 145.802 26.9723 145.375 27.2474C144.947 27.5225 144.611 27.9268 144.365 28.4604C144.123 28.9907 144.002 29.637 144.002 30.3993C144.002 31.1683 144.123 31.8196 144.365 32.3532C144.607 32.8868 144.944 33.2928 145.375 33.5712C145.806 33.8463 146.306 33.9839 146.876 33.9839C147.393 33.9839 147.841 33.8844 148.218 33.6856C148.6 33.4867 148.893 33.205 149.098 32.8404C149.304 32.4725 149.407 32.0416 149.407 31.5478L149.824 31.6124H147.06V30.1707H151.191V31.3937C151.191 32.2654 151.006 33.0194 150.635 33.6557C150.263 34.2921 149.753 34.7826 149.103 35.1273C148.454 35.4687 147.708 35.6394 146.866 35.6394C145.928 35.6394 145.105 35.4289 144.395 35.008C143.689 34.5838 143.137 33.9822 142.74 33.2033C142.345 32.4211 142.148 31.4931 142.148 30.4192C142.148 29.5973 142.264 28.8631 142.496 28.2168C142.731 27.5705 143.06 27.022 143.48 26.5712C143.901 26.1172 144.395 25.7725 144.962 25.5371C145.529 25.2985 146.145 25.1792 146.811 25.1792C147.375 25.1792 147.9 25.262 148.387 25.4278C148.875 25.5902 149.307 25.8222 149.685 26.1238C150.066 26.4254 150.379 26.7833 150.625 27.1976C150.87 27.6119 151.031 28.0693 151.107 28.5698H149.228ZM152.895 35.5002V27.8638H154.64V29.1366H154.72C154.859 28.6957 155.098 28.356 155.436 28.1174C155.777 27.8754 156.167 27.7545 156.604 27.7545C156.704 27.7545 156.815 27.7594 156.937 27.7694C157.063 27.776 157.168 27.7876 157.251 27.8042V29.4597C157.174 29.4332 157.053 29.41 156.888 29.3901C156.725 29.3669 156.568 29.3553 156.415 29.3553C156.087 29.3553 155.792 29.4266 155.53 29.5691C155.272 29.7083 155.068 29.9022 154.919 30.1508C154.77 30.3993 154.695 30.686 154.695 31.0109V35.5002H152.895ZM161.463 35.6493C160.717 35.6493 160.071 35.4853 159.524 35.1572C158.977 34.829 158.553 34.37 158.251 33.78C157.953 33.1901 157.804 32.5007 157.804 31.7118C157.804 30.923 157.953 30.232 158.251 29.6387C158.553 29.0454 158.977 28.5847 159.524 28.2566C160.071 27.9285 160.717 27.7644 161.463 27.7644C162.208 27.7644 162.855 27.9285 163.402 28.2566C163.949 28.5847 164.371 29.0454 164.669 29.6387C164.971 30.232 165.122 30.923 165.122 31.7118C165.122 32.5007 164.971 33.1901 164.669 33.78C164.371 34.37 163.949 34.829 163.402 35.1572C162.855 35.4853 162.208 35.6493 161.463 35.6493ZM161.473 34.2076C161.877 34.2076 162.215 34.0966 162.487 33.8745C162.759 33.6491 162.961 33.3475 163.093 32.9697C163.229 32.5918 163.297 32.1709 163.297 31.7069C163.297 31.2395 163.229 30.817 163.093 30.4391C162.961 30.058 162.759 29.7547 162.487 29.5293C162.215 29.3039 161.877 29.1913 161.473 29.1913C161.058 29.1913 160.714 29.3039 160.439 29.5293C160.167 29.7547 159.963 30.058 159.827 30.4391C159.694 30.817 159.628 31.2395 159.628 31.7069C159.628 32.1709 159.694 32.5918 159.827 32.9697C159.963 33.3475 160.167 33.6491 160.439 33.8745C160.714 34.0966 161.058 34.2076 161.473 34.2076ZM171.517 32.2886V27.8638H173.316V35.5002H171.571V34.143H171.492C171.319 34.5705 171.036 34.9202 170.642 35.192C170.25 35.4637 169.768 35.5996 169.195 35.5996C168.694 35.5996 168.252 35.4886 167.867 35.2665C167.486 35.0412 167.188 34.7147 166.972 34.2871C166.757 33.8563 166.649 33.3359 166.649 32.7261V27.8638H168.449V32.4476C168.449 32.9315 168.582 33.316 168.847 33.6011C169.112 33.8861 169.46 34.0286 169.891 34.0286C170.156 34.0286 170.413 33.964 170.661 33.8347C170.91 33.7055 171.114 33.5132 171.273 33.258C171.435 32.9995 171.517 32.6763 171.517 32.2886ZM175.167 38.3638V27.8638H176.937V29.1266H177.041C177.134 28.941 177.265 28.7438 177.434 28.535C177.603 28.3229 177.832 28.1422 178.12 27.9931C178.408 27.8406 178.776 27.7644 179.224 27.7644C179.814 27.7644 180.346 27.9152 180.82 28.2168C181.297 28.5151 181.675 28.9576 181.953 29.5442C182.235 30.1276 182.376 30.8435 182.376 31.692C182.376 32.5305 182.238 33.2431 181.963 33.8297C181.688 34.4164 181.313 34.8638 180.839 35.1721C180.366 35.4803 179.829 35.6344 179.229 35.6344C178.791 35.6344 178.428 35.5615 178.14 35.4157C177.852 35.2698 177.62 35.0942 177.444 34.8887C177.272 34.6799 177.137 34.4827 177.041 34.2971H176.967V38.3638H175.167ZM176.932 31.682C176.932 32.1759 177.001 32.6084 177.141 32.9796C177.283 33.3508 177.487 33.6408 177.752 33.8496C178.021 34.0551 178.345 34.1579 178.727 34.1579C179.124 34.1579 179.457 34.0518 179.726 33.8397C179.994 33.6243 180.196 33.3309 180.332 32.9597C180.472 32.5852 180.541 32.1593 180.541 31.682C180.541 31.2081 180.473 30.7871 180.337 30.4192C180.201 30.0513 179.999 29.763 179.731 29.5542C179.462 29.3454 179.128 29.241 178.727 29.241C178.342 29.241 178.016 29.3421 177.747 29.5442C177.479 29.7464 177.275 30.0298 177.136 30.3944C177 30.759 176.932 31.1882 176.932 31.682Z" fill="#D8D8D8"/>
<path d="M85.0313 47.5H86V53.2187C86 53.7292 85.9063 54.1628 85.7188 54.5195C85.5313 54.8763 85.2669 55.1471 84.9258 55.332C84.5846 55.5169 84.1823 55.6094 83.7188 55.6094C83.2813 55.6094 82.8919 55.5299 82.5508 55.3711C82.2096 55.2096 81.9414 54.9805 81.7461 54.6836C81.5508 54.3867 81.4531 54.0339 81.4531 53.625H82.4062C82.4062 53.8516 82.4622 54.0495 82.5742 54.2187C82.6888 54.3854 82.8451 54.5156 83.043 54.6094C83.2409 54.7031 83.4661 54.75 83.7188 54.75C83.9974 54.75 84.2344 54.6914 84.4297 54.5742C84.625 54.457 84.7734 54.2852 84.875 54.0586C84.9792 53.8294 85.0313 53.5495 85.0313 53.2187V47.5ZM90.2539 55.625C89.7122 55.625 89.237 55.4961 88.8281 55.2383C88.4219 54.9805 88.1042 54.6198 87.875 54.1562C87.6484 53.6927 87.5352 53.151 87.5352 52.5312C87.5352 51.9062 87.6484 51.3607 87.875 50.8945C88.1042 50.4284 88.4219 50.0664 88.8281 49.8086C89.237 49.5508 89.7122 49.4219 90.2539 49.4219C90.7956 49.4219 91.2695 49.5508 91.6758 49.8086C92.0846 50.0664 92.4023 50.4284 92.6289 50.8945C92.8581 51.3607 92.9727 51.9062 92.9727 52.5312C92.9727 53.151 92.8581 53.6927 92.6289 54.1562C92.4023 54.6198 92.0846 54.9805 91.6758 55.2383C91.2695 55.4961 90.7956 55.625 90.2539 55.625ZM90.2539 54.7969C90.6654 54.7969 91.0039 54.6914 91.2695 54.4805C91.5352 54.2695 91.7318 53.9922 91.8594 53.6484C91.987 53.3047 92.0508 52.9323 92.0508 52.5312C92.0508 52.1302 91.987 51.7565 91.8594 51.4102C91.7318 51.0638 91.5352 50.7839 91.2695 50.5703C91.0039 50.3568 90.6654 50.25 90.2539 50.25C89.8424 50.25 89.5039 50.3568 89.2383 50.5703C88.9727 50.7839 88.776 51.0638 88.6484 51.4102C88.5208 51.7565 88.457 52.1302 88.457 52.5312C88.457 52.9323 88.5208 53.3047 88.6484 53.6484C88.776 53.9922 88.9727 54.2695 89.2383 54.4805C89.5039 54.6914 89.8424 54.7969 90.2539 54.7969ZM94.3799 55.5V49.5H95.3018V55.5H94.3799ZM94.8486 48.5C94.6689 48.5 94.514 48.4388 94.3838 48.3164C94.2562 48.194 94.1924 48.0469 94.1924 47.875C94.1924 47.7031 94.2562 47.556 94.3838 47.4336C94.514 47.3112 94.6689 47.25 94.8486 47.25C95.0283 47.25 95.182 47.3112 95.3096 47.4336C95.4398 47.556 95.5049 47.7031 95.5049 47.875C95.5049 48.0469 95.4398 48.194 95.3096 48.3164C95.182 48.4388 95.0283 48.5 94.8486 48.5ZM97.9121 51.8906V55.5H96.9902V49.5H97.8809V50.4375H97.959C98.0996 50.1328 98.3132 49.888 98.5996 49.7031C98.8861 49.5156 99.2559 49.4219 99.709 49.4219C100.115 49.4219 100.471 49.5052 100.775 49.6719C101.08 49.8359 101.317 50.0859 101.486 50.4219C101.656 50.7552 101.74 51.1771 101.74 51.6875V55.5H100.818V51.75C100.818 51.2786 100.696 50.9115 100.451 50.6484C100.206 50.3828 99.8704 50.25 99.4434 50.25C99.1491 50.25 98.8861 50.3138 98.6543 50.4414C98.4251 50.569 98.2441 50.7552 98.1113 51C97.9785 51.2448 97.9121 51.5417 97.9121 51.8906ZM108.956 55.625C108.414 55.625 107.939 55.4961 107.53 55.2383C107.124 54.9805 106.806 54.6198 106.577 54.1562C106.351 53.6927 106.237 53.151 106.237 52.5312C106.237 51.9062 106.351 51.3607 106.577 50.8945C106.806 50.4284 107.124 50.0664 107.53 49.8086C107.939 49.5508 108.414 49.4219 108.956 49.4219C109.498 49.4219 109.972 49.5508 110.378 49.8086C110.787 50.0664 111.104 50.4284 111.331 50.8945C111.56 51.3607 111.675 51.9062 111.675 52.5312C111.675 53.151 111.56 53.6927 111.331 54.1562C111.104 54.6198 110.787 54.9805 110.378 55.2383C109.972 55.4961 109.498 55.625 108.956 55.625ZM108.956 54.7969C109.368 54.7969 109.706 54.6914 109.972 54.4805C110.237 54.2695 110.434 53.9922 110.562 53.6484C110.689 53.3047 110.753 52.9323 110.753 52.5312C110.753 52.1302 110.689 51.7565 110.562 51.4102C110.434 51.0638 110.237 50.7839 109.972 50.5703C109.706 50.3568 109.368 50.25 108.956 50.25C108.545 50.25 108.206 50.3568 107.94 50.5703C107.675 50.7839 107.478 51.0638 107.351 51.4102C107.223 51.7565 107.159 52.1302 107.159 52.5312C107.159 52.9323 107.223 53.3047 107.351 53.6484C107.478 53.9922 107.675 54.2695 107.94 54.4805C108.206 54.6914 108.545 54.7969 108.956 54.7969ZM116.863 53.0469V49.5H117.785V55.5H116.863V54.4844H116.801C116.66 54.7891 116.441 55.0482 116.145 55.2617C115.848 55.4727 115.473 55.5781 115.02 55.5781C114.645 55.5781 114.311 55.4961 114.02 55.332C113.728 55.1654 113.499 54.9154 113.332 54.582C113.165 54.2461 113.082 53.8229 113.082 53.3125V49.5H114.004V53.25C114.004 53.6875 114.126 54.0365 114.371 54.2969C114.618 54.5573 114.934 54.6875 115.316 54.6875C115.546 54.6875 115.779 54.6289 116.016 54.5117C116.255 54.3945 116.456 54.2148 116.617 53.9727C116.781 53.7305 116.863 53.4219 116.863 53.0469ZM119.474 55.5V49.5H120.364V50.4062H120.427C120.536 50.1094 120.734 49.8685 121.021 49.6836C121.307 49.4987 121.63 49.4062 121.989 49.4062C122.057 49.4062 122.142 49.4076 122.243 49.4102C122.345 49.4128 122.422 49.4167 122.474 49.4219V50.3594C122.442 50.3516 122.371 50.3398 122.259 50.3242C122.149 50.306 122.034 50.2969 121.911 50.2969C121.619 50.2969 121.359 50.3581 121.13 50.4805C120.903 50.6003 120.724 50.7669 120.591 50.9805C120.461 51.1914 120.396 51.4323 120.396 51.7031V55.5H119.474ZM129.082 57.875C128.637 57.875 128.254 57.8177 127.934 57.7031C127.613 57.5911 127.346 57.4427 127.133 57.2578C126.922 57.0755 126.754 56.8802 126.629 56.6719L127.363 56.1563C127.447 56.2656 127.552 56.3906 127.68 56.5312C127.807 56.6745 127.982 56.7982 128.203 56.9023C128.427 57.0091 128.72 57.0625 129.082 57.0625C129.566 57.0625 129.966 56.9453 130.281 56.7109C130.596 56.4766 130.754 56.1094 130.754 55.6094V54.3906H130.676C130.608 54.5 130.512 54.6354 130.387 54.7969C130.264 54.9557 130.087 55.0977 129.855 55.2227C129.626 55.3451 129.316 55.4062 128.926 55.4062C128.441 55.4062 128.007 55.2917 127.621 55.0625C127.238 54.8333 126.935 54.5 126.711 54.0625C126.49 53.625 126.379 53.0937 126.379 52.4687C126.379 51.8542 126.487 51.319 126.703 50.8633C126.919 50.4049 127.22 50.0508 127.605 49.8008C127.991 49.5482 128.436 49.4219 128.941 49.4219C129.332 49.4219 129.642 49.487 129.871 49.6172C130.103 49.7448 130.28 49.8906 130.402 50.0547C130.527 50.2161 130.624 50.349 130.691 50.4531H130.785V49.5H131.676V55.6719C131.676 56.1875 131.559 56.6068 131.324 56.9297C131.092 57.2552 130.78 57.4935 130.387 57.6445C129.996 57.7982 129.561 57.875 129.082 57.875ZM129.051 54.5781C129.421 54.5781 129.733 54.4935 129.988 54.3242C130.243 54.1549 130.438 53.9115 130.57 53.5938C130.703 53.276 130.77 52.8958 130.77 52.4531C130.77 52.0208 130.704 51.6393 130.574 51.3086C130.444 50.9779 130.251 50.7187 129.996 50.5312C129.741 50.3437 129.426 50.25 129.051 50.25C128.66 50.25 128.335 50.349 128.074 50.5469C127.816 50.7448 127.622 51.0104 127.492 51.3438C127.365 51.6771 127.301 52.0469 127.301 52.4531C127.301 52.8698 127.366 53.2383 127.496 53.5586C127.629 53.8763 127.824 54.1263 128.082 54.3086C128.342 54.4883 128.665 54.5781 129.051 54.5781ZM133.363 55.5V49.5H134.254V50.4062H134.316C134.426 50.1094 134.624 49.8685 134.91 49.6836C135.197 49.4987 135.52 49.4062 135.879 49.4062C135.947 49.4062 136.031 49.4076 136.133 49.4102C136.234 49.4128 136.311 49.4167 136.363 49.4219V50.3594C136.332 50.3516 136.26 50.3398 136.148 50.3242C136.039 50.306 135.923 50.2969 135.801 50.2969C135.509 50.2969 135.249 50.3581 135.02 50.4805C134.793 50.6003 134.613 50.7669 134.48 50.9805C134.35 51.1914 134.285 51.4323 134.285 51.7031V55.5H133.363ZM139.711 55.625C139.169 55.625 138.694 55.4961 138.285 55.2383C137.879 54.9805 137.561 54.6198 137.332 54.1562C137.105 53.6927 136.992 53.151 136.992 52.5312C136.992 51.9062 137.105 51.3607 137.332 50.8945C137.561 50.4284 137.879 50.0664 138.285 49.8086C138.694 49.5508 139.169 49.4219 139.711 49.4219C140.253 49.4219 140.727 49.5508 141.133 49.8086C141.542 50.0664 141.859 50.4284 142.086 50.8945C142.315 51.3607 142.43 51.9062 142.43 52.5312C142.43 53.151 142.315 53.6927 142.086 54.1562C141.859 54.6198 141.542 54.9805 141.133 55.2383C140.727 55.4961 140.253 55.625 139.711 55.625ZM139.711 54.7969C140.122 54.7969 140.461 54.6914 140.727 54.4805C140.992 54.2695 141.189 53.9922 141.316 53.6484C141.444 53.3047 141.508 52.9323 141.508 52.5312C141.508 52.1302 141.444 51.7565 141.316 51.4102C141.189 51.0638 140.992 50.7839 140.727 50.5703C140.461 50.3568 140.122 50.25 139.711 50.25C139.299 50.25 138.961 50.3568 138.695 50.5703C138.43 50.7839 138.233 51.0638 138.105 51.4102C137.978 51.7565 137.914 52.1302 137.914 52.5312C137.914 52.9323 137.978 53.3047 138.105 53.6484C138.233 53.9922 138.43 54.2695 138.695 54.4805C138.961 54.6914 139.299 54.7969 139.711 54.7969ZM147.618 53.0469V49.5H148.54V55.5H147.618V54.4844H147.556C147.415 54.7891 147.196 55.0482 146.899 55.2617C146.603 55.4727 146.228 55.5781 145.774 55.5781C145.399 55.5781 145.066 55.4961 144.774 55.332C144.483 55.1654 144.254 54.9154 144.087 54.582C143.92 54.2461 143.837 53.8229 143.837 53.3125V49.5H144.759V53.25C144.759 53.6875 144.881 54.0365 145.126 54.2969C145.373 54.5573 145.688 54.6875 146.071 54.6875C146.3 54.6875 146.534 54.6289 146.771 54.5117C147.01 54.3945 147.211 54.2148 147.372 53.9727C147.536 53.7305 147.618 53.4219 147.618 53.0469ZM150.229 57.75V49.5H151.119V50.4531H151.229C151.296 50.349 151.39 50.2161 151.51 50.0547C151.632 49.8906 151.807 49.7448 152.033 49.6172C152.262 49.487 152.572 49.4219 152.963 49.4219C153.468 49.4219 153.913 49.5482 154.299 49.8008C154.684 50.0534 154.985 50.4115 155.201 50.875C155.417 51.3385 155.525 51.8854 155.525 52.5156C155.525 53.151 155.417 53.7018 155.201 54.168C154.985 54.6315 154.686 54.9909 154.303 55.2461C153.92 55.4987 153.479 55.625 152.979 55.625C152.593 55.625 152.285 55.5612 152.053 55.4336C151.821 55.3034 151.643 55.1562 151.518 54.9922C151.393 54.8255 151.296 54.6875 151.229 54.5781H151.15V57.75H150.229ZM151.135 52.5C151.135 52.9531 151.201 53.3529 151.334 53.6992C151.467 54.043 151.661 54.3125 151.916 54.5078C152.171 54.7005 152.484 54.7969 152.854 54.7969C153.239 54.7969 153.561 54.6953 153.818 54.4922C154.079 54.2865 154.274 54.0104 154.404 53.6641C154.537 53.3151 154.604 52.9271 154.604 52.5C154.604 52.0781 154.538 51.6979 154.408 51.3594C154.281 51.0182 154.087 50.7487 153.826 50.5508C153.568 50.3503 153.244 50.25 152.854 50.25C152.479 50.25 152.163 50.3451 151.908 50.5352C151.653 50.7227 151.46 50.9857 151.33 51.3242C151.2 51.6602 151.135 52.0521 151.135 52.5ZM162.697 49.5V50.2812H159.463V49.5H162.697ZM160.432 55.5V48.6719C160.432 48.3281 160.512 48.0417 160.674 47.8125C160.835 47.5833 161.045 47.4115 161.303 47.2969C161.561 47.1823 161.833 47.125 162.119 47.125C162.346 47.125 162.531 47.1432 162.674 47.1797C162.817 47.2161 162.924 47.25 162.994 47.2812L162.729 48.0781C162.682 48.0625 162.617 48.043 162.533 48.0195C162.452 47.9961 162.346 47.9844 162.213 47.9844C161.908 47.9844 161.688 48.0612 161.553 48.2148C161.42 48.3685 161.354 48.5937 161.354 48.8906V55.5H160.432ZM166.18 55.625C165.638 55.625 165.163 55.4961 164.754 55.2383C164.348 54.9805 164.03 54.6198 163.801 54.1562C163.574 53.6927 163.461 53.151 163.461 52.5312C163.461 51.9062 163.574 51.3607 163.801 50.8945C164.03 50.4284 164.348 50.0664 164.754 49.8086C165.163 49.5508 165.638 49.4219 166.18 49.4219C166.721 49.4219 167.195 49.5508 167.602 49.8086C168.01 50.0664 168.328 50.4284 168.555 50.8945C168.784 51.3607 168.898 51.9062 168.898 52.5312C168.898 53.151 168.784 53.6927 168.555 54.1562C168.328 54.6198 168.01 54.9805 167.602 55.2383C167.195 55.4961 166.721 55.625 166.18 55.625ZM166.18 54.7969C166.591 54.7969 166.93 54.6914 167.195 54.4805C167.461 54.2695 167.658 53.9922 167.785 53.6484C167.913 53.3047 167.977 52.9323 167.977 52.5312C167.977 52.1302 167.913 51.7565 167.785 51.4102C167.658 51.0638 167.461 50.7839 167.195 50.5703C166.93 50.3568 166.591 50.25 166.18 50.25C165.768 50.25 165.43 50.3568 165.164 50.5703C164.898 50.7839 164.702 51.0638 164.574 51.4102C164.447 51.7565 164.383 52.1302 164.383 52.5312C164.383 52.9323 164.447 53.3047 164.574 53.6484C164.702 53.9922 164.898 54.2695 165.164 54.4805C165.43 54.6914 165.768 54.7969 166.18 54.7969ZM170.306 55.5V49.5H171.196V50.4062H171.259C171.368 50.1094 171.566 49.8685 171.853 49.6836C172.139 49.4987 172.462 49.4062 172.821 49.4062C172.889 49.4062 172.974 49.4076 173.075 49.4102C173.177 49.4128 173.254 49.4167 173.306 49.4219V50.3594C173.274 50.3516 173.203 50.3398 173.091 50.3242C172.981 50.306 172.866 50.2969 172.743 50.2969C172.451 50.2969 172.191 50.3581 171.962 50.4805C171.735 50.6003 171.556 50.7669 171.423 50.9805C171.293 51.1914 171.228 51.4323 171.228 51.7031V55.5H170.306ZM177.492 55.5V49.5H178.383V50.4375H178.461C178.586 50.1172 178.788 49.8685 179.066 49.6914C179.345 49.5117 179.68 49.4219 180.07 49.4219C180.466 49.4219 180.796 49.5117 181.059 49.6914C181.324 49.8685 181.531 50.1172 181.68 50.4375H181.742C181.896 50.1276 182.126 49.8815 182.434 49.6992C182.741 49.5143 183.109 49.4219 183.539 49.4219C184.076 49.4219 184.514 49.5898 184.855 49.9258C185.197 50.2591 185.367 50.7786 185.367 51.4844V55.5H184.445V51.4844C184.445 51.0417 184.324 50.7253 184.082 50.5352C183.84 50.3451 183.555 50.25 183.227 50.25C182.805 50.25 182.478 50.3776 182.246 50.6328C182.014 50.8854 181.898 51.2057 181.898 51.5937V55.5H180.961V51.3906C180.961 51.0495 180.85 50.7747 180.629 50.5664C180.408 50.3555 180.122 50.25 179.773 50.25C179.534 50.25 179.31 50.3138 179.102 50.4414C178.896 50.569 178.729 50.7461 178.602 50.9727C178.477 51.1966 178.414 51.4557 178.414 51.75V55.5H177.492ZM189.49 55.625C188.949 55.625 188.473 55.4961 188.064 55.2383C187.658 54.9805 187.34 54.6198 187.111 54.1562C186.885 53.6927 186.771 53.151 186.771 52.5312C186.771 51.9062 186.885 51.3607 187.111 50.8945C187.34 50.4284 187.658 50.0664 188.064 49.8086C188.473 49.5508 188.949 49.4219 189.49 49.4219C190.032 49.4219 190.506 49.5508 190.912 49.8086C191.321 50.0664 191.639 50.4284 191.865 50.8945C192.094 51.3607 192.209 51.9062 192.209 52.5312C192.209 53.151 192.094 53.6927 191.865 54.1562C191.639 54.6198 191.321 54.9805 190.912 55.2383C190.506 55.4961 190.032 55.625 189.49 55.625ZM189.49 54.7969C189.902 54.7969 190.24 54.6914 190.506 54.4805C190.771 54.2695 190.968 53.9922 191.096 53.6484C191.223 53.3047 191.287 52.9323 191.287 52.5312C191.287 52.1302 191.223 51.7565 191.096 51.4102C190.968 51.0638 190.771 50.7839 190.506 50.5703C190.24 50.3568 189.902 50.25 189.49 50.25C189.079 50.25 188.74 50.3568 188.475 50.5703C188.209 50.7839 188.012 51.0638 187.885 51.4102C187.757 51.7565 187.693 52.1302 187.693 52.5312C187.693 52.9323 187.757 53.3047 187.885 53.6484C188.012 53.9922 188.209 54.2695 188.475 54.4805C188.74 54.6914 189.079 54.7969 189.49 54.7969ZM193.616 55.5V49.5H194.507V50.4062H194.569C194.679 50.1094 194.877 49.8685 195.163 49.6836C195.45 49.4987 195.772 49.4062 196.132 49.4062C196.2 49.4062 196.284 49.4076 196.386 49.4102C196.487 49.4128 196.564 49.4167 196.616 49.4219V50.3594C196.585 50.3516 196.513 50.3398 196.401 50.3242C196.292 50.306 196.176 50.2969 196.054 50.2969C195.762 50.2969 195.502 50.3581 195.272 50.4805C195.046 50.6003 194.866 50.7669 194.733 50.9805C194.603 51.1914 194.538 51.4323 194.538 51.7031V55.5H193.616ZM200.042 55.625C199.464 55.625 198.965 55.4974 198.546 55.2422C198.129 54.9844 197.808 54.625 197.581 54.1641C197.357 53.7005 197.245 53.1615 197.245 52.5469C197.245 51.9323 197.357 51.3906 197.581 50.9219C197.808 50.4505 198.123 50.0833 198.526 49.8203C198.933 49.5547 199.407 49.4219 199.948 49.4219C200.261 49.4219 200.569 49.474 200.874 49.5781C201.179 49.6823 201.456 49.8516 201.706 50.0859C201.956 50.3177 202.155 50.625 202.304 51.0078C202.452 51.3906 202.526 51.862 202.526 52.4219V52.8125H197.901V52.0156H201.589C201.589 51.6771 201.521 51.375 201.386 51.1094C201.253 50.8437 201.063 50.6341 200.815 50.4805C200.571 50.3268 200.282 50.25 199.948 50.25C199.581 50.25 199.263 50.3411 198.995 50.5234C198.729 50.7031 198.525 50.9375 198.382 51.2266C198.239 51.5156 198.167 51.8255 198.167 52.1562V52.6875C198.167 53.1406 198.245 53.5247 198.401 53.8398C198.56 54.1523 198.78 54.3906 199.062 54.5547C199.343 54.7161 199.67 54.7969 200.042 54.7969C200.284 54.7969 200.503 54.763 200.698 54.6953C200.896 54.625 201.067 54.5208 201.21 54.3828C201.353 54.2422 201.464 54.0677 201.542 53.8594L202.433 54.1094C202.339 54.4115 202.181 54.6771 201.96 54.9062C201.739 55.1328 201.465 55.3099 201.14 55.4375C200.814 55.5625 200.448 55.625 200.042 55.625ZM207.022 55.5V49.5H207.944V55.5H207.022ZM207.491 48.5C207.312 48.5 207.157 48.4388 207.026 48.3164C206.899 48.194 206.835 48.0469 206.835 47.875C206.835 47.7031 206.899 47.556 207.026 47.4336C207.157 47.3112 207.312 47.25 207.491 47.25C207.671 47.25 207.825 47.3112 207.952 47.4336C208.082 47.556 208.147 47.7031 208.147 47.875C208.147 48.0469 208.082 48.194 207.952 48.3164C207.825 48.4388 207.671 48.5 207.491 48.5ZM210.555 51.8906V55.5H209.633V49.5H210.523V50.4375H210.602C210.742 50.1328 210.956 49.888 211.242 49.7031C211.529 49.5156 211.898 49.4219 212.352 49.4219C212.758 49.4219 213.113 49.5052 213.418 49.6719C213.723 49.8359 213.96 50.0859 214.129 50.4219C214.298 50.7552 214.383 51.1771 214.383 51.6875V55.5H213.461V51.75C213.461 51.2786 213.339 50.9115 213.094 50.6484C212.849 50.3828 212.513 50.25 212.086 50.25C211.792 50.25 211.529 50.3138 211.297 50.4414C211.068 50.569 210.887 50.7552 210.754 51C210.621 51.2448 210.555 51.5417 210.555 51.8906ZM218.739 49.5V50.2812H215.505V49.5H218.739ZM216.474 55.5V48.6719C216.474 48.3281 216.554 48.0417 216.716 47.8125C216.877 47.5833 217.087 47.4115 217.345 47.2969C217.603 47.1823 217.875 47.125 218.161 47.125C218.388 47.125 218.573 47.1432 218.716 47.1797C218.859 47.2161 218.966 47.25 219.036 47.2812L218.771 48.0781C218.724 48.0625 218.659 48.043 218.575 48.0195C218.494 47.9961 218.388 47.9844 218.255 47.9844C217.95 47.9844 217.73 48.0612 217.595 48.2148C217.462 48.3685 217.396 48.5937 217.396 48.8906V55.5H216.474ZM222.222 55.625C221.68 55.625 221.205 55.4961 220.796 55.2383C220.39 54.9805 220.072 54.6198 219.843 54.1562C219.616 53.6927 219.503 53.151 219.503 52.5312C219.503 51.9062 219.616 51.3607 219.843 50.8945C220.072 50.4284 220.39 50.0664 220.796 49.8086C221.205 49.5508 221.68 49.4219 222.222 49.4219C222.763 49.4219 223.237 49.5508 223.644 49.8086C224.052 50.0664 224.37 50.4284 224.597 50.8945C224.826 51.3607 224.94 51.9062 224.94 52.5312C224.94 53.151 224.826 53.6927 224.597 54.1562C224.37 54.6198 224.052 54.9805 223.644 55.2383C223.237 55.4961 222.763 55.625 222.222 55.625ZM222.222 54.7969C222.633 54.7969 222.972 54.6914 223.237 54.4805C223.503 54.2695 223.7 53.9922 223.827 53.6484C223.955 53.3047 224.019 52.9323 224.019 52.5312C224.019 52.1302 223.955 51.7565 223.827 51.4102C223.7 51.0638 223.503 50.7839 223.237 50.5703C222.972 50.3568 222.633 50.25 222.222 50.25C221.81 50.25 221.472 50.3568 221.206 50.5703C220.94 50.7839 220.744 51.0638 220.616 51.4102C220.489 51.7565 220.425 52.1302 220.425 52.5312C220.425 52.9323 220.489 53.3047 220.616 53.6484C220.744 53.9922 220.94 54.2695 221.206 54.4805C221.472 54.6914 221.81 54.7969 222.222 54.7969ZM231.707 55.6094C231.181 55.6094 230.728 55.513 230.348 55.3203C229.967 55.1276 229.674 54.8633 229.469 54.5273C229.263 54.1914 229.16 53.8073 229.16 53.375C229.16 53.0417 229.23 52.7461 229.371 52.4883C229.514 52.2279 229.711 51.987 229.961 51.7656C230.214 51.5417 230.504 51.3177 230.832 51.0937L231.988 50.2344C232.215 50.0859 232.396 49.9271 232.531 49.7578C232.669 49.5885 232.738 49.3672 232.738 49.0937C232.738 48.8906 232.648 48.694 232.469 48.5039C232.292 48.3138 232.059 48.2188 231.77 48.2188C231.566 48.2188 231.387 48.2708 231.23 48.375C231.077 48.4766 230.956 48.6068 230.867 48.7656C230.781 48.9219 230.738 49.0833 230.738 49.25C230.738 49.4375 230.789 49.6276 230.891 49.8203C230.995 50.0104 231.126 50.2057 231.285 50.4062C231.447 50.6042 231.613 50.8073 231.785 51.0156L235.457 55.5H234.348L231.316 51.8437C231.035 51.5052 230.78 51.1979 230.551 50.9219C230.322 50.6458 230.139 50.3737 230.004 50.1055C229.868 49.8372 229.801 49.5469 229.801 49.2344C229.801 48.875 229.88 48.5599 230.039 48.2891C230.201 48.0156 230.426 47.8034 230.715 47.6523C231.007 47.4987 231.348 47.4219 231.738 47.4219C232.139 47.4219 232.484 47.5 232.773 47.6562C233.063 47.8099 233.285 48.0143 233.441 48.2695C233.598 48.5221 233.676 48.7969 233.676 49.0937C233.676 49.4766 233.581 49.8086 233.391 50.0898C233.201 50.3711 232.941 50.6328 232.613 50.875L231.02 52.0625C230.66 52.3281 230.417 52.5859 230.289 52.8359C230.161 53.0859 230.098 53.2656 230.098 53.375C230.098 53.625 230.163 53.8581 230.293 54.0742C230.423 54.2904 230.607 54.4648 230.844 54.5977C231.081 54.7305 231.358 54.7969 231.676 54.7969C231.978 54.7969 232.272 54.7331 232.559 54.6055C232.845 54.4753 233.104 54.2878 233.336 54.043C233.57 53.7982 233.755 53.5039 233.891 53.1602C234.029 52.8164 234.098 52.4297 234.098 52H234.988C234.988 52.5312 234.927 52.9648 234.805 53.3008C234.682 53.6367 234.544 53.8997 234.391 54.0898C234.237 54.2799 234.113 54.4219 234.02 54.5156C233.988 54.5547 233.96 54.5937 233.934 54.6328C233.908 54.6719 233.879 54.7109 233.848 54.75C233.59 55.0391 233.264 55.2552 232.871 55.3984C232.478 55.5391 232.09 55.6094 231.707 55.6094ZM242.165 55.5H239.696V47.5H242.274C243.05 47.5 243.715 47.6602 244.267 47.9805C244.819 48.2982 245.242 48.7552 245.536 49.3516C245.83 49.9453 245.978 50.6562 245.978 51.4844C245.978 52.3177 245.829 53.0352 245.532 53.6367C245.235 54.2357 244.803 54.6966 244.235 55.0195C243.668 55.3398 242.978 55.5 242.165 55.5ZM240.665 54.6406H242.103C242.764 54.6406 243.312 54.513 243.747 54.2578C244.182 54.0026 244.506 53.6393 244.72 53.168C244.933 52.6966 245.04 52.1354 245.04 51.4844C245.04 50.8385 244.935 50.2826 244.724 49.8164C244.513 49.3477 244.198 48.9883 243.778 48.7383C243.359 48.4857 242.837 48.3594 242.212 48.3594H240.665V54.6406ZM247.478 55.5V49.5H248.399V55.5H247.478ZM247.946 48.5C247.767 48.5 247.612 48.4388 247.481 48.3164C247.354 48.194 247.29 48.0469 247.29 47.875C247.29 47.7031 247.354 47.556 247.481 47.4336C247.612 47.3112 247.767 47.25 247.946 47.25C248.126 47.25 248.28 47.3112 248.407 47.4336C248.537 47.556 248.603 47.7031 248.603 47.875C248.603 48.0469 248.537 48.194 248.407 48.3164C248.28 48.4388 248.126 48.5 247.946 48.5ZM254.338 50.8437L253.51 51.0781C253.458 50.9401 253.381 50.806 253.279 50.6758C253.18 50.543 253.045 50.4336 252.873 50.3477C252.701 50.2617 252.481 50.2187 252.213 50.2187C251.846 50.2187 251.54 50.3034 251.295 50.4727C251.053 50.6393 250.932 50.8516 250.932 51.1094C250.932 51.3385 251.015 51.5195 251.182 51.6523C251.348 51.7852 251.609 51.8958 251.963 51.9844L252.854 52.2031C253.39 52.3333 253.79 52.5326 254.053 52.8008C254.316 53.0664 254.447 53.4089 254.447 53.8281C254.447 54.1719 254.348 54.4792 254.15 54.75C253.955 55.0208 253.682 55.2344 253.33 55.3906C252.979 55.5469 252.57 55.625 252.104 55.625C251.492 55.625 250.985 55.4922 250.584 55.2266C250.183 54.9609 249.929 54.5729 249.822 54.0625L250.697 53.8437C250.781 54.1667 250.938 54.4089 251.17 54.5703C251.404 54.7318 251.71 54.8125 252.088 54.8125C252.518 54.8125 252.859 54.7214 253.111 54.5391C253.367 54.3542 253.494 54.1328 253.494 53.875C253.494 53.6667 253.421 53.4922 253.275 53.3516C253.13 53.2083 252.906 53.1016 252.604 53.0312L251.604 52.7969C251.054 52.6667 250.65 52.4648 250.393 52.1914C250.137 51.9154 250.01 51.5703 250.01 51.1562C250.01 50.8177 250.105 50.5182 250.295 50.2578C250.488 49.9974 250.749 49.793 251.08 49.6445C251.413 49.4961 251.791 49.4219 252.213 49.4219C252.807 49.4219 253.273 49.5521 253.611 49.8125C253.952 50.0729 254.195 50.4167 254.338 50.8437ZM258.272 55.625C257.71 55.625 257.226 55.4922 256.819 55.2266C256.413 54.9609 256.101 54.5951 255.882 54.1289C255.663 53.6628 255.554 53.1302 255.554 52.5312C255.554 51.9219 255.666 51.3841 255.89 50.918C256.116 50.4492 256.431 50.0833 256.835 49.8203C257.241 49.5547 257.715 49.4219 258.257 49.4219C258.679 49.4219 259.059 49.5 259.397 49.6562C259.736 49.8125 260.013 50.0312 260.229 50.3125C260.446 50.5937 260.58 50.9219 260.632 51.2969H259.71C259.64 51.0234 259.483 50.7812 259.241 50.5703C259.002 50.3568 258.679 50.25 258.272 50.25C257.913 50.25 257.598 50.3437 257.327 50.5312C257.059 50.7161 256.849 50.9779 256.698 51.3164C256.55 51.6523 256.476 52.0469 256.476 52.5C256.476 52.9635 256.549 53.3672 256.694 53.7109C256.843 54.0547 257.051 54.3216 257.319 54.5117C257.59 54.7018 257.908 54.7969 258.272 54.7969C258.512 54.7969 258.729 54.7552 258.925 54.6719C259.12 54.5885 259.285 54.4688 259.421 54.3125C259.556 54.1562 259.653 53.9687 259.71 53.75H260.632C260.58 54.1042 260.451 54.4232 260.245 54.707C260.042 54.9883 259.772 55.2122 259.437 55.3789C259.103 55.543 258.715 55.625 258.272 55.625ZM265.761 53.0469V49.5H266.683V55.5H265.761V54.4844H265.698C265.558 54.7891 265.339 55.0482 265.042 55.2617C264.745 55.4727 264.37 55.5781 263.917 55.5781C263.542 55.5781 263.209 55.4961 262.917 55.332C262.625 55.1654 262.396 54.9154 262.229 54.582C262.063 54.2461 261.979 53.8229 261.979 53.3125V49.5H262.901V53.25C262.901 53.6875 263.024 54.0365 263.269 54.2969C263.516 54.5573 263.831 54.6875 264.214 54.6875C264.443 54.6875 264.676 54.6289 264.913 54.5117C265.153 54.3945 265.353 54.2148 265.515 53.9727C265.679 53.7305 265.761 53.4219 265.761 53.0469ZM272.621 50.8437L271.793 51.0781C271.741 50.9401 271.664 50.806 271.563 50.6758C271.464 50.543 271.328 50.4336 271.156 50.3477C270.984 50.2617 270.764 50.2187 270.496 50.2187C270.129 50.2187 269.823 50.3034 269.578 50.4727C269.336 50.6393 269.215 50.8516 269.215 51.1094C269.215 51.3385 269.298 51.5195 269.465 51.6523C269.632 51.7852 269.892 51.8958 270.246 51.9844L271.137 52.2031C271.673 52.3333 272.073 52.5326 272.336 52.8008C272.599 53.0664 272.73 53.4089 272.73 53.8281C272.73 54.1719 272.632 54.4792 272.434 54.75C272.238 55.0208 271.965 55.2344 271.613 55.3906C271.262 55.5469 270.853 55.625 270.387 55.625C269.775 55.625 269.268 55.4922 268.867 55.2266C268.466 54.9609 268.212 54.5729 268.105 54.0625L268.98 53.8437C269.064 54.1667 269.221 54.4089 269.453 54.5703C269.688 54.7318 269.993 54.8125 270.371 54.8125C270.801 54.8125 271.142 54.7214 271.395 54.5391C271.65 54.3542 271.777 54.1328 271.777 53.875C271.777 53.6667 271.704 53.4922 271.559 53.3516C271.413 53.2083 271.189 53.1016 270.887 53.0312L269.887 52.7969C269.337 52.6667 268.934 52.4648 268.676 52.1914C268.421 51.9154 268.293 51.5703 268.293 51.1562C268.293 50.8177 268.388 50.5182 268.578 50.2578C268.771 49.9974 269.033 49.793 269.363 49.6445C269.697 49.4961 270.074 49.4219 270.496 49.4219C271.09 49.4219 271.556 49.5521 271.895 49.8125C272.236 50.0729 272.478 50.4167 272.621 50.8437ZM278.368 50.8437L277.54 51.0781C277.488 50.9401 277.411 50.806 277.31 50.6758C277.211 50.543 277.075 50.4336 276.903 50.3477C276.731 50.2617 276.511 50.2187 276.243 50.2187C275.876 50.2187 275.57 50.3034 275.325 50.4727C275.083 50.6393 274.962 50.8516 274.962 51.1094C274.962 51.3385 275.045 51.5195 275.212 51.6523C275.379 51.7852 275.639 51.8958 275.993 51.9844L276.884 52.2031C277.42 52.3333 277.82 52.5326 278.083 52.8008C278.346 53.0664 278.478 53.4089 278.478 53.8281C278.478 54.1719 278.379 54.4792 278.181 54.75C277.985 55.0208 277.712 55.2344 277.36 55.3906C277.009 55.5469 276.6 55.625 276.134 55.625C275.522 55.625 275.015 55.4922 274.614 55.2266C274.213 54.9609 273.959 54.5729 273.853 54.0625L274.728 53.8437C274.811 54.1667 274.968 54.4089 275.2 54.5703C275.435 54.7318 275.741 54.8125 276.118 54.8125C276.548 54.8125 276.889 54.7214 277.142 54.5391C277.397 54.3542 277.524 54.1328 277.524 53.875C277.524 53.6667 277.451 53.4922 277.306 53.3516C277.16 53.2083 276.936 53.1016 276.634 53.0312L275.634 52.7969C275.084 52.6667 274.681 52.4648 274.423 52.1914C274.168 51.9154 274.04 51.5703 274.04 51.1562C274.04 50.8177 274.135 50.5182 274.325 50.2578C274.518 49.9974 274.78 49.793 275.11 49.6445C275.444 49.4961 275.821 49.4219 276.243 49.4219C276.837 49.4219 277.303 49.5521 277.642 49.8125C277.983 50.0729 278.225 50.4167 278.368 50.8437ZM279.865 55.5V49.5H280.787V55.5H279.865ZM280.334 48.5C280.154 48.5 279.999 48.4388 279.869 48.3164C279.742 48.194 279.678 48.0469 279.678 47.875C279.678 47.7031 279.742 47.556 279.869 47.4336C279.999 47.3112 280.154 47.25 280.334 47.25C280.514 47.25 280.667 47.3112 280.795 47.4336C280.925 47.556 280.99 47.7031 280.99 47.875C280.99 48.0469 280.925 48.194 280.795 48.3164C280.667 48.4388 280.514 48.5 280.334 48.5ZM284.913 55.625C284.371 55.625 283.896 55.4961 283.487 55.2383C283.081 54.9805 282.763 54.6198 282.534 54.1562C282.308 53.6927 282.194 53.151 282.194 52.5312C282.194 51.9062 282.308 51.3607 282.534 50.8945C282.763 50.4284 283.081 50.0664 283.487 49.8086C283.896 49.5508 284.371 49.4219 284.913 49.4219C285.455 49.4219 285.929 49.5508 286.335 49.8086C286.744 50.0664 287.062 50.4284 287.288 50.8945C287.517 51.3607 287.632 51.9062 287.632 52.5312C287.632 53.151 287.517 53.6927 287.288 54.1562C287.062 54.6198 286.744 54.9805 286.335 55.2383C285.929 55.4961 285.455 55.625 284.913 55.625ZM284.913 54.7969C285.325 54.7969 285.663 54.6914 285.929 54.4805C286.194 54.2695 286.391 53.9922 286.519 53.6484C286.646 53.3047 286.71 52.9323 286.71 52.5312C286.71 52.1302 286.646 51.7565 286.519 51.4102C286.391 51.0638 286.194 50.7839 285.929 50.5703C285.663 50.3568 285.325 50.25 284.913 50.25C284.502 50.25 284.163 50.3568 283.897 50.5703C283.632 50.7839 283.435 51.0638 283.308 51.4102C283.18 51.7565 283.116 52.1302 283.116 52.5312C283.116 52.9323 283.18 53.3047 283.308 53.6484C283.435 53.9922 283.632 54.2695 283.897 54.4805C284.163 54.6914 284.502 54.7969 284.913 54.7969ZM289.961 51.8906V55.5H289.039V49.5H289.93V50.4375H290.008C290.148 50.1328 290.362 49.888 290.648 49.7031C290.935 49.5156 291.305 49.4219 291.758 49.4219C292.164 49.4219 292.52 49.5052 292.824 49.6719C293.129 49.8359 293.366 50.0859 293.535 50.4219C293.704 50.7552 293.789 51.1771 293.789 51.6875V55.5H292.867V51.75C292.867 51.2786 292.745 50.9115 292.5 50.6484C292.255 50.3828 291.919 50.25 291.492 50.25C291.198 50.25 290.935 50.3138 290.703 50.4414C290.474 50.569 290.293 50.7552 290.16 51C290.027 51.2448 289.961 51.5417 289.961 51.8906ZM296.146 55.5625C295.953 55.5625 295.787 55.4935 295.649 55.3555C295.511 55.2174 295.442 55.0521 295.442 54.8594C295.442 54.6667 295.511 54.5013 295.649 54.3633C295.787 54.2253 295.953 54.1562 296.146 54.1562C296.338 54.1562 296.504 54.2253 296.642 54.3633C296.78 54.5013 296.849 54.6667 296.849 54.8594C296.849 54.987 296.816 55.1042 296.751 55.2109C296.688 55.3177 296.604 55.4036 296.497 55.4687C296.393 55.5313 296.276 55.5625 296.146 55.5625Z" fill="#838587"/>
<path d="M345 26.5H334C326.268 26.5 320 32.768 320 40.5C320 48.232 326.268 54.5 334 54.5H345C352.732 54.5 359 48.232 359 40.5C359 32.768 352.732 26.5 345 26.5Z" fill="#3D3D3D" stroke="#545454" stroke-width="2"/>
<path d="M345.25 36.75L349 40.5M349 40.5L345.25 44.25M349 40.5H331" stroke="white" stroke-width="1.5" stroke-linecap="round" stroke-linejoin="round"/>
</g>
<defs>
<clipPath id="clip0_7195_83728">
<rect width="374" height="81" rx="15" fill="white"/>
</clipPath>
</defs>
</svg>
