<svg width="56" height="56" viewBox="0 0 56 56" fill="none" xmlns="http://www.w3.org/2000/svg">
<path d="M32.4289 41.5746C32.3465 41.5746 32.7242 41.5403 33.5618 41.4716C34.4132 41.403 35.0518 41.3137 35.4775 41.2038V41.3892C35.4775 41.2656 35.4294 41.0734 35.3333 40.8125C35.2509 40.5516 35.1342 40.2494 34.9831 39.9061C34.8321 39.5491 34.6742 39.2127 34.5094 38.8968C34.3446 38.5672 34.372 38.5398 34.5918 38.8144C34.4544 39.0616 34.0974 39.5491 33.5206 40.2769C32.9439 40.991 32.58 41.4236 32.4289 41.5746ZM25.5078 48.6811C25.1645 48.5987 24.9929 48.2348 24.9929 47.5894C24.9929 47.3971 24.9997 47.1431 25.0135 46.8272C25.0272 46.5114 25.0478 46.1269 25.0753 45.6737C25.1165 45.2343 25.1645 44.8086 25.2194 44.3966C25.2744 43.9846 25.3293 43.607 25.3842 43.2637C25.4529 42.9341 25.5147 42.7075 25.5696 42.5839C25.6932 42.1445 26.0091 41.9248 26.5172 41.9248C26.9841 41.9111 27.3411 41.863 27.5883 41.7806C27.8492 41.6845 28.0208 41.6089 28.1032 41.554C28.3642 41.2656 28.7143 40.8605 29.1538 40.3387C29.5932 39.8169 30.0464 39.2676 30.5133 38.6908C30.9939 38.1003 31.4402 37.5167 31.8522 36.94C32.2641 36.3632 32.5456 35.9169 32.6967 35.6011C32.1062 34.3651 31.3578 33.1224 30.4515 31.8727C29.5451 30.6094 28.5564 29.4284 27.4853 28.3298C26.4142 27.2175 25.3018 26.2081 24.1483 25.3018C22.9948 24.3817 22.0336 23.6951 21.2645 23.242C21.2645 23.242 21.1615 23.393 20.9556 23.6951C20.7633 23.9835 20.4612 24.1277 20.0492 24.1277H19.8844C19.445 24.059 18.8888 23.8874 18.216 23.6127C17.5568 23.3381 16.8977 23.0016 16.2385 22.6034C15.5931 22.1914 15.0163 21.7245 14.5082 21.2027C14.0001 20.6672 13.7461 20.0973 13.7461 19.493C13.7461 19.3969 13.7598 19.1978 13.7873 18.8957C13.8285 18.5936 13.8766 18.2434 13.9315 17.8452C14.0001 17.4332 14.0757 16.98 14.1581 16.4857C14.2405 15.9913 14.3229 15.5175 14.4052 15.0644C14.5014 14.6112 14.5975 14.1855 14.6936 13.7873C14.8035 13.389 14.9065 13.0663 15.0026 12.8191C15.2223 12.1874 15.5588 11.8716 16.0119 11.8716C16.2866 11.8716 16.6161 11.9952 17.0007 12.2424C18.47 13.1762 19.8982 14.2404 21.2851 15.4351C22.6721 16.6161 23.9767 17.8589 25.1989 19.1635C26.4348 20.4543 27.5814 21.7589 28.6388 23.0772C29.7099 24.3817 30.6712 25.6383 31.5226 26.8467C32.374 28.0551 33.1018 29.1812 33.706 30.2248C34.3102 31.2685 34.5986 31.7491 34.5712 31.6667C35.0793 30.2111 35.553 28.2474 35.9925 25.7756C36.3632 23.7981 36.5486 21.8413 36.5486 19.905C36.5486 19.4244 36.5349 18.9575 36.5074 18.5043C36.4662 17.7765 36.425 17.1173 36.3838 16.5269C36.3426 15.9364 36.3014 15.4969 36.2602 15.2086C36.219 15.0163 36.1435 14.7966 36.0337 14.5494C35.9238 14.3022 35.8071 14.0619 35.6835 13.8285C35.5736 13.5813 35.4569 13.3547 35.3333 13.1487C35.2234 12.9427 35.1342 12.7711 35.0655 12.6337C34.9419 12.3179 34.8801 12.1188 34.8801 12.0364C34.8801 11.8853 34.9694 11.6999 35.1479 11.4802C35.3402 11.2605 35.5462 10.9927 35.7659 10.6769C35.9993 10.361 36.2328 10.0383 36.4662 9.70876C36.7134 9.37918 36.9537 9.04961 37.1872 8.72003C37.4206 8.39046 37.6197 8.11581 37.7845 7.89609C37.9905 7.51159 38.2926 7.31934 38.6909 7.31934C39.1028 7.31934 39.3706 7.54592 39.4942 7.99909C39.6315 8.39732 39.7894 8.87109 39.968 9.42038C40.1602 9.96967 40.3662 10.5121 40.5859 11.0477C40.8194 11.5832 41.0597 12.0707 41.3069 12.5102C41.554 12.9496 41.8699 13.341 42.2544 13.6843C41.609 14.5631 41.1283 15.2223 40.8125 15.6617C40.4967 16.1012 40.3387 16.5269 40.3387 16.9388V17.0212C40.4211 17.8864 40.4623 18.7652 40.4623 19.6578C40.4623 20.4543 40.4074 21.4842 40.2975 22.7476C40.1877 23.9972 39.9542 25.4254 39.5972 27.0321C39.2539 28.6388 38.8144 30.1699 38.2789 31.6255C37.7571 33.0812 37.2078 34.3308 36.631 35.3745C36.8507 35.8002 37.091 36.2945 37.352 36.8576C37.6266 37.4206 37.8669 37.9767 38.0729 38.526C38.2926 39.0616 38.478 39.5697 38.6291 40.0503C38.7801 40.5172 38.8694 40.9155 38.8968 41.245C38.8968 41.6158 38.8762 42.0758 38.835 42.6251C38.7938 43.1744 38.7252 43.7443 38.6291 44.3348C38.5329 44.9253 38.4162 45.4952 38.2789 46.0445C38.1416 46.5938 37.963 47.095 37.7433 47.5482C37.1666 47.6855 36.5623 47.8022 35.9307 47.8983C35.3127 47.9945 34.633 48.0769 33.8914 48.1455C33.1636 48.2142 32.4083 48.2829 31.6256 48.3515C30.8428 48.4339 30.0807 48.4957 29.3391 48.5369C28.5976 48.5781 27.9041 48.6124 27.2587 48.6399C26.6133 48.6674 26.0297 48.6811 25.5078 48.6811Z" fill="white"/>
</svg>
