
<svg xmlns="http://www.w3.org/2000/svg" width="18" height="18" viewBox="0 0 18 18" fill="none">
  <path d="M15.975 9.17285H13.365C12.63 9.17285 11.9775 9.57785 11.6475 10.2379L11.0175 11.4829C10.8675 11.7829 10.5675 11.9704 10.2375 11.9704H7.7775C7.545 11.9704 7.215 11.9179 6.9975 11.4829L6.3675 10.2454C6.0375 9.59285 5.3775 9.18035 4.65 9.18035H2.025C1.7325 9.18035 1.5 9.41285 1.5 9.70535V12.1504C1.5 14.8729 3.135 16.5004 5.865 16.5004H12.15C14.7225 16.5004 16.305 15.0904 16.5 12.5854V9.69785C16.5 9.41285 16.2675 9.17285 15.975 9.17285Z" fill="#614730"/>
  <path d="M12.1425 1.5H5.8575C3.1275 1.5 1.5 3.1275 1.5 5.8575V8.1375C1.665 8.0775 1.845 8.0475 2.025 8.0475H4.65C5.8125 8.0475 6.855 8.6925 7.3725 9.735L7.935 10.8375H10.08L10.6425 9.7275C11.16 8.6925 12.2025 8.0475 13.365 8.0475H15.975C16.155 8.0475 16.335 8.0775 16.5 8.1375V5.8575C16.5 3.1275 14.8725 1.5 12.1425 1.5ZM7.8375 4.0575H10.1625C10.4475 4.0575 10.6875 4.29 10.6875 4.575C10.6875 4.8675 10.4475 5.1 10.1625 5.1H7.8375C7.5525 5.1 7.3125 4.8675 7.3125 4.575C7.3125 4.29 7.5525 4.0575 7.8375 4.0575ZM10.7475 7.1925H7.2525C6.9675 7.1925 6.735 6.96 6.735 6.675C6.735 6.3825 6.9675 6.15 7.2525 6.15H10.7475C11.0325 6.15 11.265 6.3825 11.265 6.675C11.265 6.96 11.0325 7.1925 10.7475 7.1925Z" fill="#614730"/>
</svg>