<svg width="25" height="24" viewBox="0 0 25 24" fill="none" xmlns="http://www.w3.org/2000/svg">
<path d="M22.5 4.67003V16.74C22.5 17.7 21.72 18.6 20.76 18.72L20.43 18.76C18.25 19.05 14.89 20.16 12.97 21.22C12.84 21.3 12.68 21.33 12.5 21.33V5.30003C12.69 5.30003 12.88 5.25003 13.03 5.16003L13.2 5.05003C14.98 3.93003 18.17 2.86003 20.27 2.68003H20.33C21.52 2.58003 22.5 3.47003 22.5 4.67003Z" fill="#614730"/>
<path opacity="0.4" fill-rule="evenodd" clip-rule="evenodd" d="M12.5 5.30019V21.3302C12.33 21.3302 12.15 21.3002 12.01 21.2202L11.97 21.2002C10.05 20.1502 6.7 19.0502 4.53 18.7602L4.24 18.7202C3.28 18.6002 2.5 17.7002 2.5 16.7402V4.66019C2.5 3.47019 3.47 2.57019 4.66 2.67019C6.76 2.84019 9.94 3.90019 11.72 5.01019L11.97 5.16019C12.12 5.25019 12.31 5.30019 12.5 5.30019ZM8.25 9.24023H6C5.59 9.24023 5.25 8.90023 5.25 8.49023C5.25 8.08023 5.59 7.74023 6 7.74023H8.25C8.66 7.74023 9 8.08023 9 8.49023C9 8.90023 8.66 9.24023 8.25 9.24023ZM6 12.2402H9C9.41 12.2402 9.75 11.9002 9.75 11.4902C9.75 11.0802 9.41 10.7402 9 10.7402H6C5.59 10.7402 5.25 11.0802 5.25 11.4902C5.25 11.9002 5.59 12.2402 6 12.2402Z" fill="#614730"/>
</svg>
