<svg width="25" height="24" viewBox="0 0 25 24" fill="none" xmlns="http://www.w3.org/2000/svg">
<g id="dua">
<path id="Vector" d="M18.4911 10.947C18.231 10.8505 17.9363 10.7827 17.6008 10.7593C16.6534 10.6933 15.9625 11.1276 15.7182 11.2812L15.7154 11.283C15.6673 11.3132 15.622 11.3474 15.5797 11.3853L13.2539 13.4723V21.9999H16.5C16.7791 21.9999 17.0455 21.8832 17.2348 21.6782L22.7044 15.7529C23.2159 15.1987 23.5 14.4722 23.5 13.718V7C23.5 5.89543 22.6046 5 21.5 5C20.9498 5 20.4245 5.22291 19.9911 5.51964V12.9236C19.9911 13.1462 19.9038 13.36 19.7478 13.5189L16.7912 16.5321C16.5011 16.8278 16.0262 16.8323 15.7306 16.5422C15.4349 16.2521 15.4304 15.7772 15.7205 15.4816L18.4911 12.658V10.947Z" fill="#614730"/>
<path id="Vector_2" d="M5.01758 5.52561C4.5825 5.22591 4.05387 5 3.5 5C2.39543 5 1.5 5.89543 1.5 7V14.109C1.5 14.6118 1.68937 15.0961 2.03041 15.4656L7.7652 21.6782C7.95451 21.8832 8.22091 21.9999 8.5 21.9999H11.7539V13.4793L9.42028 11.3853C9.37804 11.3474 9.33266 11.3132 9.28462 11.283L9.28182 11.2812C9.03746 11.1276 8.34665 10.6933 7.39918 10.7593C7.06741 10.7824 6.77554 10.849 6.51758 10.9438V12.6579L9.28817 15.4816C9.57828 15.7772 9.57378 16.2521 9.27812 16.5422C8.98246 16.8323 8.50761 16.8278 8.21751 16.5321L5.26087 13.5189C5.10493 13.36 5.01758 13.1462 5.01758 12.9236V5.52561Z" fill="#614730"/>
</g>
</svg>
