<svg width="94" height="95" viewBox="0 0 94 95" fill="none" xmlns="http://www.w3.org/2000/svg">
<g filter="url(#filter0_d_6080_60632)">
<path d="M39.727 11.6523H14.1565V4.36972C14.1565 1.9563 16.1128 0 18.5261 0H35.3573C37.7705 0 39.727 1.9563 39.727 4.36972V11.6523Z" fill="url(#paint0_linear_6080_60632)"/>
<path d="M33.1566 11.6523H7.586V4.36972C7.586 1.9563 9.54244 0 11.9557 0H28.7869C31.2002 0 33.1566 1.9563 33.1566 4.36972V11.6523Z" fill="url(#paint1_linear_6080_60632)"/>
<path d="M26.1974 8.29418V4.36972C26.1974 1.9563 24.2411 0 21.8279 0H4.99667C2.58325 0 0.626953 1.9563 0.626953 4.36972V51.5514C0.626953 54.9894 3.4141 57.7765 6.85213 57.7765H69.1479C72.5859 57.7765 75.373 54.9894 75.373 51.5514V16.421C75.373 12.983 72.5859 10.1958 69.1479 10.1958H28.0991C27.0488 10.1958 26.1974 9.34443 26.1974 8.29418Z" fill="url(#paint2_linear_6080_60632)"/>
<path d="M57.3925 18.7598H55.8933C55.0335 18.7598 54.3364 18.0628 54.3364 17.2029V15.7037C54.3364 14.8438 55.0335 14.1468 55.8933 14.1468H57.3925C58.2524 14.1468 58.9494 14.8438 58.9494 15.7037V17.2029C58.9494 18.0628 58.2524 18.7598 57.3925 18.7598Z" fill="url(#paint3_linear_6080_60632)"/>
<path d="M63.2742 18.7598H61.7751C60.9152 18.7598 60.2181 18.0628 60.2181 17.2029V15.7037C60.2181 14.8438 60.9152 14.1468 61.7751 14.1468H63.2742C64.1341 14.1468 64.8311 14.8438 64.8311 15.7037V17.2029C64.8311 18.0628 64.1341 18.7598 63.2742 18.7598Z" fill="url(#paint4_linear_6080_60632)"/>
<path d="M69.1558 18.7598H67.6567C66.7968 18.7598 66.0997 18.0628 66.0997 17.2029V15.7037C66.0997 14.8438 66.7968 14.1468 67.6567 14.1468H69.1558C70.0157 14.1468 70.7127 14.8438 70.7127 15.7037V17.2029C70.7127 18.0628 70.0157 18.7598 69.1558 18.7598Z" fill="url(#paint5_linear_6080_60632)"/>
<path d="M0.626953 44.6675V51.5513C0.626953 54.9894 3.4141 57.7765 6.85213 57.7765H69.1479C72.5859 57.7765 75.373 54.9894 75.373 51.5513V44.6675H0.626953Z" fill="url(#paint6_linear_6080_60632)"/>
<path d="M65.6105 53.0925L49.7914 27.0808C49.1193 26.1491 48.0251 25.9819 46.7884 25.9819H33.8771C31.833 25.9819 30.6158 27.1991 30.6158 29.2432V43.6514H24.9589C21.2796 43.6514 37.4138 45.7087 35.0317 49.3044L27.0067 56.7352L64.6102 57.1625C67.6232 57.1627 65.0353 55.9358 65.6105 53.0925Z" fill="url(#paint7_linear_6080_60632)"/>
<path d="M45.9139 24.3395H23.4364C21.7436 24.3395 20.3713 25.7118 20.3713 27.4046C20.3713 29.0975 21.7436 30.4698 23.4364 30.4698H45.914C47.6068 30.4698 48.9791 29.0975 48.9791 27.4046C48.9791 25.7118 47.6067 24.3395 45.9139 24.3395Z" fill="#835A3A"/>
<path d="M45.914 69.2946H23.4365C22.8722 69.2946 22.4147 68.8372 22.4147 68.2729V59.7212C22.4146 57.0692 23.5595 54.5463 25.5554 52.8002L29.1784 49.6288C29.6027 49.2569 29.6452 48.6114 29.2732 48.187C29.2437 48.1534 29.212 48.1217 29.1784 48.0922L25.5554 44.9209C23.5595 43.1747 22.4146 40.6518 22.4147 37.9998V29.4481C22.4147 28.8839 22.8722 28.4264 23.4365 28.4264H45.9141C46.4783 28.4264 46.9358 28.8839 46.9358 29.4481V37.9998C46.9359 40.6518 45.7911 43.1747 43.7951 44.9209L40.1721 48.0922C39.7478 48.4642 39.7054 49.1097 40.0773 49.534C40.1068 49.5676 40.1385 49.5993 40.1721 49.6288L43.7951 52.8002C45.7911 54.5463 46.9359 57.0692 46.9358 59.7212V68.2729C46.9357 68.8373 46.4782 69.2946 45.914 69.2946Z" fill="#835A3A"/>
<path d="M24.4581 67.2513H44.8923V59.7213C44.8898 57.6574 43.9958 55.6952 42.4402 54.339L38.8172 51.1676C37.543 50.053 37.4137 48.1167 38.5283 46.8425C38.618 46.7399 38.7146 46.6434 38.8172 46.5536L42.4402 43.3823C43.9958 42.0261 44.8898 40.0638 44.8923 37.9999V30.4698H24.4581V37.9997C24.4606 40.0636 25.3546 42.0259 26.9102 43.3821L30.5332 46.5534C31.8068 47.6687 31.9351 49.6052 30.82 50.8787C30.7308 50.9805 30.635 51.0763 30.5332 51.1655L26.9102 54.339C25.3546 55.6952 24.4606 57.6574 24.4581 59.7213V67.2513Z" fill="#ECEFF1"/>
<path d="M40.7278 41.3183C40.5698 40.9362 40.1972 40.687 39.7837 40.6869H29.5667C29.0024 40.6859 28.5442 41.1426 28.5432 41.7068C28.5427 41.9789 28.6507 42.2399 28.8433 42.432L33.9518 47.5405C34.3508 47.9394 34.9975 47.9394 35.3966 47.5405L40.5051 42.432C40.7978 42.14 40.8857 41.7004 40.7278 41.3183Z" fill="url(#paint8_linear_6080_60632)"/>
<path d="M45.914 67.2513H23.4365C21.7437 67.2513 20.3713 68.6236 20.3713 70.3164C20.3713 72.0092 21.7437 73.3815 23.4365 73.3815H45.9141C47.6069 73.3815 48.9792 72.0092 48.9792 70.3164C48.9792 68.6236 47.6068 67.2513 45.914 67.2513Z" fill="#835A3A"/>
<path d="M35.3618 56.2781C34.9582 55.9127 34.339 55.928 33.9539 56.3129L24.4581 65.8066V67.2513H44.8923V64.9422L35.3618 56.2781Z" fill="url(#paint9_linear_6080_60632)"/>
</g>
<defs>
<filter id="filter0_d_6080_60632" x="0.626953" y="0" width="93.084" height="96.1404" filterUnits="userSpaceOnUse" color-interpolation-filters="sRGB">
<feFlood flood-opacity="0" result="BackgroundImageFix"/>
<feColorMatrix in="SourceAlpha" type="matrix" values="0 0 0 0 0 0 0 0 0 0 0 0 0 0 0 0 0 0 127 0" result="hardAlpha"/>
<feOffset dx="15.2816" dy="18.338"/>
<feGaussianBlur stdDeviation="1.52816"/>
<feComposite in2="hardAlpha" operator="out"/>
<feColorMatrix type="matrix" values="0 0 0 0 0 0 0 0 0 0 0 0 0 0 0 0 0 0 0.05 0"/>
<feBlend mode="normal" in2="BackgroundImageFix" result="effect1_dropShadow_6080_60632"/>
<feBlend mode="normal" in="SourceGraphic" in2="effect1_dropShadow_6080_60632" result="shape"/>
</filter>
<linearGradient id="paint0_linear_6080_60632" x1="30.3108" y1="-3.3683" x2="23.9393" y2="6.58111" gradientUnits="userSpaceOnUse">
<stop stop-color="#F4C675"/>
<stop offset="1" stop-color="#A27525"/>
</linearGradient>
<linearGradient id="paint1_linear_6080_60632" x1="23.7404" y1="-3.3683" x2="17.3689" y2="6.58114" gradientUnits="userSpaceOnUse">
<stop stop-color="#F4C675"/>
<stop offset="1" stop-color="#A27525"/>
</linearGradient>
<linearGradient id="paint2_linear_6080_60632" x1="16.5028" y1="2.19656" x2="46.6129" y2="63.1908" gradientUnits="userSpaceOnUse">
<stop stop-color="#F3C674"/>
<stop offset="0.268" stop-color="#EDB44D"/>
<stop offset="0.659" stop-color="#E1A842"/>
<stop offset="1" stop-color="#DBA036"/>
</linearGradient>
<linearGradient id="paint3_linear_6080_60632" x1="57.2507" y1="12.8133" x2="54.627" y2="14.6804" gradientUnits="userSpaceOnUse">
<stop stop-color="#F4C675"/>
<stop offset="1" stop-color="#CD8C18"/>
</linearGradient>
<linearGradient id="paint4_linear_6080_60632" x1="63.1324" y1="12.8133" x2="60.5087" y2="14.6804" gradientUnits="userSpaceOnUse">
<stop stop-color="#F4C675"/>
<stop offset="1" stop-color="#CD8C18"/>
</linearGradient>
<linearGradient id="paint5_linear_6080_60632" x1="69.014" y1="12.8133" x2="66.3903" y2="14.6804" gradientUnits="userSpaceOnUse">
<stop stop-color="#F4C675"/>
<stop offset="1" stop-color="#CD8C18"/>
</linearGradient>
<linearGradient id="paint6_linear_6080_60632" x1="35.7312" y1="40.1644" x2="35.4087" y2="58.5446" gradientUnits="userSpaceOnUse">
<stop stop-color="#F3C674"/>
<stop offset="1" stop-color="#DBA036"/>
</linearGradient>
<linearGradient id="paint7_linear_6080_60632" x1="53.6497" y1="59.0169" x2="25.2438" y2="40.6623" gradientUnits="userSpaceOnUse">
<stop stop-color="#C49747" stop-opacity="0"/>
<stop offset="1" stop-color="#B78731"/>
</linearGradient>
<linearGradient id="paint8_linear_6080_60632" x1="36.2898" y1="38.6193" x2="35.8454" y2="49.2571" gradientUnits="userSpaceOnUse">
<stop stop-color="#F4C675"/>
<stop offset="1" stop-color="#A27525"/>
</linearGradient>
<linearGradient id="paint9_linear_6080_60632" x1="37.3675" y1="52.7655" x2="37.6445" y2="72.25" gradientUnits="userSpaceOnUse">
<stop stop-color="#F4C675"/>
<stop offset="1" stop-color="#A27525"/>
</linearGradient>
</defs>
</svg>
