<svg width="134" height="93" viewBox="0 0 134 93" fill="none" xmlns="http://www.w3.org/2000/svg">
<path fill-rule="evenodd" clip-rule="evenodd" d="M70.4197 68.3723C85.6629 66.5117 100.963 63.355 114.58 68.4084C115.468 68.7378 115.655 72.8351 115.463 73.8192C103.101 71.2106 82.2171 71.8331 69.6705 73.8313C69.415 72.0437 69.6376 69.2288 70.4197 68.3723Z" fill="#3A3A3A"/>
<path fill-rule="evenodd" clip-rule="evenodd" d="M92.4998 22.6816C92.5578 23.1237 92.6159 23.5655 92.6737 24.0075C93.3495 24.0075 93.2836 24.8914 92.7406 24.8914V25.9494C93.4096 25.9494 93.3962 26.9807 92.754 26.9807V27.9448C93.3415 27.9448 93.3273 28.9493 92.7674 28.9493V29.5653C95.9935 33.2425 98.3173 34.6982 102.53 37.507C109.004 41.8231 110.604 45.9 111.512 52.4724C111.589 53.0303 111.615 53.4746 111.679 53.7894C111.897 54.8472 112.334 54.006 112.334 56.3915V57.8365C112.576 57.9766 112.819 58.1167 113.062 58.2568V61.9078C113.805 62.107 114.549 62.3062 115.292 62.5056C115.055 62.5692 114.817 62.6329 114.58 62.6965V69.3201C108.124 68.6221 100.405 68.1452 92.627 68.1452C84.8494 68.1452 76.9628 68.6253 70.4192 69.3272V62.6967C70.1817 62.6331 69.9441 62.5695 69.7065 62.5059C70.45 62.3067 71.1935 62.1075 71.9372 61.9081V58.2571C72.1798 58.117 72.4224 57.9769 72.665 57.8368V56.4056C72.665 55.0328 72.452 55.2577 73.074 54.2241C73.275 53.8901 73.3712 53.3055 73.4868 52.4729C74.3959 45.9253 76.0085 41.8143 82.4686 37.5075C86.6815 34.6989 89.0053 33.243 92.2314 29.5658V28.9498C91.6715 28.9498 91.6573 27.9453 92.2448 27.9453V26.9812C91.6026 26.9812 91.5892 25.9499 92.2582 25.9499V24.8919C91.7154 24.8919 91.6495 24.008 92.3251 24.008C92.3831 23.566 92.442 23.1237 92.4998 22.6816Z" fill="#212121"/>
<path fill-rule="evenodd" clip-rule="evenodd" d="M94.9541 31.8601C95.2637 32.1557 95.5706 32.4365 95.8781 32.7063C93.6043 33.6962 91.3312 33.6957 89.0581 32.7621C89.3734 32.4872 89.688 32.2009 90.0051 31.8992C91.4602 31.8732 92.9381 31.8599 94.4341 31.8599C94.6075 31.8599 94.781 31.8599 94.9539 31.8604L94.9541 31.8601Z" fill="#3A3A3A"/>
<path d="M111.656 53.6532C111.651 53.6247 111.647 53.5954 111.642 53.5651C111.205 53.3392 110.728 53.1218 110.215 52.9135C110.182 52.1287 110.074 51.0242 109.774 49.7008C110.311 49.974 110.792 50.2603 111.213 50.5581L111.195 50.4577C110.772 50.1626 110.29 49.879 109.753 49.6089C109.485 48.4481 109.069 47.1235 108.43 45.7015C109.131 46.0365 109.748 46.3939 110.268 46.7706C110.253 46.7279 110.238 46.6853 110.223 46.6429C109.697 46.2712 109.079 45.9188 108.379 45.5889C107.858 44.4442 107.191 43.238 106.341 42.0048C107.045 42.2507 107.688 42.515 108.262 42.7955C108.233 42.7546 108.204 42.7134 108.174 42.6725C107.602 42.3991 106.965 42.1419 106.27 41.9025C105.63 40.9841 104.888 40.0516 104.027 39.1185C104.441 39.2397 104.832 39.3672 105.198 39.5004C105.145 39.4555 105.091 39.4106 105.037 39.3656C104.689 39.2429 104.319 39.1256 103.93 39.014C103.373 38.4169 102.768 37.8199 102.11 37.2269L101.438 36.7795C102.281 37.5005 103.042 38.2291 103.731 38.9579C103.37 38.858 102.992 38.7628 102.6 38.6727C101.803 37.657 100.892 36.6624 99.8516 35.7142C99.7857 35.6692 99.7203 35.6245 99.6552 35.5801L99.6332 35.565C99.4396 35.4322 99.2495 35.3009 99.0629 35.1704C99.1798 35.2688 99.2949 35.368 99.4088 35.4678C99.151 35.4259 98.8887 35.386 98.6221 35.3486C97.5596 34.2709 96.3415 33.2656 94.9452 32.3752C95.3564 32.5981 95.756 32.8236 96.1456 33.051C96.3475 33.177 96.5457 33.3047 96.7411 33.4337C96.5197 33.254 96.3001 33.0705 96.0812 32.8819C94.9951 32.2129 93.8127 31.5918 92.5219 31.0342L92.5019 31.0811H92.5004H92.4989L92.4789 31.0342C91.1884 31.5918 90.0059 32.2129 88.9196 32.8819C88.7007 33.0705 88.4811 33.254 88.2594 33.4337C88.4546 33.3045 88.6528 33.1767 88.855 33.051C89.2448 32.8236 89.6442 32.5981 90.0554 32.3752C88.6591 33.2656 87.441 34.2706 86.3784 35.3486C86.1118 35.386 85.8495 35.4256 85.5918 35.4678C85.7056 35.368 85.8207 35.2688 85.9376 35.1704C85.7604 35.2943 85.5799 35.4193 85.3961 35.545L85.3393 35.5839C85.2762 35.6271 85.2126 35.6705 85.1485 35.7142C84.1076 36.6624 83.1973 37.657 82.4 38.6727C82.0079 38.7628 81.6308 38.858 81.2698 38.9579C81.958 38.2291 82.7191 37.5005 83.562 36.7795L82.8898 37.2269C82.2316 37.8199 81.6267 38.4169 81.0703 39.014C80.6826 39.1251 80.3142 39.2419 79.9674 39.3639C79.9138 39.4088 79.8603 39.4537 79.8076 39.4987C80.1716 39.3661 80.5611 39.2392 80.9731 39.1185C80.1123 40.0516 79.3703 40.9844 78.7303 41.9025C78.0409 42.1398 77.4077 42.3953 76.8387 42.6662C76.8092 42.7071 76.7801 42.748 76.7511 42.7889C77.3222 42.5107 77.9606 42.2484 78.6592 42.0045C77.8089 43.2378 77.1427 44.4437 76.6211 45.5886C75.9253 45.9165 75.3099 46.2669 74.7858 46.6363C74.7709 46.6787 74.7557 46.7214 74.7411 46.764C75.2594 46.3899 75.8728 46.0344 76.5701 45.7012C75.9317 47.1233 75.5159 48.4479 75.247 49.6087C74.7115 49.8783 74.2299 50.1613 73.8075 50.4559L73.7893 50.5564C74.2089 50.259 74.6898 49.973 75.226 49.7003C74.9261 51.0237 74.8176 52.1282 74.785 52.913C74.2491 53.1304 73.7525 53.3579 73.2993 53.5947C73.292 53.6265 73.2844 53.6575 73.2769 53.6878C73.734 53.4465 74.2374 53.2145 74.7817 52.9928C74.754 53.7625 74.7997 54.2033 74.8002 54.2106L74.9087 54.2013C74.908 54.194 74.861 53.7398 74.8918 52.9484C75.4558 52.7224 76.0632 52.5076 76.7105 52.3051C76.789 52.2806 76.8683 52.2561 76.948 52.2322C76.7986 53.5477 76.8112 54.3482 76.8112 54.3586L76.92 54.3581C76.92 54.3477 76.9071 53.5333 77.0614 52.1978C77.7569 51.9896 78.4953 51.7954 79.2721 51.6164C79.1004 53.2705 79.1259 54.3091 79.1259 54.3212L79.2347 54.3194C79.2347 54.3073 79.2085 53.2586 79.3832 51.5909C80.1385 51.4193 80.93 51.262 81.7527 51.1204C81.6573 53.1526 81.781 54.4638 81.7823 54.4772L81.8911 54.4679C81.8898 54.4545 81.7656 53.1387 81.8625 51.1014C82.6232 50.9722 83.4108 50.8565 84.2217 50.7553C84.1263 52.9625 84.2098 54.4224 84.2106 54.4371L84.3194 54.4315C84.3187 54.4169 84.2351 52.9527 84.3313 50.7417C85.0061 50.6586 85.697 50.5857 86.4021 50.5233C86.2921 52.8186 86.3352 54.3449 86.3358 54.3596L86.4446 54.3571C86.4443 54.3422 86.4009 52.8123 86.5115 50.5137C87.133 50.4597 87.7654 50.414 88.4074 50.3769C88.3314 52.8035 88.3465 54.456 88.3468 54.4729L88.4556 54.4724C88.4556 54.4558 88.4402 52.7997 88.5159 50.3706C88.9746 50.3448 89.4384 50.3234 89.9062 50.3065C89.812 52.7954 89.7886 54.4936 89.7883 54.51L89.8971 54.5113C89.8971 54.4949 89.9206 52.7939 90.0147 50.3027C90.4078 50.289 90.8042 50.2787 91.203 50.2716C91.1765 51.7066 91.1614 53.1216 91.1546 54.5108L91.2634 54.5113C91.2702 53.1216 91.2853 51.7058 91.3121 50.2698C91.6873 50.2638 92.0649 50.2605 92.4449 50.2603V54.5684H92.5542V50.2603C92.9341 50.2605 93.3118 50.2638 93.6869 50.2698C93.7137 51.7058 93.7288 53.1216 93.7357 54.5113L93.8445 54.5108C93.8377 53.1216 93.8225 51.7066 93.796 50.2716C94.1949 50.2787 94.5912 50.289 94.9843 50.3027C95.0785 52.7939 95.1017 54.4949 95.1019 54.5113L95.2107 54.51C95.2107 54.4936 95.1873 52.7954 95.0928 50.3065C95.5609 50.3234 96.0244 50.3448 96.4831 50.3706C96.5588 52.7997 96.5437 54.4558 96.5434 54.4724L96.6522 54.4729C96.6522 54.4563 96.6676 52.8037 96.5917 50.3769C97.2336 50.414 97.866 50.4599 98.4876 50.5137C98.5979 52.8123 98.5547 54.3422 98.5545 54.3571L98.6633 54.3596C98.6635 54.3447 98.707 52.8186 98.5969 50.5233C99.302 50.5857 99.993 50.6589 100.668 50.7417C100.764 52.9527 100.68 54.4169 100.68 54.4315L100.788 54.4371C100.789 54.4224 100.873 52.9625 100.777 50.7553C101.588 50.8565 102.376 50.9722 103.137 51.1014C103.233 53.1387 103.109 54.4545 103.108 54.4679L103.217 54.4772C103.218 54.4638 103.342 53.1526 103.246 51.1204C104.069 51.262 104.861 51.4193 105.616 51.5909C105.791 53.2586 105.764 54.3073 105.764 54.3194L105.873 54.3212C105.873 54.3093 105.899 53.2708 105.727 51.6164C106.504 51.7954 107.242 51.9896 107.938 52.1978C108.092 53.5333 108.079 54.3475 108.079 54.3581L108.188 54.3586C108.188 54.3482 108.2 53.5477 108.051 52.2322C108.131 52.2564 108.21 52.2806 108.289 52.3051C108.936 52.5076 109.544 52.7224 110.107 52.9481C110.138 53.7398 110.091 54.194 110.09 54.2013L110.199 54.2106C110.2 54.2036 110.245 53.7628 110.217 52.9928C110.735 53.2036 111.216 53.4237 111.655 53.6525L111.656 53.6532ZM109.628 49.5468C108.961 49.2184 108.213 48.9101 107.395 48.6256C107.099 47.4439 106.694 46.1435 106.139 44.7878C106.242 44.8224 106.344 44.857 106.445 44.8923C107.106 45.1231 107.72 45.37 108.281 45.6313C108.93 47.0546 109.353 48.382 109.628 49.5468H109.628ZM88.2764 35.2034C87.72 36.0666 87.238 36.9913 86.821 37.9511C86.359 38.0009 85.9071 38.0564 85.4661 38.1175C86.0459 37.1403 86.7165 36.1878 87.4912 35.283C87.7495 35.2544 88.0113 35.2277 88.2764 35.2034ZM87.5619 35.2014C88.4957 34.1232 89.5788 33.1144 90.8355 32.2147C89.8663 33.0498 89.037 34.0379 88.3274 35.1254C88.0691 35.1487 87.8141 35.1742 87.5619 35.2014ZM90.2356 35.0684C89.9966 35.8858 89.7875 36.7835 89.6048 37.7313C89.2695 37.7487 88.938 37.7689 88.6101 37.7921C88.9239 36.8525 89.2826 35.9462 89.6929 35.0972C89.8726 35.0866 90.0536 35.077 90.2356 35.0684ZM89.73 35.0214C90.1609 34.1394 90.6476 33.3204 91.198 32.5923C90.842 33.2588 90.5303 34.0742 90.2576 34.9939C90.0806 35.0022 89.9047 35.0113 89.73 35.0214ZM95.3064 35.0972C95.7164 35.9462 96.0751 36.8525 96.3889 37.7921C96.0613 37.7689 95.7295 37.7487 95.3943 37.7313C95.2118 36.7835 95.0027 35.8858 94.7634 35.0684C94.9454 35.077 95.1264 35.0866 95.3062 35.0972H95.3064ZM94.7417 34.9939C94.4688 34.0742 94.1573 33.2585 93.8013 32.5923C94.3516 33.3204 94.8384 34.1394 95.2693 35.0214C95.0946 35.0113 94.9187 35.0022 94.7417 34.9939ZM97.5081 35.283C98.2828 36.1878 98.9534 37.1403 99.5332 38.1175C99.0925 38.0564 98.6406 38.0009 98.1786 37.9511C97.7615 36.9913 97.2796 36.0668 96.7232 35.2034C96.9883 35.2277 97.2498 35.2542 97.5083 35.283H97.5081ZM96.6719 35.1252C95.9623 34.0376 95.133 33.0495 94.1638 32.2144C95.4205 33.1141 96.5036 34.1232 97.4374 35.2012C97.1854 35.1737 96.9302 35.1484 96.6719 35.1252ZM84.1652 40.6716C84.7286 40.5812 85.308 40.4999 85.9013 40.4277C85.6021 41.3767 85.354 42.3373 85.148 43.2875C84.4434 43.3862 83.759 43.4985 83.097 43.624C83.3853 42.6501 83.737 41.6584 84.1652 40.6713V40.6716ZM82.9774 43.6472C82.3331 43.7712 81.7106 43.9075 81.1125 44.0552C81.4836 43.0441 81.9274 42.0108 82.4591 40.9818C82.9695 40.8773 83.4964 40.7809 84.0379 40.6923C83.6128 41.6806 83.2636 42.673 82.9774 43.6472ZM98.9554 40.3368C98.3778 40.2684 97.787 40.2091 97.1849 40.1591C96.9923 39.3861 96.7749 38.6209 96.5296 37.8757C97.06 37.9148 97.58 37.9612 98.0877 38.015C98.4156 38.7711 98.7032 39.5494 98.9554 40.3368ZM98.2117 38.0284C98.6787 38.0791 99.1354 38.1357 99.5805 38.198C100.042 38.9844 100.446 39.7862 100.799 40.5916C100.239 40.5024 99.663 40.4219 99.0735 40.3507C98.8231 39.5636 98.5373 38.7852 98.2117 38.0281V38.0284ZM97.0721 40.15C96.6469 40.1157 96.2163 40.0859 95.7805 40.0611C95.671 39.2896 95.5475 38.5333 95.4087 37.8055C95.7475 37.8232 96.0827 37.8439 96.4139 37.8676C96.6603 38.6121 96.8787 39.3767 97.0721 40.15ZM95.6745 40.0551C95.261 40.0324 94.8427 40.0139 94.4206 40.0001C94.3426 39.2336 94.2572 38.481 94.1633 37.7547C94.5473 37.7661 94.9272 37.7812 95.3026 37.7999C95.4415 38.527 95.5647 39.2833 95.6742 40.0551H95.6745ZM94.3128 39.9965C94.0043 39.9869 93.6935 39.9799 93.381 39.9751C93.3322 39.2296 93.2787 38.4826 93.2201 37.7348C93.5006 37.7383 93.7791 37.7439 94.0558 37.7515C94.1494 38.477 94.235 39.2298 94.3128 39.9963V39.9965ZM93.2714 39.9735C93.0333 39.9705 92.7943 39.9687 92.5542 39.9685V37.7305C92.7405 37.7305 92.9258 37.7318 93.1106 37.7338C93.1692 38.4815 93.2227 39.2283 93.2714 39.9738V39.9735ZM92.4449 39.9685C92.2048 39.9685 91.9657 39.9703 91.7276 39.9735C91.7764 39.2281 91.8299 38.4813 91.8885 37.7335C92.073 37.7315 92.2586 37.7305 92.4449 37.7302V39.9682V39.9685ZM91.6183 39.9751C91.3058 39.9799 90.995 39.9869 90.6865 39.9965C90.7645 39.2301 90.8499 38.4773 90.9435 37.7517C91.22 37.7441 91.4987 37.7386 91.7791 37.735C91.7206 38.4828 91.6671 39.2296 91.6183 39.9753V39.9751ZM90.5787 39.9998C90.1564 40.0137 89.7383 40.0321 89.3248 40.0548C89.4344 39.2831 89.5578 38.5267 89.6964 37.7997C90.0718 37.7807 90.4517 37.7656 90.8357 37.7545C90.7421 38.4805 90.6565 39.2334 90.5785 39.9998H90.5787ZM89.2188 40.0609C88.783 40.0856 88.3523 40.1154 87.9272 40.1498C88.1206 39.3765 88.339 38.6118 88.5854 37.8673C88.9166 37.8436 89.2516 37.8229 89.5906 37.8052C89.4518 38.533 89.3283 39.2894 89.2188 40.0609ZM87.8146 40.1591C87.2125 40.2091 86.6218 40.2684 86.0442 40.3368C86.2964 39.5494 86.5839 38.7714 86.9118 38.015C87.4198 37.9612 87.9396 37.9148 88.47 37.8757C88.2249 38.6209 88.0072 39.3861 87.8146 40.1591ZM85.926 40.351C85.3365 40.4222 84.7607 40.5027 84.2005 40.5918C84.5532 39.7865 84.9571 38.9847 85.4191 38.1983C85.8642 38.1359 86.3209 38.0791 86.7879 38.0286C86.4622 38.7858 86.1767 39.5641 85.926 40.3512V40.351ZM86.0197 40.4136C86.5991 40.3447 87.1918 40.2848 87.7959 40.2343C87.5657 41.1669 87.3711 42.1106 87.2067 43.0444C86.544 43.1085 85.8952 43.1845 85.2626 43.2716C85.4696 42.3214 85.719 41.3613 86.0197 40.4136ZM87.9085 40.2252C88.3362 40.1904 88.7697 40.1604 89.2084 40.1354C89.0799 41.0477 88.9704 41.98 88.8772 42.9098C88.3498 42.9439 87.8295 42.9853 87.3178 43.0338C87.4826 42.1 87.6775 41.1568 87.9085 40.2252ZM89.3144 40.1293C89.729 40.1063 90.148 40.0879 90.5714 40.0738C90.4795 40.9831 90.3982 41.9106 90.3263 42.8354C89.8741 42.8525 89.4265 42.8752 88.984 42.903C89.0769 41.973 89.1862 41.0409 89.3144 40.1293ZM90.6792 40.0705C90.9885 40.0609 91.3 40.0536 91.6135 40.049C91.5537 40.97 91.5012 41.8884 91.455 42.8035C91.1124 42.8099 90.7721 42.8192 90.4343 42.8313C90.5063 41.9066 90.5873 40.9791 90.6792 40.0705ZM91.7231 40.0473C91.9627 40.0442 92.2033 40.0425 92.4451 40.0422V42.794C92.15 42.7942 91.8564 42.7967 91.5643 42.8015C91.6105 41.8866 91.6633 40.9682 91.7231 40.0473ZM92.5544 40.0422C92.7963 40.0422 93.0369 40.0442 93.2764 40.0473C93.3363 40.9682 93.389 41.8866 93.4352 42.8015C93.1431 42.7967 92.8495 42.7942 92.5544 42.794V40.0422ZM93.386 40.0488C93.6996 40.0536 94.0111 40.0606 94.3203 40.0702C94.412 40.9788 94.4933 41.9063 94.5652 42.8311C94.2274 42.8187 93.8871 42.8096 93.5446 42.8033C93.4984 41.8881 93.4458 40.9697 93.386 40.0488ZM94.4284 40.0738C94.8518 40.0877 95.2708 40.1063 95.6854 40.1293C95.8136 41.0407 95.9229 41.973 96.0158 42.903C95.5733 42.8752 95.1257 42.8528 94.6735 42.8354C94.6016 41.9109 94.5203 40.9831 94.4284 40.0738ZM95.7914 40.1351C96.2301 40.1601 96.6636 40.1901 97.0913 40.225C97.3223 41.1565 97.5172 42.0997 97.682 43.0335C97.1703 42.9851 96.65 42.9437 96.1226 42.9096C96.0294 41.9798 95.9199 41.0472 95.7914 40.1351ZM97.2039 40.2343C97.8082 40.2848 98.4007 40.3447 98.9801 40.4136C99.2808 41.3613 99.5302 42.3214 99.7372 43.2716C99.1046 43.1845 98.4558 43.1088 97.7931 43.0444C97.6287 42.1103 97.4341 41.1669 97.2039 40.2343ZM99.0983 40.4277C99.6915 40.4997 100.271 40.5812 100.834 40.6716C101.262 41.6587 101.614 42.6503 101.903 43.6243C101.241 43.4991 100.556 43.3865 99.8516 43.2877C99.6456 42.3375 99.3974 41.3767 99.0983 40.428V40.4277ZM100.962 40.692C101.503 40.7804 102.03 40.8771 102.54 40.9816C103.072 42.0108 103.516 43.0441 103.887 44.055C103.289 43.9073 102.667 43.7712 102.022 43.647C101.736 42.6728 101.387 41.6804 100.962 40.692ZM102.673 41.0089C103.248 41.1285 103.801 41.2583 104.332 41.3969C104.981 42.4908 105.518 43.5831 105.961 44.6439C105.347 44.444 104.695 44.2574 104.011 44.086C103.642 43.0744 103.201 42.0401 102.673 41.0089ZM102.63 40.9253C102.2 40.0937 101.713 39.2647 101.162 38.4523C101.625 38.5368 102.072 38.628 102.501 38.7252C103.171 39.5762 103.76 40.4418 104.278 41.3073C103.751 41.1707 103.201 41.0432 102.63 40.925L102.63 40.9253ZM102.497 40.898C101.989 40.795 101.465 40.6993 100.927 40.6123C100.577 39.8072 100.177 39.0049 99.7185 38.2177C100.163 38.2816 100.597 38.351 101.017 38.426C101.573 39.2376 102.063 40.0662 102.497 40.898H102.497ZM99.6716 38.1367C99.0975 37.16 98.4336 36.2072 97.6669 35.3006C97.961 35.3345 98.2505 35.3711 98.535 35.4102C99.4547 36.3415 100.258 37.3273 100.959 38.3409C100.542 38.2675 100.112 38.1991 99.6716 38.1364V38.1367ZM98.0541 37.9378C97.549 37.8847 97.0322 37.8388 96.5048 37.8004C96.193 36.8616 95.8366 35.955 95.4294 35.1047C95.8204 35.129 96.2057 35.1577 96.5846 35.1913C97.1466 36.0527 97.633 36.9772 98.0541 37.938V37.9378ZM95.2887 37.726C94.9149 37.7073 94.5364 37.6924 94.1542 37.6813C94.032 36.7432 93.8962 35.8505 93.745 35.0315C94.0515 35.0393 94.3552 35.05 94.6559 35.0636C94.8959 35.879 95.1057 36.777 95.289 37.7262L95.2887 37.726ZM94.0464 37.6782C93.771 37.6707 93.4938 37.6654 93.2146 37.6618C93.1452 36.781 93.0692 35.8992 92.9849 35.0179C93.2032 35.0202 93.4206 35.0237 93.6364 35.0287C93.7879 35.8464 93.924 36.7391 94.0464 37.6782ZM93.1053 37.6603C92.9225 37.6583 92.739 37.6573 92.5547 37.6573V35.0156C92.6617 35.0156 92.7685 35.0161 92.875 35.0171C92.9594 35.8984 93.0361 36.78 93.1053 37.6606V37.6603ZM92.4454 37.6573C92.2611 37.6573 92.0775 37.6586 91.8948 37.6603C91.9642 36.7798 92.0409 35.8982 92.125 35.0169C92.2315 35.0161 92.3383 35.0156 92.4454 35.0154V37.657V37.6573ZM91.7852 37.6618C91.506 37.6654 91.2288 37.6709 90.9534 37.6782C91.0756 36.7394 91.2116 35.8467 91.3634 35.0287C91.5792 35.0237 91.7966 35.0199 92.0149 35.0179C91.9306 35.8992 91.8546 36.781 91.7852 37.6618ZM90.8456 37.6813C90.4634 37.6924 90.0849 37.7075 89.7111 37.726C89.8941 36.7767 90.1039 35.8788 90.3442 35.0633C90.6449 35.05 90.9486 35.0391 91.2551 35.0313C91.1038 35.8502 90.968 36.7429 90.8458 37.681L90.8456 37.6813ZM88.495 37.8007C87.9676 37.8393 87.4508 37.885 86.9457 37.938C87.3668 36.9772 87.8532 36.0527 88.4152 35.1913C88.7941 35.158 89.1794 35.129 89.5704 35.1047C89.1632 35.9552 88.8068 36.8618 88.495 37.8004V37.8007ZM85.3282 38.1369C84.8874 38.1996 84.458 38.268 84.0412 38.3414C84.742 37.3278 85.5451 36.3418 86.4648 35.4105C86.7493 35.3711 87.0388 35.3347 87.3329 35.3009C86.5662 36.2072 85.9023 37.1602 85.3282 38.1369ZM85.2813 38.2177C84.8231 39.0049 84.4227 39.8069 84.073 40.6123C83.5345 40.6996 83.0107 40.795 82.5028 40.898C82.9362 40.0662 83.427 39.2376 83.9826 38.426C84.403 38.351 84.8362 38.2816 85.281 38.2177H85.2813ZM82.37 40.9253C81.7992 41.0432 81.2491 41.1709 80.7217 41.3073C81.2402 40.4418 81.8292 39.5759 82.4987 38.7252C82.9279 38.628 83.375 38.5368 83.838 38.4523C83.2869 39.2647 82.8001 40.0937 82.3702 40.9253H82.37ZM82.327 41.0089C81.7989 42.0399 81.3574 43.0744 80.9888 44.086C80.3049 44.2577 79.6533 44.444 79.0383 44.6439C79.4822 43.5831 80.0191 42.4908 80.6682 41.3969C81.1986 41.2583 81.7522 41.1285 82.327 41.0089ZM80.9557 44.1779C80.4814 45.4934 80.1294 46.7683 79.8687 47.9453C79.1504 48.1313 78.4693 48.333 77.8298 48.5486C77.7958 48.56 77.7619 48.5716 77.7281 48.5832C78.0273 47.3992 78.4367 46.0978 78.9977 44.7426C79.6144 44.5402 80.2683 44.3516 80.9557 44.1779ZM81.0794 44.1468C81.6795 43.9976 82.3046 43.8601 82.9519 43.7348C82.5795 45.0176 82.3154 46.2677 82.1299 47.4351C81.3841 47.5805 80.6679 47.741 79.9845 47.9157C80.2473 46.7375 80.6018 45.4619 81.0794 44.1471V44.1468ZM83.0718 43.7119C83.7357 43.5854 84.4227 43.472 85.13 43.3726C84.8607 44.6303 84.665 45.8686 84.5241 47.0354C83.7383 47.146 82.9769 47.2722 82.2435 47.4131C82.4306 46.245 82.6966 44.9943 83.0718 43.7119ZM85.2441 43.3564C85.8781 43.2688 86.5279 43.1923 87.1921 43.1277C86.9742 44.3796 86.8104 45.6131 86.6874 46.7779C85.9874 46.8466 85.3027 46.9274 84.6355 47.0198C84.7771 45.8522 84.9735 44.6136 85.2441 43.3564ZM87.3032 43.1171C87.8171 43.0681 88.3392 43.0265 88.8691 42.9921C88.7467 44.2264 88.6525 45.4551 88.5806 46.6244C87.9764 46.6633 87.3819 46.7113 86.7975 46.7673C86.9207 45.602 87.0848 44.3685 87.3032 43.1171ZM88.9759 42.9851C89.419 42.957 89.8673 42.9346 90.32 42.9171C90.2245 44.1509 90.146 45.3781 90.0811 46.5467C89.6118 46.5651 89.1476 46.5888 88.6884 46.6176C88.7603 45.4477 88.854 44.219 88.9759 42.9853V42.9851ZM90.4283 42.9131C90.7668 42.9007 91.1079 42.8914 91.4512 42.8851C91.4492 42.9252 91.4469 42.9656 91.4449 43.006C91.3868 44.1817 91.3394 45.3508 91.3005 46.5113C90.9274 46.5184 90.557 46.529 90.1894 46.5426C90.2543 45.3735 90.3328 44.1466 90.428 42.9131H90.4283ZM91.554 43.0111C91.556 42.9684 91.5583 42.9257 91.5605 42.8833C91.8539 42.8785 92.149 42.876 92.4454 42.8757V46.4997C92.098 46.5 91.7529 46.5032 91.4098 46.5091C91.4484 45.3513 91.4959 44.1845 91.554 43.0111ZM92.5547 42.8755C92.8513 42.8757 93.1462 42.8783 93.4395 42.8831C93.4415 42.9257 93.4441 42.9684 93.4461 43.0108C93.5042 44.1842 93.5516 45.351 93.5902 46.5088C93.2472 46.5027 92.9018 46.4997 92.5547 46.4995V42.8755ZM93.5552 43.0058C93.5531 42.9656 93.5509 42.9252 93.5488 42.8848C93.8922 42.8911 94.2332 42.9005 94.5718 42.9129C94.667 44.1463 94.7455 45.3733 94.8104 46.5424C94.4428 46.5287 94.0724 46.5181 93.6993 46.5111C93.6607 45.3508 93.6132 44.1814 93.5549 43.0058H93.5552ZM94.6801 42.9171C95.133 42.9346 95.5811 42.9573 96.0241 42.9851C96.1463 44.2188 96.24 45.4475 96.3117 46.6174C95.8525 46.5886 95.388 46.5648 94.9189 46.5464C94.854 45.3778 94.7753 44.1509 94.6801 42.9169V42.9171ZM96.1312 42.9921C96.6608 43.0265 97.1832 43.0684 97.6972 43.1171C97.9155 44.3685 98.0799 45.6017 98.2028 46.7673C97.6186 46.711 97.0239 46.6633 96.4197 46.6244C96.3475 45.4551 96.2536 44.2266 96.1312 42.9921ZM97.808 43.1279C98.4722 43.1926 99.122 43.2691 99.7559 43.3567C100.027 44.6139 100.223 45.8524 100.365 47.02C99.6973 46.9279 99.0124 46.8471 98.3126 46.7782C98.1897 45.6133 98.0258 44.3799 97.808 43.1279ZM99.87 43.3726C100.577 43.472 101.264 43.5856 101.928 43.7119C102.303 44.9943 102.569 46.245 102.757 47.4131C102.023 47.2722 101.262 47.1457 100.476 47.0354C100.335 45.8686 100.139 44.6303 99.87 43.3726ZM102.048 43.7351C102.695 43.8603 103.321 43.9979 103.921 44.1471C104.398 45.4621 104.752 46.7378 105.016 47.9157C104.332 47.7413 103.616 47.5805 102.87 47.4351C102.685 46.268 102.421 45.0178 102.048 43.7348V43.7351ZM104.044 44.1782C104.732 44.3518 105.386 44.5404 106.002 44.7429C106.563 46.0981 106.973 47.3997 107.272 48.5835C107.238 48.5718 107.204 48.5602 107.17 48.5489C106.531 48.3333 105.85 48.1316 105.131 47.9455C104.871 46.7688 104.519 45.4937 104.044 44.1782ZM108.23 45.5197C107.688 45.271 107.1 45.0357 106.469 44.8153C106.347 44.7727 106.223 44.7308 106.098 44.6894C105.659 43.6278 105.127 42.5337 104.483 41.4373C104.977 41.5693 105.451 41.7092 105.902 41.8566C105.992 41.8861 106.081 41.9159 106.17 41.946C107.028 43.1747 107.701 44.3771 108.23 45.5197ZM103.827 39.0612C104.699 39.9935 105.45 40.9261 106.099 41.8445C106.041 41.825 105.983 41.8058 105.925 41.7867C105.45 41.6317 104.951 41.485 104.43 41.3471C103.917 40.4822 103.334 39.6163 102.672 38.7645C103.074 38.8582 103.46 38.9572 103.828 39.0612H103.827ZM99.5128 35.5591C100.622 36.5407 101.588 37.5755 102.429 38.634C102.004 38.5391 101.562 38.45 101.104 38.3674C100.411 37.3543 99.6158 36.3678 98.706 35.4347C98.9796 35.4738 99.2487 35.5152 99.5128 35.5594V35.5591ZM98.4505 35.3249C98.1708 35.287 97.8862 35.2517 97.5974 35.2191C96.5109 33.9488 95.2198 32.7718 93.6864 31.7519C95.5457 32.7738 97.119 33.9919 98.4505 35.3249ZM96.5331 35.1131C96.159 35.0805 95.7785 35.0525 95.3928 35.029C94.8184 33.8432 94.1444 32.7685 93.3532 31.8706C93.2585 31.74 93.1613 31.6191 93.0611 31.5083C94.4551 32.4555 95.5975 33.6973 96.5331 35.1131ZM93.2863 31.9589C93.8169 32.6948 94.2615 33.743 94.6336 34.9891C94.3357 34.976 94.0348 34.9654 93.7314 34.9578C93.4461 33.4302 93.1068 32.1652 92.7031 31.349C92.9041 31.5419 93.099 31.7448 93.2863 31.9589ZM93.6226 34.955C93.4087 34.95 93.1939 34.9464 92.9775 34.9444C92.8627 33.7488 92.7337 32.5537 92.5888 31.3624C92.9947 32.1649 93.336 33.4259 93.6226 34.955ZM92.8677 34.9437C92.7635 34.9429 92.6592 34.9424 92.5544 34.9424V31.9953C92.6693 32.9766 92.7733 33.9601 92.8677 34.9437ZM92.4451 34.9424C92.3403 34.9424 92.2358 34.9429 92.1318 34.9437C92.2265 33.9599 92.3303 32.9766 92.4451 31.9953V34.9424ZM92.0218 34.9447C91.8054 34.9467 91.5906 34.9505 91.3767 34.9553C91.6633 33.4262 92.0046 32.1652 92.4105 31.3626C92.2656 32.5539 92.1366 33.7488 92.0218 34.9447ZM92.2964 31.3492C91.893 32.1654 91.5537 33.4305 91.2682 34.9581C90.9647 34.9656 90.6638 34.9762 90.3659 34.9894C90.738 33.7433 91.1826 32.6951 91.7133 31.9592C91.9006 31.7451 92.0955 31.5421 92.2964 31.3492ZM91.6464 31.8708C90.8552 32.7688 90.1809 33.8435 89.6068 35.0293C89.221 35.0527 88.8406 35.0808 88.4665 35.1133C89.402 33.6976 90.5444 32.4557 91.9384 31.5085C91.8385 31.6194 91.741 31.7403 91.6464 31.8708ZM91.3131 31.7524C89.7797 32.7723 88.4889 33.9493 87.4021 35.2196C87.1133 35.2522 86.8288 35.2875 86.5491 35.3254C87.8805 33.9924 89.4538 32.7746 91.3131 31.7524ZM85.487 35.5594C85.7511 35.5155 86.0202 35.4738 86.2938 35.4347C85.384 36.368 84.5893 37.3543 83.8955 38.3674C83.4378 38.45 82.9958 38.5391 82.5707 38.634C83.4116 37.5755 84.3775 36.5409 85.487 35.5591V35.5594ZM81.1723 39.0614C81.5404 38.9574 81.9259 38.8585 82.3276 38.7648C81.6654 39.6166 81.083 40.4822 80.5702 41.3474C80.0484 41.4852 79.5493 41.6322 79.0755 41.7869C79.0169 41.8061 78.9591 41.8253 78.9013 41.8447C79.5496 40.9261 80.3014 39.9937 81.1726 39.0614H81.1723ZM78.8301 41.9462C78.9184 41.9162 79.0075 41.8861 79.0979 41.8568C79.5488 41.7094 80.0227 41.5696 80.5172 41.4375C79.8735 42.5339 79.3413 43.6281 78.9015 44.6896C78.7765 44.731 78.6531 44.7729 78.5312 44.8156C77.9003 45.036 77.3118 45.2713 76.77 45.5199C77.2984 44.3776 77.9722 43.1749 78.8301 41.9462ZM76.7188 45.6318C77.2803 45.3705 77.894 45.1236 78.5546 44.8928C78.6554 44.8575 78.7576 44.8229 78.8606 44.7883C78.3055 46.1438 77.9005 47.4444 77.6052 48.6261C76.7865 48.9106 76.0389 49.2189 75.3717 49.5473C75.6466 48.3825 76.0702 47.0551 76.7191 45.6318H76.7188ZM76.6888 52.2362C76.0513 52.4356 75.4525 52.6472 74.8951 52.8696C74.9304 52.0764 75.0435 50.9659 75.35 49.639C76.0155 49.3083 76.7635 48.998 77.584 48.7109C77.255 50.0442 77.0657 51.2229 76.9571 52.1539C76.867 52.1812 76.7774 52.2087 76.6888 52.2362ZM77.0707 52.1196C77.1818 51.1837 77.3742 50.0025 77.7067 48.6683C77.7551 48.6516 77.8038 48.635 77.8528 48.6186C78.4802 48.407 79.1477 48.2091 79.8507 48.026C79.5602 49.3534 79.385 50.5531 79.2799 51.5404C78.5039 51.7187 77.7657 51.9121 77.0705 52.1196H77.0707ZM79.3915 51.5149C79.4976 50.5248 79.674 49.3239 79.9669 47.996C80.6518 47.8203 81.37 47.6587 82.118 47.5123C81.9133 48.8208 81.807 50.0224 81.7565 51.0464C80.9355 51.1873 80.1459 51.344 79.3915 51.5149ZM81.8666 51.0275C81.9178 50.0022 82.0251 48.7991 82.2314 47.4903C82.9658 47.3487 83.7282 47.222 84.5153 47.1109C84.3598 48.4173 84.2722 49.6319 84.2252 50.6821C83.4146 50.7831 82.6272 50.8987 81.8666 51.0275ZM84.3348 50.6685C84.382 49.6173 84.4701 48.4017 84.6264 47.0952C85.2939 47.0026 85.979 46.9216 86.6796 46.8526C86.5428 48.1646 86.4579 49.3878 86.4059 50.4503C85.7008 50.5127 85.0099 50.5857 84.3348 50.6685ZM86.515 50.4408C86.5673 49.3774 86.6523 48.1538 86.7894 46.8418C87.3746 46.7852 87.9704 46.7373 88.5758 46.6981C88.4962 47.9998 88.444 49.2265 88.4097 50.3039C87.7682 50.341 87.136 50.3867 86.515 50.4405V50.4408ZM88.5182 50.2979C88.5523 49.2196 88.6045 47.9927 88.6836 46.6916C89.1428 46.6628 89.6075 46.6391 90.0769 46.6206C90.0052 47.9233 89.9504 49.1515 89.909 50.234C89.4409 50.2509 88.9769 50.2724 88.5182 50.2981V50.2979ZM90.0178 50.23C90.0589 49.1472 90.1137 47.9187 90.1852 46.6163C90.5532 46.6025 90.9241 46.5921 91.2977 46.5848C91.2576 47.8009 91.227 49.0066 91.2046 50.1989C90.8059 50.206 90.4103 50.2163 90.0175 50.23H90.0178ZM91.3136 50.1969C91.3361 49.0048 91.3666 47.7988 91.4068 46.5828C91.7506 46.5767 92.0967 46.5737 92.4449 46.5732V50.1873C92.0654 50.1875 91.6883 50.1908 91.3136 50.1969ZM92.5542 50.1873V46.5732C92.9023 46.5734 93.2484 46.5767 93.5923 46.5828C93.6324 47.7991 93.663 49.0048 93.6854 50.1969C93.3108 50.1908 92.9336 50.1875 92.5542 50.1873ZM93.7945 50.1989C93.772 49.0066 93.7417 47.8009 93.7013 46.5848C94.075 46.5921 94.4458 46.6025 94.8139 46.6163C94.8856 47.9187 94.9401 49.1472 94.9813 50.23C94.5887 50.2163 94.1929 50.206 93.7942 50.1989H93.7945ZM95.0903 50.2337C95.0489 49.1515 94.9944 47.923 94.9224 46.6204C95.3918 46.6388 95.8565 46.6625 96.3157 46.6913C96.3947 47.9925 96.4468 49.2194 96.4811 50.2976C96.0221 50.2719 95.5584 50.2504 95.0903 50.2335V50.2337ZM96.5896 50.3042C96.5553 49.2265 96.5031 48 96.4235 46.6984C97.0289 46.7375 97.6247 46.7855 98.2099 46.842C98.347 48.154 98.432 49.3777 98.4843 50.441C97.8633 50.3872 97.2311 50.3415 96.5896 50.3044V50.3042ZM98.5934 50.4503C98.5414 49.388 98.4563 48.1646 98.3197 46.8526C99.0203 46.9216 99.7054 47.0028 100.373 47.0952C100.529 48.4017 100.617 49.6173 100.664 50.6685C99.9894 50.5857 99.2985 50.5127 98.5934 50.4503ZM100.774 50.6821C100.727 49.6322 100.639 48.4173 100.484 47.1109C101.271 47.2217 102.034 47.3487 102.768 47.4903C102.974 48.7993 103.082 50.0022 103.133 51.0275C102.372 50.8985 101.585 50.7831 100.774 50.6821ZM103.243 51.0464C103.192 50.0227 103.086 48.8208 102.881 47.5123C103.629 47.6587 104.348 47.8203 105.032 47.996C105.325 49.3239 105.501 50.5248 105.608 51.5149C104.853 51.344 104.064 51.1873 103.243 51.0464ZM105.719 51.5404C105.614 50.5531 105.439 49.3534 105.148 48.026C105.852 48.2091 106.519 48.407 107.146 48.6186C107.195 48.635 107.244 48.6516 107.292 48.6683C107.625 50.0025 107.817 51.1837 107.928 52.1196C107.233 51.9121 106.495 51.7187 105.719 51.5404H105.719ZM108.311 52.2362C108.222 52.2084 108.132 52.1812 108.042 52.1539C107.933 51.2229 107.744 50.0442 107.415 48.7109C108.236 48.998 108.984 49.3085 109.649 49.639C109.956 50.9659 110.069 52.0761 110.104 52.8694C109.547 52.6469 108.948 52.4356 108.311 52.2362Z" fill="#3A3A3A"/>
<path fill-rule="evenodd" clip-rule="evenodd" d="M112.334 57.4784V57.8366C112.577 57.9767 112.819 58.1168 113.062 58.2569V58.4301C107.263 57.9734 100.687 57.6316 94.1112 57.6316C86.2834 57.6316 78.4558 58.1158 71.9377 58.7018V58.2567C72.1804 58.1166 72.423 57.9765 72.6658 57.8364V57.8356C78.9915 57.1747 86.4482 56.793 94.4344 56.793C100.846 56.793 106.916 57.0391 112.334 57.4781L112.334 57.4784Z" fill="#3A3A3A"/>
<path fill-rule="evenodd" clip-rule="evenodd" d="M109.031 67.3544C109.847 67.4389 110.651 67.5296 111.439 67.6262C111.316 62.1692 109.22 62.0786 109.031 67.3544Z" fill="#3A3A3A"/>
<path fill-rule="evenodd" clip-rule="evenodd" d="M102.459 66.828C103.308 66.8772 104.147 66.9328 104.974 66.9944C104.832 61.8655 102.646 61.8108 102.459 66.828Z" fill="#3A3A3A"/>
<path fill-rule="evenodd" clip-rule="evenodd" d="M94.6316 66.5636C95.5523 66.5732 96.4652 66.5901 97.3692 66.6141C97.2415 61.5135 94.7747 61.4964 94.6316 66.5636Z" fill="#3A3A3A"/>
<path fill-rule="evenodd" clip-rule="evenodd" d="M87.2339 66.6447C88.1397 66.6149 89.0551 66.5925 89.9786 66.5771C89.8788 61.4475 87.3116 61.4697 87.2339 66.6447Z" fill="#3A3A3A"/>
<path fill-rule="evenodd" clip-rule="evenodd" d="M79.9155 67.0527C80.8605 66.9774 81.8205 66.91 82.794 66.8512C82.617 61.657 80.0304 61.7244 79.9155 67.0527Z" fill="#3A3A3A"/>
<path fill-rule="evenodd" clip-rule="evenodd" d="M73.5571 67.7078C74.5296 67.5833 75.5247 67.468 76.5406 67.3624C76.3336 62.0369 73.6571 62.1515 73.5571 67.7078Z" fill="#3A3A3A"/>
<path fill-rule="evenodd" clip-rule="evenodd" d="M123 76.0004C115.659 74.7308 104.08 73.205 92.5001 73.205C80.9204 73.205 69.3403 74.7306 62 76.0004C73.267 70.608 111.655 70.5701 123 76.0004Z" fill="#3A3A3A"/>
<path fill-rule="evenodd" clip-rule="evenodd" d="M110.994 59.8849V61.8612H111.672V59.8849C111.672 58.9186 110.994 58.9186 110.994 59.8849Z" fill="#3A3A3A"/>
<path fill-rule="evenodd" clip-rule="evenodd" d="M109.547 59.8849V61.8612H110.225V59.8849C110.225 58.9186 109.547 58.9186 109.547 59.8849Z" fill="#3A3A3A"/>
<path fill-rule="evenodd" clip-rule="evenodd" d="M104.678 59.6144V61.5906H105.357V59.6144C105.357 58.6481 104.678 58.6481 104.678 59.6144Z" fill="#3A3A3A"/>
<path fill-rule="evenodd" clip-rule="evenodd" d="M102.827 59.6144V61.5906H103.505V59.6144C103.505 58.6481 102.827 58.6481 102.827 59.6144Z" fill="#3A3A3A"/>
<path fill-rule="evenodd" clip-rule="evenodd" d="M97.5295 59.5718V61.4322H98.2081V59.5718C98.2081 58.6623 97.5295 58.6623 97.5295 59.5718Z" fill="#3A3A3A"/>
<path fill-rule="evenodd" clip-rule="evenodd" d="M94.8865 59.5718V61.4322H95.5651V59.5718C95.5651 58.6623 94.8865 58.6623 94.8865 59.5718Z" fill="#3A3A3A"/>
<path fill-rule="evenodd" clip-rule="evenodd" d="M90.2441 59.5718V61.4322H90.9227V59.5718C90.9227 58.6623 90.2441 58.6623 90.2441 59.5718Z" fill="#3A3A3A"/>
<path fill-rule="evenodd" clip-rule="evenodd" d="M87.6016 59.6144V61.5906H88.2802V59.6144C88.2802 58.6481 87.6016 58.6481 87.6016 59.6144Z" fill="#3A3A3A"/>
<path fill-rule="evenodd" clip-rule="evenodd" d="M82.0459 59.6144V61.5906H82.7245V59.6144C82.7245 58.6481 82.0459 58.6481 82.0459 59.6144Z" fill="#3A3A3A"/>
<path fill-rule="evenodd" clip-rule="evenodd" d="M80.1943 59.6144V61.5906H80.8729V59.6144C80.8729 58.6481 80.1943 58.6481 80.1943 59.6144Z" fill="#3A3A3A"/>
<path fill-rule="evenodd" clip-rule="evenodd" d="M75.5659 59.8849V61.8612H76.2445V59.8849C76.2445 58.9186 75.5659 58.9186 75.5659 59.8849Z" fill="#3A3A3A"/>
<path fill-rule="evenodd" clip-rule="evenodd" d="M74.1196 59.8849V61.8612H74.7982V59.8849C74.7982 58.9186 74.1196 58.9186 74.1196 59.8849Z" fill="#3A3A3A"/>
<path fill-rule="evenodd" clip-rule="evenodd" d="M113.062 61.5326V61.9075C113.806 62.1067 114.549 62.3059 115.292 62.5053L115.001 62.5833C108.752 62.0491 101.432 61.6258 94.1109 61.6258C85.6653 61.6258 77.2203 62.1892 70.4195 62.8363V62.6962C70.1819 62.6325 69.9443 62.5689 69.707 62.5053C70.4505 62.3061 71.194 62.1069 71.9375 61.9075C78.4159 61.1989 86.1395 60.7871 94.4338 60.7871C101.134 60.7871 107.462 61.056 113.062 61.5326H113.062Z" fill="#3A3A3A"/>
<path fill-rule="evenodd" clip-rule="evenodd" d="M92.4999 22.6816C92.558 23.1237 92.6161 23.5655 92.6741 24.0075C93.3499 24.0075 93.2838 24.8914 92.741 24.8914V25.9494C93.41 25.9494 93.3966 26.9807 92.7544 26.9807V27.9448C93.3419 27.9448 93.3277 28.9493 92.7678 28.9493V29.5653C93.537 30.4421 94.255 31.1923 94.9593 31.8649C94.2118 32.2491 93.3787 32.4642 92.4999 32.4642C91.6211 32.4642 90.788 32.2491 90.0405 31.8649C90.7449 31.1923 91.4628 30.4421 92.2321 29.5653V28.9493C91.6721 28.9493 91.658 27.9448 92.2455 27.9448V26.9807C91.6032 26.9807 91.5898 25.9494 92.2588 25.9494V24.8914C91.7161 24.8914 91.6502 24.0075 92.3257 24.0075C92.3838 23.5655 92.4419 23.1237 92.4999 22.6816Z" fill="#3A3A3A"/>
<path fill-rule="evenodd" clip-rule="evenodd" d="M92.6741 24.0078C93.3499 24.0078 93.2838 24.8917 92.741 24.8917V24.932H92.2588V24.8917C91.7161 24.8917 91.6502 24.0078 92.3257 24.0078H92.6739H92.6741ZM92.741 25.9497C93.41 25.9497 93.3966 26.981 92.7544 26.981H92.2455C91.6032 26.981 91.5898 25.9497 92.2588 25.9497H92.741ZM92.7544 27.9451C93.3075 27.9451 93.3272 28.8357 92.8599 28.9395H92.1399C91.6726 28.8357 91.6923 27.9451 92.2455 27.9451H92.7544ZM92.7678 29.5656C93.537 30.4423 94.255 31.1926 94.9593 31.8652C94.2118 32.2494 93.3787 32.4645 92.4999 32.4645C91.6211 32.4645 90.788 32.2494 90.0405 31.8652C90.7449 31.1926 91.4628 30.4423 92.2321 29.5656H92.7678Z" fill="#3A3A3A"/>
<path fill-rule="evenodd" clip-rule="evenodd" d="M111.68 53.7896C111.887 54.7987 112.294 54.0797 112.331 56.0817C106.676 55.5949 100.458 55.2521 94.2387 55.2521C86.7145 55.2521 79.1909 55.7542 72.6655 56.4053V55.0284C72.7163 54.8386 72.8319 54.627 73.0745 54.2239C79.4568 53.5059 86.788 53.0972 94.5873 53.0972C100.642 53.0972 106.414 53.3436 111.68 53.7896H111.68Z" fill="#3A3A3A"/>
<path fill-rule="evenodd" clip-rule="evenodd" d="M114.58 68.2372C115.055 68.4624 115.26 69.4071 115.29 69.9498C99.7871 67.6833 85.2784 67.728 69.7752 69.9869C69.6664 69.5123 70.1885 68.2374 70.42 68.1973C82.9412 66.0254 102.341 65.3877 114.58 68.2372Z" fill="#3A3A3A"/>
<g clip-path="url(#clip0_7170_84723)">
<path d="M72.0974 64.8037H62.9023V77H72.0974V64.8037Z" fill="#343434"/>
<path d="M72.3138 63.5635H62.6858V64.8371C62.6858 64.8719 62.6992 64.905 62.7232 64.9292C62.7472 64.9537 62.7797 64.9675 62.8137 64.9675H72.186C72.2199 64.9675 72.2524 64.9537 72.2764 64.9292C72.3004 64.905 72.3138 64.8719 72.3138 64.8371V63.5635Z" fill="#343434"/>
<path d="M72.6545 61.9761H62.3455V63.4151C62.3455 63.5642 62.4536 63.6851 62.587 63.6851H72.4128C72.5462 63.6851 72.6543 63.5642 72.6543 63.4151V61.9761H72.6545Z" fill="#343434"/>
<path d="M73 61.1142C73 61.0858 72.9896 61.0587 72.9713 61.0386C72.953 61.0185 72.928 61.0073 72.902 61.0073H62.098C62.072 61.0073 62.047 61.0185 62.0287 61.0386C62.0104 61.0587 62 61.0858 62 61.1142V61.8327C62 61.9656 62.0988 62.0735 62.2208 62.0735H72.779C72.901 62.0735 72.9998 61.9656 72.9998 61.8327V61.1142H73Z" fill="#343434"/>
<path d="M71.3014 43.7632H63.6985V58.1489H71.3014V43.7632Z" fill="#202020"/>
<path d="M71.3017 47.3491L70.7002 46.8739C70.6061 46.7998 70.4737 46.7998 70.3798 46.8739L69.9157 47.2402C69.7718 47.3536 69.5691 47.3536 69.4252 47.2402L68.9623 46.8747C68.8682 46.8006 68.7359 46.8006 68.6417 46.8747L68.1789 47.2402C68.0349 47.3536 67.8323 47.3536 67.6883 47.2402L67.2255 46.8749C67.1314 46.8008 66.999 46.8008 66.9051 46.8749L66.442 47.2402C66.2981 47.3536 66.0954 47.3536 65.9515 47.2402L65.4886 46.8747C65.3945 46.8006 65.2622 46.8006 65.1683 46.8747L64.7054 47.2402C64.5615 47.3536 64.3588 47.3536 64.2149 47.2402L63.6987 46.8329V46.4614L64.347 46.9733C64.4133 47.0255 64.5068 47.0255 64.5733 46.9733L65.0312 46.6115C65.2057 46.4738 65.4512 46.4738 65.6256 46.6115L66.0999 46.9859C66.1568 47.031 66.2369 47.0306 66.2938 46.9855L66.7699 46.6076C66.9453 46.4683 67.1936 46.4687 67.3684 46.6091L67.8522 46.9971C67.9 47.0352 67.9679 47.0356 68.016 46.9977L68.5049 46.6115C68.6793 46.4738 68.9249 46.4738 69.0993 46.6115L69.5939 47.0021C69.639 47.0377 69.7025 47.0377 69.7476 47.0021L70.243 46.6109C70.4174 46.4732 70.663 46.4732 70.8374 46.6109L71.3021 46.9778V47.3491H71.3017Z" fill="#343434"/>
<path d="M71.3017 48.0859L70.7002 47.6107C70.6061 47.5366 70.4737 47.5366 70.3798 47.6107L69.9157 47.977C69.7718 48.0905 69.5691 48.0905 69.4252 47.977L68.9623 47.6115C68.8682 47.5372 68.7359 47.5372 68.6417 47.6115L68.1789 47.977C68.0349 48.0905 67.8323 48.0905 67.6883 47.977L67.2255 47.6117C67.1314 47.5374 66.999 47.5374 66.9051 47.6117L66.442 47.977C66.2981 48.0905 66.0954 48.0905 65.9515 47.977L65.4886 47.6115C65.3945 47.5372 65.2622 47.5372 65.1683 47.6115L64.7054 47.977C64.5615 48.0905 64.3588 48.0905 64.2149 47.977L63.6987 47.5697V47.1982L64.347 47.7101C64.4133 47.7623 64.5068 47.7623 64.5733 47.7101L65.0312 47.3484C65.2057 47.2107 65.4512 47.2107 65.6256 47.3484L66.0999 47.7227C66.1568 47.7679 66.2369 47.7674 66.2938 47.7223L66.7699 47.3444C66.9453 47.2051 67.1936 47.2055 67.3684 47.3459L67.8522 47.7339C67.9 47.772 67.9679 47.7724 68.016 47.7345L68.5049 47.3484C68.6793 47.2107 68.9249 47.2107 69.0993 47.3484L69.5939 47.7387C69.639 47.7743 69.7025 47.7743 69.7476 47.7387L70.243 47.3475C70.4174 47.2098 70.663 47.2098 70.8374 47.3475L71.3021 47.7144V48.0857L71.3017 48.0859Z" fill="#343434"/>
<path d="M71.3017 48.8237L70.7002 48.3485C70.6061 48.2744 70.4737 48.2744 70.3798 48.3485L69.9157 48.7148C69.7718 48.8282 69.5691 48.8282 69.4252 48.7148L68.9623 48.3493C68.8682 48.275 68.7359 48.275 68.6417 48.3493L68.1789 48.7148C68.0349 48.8282 67.8323 48.8282 67.6883 48.7148L67.2255 48.3495C67.1314 48.2752 66.999 48.2752 66.9051 48.3495L66.442 48.7148C66.2981 48.8282 66.0954 48.8282 65.9515 48.7148L65.4886 48.3493C65.3945 48.275 65.2622 48.275 65.1683 48.3493L64.7054 48.7148C64.5615 48.8282 64.3588 48.8282 64.2149 48.7148L63.6987 48.3075V47.936L64.347 48.4479C64.4133 48.5001 64.5068 48.5001 64.5733 48.4479L65.0312 48.0862C65.2057 47.9485 65.4512 47.9485 65.6256 48.0862L66.0999 48.4605C66.1568 48.5056 66.2369 48.5052 66.2938 48.4601L66.7699 48.0822C66.9453 47.9429 67.1936 47.9433 67.3684 48.0837L67.8522 48.4717C67.9 48.5098 67.9679 48.5102 68.016 48.4723L68.5049 48.0862C68.6793 47.9485 68.9249 47.9485 69.0993 48.0862L69.5939 48.4767C69.639 48.5123 69.7025 48.5123 69.7476 48.4767L70.243 48.0855C70.4174 47.9478 70.663 47.9478 70.8374 48.0855L71.3021 48.4524V48.8237H71.3017Z" fill="#343434"/>
<path d="M71.3017 49.5605L70.7002 49.0853C70.6061 49.011 70.4737 49.011 70.3798 49.0853L69.9157 49.4516C69.7718 49.5651 69.5691 49.5651 69.4252 49.4516L68.9623 49.0861C68.8682 49.0118 68.7359 49.0118 68.6417 49.0861L68.1789 49.4516C68.0349 49.5651 67.8323 49.5651 67.6883 49.4516L67.2255 49.0863C67.1314 49.0122 66.999 49.0122 66.9051 49.0863L66.442 49.4516C66.2981 49.5651 66.0954 49.5651 65.9515 49.4516L65.4886 49.0861C65.3945 49.0118 65.2622 49.0118 65.1683 49.0861L64.7054 49.4516C64.5615 49.5651 64.3588 49.5651 64.2149 49.4516L63.6987 49.0443V48.6729L64.347 49.1847C64.4133 49.2369 64.5068 49.2369 64.5733 49.1847L65.0312 48.823C65.2057 48.6853 65.4512 48.6853 65.6256 48.823L66.0999 49.1973C66.1568 49.2425 66.2369 49.2421 66.2938 49.1969L66.7699 48.819C66.9453 48.6797 67.1936 48.6801 67.3684 48.8205L67.8522 49.2085C67.9 49.2466 67.9679 49.247 68.016 49.2091L68.5049 48.823C68.6793 48.6853 68.9249 48.6853 69.0993 48.823L69.5939 49.2135C69.639 49.2491 69.7025 49.2491 69.7476 49.2135L70.243 48.8223C70.4174 48.6847 70.663 48.6847 70.8374 48.8223L71.3021 49.1892V49.5605H71.3017Z" fill="#343434"/>
<path d="M71.3017 50.2983L70.7002 49.8231C70.6061 49.7488 70.4737 49.7488 70.3798 49.8231L69.9157 50.1894C69.7718 50.3028 69.5691 50.3028 69.4252 50.1894L68.9623 49.8239C68.8682 49.7496 68.7359 49.7496 68.6417 49.8239L68.1789 50.1894C68.0349 50.3028 67.8323 50.3028 67.6883 50.1894L67.2255 49.8241C67.1314 49.75 66.999 49.75 66.9051 49.8241L66.442 50.1894C66.2981 50.3028 66.0954 50.3028 65.9515 50.1894L65.4886 49.8239C65.3945 49.7496 65.2622 49.7496 65.1683 49.8239L64.7054 50.1894C64.5615 50.3028 64.3588 50.3028 64.2149 50.1894L63.6987 49.7821V49.4106L64.347 49.9225C64.4133 49.9747 64.5068 49.9747 64.5733 49.9225L65.0312 49.5608C65.2057 49.4231 65.4512 49.4231 65.6256 49.5608L66.0999 49.9351C66.1568 49.9803 66.2369 49.9798 66.2938 49.9347L66.7699 49.5568C66.9453 49.4175 67.1936 49.4179 67.3684 49.5583L67.8522 49.9463C67.9 49.9844 67.9679 49.9848 68.016 49.9469L68.5049 49.5608C68.6793 49.4231 68.9249 49.4231 69.0993 49.5608L69.5939 49.9513C69.639 49.9869 69.7025 49.9869 69.7476 49.9513L70.243 49.5601C70.4174 49.4224 70.663 49.4224 70.8374 49.5601L71.3021 49.927V50.2983H71.3017Z" fill="#343434"/>
<path d="M71.3017 51.0312L70.7002 50.556C70.6061 50.4817 70.4737 50.4817 70.3798 50.556L69.9157 50.9223C69.7718 51.0358 69.5691 51.0358 69.4252 50.9223L68.9623 50.5568C68.8682 50.4827 68.7359 50.4827 68.6417 50.5568L68.1789 50.9223C68.0349 51.0358 67.8323 51.0358 67.6883 50.9223L67.2255 50.557C67.1314 50.4829 66.999 50.4829 66.9051 50.557L66.442 50.9223C66.2981 51.0358 66.0954 51.0358 65.9515 50.9223L65.4886 50.5568C65.3945 50.4827 65.2622 50.4827 65.1683 50.5568L64.7054 50.9223C64.5615 51.0358 64.3588 51.0358 64.2149 50.9223L63.6987 50.515V50.1436L64.347 50.6554C64.4133 50.7076 64.5068 50.7076 64.5733 50.6554L65.0312 50.2937C65.2057 50.156 65.4512 50.156 65.6256 50.2937L66.0999 50.668C66.1568 50.7132 66.2369 50.7128 66.2938 50.6676L66.7699 50.2897C66.9453 50.1504 67.1936 50.1508 67.3684 50.2912L67.8522 50.6792C67.9 50.7173 67.9679 50.7177 68.016 50.6798L68.5049 50.2937C68.6793 50.156 68.9249 50.156 69.0993 50.2937L69.5939 50.684C69.639 50.7196 69.7025 50.7196 69.7476 50.684L70.243 50.2928C70.4174 50.1551 70.663 50.1551 70.8374 50.2928L71.3021 50.6597V51.031L71.3017 51.0312Z" fill="#343434"/>
<path d="M71.3017 51.769L70.7002 51.2938C70.6061 51.2195 70.4737 51.2195 70.3798 51.2938L69.9157 51.6601C69.7718 51.7736 69.5691 51.7736 69.4252 51.6601L68.9623 51.2946C68.8682 51.2203 68.7359 51.2203 68.6417 51.2946L68.1789 51.6601C68.0349 51.7736 67.8323 51.7736 67.6883 51.6601L67.2255 51.2948C67.1314 51.2207 66.999 51.2207 66.9051 51.2948L66.442 51.6601C66.2981 51.7736 66.0954 51.7736 65.9515 51.6601L65.4886 51.2946C65.3945 51.2203 65.2622 51.2203 65.1683 51.2946L64.7054 51.6601C64.5615 51.7736 64.3588 51.7736 64.2149 51.6601L63.6987 51.2528V50.8813L64.347 51.3932C64.4133 51.4454 64.5068 51.4454 64.5733 51.3932L65.0312 51.0315C65.2057 50.8938 65.4512 50.8938 65.6256 51.0315L66.0999 51.4058C66.1568 51.451 66.2369 51.4505 66.2938 51.4054L66.7699 51.0275C66.9453 50.8882 67.1936 50.8886 67.3684 51.029L67.8522 51.417C67.9 51.4551 67.9679 51.4555 68.016 51.4176L68.5049 51.0315C68.6793 50.8938 68.9249 50.8938 69.0993 51.0315L69.5939 51.4218C69.639 51.4574 69.7025 51.4574 69.7476 51.4218L70.243 51.0306C70.4174 50.8929 70.663 50.8929 70.8374 51.0306L71.3021 51.3975V51.7688L71.3017 51.769Z" fill="#343434"/>
<path d="M71.3017 52.5058L70.7002 52.0306C70.6061 51.9563 70.4737 51.9563 70.3798 52.0306L69.9157 52.3969C69.7718 52.5104 69.5691 52.5104 69.4252 52.3969L68.9623 52.0314C68.8682 51.9571 68.7359 51.9571 68.6417 52.0314L68.1789 52.3969C68.0349 52.5104 67.8323 52.5104 67.6883 52.3969L67.2255 52.0317C67.1314 51.9575 66.999 51.9575 66.9051 52.0317L66.442 52.3969C66.2981 52.5104 66.0954 52.5104 65.9515 52.3969L65.4886 52.0314C65.3945 51.9571 65.2622 51.9571 65.1683 52.0314L64.7054 52.3969C64.5615 52.5104 64.3588 52.5104 64.2149 52.3969L63.6987 51.9896V51.6182L64.347 52.13C64.4133 52.1822 64.5068 52.1822 64.5733 52.13L65.0312 51.7683C65.2057 51.6306 65.4512 51.6306 65.6256 51.7683L66.0999 52.1426C66.1568 52.1878 66.2369 52.1874 66.2938 52.1422L66.7699 51.7643C66.9453 51.625 67.1936 51.6254 67.3684 51.7658L67.8522 52.1538C67.9 52.1919 67.9679 52.1923 68.016 52.1544L68.5049 51.7683C68.6793 51.6306 68.9249 51.6306 69.0993 51.7683L69.5939 52.1588C69.639 52.1944 69.7025 52.1944 69.7476 52.1588L70.243 51.7677C70.4174 51.63 70.663 51.63 70.8374 51.7677L71.3021 52.1346V52.5058H71.3017Z" fill="#343434"/>
<path d="M71.3017 53.2436L70.7002 52.7684C70.6061 52.6943 70.4737 52.6943 70.3798 52.7684L69.9157 53.1347C69.7718 53.2482 69.5691 53.2482 69.4252 53.1347L68.9623 52.7692C68.8682 52.6951 68.7359 52.6951 68.6417 52.7692L68.1789 53.1347C68.0349 53.2482 67.8323 53.2482 67.6883 53.1347L67.2255 52.7694C67.1314 52.6953 66.999 52.6953 66.9051 52.7694L66.442 53.1347C66.2981 53.2482 66.0954 53.2482 65.9515 53.1347L65.4886 52.7692C65.3945 52.6951 65.2622 52.6951 65.1683 52.7692L64.7054 53.1347C64.5615 53.2482 64.3588 53.2482 64.2149 53.1347L63.6987 52.7274V52.356L64.347 52.8678C64.4133 52.92 64.5068 52.92 64.5733 52.8678L65.0312 52.5061C65.2057 52.3684 65.4512 52.3684 65.6256 52.5061L66.0999 52.8804C66.1568 52.9256 66.2369 52.9252 66.2938 52.88L66.7699 52.5021C66.9453 52.3628 67.1936 52.3632 67.3684 52.5036L67.8522 52.8916C67.9 52.9297 67.9679 52.9301 68.016 52.8922L68.5049 52.5061C68.6793 52.3684 68.9249 52.3684 69.0993 52.5061L69.5939 52.8966C69.639 52.9322 69.7025 52.9322 69.7476 52.8966L70.243 52.5055C70.4174 52.3678 70.663 52.3678 70.8374 52.5055L71.3021 52.8724V53.2436H71.3017Z" fill="#343434"/>
<path d="M71.3017 53.9765L70.7002 53.5013C70.6061 53.4272 70.4737 53.4272 70.3798 53.5013L69.9157 53.8676C69.7718 53.9811 69.5691 53.9811 69.4252 53.8676L68.9623 53.5022C68.8682 53.4278 68.7359 53.4278 68.6417 53.5022L68.1789 53.8676C68.0349 53.9811 67.8323 53.9811 67.6883 53.8676L67.2255 53.5024C67.1314 53.428 66.999 53.428 66.9051 53.5024L66.442 53.8676C66.2981 53.9811 66.0954 53.9811 65.9515 53.8676L65.4886 53.5022C65.3945 53.4278 65.2622 53.4278 65.1683 53.5022L64.7054 53.8676C64.5615 53.9811 64.3588 53.9811 64.2149 53.8676L63.6987 53.4603V53.0889L64.347 53.6007C64.4133 53.6529 64.5068 53.6529 64.5733 53.6007L65.0312 53.239C65.2057 53.1013 65.4512 53.1013 65.6256 53.239L66.0999 53.6133C66.1568 53.6585 66.2369 53.6581 66.2938 53.6129L66.7699 53.2351C66.9453 53.0957 67.1936 53.0961 67.3684 53.2365L67.8522 53.6245C67.9 53.6626 67.9679 53.663 68.016 53.6251L68.5049 53.239C68.6793 53.1013 68.9249 53.1013 69.0993 53.239L69.5939 53.6293C69.639 53.6649 69.7025 53.6649 69.7476 53.6293L70.243 53.2382C70.4174 53.1005 70.663 53.1005 70.8374 53.2382L71.3021 53.6051V53.9763L71.3017 53.9765Z" fill="#343434"/>
<path d="M71.3017 54.7143L70.7002 54.2391C70.6061 54.165 70.4737 54.165 70.3798 54.2391L69.9157 54.6054C69.7718 54.7189 69.5691 54.7189 69.4252 54.6054L68.9623 54.2399C68.8682 54.1656 68.7359 54.1656 68.6417 54.2399L68.1789 54.6054C68.0349 54.7189 67.8323 54.7189 67.6883 54.6054L67.2255 54.2402C67.1314 54.166 66.999 54.166 66.9051 54.2402L66.442 54.6054C66.2981 54.7189 66.0954 54.7189 65.9515 54.6054L65.4886 54.2399C65.3945 54.1656 65.2622 54.1656 65.1683 54.2399L64.7054 54.6054C64.5615 54.7189 64.3588 54.7189 64.2149 54.6054L63.6987 54.1981V53.8267L64.347 54.3385C64.4133 54.3907 64.5068 54.3907 64.5733 54.3385L65.0312 53.9768C65.2057 53.8391 65.4512 53.8391 65.6256 53.9768L66.0999 54.3511C66.1568 54.3963 66.2369 54.3959 66.2938 54.3507L66.7699 53.9728C66.9453 53.8335 67.1936 53.8339 67.3684 53.9743L67.8522 54.3623C67.9 54.4004 67.9679 54.4008 68.016 54.3629L68.5049 53.9768C68.6793 53.8391 68.9249 53.8391 69.0993 53.9768L69.5939 54.3673C69.639 54.4029 69.7025 54.4029 69.7476 54.3673L70.243 53.9762C70.4174 53.8385 70.663 53.8385 70.8374 53.9762L71.3021 54.3431V54.7143H71.3017Z" fill="#343434"/>
<path d="M71.3017 55.4516L70.7002 54.9764C70.6061 54.9023 70.4737 54.9023 70.3798 54.9764L69.9157 55.3427C69.7718 55.4562 69.5691 55.4562 69.4252 55.3427L68.9623 54.9772C68.8682 54.9029 68.7359 54.9029 68.6417 54.9772L68.1789 55.3427C68.0349 55.4562 67.8323 55.4562 67.6883 55.3427L67.2255 54.9775C67.1314 54.9033 66.999 54.9033 66.9051 54.9775L66.442 55.3427C66.2981 55.4562 66.0954 55.4562 65.9515 55.3427L65.4886 54.9772C65.3945 54.9029 65.2622 54.9029 65.1683 54.9772L64.7054 55.3427C64.5615 55.4562 64.3588 55.4562 64.2149 55.3427L63.6987 54.9354V54.564L64.347 55.0758C64.4133 55.128 64.5068 55.128 64.5733 55.0758L65.0312 54.7141C65.2057 54.5764 65.4512 54.5764 65.6256 54.7141L66.0999 55.0884C66.1568 55.1336 66.2369 55.1332 66.2938 55.088L66.7699 54.7101C66.9453 54.5708 67.1936 54.5712 67.3684 54.7116L67.8522 55.0996C67.9 55.1377 67.9679 55.1381 68.016 55.1002L68.5049 54.7141C68.6793 54.5764 68.9249 54.5764 69.0993 54.7141L69.5939 55.1046C69.639 55.1402 69.7025 55.1402 69.7476 55.1046L70.243 54.7135C70.4174 54.5758 70.663 54.5758 70.8374 54.7135L71.3021 55.0804V55.4516H71.3017Z" fill="#343434"/>
<path d="M72.8648 58.1206H62.135V61.0465H72.8648V58.1206Z" fill="#343434"/>
<path d="M69.803 17H65.197V18.2854H69.803V17Z" fill="#202020"/>
<path d="M70.1699 18.3736C70.1699 18.2481 70.0698 18.146 69.9462 18.146H65.0534C64.9298 18.146 64.8298 18.2481 64.8298 18.3736V21.1785H70.1699V18.3736Z" fill="#343434"/>
<path d="M67.728 3.13428H67.2719L66.6252 10.761H68.3749L67.7283 3.13428H67.728Z" fill="#343434"/>
<path d="M68.4164 9.25612C68.3997 9.1675 68.3237 9.10352 68.2353 9.10352H66.7647C66.6763 9.10352 66.6003 9.1675 66.5836 9.25612C66.5633 9.36379 66.5358 9.50976 66.5131 9.63068C66.5027 9.68576 66.5169 9.74249 66.5521 9.78577C66.5871 9.82904 66.6393 9.85389 66.6942 9.85389H68.3056C68.3607 9.85389 68.4127 9.82883 68.4477 9.78577C68.4827 9.74249 68.4971 9.68576 68.4867 9.63068C68.464 9.50997 68.4365 9.36379 68.4162 9.25612H68.4164Z" fill="#202020"/>
<path d="M68.3134 6.87055C68.2987 6.7225 68.1765 6.60986 68.0306 6.60986H66.9695C66.8235 6.60986 66.7011 6.7225 66.6867 6.87055C66.6682 7.05814 66.6432 7.31199 66.6235 7.5116C66.6155 7.59297 66.6416 7.67413 66.6954 7.7348C66.7493 7.79547 66.8259 7.83005 66.9062 7.83005H68.0936C68.1739 7.83005 68.2505 7.79547 68.3044 7.7348C68.3583 7.67413 68.3845 7.59297 68.3764 7.5116C68.3567 7.31199 68.3316 7.05793 68.3131 6.87055H68.3134Z" fill="#202020"/>
<path d="M68.0354 4.55073C68.0213 4.45052 67.937 4.37598 67.8374 4.37598H67.1466C67.045 4.37598 66.9596 4.45362 66.948 4.55632C66.9303 4.71306 66.9047 4.94103 66.8856 5.1102C66.8791 5.16776 66.897 5.22553 66.935 5.26901C66.973 5.31229 67.0273 5.33713 67.0842 5.33713H67.9152C67.9731 5.33713 68.0282 5.31146 68.0663 5.26694C68.1043 5.22222 68.1213 5.16321 68.113 5.10461C68.089 4.93399 68.0569 4.70602 68.0349 4.55073H68.0354Z" fill="#202020"/>
<path d="M68.7632 2.90891C68.4473 3.24393 68.01 3.42925 67.5512 3.375C66.7269 3.27789 66.1435 2.4449 66.2492 1.51604C66.3547 0.587188 67.1097 -0.0878162 67.9338 0.00929332C68.0232 0.0198532 68.11 0.0391095 68.1932 0.0662339C67.5764 0.145744 67.0633 0.67146 66.9849 1.36137C66.8936 2.16537 67.4266 2.88966 68.1747 2.97786C68.3794 3.00209 68.579 2.976 68.763 2.90912L68.7632 2.90891Z" fill="#202020"/>
<path d="M67.5 10.7357C67.5 10.7357 68.0599 10.7337 68.3902 10.7324C68.5268 10.732 68.6435 10.8324 68.6657 10.9697C68.7449 11.4339 68.9462 12.5402 69.2885 13.9662C69.5253 14.9524 70.0514 15.9618 70.0514 15.9618L67.4998 15.9797L64.9482 15.9618C64.9482 15.9618 65.4743 14.9524 65.7112 13.9662C66.0537 12.5402 66.2549 11.4339 66.3342 10.9697C66.3564 10.8324 66.4731 10.7318 66.6097 10.7324C66.94 10.7335 67.4998 10.7355 67.4998 10.7355L67.5 10.7357Z" fill="#343434"/>
<path d="M70.2442 15.8201C70.2442 15.6824 70.1347 15.5708 69.9995 15.5708H65.0004C64.8652 15.5708 64.7556 15.6824 64.7556 15.8201V16.809C64.7556 16.9467 64.8652 17.0585 65.0004 17.0585H69.9995C70.1347 17.0585 70.2442 16.9469 70.2442 16.809V15.8201Z" fill="#343434"/>
<path d="M64.0838 58.5718H62.6899V60.5962H64.0838V58.5718Z" fill="#202020"/>
<path d="M66.1402 58.5718H64.7463V60.5962H66.1402V58.5718Z" fill="#202020"/>
<path d="M68.1966 58.5718H66.8027V60.5962H68.1966V58.5718Z" fill="#202020"/>
<path d="M70.2535 58.5718H68.8596V60.5962H70.2535V58.5718Z" fill="#202020"/>
<path d="M72.3102 58.5718H70.9163V60.5962H72.3102V58.5718Z" fill="#202020"/>
<path d="M70.7284 26.1289H64.2717V38.1243H70.7284V26.1289Z" fill="#343434"/>
<path d="M66.8441 38.1463L66.8359 30.2935L67.499 29.5508L68.1622 30.2935V38.1463H66.8441Z" fill="#202020"/>
<path d="M67.4989 28.6288C67.7688 28.6288 67.9876 28.406 67.9876 28.1311C67.9876 27.8562 67.7688 27.6333 67.4989 27.6333C67.229 27.6333 67.0103 27.8562 67.0103 28.1311C67.0103 28.406 67.229 28.6288 67.4989 28.6288Z" fill="#202020"/>
<path d="M64.9339 38.1463L64.9268 30.2935L65.5106 29.5508L66.0944 30.2935V38.1463H64.9341H64.9339Z" fill="#202020"/>
<path d="M65.5104 28.6288C65.7481 28.6288 65.9408 28.406 65.9408 28.1311C65.9408 27.8562 65.7481 27.6333 65.5104 27.6333C65.2728 27.6333 65.0801 27.8562 65.0801 28.1311C65.0801 28.406 65.2728 28.6288 65.5104 28.6288Z" fill="#202020"/>
<path d="M70.0658 38.1463L70.0729 30.2935L69.4891 29.5508L68.9053 30.2935V38.1463H70.0656H70.0658Z" fill="#202020"/>
<path d="M69.4892 28.6288C69.7269 28.6288 69.9195 28.406 69.9195 28.1311C69.9195 27.8562 69.7269 27.6333 69.4892 27.6333C69.2515 27.6333 69.0588 27.8562 69.0588 28.1311C69.0588 28.406 69.2515 28.6288 69.4892 28.6288Z" fill="#202020"/>
<path d="M70.9967 25.1094H64.0032V26.0345C64.0032 26.0598 64.0129 26.0838 64.0304 26.1014C64.0479 26.1192 64.0715 26.1291 64.0961 26.1291H70.9036C70.9282 26.1291 70.9518 26.1192 70.9692 26.1014C70.9867 26.0838 70.9965 26.0598 70.9965 26.0345V25.1094H70.9967Z" fill="#343434"/>
<path d="M71.2438 24.0083H63.7559V25.01C63.7559 25.1138 63.8345 25.198 63.9313 25.198H71.0683C71.1653 25.198 71.2438 25.114 71.2438 25.01V24.0083Z" fill="#343434"/>
<path d="M71.4949 23.3047C71.4949 23.2833 71.4874 23.2628 71.4739 23.2477C71.4605 23.2326 71.4424 23.2241 71.4235 23.2241H63.5762C63.5573 23.2241 63.5392 23.2326 63.5258 23.2477C63.5124 23.2628 63.5049 23.2833 63.5049 23.3047V23.8463C63.5049 23.9465 63.5766 24.0277 63.6653 24.0277H71.3343C71.4229 24.0277 71.4947 23.9465 71.4947 23.8463V23.3047H71.4949Z" fill="#343434"/>
<path d="M71.3967 21.1562H63.603V23.2815H71.3967V21.1562Z" fill="#343434"/>
<path d="M65.0187 21.4839H64.0061V22.9542H65.0187V21.4839Z" fill="#202020"/>
<path d="M66.5123 21.4839H65.4998V22.9542H66.5123V21.4839Z" fill="#202020"/>
<path d="M68.0062 21.4839H66.9937V22.9542H68.0062V21.4839Z" fill="#202020"/>
<path d="M69.5001 21.4839H68.4875V22.9542H69.5001V21.4839Z" fill="#202020"/>
<path d="M70.9937 21.4839H69.9812V22.9542H70.9937V21.4839Z" fill="#202020"/>
<path d="M66.566 77.0001L66.5544 71.0032L67.4987 69.9453L68.4429 71.0032V77.0001H66.566Z" fill="#202020"/>
<path d="M67.9909 68.4247C68.2627 68.1478 68.2627 67.6989 67.9909 67.422C67.7191 67.1452 67.2784 67.1452 67.0066 67.422C66.7348 67.6989 66.7348 68.1478 67.0066 68.4247C67.2784 68.7015 67.7191 68.7015 67.9909 68.4247Z" fill="#202020"/>
<path d="M63.8456 77.0001L63.8354 71.0032L64.6667 69.9453L65.4979 71.0032V77.0001H63.8454H63.8456Z" fill="#202020"/>
<path d="M64.6666 68.6323C65.0051 68.6323 65.2795 68.3149 65.2795 67.9233C65.2795 67.5318 65.0051 67.2144 64.6666 67.2144C64.3281 67.2144 64.0537 67.5318 64.0537 67.9233C64.0537 68.3149 64.3281 68.6323 64.6666 68.6323Z" fill="#202020"/>
<path d="M71.1545 77.0001L71.1646 71.0032L70.3334 69.9453L69.5022 71.0032V77.0001H71.1547H71.1545Z" fill="#202020"/>
<path d="M70.3334 68.6323C70.6718 68.6323 70.9462 68.3149 70.9462 67.9233C70.9462 67.5318 70.6718 67.2144 70.3334 67.2144C69.9949 67.2144 69.7205 67.5318 69.7205 67.9233C69.7205 68.3149 69.9949 68.6323 70.3334 68.6323Z" fill="#202020"/>
<path d="M71.5182 42.6045H63.4817V43.6677C63.4817 43.6967 63.4929 43.7245 63.513 43.7445C63.5329 43.765 63.5602 43.7764 63.5886 43.7764H71.4115C71.4398 43.7764 71.467 43.7648 71.4871 43.7445C71.5071 43.7243 71.5184 43.6967 71.5184 43.6677V42.6045H71.5182Z" fill="#343434"/>
<path d="M71.8027 41.3213H63.1978V42.4876C63.1978 42.6086 63.288 42.7065 63.3994 42.7065H71.601C71.7124 42.7065 71.8027 42.6086 71.8027 42.4876V41.3213Z" fill="#343434"/>
<path d="M72.0908 40.5368C72.0908 40.5123 72.0821 40.4891 72.0668 40.4717C72.0516 40.4546 72.0307 40.4448 72.0089 40.4448H62.9911C62.9694 40.4448 62.9486 40.4546 62.9332 40.4717C62.9179 40.4889 62.9092 40.5123 62.9092 40.5368V41.154C62.9092 41.2683 62.9917 41.3608 63.0936 41.3608H71.9064C72.0083 41.3608 72.0908 41.2683 72.0908 41.154V40.5368Z" fill="#343434"/>
<path d="M71.9782 38.0615H63.022V40.5038H71.9782V38.0615Z" fill="#343434"/>
</g>
<g clip-path="url(#clip1_7170_84723)">
<path d="M71.6668 68.8318L1 59.6343V101L71.6668 92.5066V68.8318Z" fill="url(#paint0_linear_7170_84723)"/>
<path d="M25.593 85.2709C25.593 84.8457 25.8434 84.4571 26.3469 84.3006C26.1799 83.458 26.2217 82.6989 27.6016 82.2346C27.6433 80.4869 29.1719 80.0278 29.1719 80.0278C29.1719 80.0278 30.7005 80.4869 30.7422 82.1877C32.1247 82.5998 32.1664 83.3093 31.9969 84.1206C32.5003 84.2406 32.7507 84.5875 32.7507 84.9892C32.7507 87.0603 32.7507 89.1289 32.7507 91.2L25.593 91.6878V85.2683V85.2709Z" fill="#F0C990"/>
<path d="M25.593 85.2709C25.593 84.8457 25.8434 84.4571 26.3469 84.3006C26.1799 83.458 26.2217 82.6989 27.6016 82.2346C27.6433 80.4869 29.1719 80.0278 29.1719 80.0278C29.1719 80.0278 30.7005 80.4869 30.7422 82.1877C32.1247 82.5998 32.1664 83.3093 31.9969 84.1206C32.5003 84.2406 32.7507 84.5875 32.7507 84.9892C32.7507 87.0603 32.7507 89.1289 32.7507 91.2L25.593 91.6878V85.2683V85.2709Z" fill="#161616"/>
<path d="M36.5251 85.0911C36.5251 84.7024 36.7547 84.3477 37.2138 84.2042C37.0599 83.4373 37.099 82.7409 38.3589 82.3209C38.398 80.7271 39.791 80.3071 39.791 80.3071C39.791 80.3071 41.1865 80.7271 41.223 82.2792C42.483 82.6548 42.5221 83.3017 42.3682 84.0451C42.8273 84.1547 43.0568 84.4703 43.0568 84.8381C43.0568 86.2832 43.0568 88.9256 43.0568 90.5011L36.5251 90.9446C36.5251 89.2569 36.5251 86.5753 36.5251 85.0911Z" fill="#161616"/>
<path d="M46.4507 84.9108C46.4507 84.5587 46.6568 84.2404 47.0715 84.11C46.9333 83.4162 46.9672 82.7875 48.1071 82.4067C48.141 80.9642 49.4035 80.5859 49.4035 80.5859C49.4035 80.5859 50.6634 80.9668 50.6999 82.3702C51.8398 82.7093 51.8737 83.2962 51.7355 83.9666C52.1502 84.0657 52.3563 84.3526 52.3563 84.6839C52.3563 85.5264 52.3563 88.6984 52.3563 89.8696L46.4507 90.2713C46.4507 88.9279 46.4507 85.7742 46.4507 84.9134V84.9108Z" fill="#161616"/>
<path d="M54.842 84.7335C54.842 84.4178 55.0272 84.1335 55.3976 84.0187C55.275 83.3979 55.3037 82.8371 56.3237 82.4954C56.355 81.2068 57.4818 80.8677 57.4818 80.8677C57.4818 80.8677 58.6087 81.2068 58.64 82.4615C59.6599 82.7641 59.6912 83.2884 59.566 83.8883C59.9364 83.977 60.1216 84.2326 60.1216 84.53C60.1216 84.7987 60.1216 88.6593 60.1216 89.3427L54.842 89.7027C54.842 88.6958 54.842 85.0074 54.842 84.7361V84.7335Z" fill="#161616"/>
<path d="M31.8457 84.9916C31.8457 84.5899 31.5953 84.243 31.0918 84.123C31.2588 83.3092 31.217 82.5996 29.8371 82.1901C29.8111 81.1024 29.1746 80.5233 28.7207 80.2468C28.9737 80.0903 29.172 80.0303 29.172 80.0303C29.172 80.0303 30.7006 80.4894 30.7423 82.1901C32.1248 82.6023 32.1665 83.3118 31.997 84.123C32.5004 84.243 32.7508 84.5899 32.7508 84.9916C32.7508 87.0628 32.7508 89.1313 32.7508 91.2025L31.8457 91.2651V84.9942V84.9916Z" fill="black"/>
<path d="M42.2978 84.8376C42.2978 84.4724 42.0683 84.1542 41.6092 84.0446C41.7631 83.3038 41.724 82.6543 40.4641 82.2787C40.438 81.2587 39.8276 80.7292 39.4128 80.484C39.6267 80.3562 39.7911 80.3066 39.7911 80.3066C39.7911 80.3066 41.1866 80.7266 41.2231 82.2787C42.483 82.6543 42.5222 83.3012 42.3683 84.0446C42.8274 84.1542 43.0569 84.4698 43.0569 84.8376C43.0569 86.2827 43.0569 88.9251 43.0569 90.5006L42.2978 90.5528V84.8376Z" fill="black"/>
<path d="M51.759 84.6814C51.759 84.3502 51.553 84.0632 51.1382 83.9641C51.2765 83.2937 51.2426 82.7068 50.1026 82.3677C50.0792 81.4078 49.4818 80.9278 49.1062 80.7191C49.2784 80.6226 49.4036 80.5835 49.4036 80.5835C49.4036 80.5835 50.6635 80.9643 50.7 82.3677C51.8399 82.7068 51.8738 83.2937 51.7356 83.9641C52.1503 84.0632 52.3564 84.3502 52.3564 84.6814C52.3564 85.524 52.3564 88.6959 52.3564 89.8671L51.759 89.9089V84.6814Z" fill="black"/>
<path d="M59.6288 84.5276C59.6288 84.2328 59.4436 83.9746 59.0732 83.8859C59.1958 83.2859 59.1671 82.7616 58.1472 82.459C58.1263 81.5852 57.5707 81.1548 57.2368 80.9748C57.3803 80.8965 57.4846 80.8652 57.4846 80.8652C57.4846 80.8652 58.6115 81.2043 58.6428 82.459C59.6627 82.7616 59.694 83.2859 59.5688 83.8859C59.9392 83.9746 60.1244 84.2302 60.1244 84.5276C60.1244 84.7962 60.1244 88.6568 60.1244 89.3402L59.6288 89.3742C59.6288 88.3151 59.6288 84.778 59.6288 84.5276Z" fill="black"/>
<path d="M25.593 71.1377C25.593 70.7125 25.8434 70.3421 26.3469 70.2195C26.1799 69.3665 26.2217 68.6074 27.6016 68.2422C27.6433 66.4972 29.1719 66.145 29.1719 66.145C29.1719 66.145 30.7005 66.7137 30.7422 68.417C32.1247 68.9257 32.1664 69.6378 31.9969 70.4386C32.5003 70.5925 32.7507 70.9577 32.7507 71.3594C32.7507 73.4305 32.7507 75.4991 32.7507 77.5702L25.593 77.5546V71.1351V71.1377Z" fill="#DCA95F"/>
<path d="M25.593 71.1377C25.593 70.7125 25.8434 70.3421 26.3469 70.2195C26.1799 69.3665 26.2217 68.6074 27.6016 68.2422C27.6433 66.4972 29.1719 66.145 29.1719 66.145C29.1719 66.145 30.7005 66.7137 30.7422 68.417C32.1247 68.9257 32.1664 69.6378 31.9969 70.4386C32.5003 70.5925 32.7507 70.9577 32.7507 71.3594C32.7507 73.4305 32.7507 75.4991 32.7507 77.5702L25.593 77.5546V71.1351V71.1377Z" fill="#161616"/>
<path d="M36.5251 71.7244C36.5251 71.3357 36.7547 70.9992 37.2138 70.887C37.0599 70.1071 37.099 69.4158 38.3589 69.082C38.398 67.4908 39.791 67.1699 39.791 67.1699C39.791 67.1699 41.1865 67.689 41.223 69.2437C42.483 69.708 42.5221 70.3575 42.3682 71.0879C42.8273 71.2287 43.0568 71.5626 43.0568 71.9278C43.0568 73.3729 43.0568 76.0153 43.0568 77.5909L36.5251 77.5778C36.5251 75.8901 36.5251 73.2086 36.5251 71.7244Z" fill="#161616"/>
<path d="M46.4507 72.2436C46.4507 71.8915 46.6568 71.5863 47.0715 71.4872C46.9333 70.7829 46.9672 70.1569 48.1071 69.8569C48.141 68.417 49.4035 68.1274 49.4035 68.1274C49.4035 68.1274 50.6634 68.597 50.6999 70.0003C51.8398 70.4203 51.8737 71.0072 51.7355 71.6698C52.1502 71.7976 52.3563 72.0976 52.3563 72.4289C52.3563 73.2714 52.3563 76.4433 52.3563 77.6145L46.4507 77.6015C46.4507 76.2581 46.4507 73.1045 46.4507 72.2436Z" fill="#161616"/>
<path d="M54.842 72.6532C54.842 72.3402 55.0272 72.0663 55.3976 71.9776C55.275 71.349 55.3037 70.7882 56.3237 70.5195C56.355 69.2335 57.4818 68.9727 57.4818 68.9727C57.4818 68.9727 58.6087 69.39 58.64 70.6473C59.6599 71.0229 59.6912 71.5472 59.566 72.1394C59.9364 72.2541 60.1216 72.5228 60.1216 72.8176C60.1216 73.0863 60.1216 76.9468 60.1216 77.6303L54.842 77.6198C54.842 76.6129 54.842 72.9245 54.842 72.6532Z" fill="#161616"/>
<path d="M31.8452 71.2966C31.8452 70.8949 31.5948 70.5297 31.0913 70.3758C31.2583 69.575 31.2165 68.8603 29.8367 68.3542C29.8106 67.2639 29.1741 66.6405 28.7202 66.3327C28.9732 66.1944 29.1715 66.1475 29.1715 66.1475C29.1715 66.1475 30.7001 66.7161 30.7418 68.4195C32.1243 68.9281 32.166 69.6402 31.9965 70.441C32.4999 70.5949 32.7503 70.9601 32.7503 71.3618C32.7503 73.433 32.7503 75.5015 32.7503 77.5727H31.8452V71.2992V71.2966Z" fill="black"/>
<path d="M13.9954 70.6265C13.9954 70.2013 14.2458 69.8309 14.7492 69.7083C14.5823 68.8553 14.624 68.0962 16.0039 67.731C16.0456 65.9859 17.5742 65.6338 17.5742 65.6338C17.5742 65.6338 19.1028 66.2024 19.1445 67.9058C20.527 68.4144 20.5688 69.1266 20.3992 69.9274C20.9027 70.0813 21.1531 70.4465 21.1531 70.8482V77.5781L13.9954 77.5624V70.6238V70.6265Z" fill="#DCA95F"/>
<path d="M13.9954 70.6265C13.9954 70.2013 14.2458 69.8309 14.7492 69.7083C14.5823 68.8553 14.624 68.0962 16.0039 67.731C16.0456 65.9859 17.5742 65.6338 17.5742 65.6338C17.5742 65.6338 19.1028 66.2024 19.1445 67.9058C20.527 68.4144 20.5688 69.1266 20.3992 69.9274C20.9027 70.0813 21.1531 70.4465 21.1531 70.8482V77.5781L13.9954 77.5624V70.6238V70.6265Z" fill="#161616"/>
<path d="M20.2505 70.7854C20.2505 70.3837 20.0001 70.0185 19.4966 69.8646C19.6636 69.0638 19.6218 68.3491 18.2419 67.843C18.2158 66.7527 17.5794 66.1292 17.1255 65.8214C17.3785 65.6832 17.5768 65.6362 17.5768 65.6362C17.5768 65.6362 19.1053 66.2049 19.1471 67.9082C20.5296 68.4169 20.5713 69.129 20.4018 69.9298C20.9052 70.0837 21.1556 70.4489 21.1556 70.8506V77.5805H20.2505V70.788V70.7854Z" fill="black"/>
<path d="M13.9954 84.8765C13.9954 84.4513 14.2458 84.0809 14.7492 83.9583C14.5823 83.1053 14.624 82.3462 16.0039 81.981C16.0456 80.2359 17.5742 79.8838 17.5742 79.8838C17.5742 79.8838 19.1028 80.4524 19.1445 82.1558C20.527 82.6644 20.5688 83.3766 20.3992 84.1774C20.9027 84.3313 21.1531 84.6965 21.1531 85.0982V91.8281L13.9954 91.8124V84.8738V84.8765Z" fill="#DCA95F"/>
<path d="M13.9954 84.8765C13.9954 84.4513 14.2458 84.0809 14.7492 83.9583C14.5823 83.1053 14.624 82.3462 16.0039 81.981C16.0456 80.2359 17.5742 79.8838 17.5742 79.8838C17.5742 79.8838 19.1028 80.4524 19.1445 82.1558C20.527 82.6644 20.5688 83.3766 20.3992 84.1774C20.9027 84.3313 21.1531 84.6965 21.1531 85.0982V91.8281L13.9954 92.2011V84.8765Z" fill="#161616"/>
<path d="M20.2505 85.0383C20.2505 84.6366 20.0001 84.2714 19.4966 84.1175C19.6636 83.3167 19.6218 82.602 18.2419 82.096C18.2158 81.0056 17.5794 80.3822 17.1255 80.0744C17.3785 79.9361 17.5768 79.8892 17.5768 79.8892C17.5768 79.8892 19.1053 80.4578 19.1471 82.1612C20.5296 82.6698 20.5713 83.3819 20.4018 84.1827C20.9052 84.3366 21.1556 84.7018 21.1556 85.1035V91.8335H20.2505V85.0409V85.0383Z" fill="black"/>
<path d="M42.2976 71.876C42.2976 71.5108 42.068 71.1769 41.609 71.036C41.7629 70.3057 41.7237 69.6535 40.4638 69.1918C40.4377 68.1693 39.8273 67.598 39.4126 67.3241C39.6265 67.212 39.7908 67.1729 39.7908 67.1729C39.7908 67.1729 41.1864 67.6919 41.2229 69.2466C42.4828 69.7109 42.5219 70.3604 42.368 71.0908C42.8271 71.2317 43.0567 71.5656 43.0567 71.9308C43.0567 73.3759 43.0567 76.0183 43.0567 77.5938H42.2976V71.876Z" fill="black"/>
<path d="M51.7586 72.3844C51.7586 72.0531 51.5525 71.7505 51.1377 71.6253C51.276 70.9653 51.2421 70.3758 50.1022 69.9558C50.0787 68.9959 49.4813 68.4716 49.1057 68.2368C49.2779 68.1534 49.4031 68.1221 49.4031 68.1221C49.4031 68.1221 50.663 68.5916 50.6995 69.995C51.8394 70.4149 51.8733 71.0019 51.7351 71.6644C52.1498 71.7922 52.3559 72.0922 52.3559 72.4235C52.3559 73.266 52.3559 76.438 52.3559 77.6092H51.7586V72.3817V72.3844Z" fill="black"/>
<path d="M59.6283 72.7837C59.6283 72.4889 59.4431 72.2176 59.0727 72.1055C59.1953 71.5133 59.1666 70.989 58.1467 70.6134C58.1258 69.7369 57.5702 69.27 57.2363 69.0666C57.3798 68.9987 57.4841 68.9727 57.4841 68.9727C57.4841 68.9727 58.611 69.39 58.6423 70.6473C59.6622 71.0229 59.6935 71.5472 59.5683 72.1394C59.9387 72.2541 60.1239 72.5228 60.1239 72.8176C60.1239 73.0863 60.1239 76.9468 60.1239 77.6303H59.6283C59.6283 76.5712 59.6283 73.0315 59.6283 72.7837Z" fill="black"/>
<path d="M61.9526 84.0366C61.9526 83.7575 62.117 83.5019 62.4483 83.3976C62.3387 82.8446 62.3648 82.3437 63.2751 82.0411C63.3038 80.8934 64.3081 80.5908 64.3081 80.5908C64.3081 80.5908 65.3124 80.8934 65.3411 82.0125C66.2488 82.2837 66.2775 82.7507 66.168 83.2854C66.4992 83.3637 66.6636 83.5932 66.6636 83.8567C66.6636 84.0966 66.6636 88.2676 66.6636 88.8754L61.9579 89.1963V84.0393L61.9526 84.0366Z" fill="#161616"/>
<path d="M66.215 83.8542C66.215 83.5908 66.0507 83.3612 65.7194 83.283C65.829 82.7482 65.8029 82.2813 64.8925 82.01C64.8743 81.2301 64.3787 80.8466 64.0813 80.6875C64.2091 80.6171 64.303 80.5884 64.303 80.5884C64.303 80.5884 65.3073 80.891 65.336 82.01C66.2437 82.2813 66.2724 82.7482 66.1629 83.283C66.4942 83.3612 66.6585 83.5908 66.6585 83.8542C66.6585 84.0942 66.6585 88.2652 66.6585 88.873L66.215 88.9043V83.8542Z" fill="black"/>
<path d="M61.9526 73.2686C61.9526 72.9895 62.117 72.7443 62.4483 72.6661C62.3387 72.1052 62.3648 71.607 63.2751 71.367C63.3038 70.2193 64.3081 69.9897 64.3081 69.9897C64.3081 69.9897 65.3124 70.3628 65.3411 71.4818C66.2488 71.8157 66.2775 72.2852 66.168 72.8121C66.4992 72.9139 66.6636 73.1539 66.6636 73.4173C66.6636 73.6573 66.6636 77.0979 66.6636 77.7083L61.9579 77.6979V73.2712L61.9526 73.2686Z" fill="#161616"/>
<path d="M66.215 73.3862C66.215 73.1227 66.0507 72.8827 65.7194 72.781C65.829 72.2541 65.8029 71.7846 64.8925 71.4507C64.8743 70.6707 64.3787 70.2534 64.0813 70.0708C64.2091 70.0108 64.303 69.9873 64.303 69.9873C64.303 69.9873 65.3073 70.3603 65.336 71.4794C66.2437 71.8133 66.2724 72.2828 66.1629 72.8097C66.4942 72.9114 66.6585 73.1514 66.6585 73.4149C66.6585 73.6549 66.6585 77.0955 66.6585 77.7058H66.215V73.3862Z" fill="black"/>
<path d="M70.7924 68.8318L141.459 59.6343V101L70.7924 92.5066V68.8318Z" fill="url(#paint1_linear_7170_84723)"/>
<path d="M116.866 85.2709C116.866 84.8457 116.616 84.4571 116.112 84.3006C116.279 83.458 116.238 82.6989 114.858 82.2346C114.816 80.4869 113.287 80.0278 113.287 80.0278C113.287 80.0278 111.759 80.4869 111.717 82.1877C110.335 82.5998 110.293 83.3093 110.462 84.1206C109.959 84.2406 109.708 84.5875 109.708 84.9892C109.708 87.0603 109.708 89.1289 109.708 91.2L116.866 91.6878V85.2683V85.2709Z" fill="#F0C990"/>
<path d="M116.866 85.2709C116.866 84.8457 116.616 84.4571 116.112 84.3006C116.279 83.458 116.238 82.6989 114.858 82.2346C114.816 80.4869 113.287 80.0278 113.287 80.0278C113.287 80.0278 111.759 80.4869 111.717 82.1877C110.335 82.5998 110.293 83.3093 110.462 84.1206C109.959 84.2406 109.708 84.5875 109.708 84.9892C109.708 87.0603 109.708 89.1289 109.708 91.2L116.866 91.6878V85.2683V85.2709Z" fill="#161616"/>
<path d="M105.934 85.0911C105.934 84.7024 105.705 84.3477 105.245 84.2042C105.399 83.4373 105.36 82.7409 104.1 82.3209C104.061 80.7271 102.668 80.3071 102.668 80.3071C102.668 80.3071 101.273 80.7271 101.236 82.2792C99.9763 82.6548 99.9371 83.3017 100.091 84.0451C99.632 84.1547 99.4024 84.4703 99.4024 84.8381C99.4024 86.2832 99.4024 88.9256 99.4024 90.5011L105.934 90.9446C105.934 89.2569 105.934 86.5753 105.934 85.0911Z" fill="#161616"/>
<path d="M96.0085 84.9108C96.0085 84.5587 95.8025 84.2404 95.3877 84.11C95.526 83.4162 95.4921 82.7875 94.3522 82.4067C94.3182 80.9642 93.0557 80.5859 93.0557 80.5859C93.0557 80.5859 91.7958 80.9668 91.7593 82.3702C90.6194 82.7093 90.5855 83.2962 90.7237 83.9666C90.309 84.0657 90.1029 84.3526 90.1029 84.6839C90.1029 85.5264 90.1029 88.6984 90.1029 89.8696L96.0085 90.2713C96.0085 88.9279 96.0085 85.7742 96.0085 84.9134V84.9108Z" fill="#161616"/>
<path d="M87.6172 84.7335C87.6172 84.4178 87.432 84.1335 87.0616 84.0187C87.1842 83.3979 87.1555 82.8371 86.1356 82.4954C86.1043 81.2068 84.9774 80.8677 84.9774 80.8677C84.9774 80.8677 83.8505 81.2068 83.8192 82.4615C82.7993 82.7641 82.768 83.2884 82.8932 83.8883C82.5228 83.977 82.3376 84.2326 82.3376 84.53C82.3376 84.7987 82.3376 88.6593 82.3376 89.3427L87.6172 89.7027C87.6172 88.6958 87.6172 85.0074 87.6172 84.7361V84.7335Z" fill="#161616"/>
<path d="M110.614 84.9916C110.614 84.5899 110.864 84.243 111.367 84.123C111.2 83.3092 111.242 82.5996 112.622 82.1901C112.648 81.1024 113.285 80.5233 113.739 80.2468C113.486 80.0903 113.287 80.0303 113.287 80.0303C113.287 80.0303 111.759 80.4894 111.717 82.1901C110.334 82.6023 110.293 83.3118 110.462 84.123C109.959 84.243 109.708 84.5899 109.708 84.9916C109.708 87.0628 109.708 89.1313 109.708 91.2025L110.614 91.2651V84.9942V84.9916Z" fill="black"/>
<path d="M100.161 84.8376C100.161 84.4724 100.391 84.1542 100.85 84.0446C100.696 83.3038 100.735 82.6543 101.995 82.2787C102.021 81.2587 102.632 80.7292 103.046 80.484C102.832 80.3562 102.668 80.3066 102.668 80.3066C102.668 80.3066 101.273 80.7266 101.236 82.2787C99.9762 82.6543 99.9371 83.3012 100.091 84.0446C99.6319 84.1542 99.4023 84.4698 99.4023 84.8376C99.4023 86.2827 99.4023 88.9251 99.4023 90.5006L100.161 90.5528V84.8376Z" fill="black"/>
<path d="M90.7002 84.6814C90.7002 84.3502 90.9063 84.0632 91.321 83.9641C91.1828 83.2937 91.2167 82.7068 92.3566 82.3677C92.3801 81.4078 92.9774 80.9278 93.353 80.7191C93.1809 80.6226 93.0557 80.5835 93.0557 80.5835C93.0557 80.5835 91.7958 80.9643 91.7592 82.3677C90.6193 82.7068 90.5854 83.2937 90.7237 83.9641C90.3089 84.0632 90.1028 84.3502 90.1028 84.6814C90.1028 85.524 90.1028 88.6959 90.1028 89.8671L90.7002 89.9089V84.6814Z" fill="black"/>
<path d="M82.8304 84.5276C82.8304 84.2328 83.0156 83.9746 83.386 83.8859C83.2634 83.2859 83.2921 82.7616 84.312 82.459C84.3329 81.5852 84.8885 81.1548 85.2224 80.9748C85.0789 80.8965 84.9746 80.8652 84.9746 80.8652C84.9746 80.8652 83.8477 81.2043 83.8164 82.459C82.7965 82.7616 82.7652 83.2859 82.8904 83.8859C82.52 83.9746 82.3348 84.2302 82.3348 84.5276C82.3348 84.7962 82.3348 88.6568 82.3348 89.3402L82.8304 89.3742C82.8304 88.3151 82.8304 84.778 82.8304 84.5276Z" fill="black"/>
<path d="M116.866 71.1377C116.866 70.7125 116.616 70.3421 116.112 70.2195C116.279 69.3665 116.238 68.6074 114.858 68.2422C114.816 66.4972 113.287 66.145 113.287 66.145C113.287 66.145 111.759 66.7137 111.717 68.417C110.335 68.9257 110.293 69.6378 110.462 70.4386C109.959 70.5925 109.708 70.9577 109.708 71.3594C109.708 73.4305 109.708 75.4991 109.708 77.5702L116.866 77.5546V71.1351V71.1377Z" fill="#DCA95F"/>
<path d="M116.866 71.1377C116.866 70.7125 116.616 70.3421 116.112 70.2195C116.279 69.3665 116.238 68.6074 114.858 68.2422C114.816 66.4972 113.287 66.145 113.287 66.145C113.287 66.145 111.759 66.7137 111.717 68.417C110.335 68.9257 110.293 69.6378 110.462 70.4386C109.959 70.5925 109.708 70.9577 109.708 71.3594C109.708 73.4305 109.708 75.4991 109.708 77.5702L116.866 77.5546V71.1351V71.1377Z" fill="#161616"/>
<path d="M105.934 71.7244C105.934 71.3357 105.705 70.9992 105.245 70.887C105.399 70.1071 105.36 69.4158 104.1 69.082C104.061 67.4908 102.668 67.1699 102.668 67.1699C102.668 67.1699 101.273 67.689 101.236 69.2437C99.9763 69.708 99.9371 70.3575 100.091 71.0879C99.632 71.2287 99.4024 71.5626 99.4024 71.9278C99.4024 73.3729 99.4024 76.0153 99.4024 77.5909L105.934 77.5778C105.934 75.8901 105.934 73.2086 105.934 71.7244Z" fill="#161616"/>
<path d="M96.0085 72.2436C96.0085 71.8915 95.8025 71.5863 95.3877 71.4872C95.526 70.7829 95.4921 70.1569 94.3522 69.8569C94.3182 68.417 93.0557 68.1274 93.0557 68.1274C93.0557 68.1274 91.7958 68.597 91.7593 70.0003C90.6194 70.4203 90.5855 71.0072 90.7237 71.6698C90.309 71.7976 90.1029 72.0976 90.1029 72.4289C90.1029 73.2714 90.1029 76.4433 90.1029 77.6145L96.0085 77.6015C96.0085 76.2581 96.0085 73.1045 96.0085 72.2436Z" fill="#161616"/>
<path d="M87.6172 72.6532C87.6172 72.3402 87.432 72.0663 87.0616 71.9776C87.1842 71.349 87.1555 70.7882 86.1356 70.5195C86.1043 69.2335 84.9774 68.9727 84.9774 68.9727C84.9774 68.9727 83.8505 69.39 83.8192 70.6473C82.7993 71.0229 82.768 71.5472 82.8932 72.1394C82.5228 72.2541 82.3376 72.5228 82.3376 72.8176C82.3376 73.0863 82.3376 76.9468 82.3376 77.6303L87.6172 77.6198C87.6172 76.6129 87.6172 72.9245 87.6172 72.6532Z" fill="#161616"/>
<path d="M110.614 71.2966C110.614 70.8949 110.864 70.5297 111.368 70.3758C111.201 69.575 111.243 68.8603 112.623 68.3542C112.649 67.2639 113.285 66.6405 113.739 66.3327C113.486 66.1944 113.288 66.1475 113.288 66.1475C113.288 66.1475 111.759 66.7161 111.717 68.4195C110.335 68.9281 110.293 69.6402 110.463 70.441C109.959 70.5949 109.709 70.9601 109.709 71.3618C109.709 73.433 109.709 75.5015 109.709 77.5727H110.614V71.2992V71.2966Z" fill="black"/>
<path d="M128.464 70.6265C128.464 70.2013 128.213 69.8309 127.71 69.7083C127.877 68.8553 127.835 68.0962 126.455 67.731C126.414 65.9859 124.885 65.6338 124.885 65.6338C124.885 65.6338 123.356 66.2024 123.315 67.9058C121.932 68.4144 121.89 69.1266 122.06 69.9274C121.557 70.0813 121.306 70.4465 121.306 70.8482V77.5781L128.464 77.5624V70.6238V70.6265Z" fill="#DCA95F"/>
<path d="M128.464 70.6265C128.464 70.2013 128.213 69.8309 127.71 69.7083C127.877 68.8553 127.835 68.0962 126.455 67.731C126.414 65.9859 124.885 65.6338 124.885 65.6338C124.885 65.6338 123.356 66.2024 123.315 67.9058C121.932 68.4144 121.89 69.1266 122.06 69.9274C121.557 70.0813 121.306 70.4465 121.306 70.8482V77.5781L128.464 77.5624V70.6238V70.6265Z" fill="#161616"/>
<path d="M122.209 70.7854C122.209 70.3837 122.459 70.0185 122.963 69.8646C122.796 69.0638 122.837 68.3491 124.217 67.843C124.243 66.7527 124.88 66.1292 125.334 65.8214C125.081 65.6832 124.882 65.6362 124.882 65.6362C124.882 65.6362 123.354 66.2049 123.312 67.9082C121.93 68.4169 121.888 69.129 122.057 69.9298C121.554 70.0837 121.304 70.4489 121.304 70.8506V77.5805H122.209V70.788V70.7854Z" fill="black"/>
<path d="M128.464 84.8765C128.464 84.4513 128.213 84.0809 127.71 83.9583C127.877 83.1053 127.835 82.3462 126.455 81.981C126.414 80.2359 124.885 79.8838 124.885 79.8838C124.885 79.8838 123.356 80.4524 123.315 82.1558C121.932 82.6644 121.89 83.3766 122.06 84.1774C121.557 84.3313 121.306 84.6965 121.306 85.0982V91.8281L128.464 91.8124V84.8738V84.8765Z" fill="#DCA95F"/>
<path d="M128.464 84.8765C128.464 84.4513 128.213 84.0809 127.71 83.9583C127.877 83.1053 127.835 82.3462 126.455 81.981C126.414 80.2359 124.885 79.8838 124.885 79.8838C124.885 79.8838 123.356 80.4524 123.315 82.1558C121.932 82.6644 121.89 83.3766 122.06 84.1774C121.557 84.3313 121.306 84.6965 121.306 85.0982V91.8281L128.464 92.2011V84.8765Z" fill="#161616"/>
<path d="M122.209 85.0383C122.209 84.6366 122.459 84.2714 122.963 84.1175C122.796 83.3167 122.837 82.602 124.217 82.096C124.243 81.0056 124.88 80.3822 125.334 80.0744C125.081 79.9361 124.882 79.8892 124.882 79.8892C124.882 79.8892 123.354 80.4578 123.312 82.1612C121.93 82.6698 121.888 83.3819 122.057 84.1827C121.554 84.3366 121.304 84.7018 121.304 85.1035V91.8335H122.209V85.0409V85.0383Z" fill="black"/>
<path d="M100.162 71.876C100.162 71.5108 100.391 71.1769 100.85 71.036C100.696 70.3057 100.736 69.6535 101.995 69.1918C102.021 68.1693 102.632 67.598 103.047 67.3241C102.833 67.212 102.668 67.1729 102.668 67.1729C102.668 67.1729 101.273 67.6919 101.236 69.2466C99.9764 69.7109 99.9373 70.3604 100.091 71.0908C99.6321 71.2317 99.4026 71.5656 99.4026 71.9308C99.4026 73.3759 99.4026 76.0183 99.4026 77.5938H100.162V71.876Z" fill="black"/>
<path d="M90.7007 72.3844C90.7007 72.0531 90.9067 71.7505 91.3215 71.6253C91.1832 70.9653 91.2172 70.3758 92.3571 69.9558C92.3805 68.9959 92.9779 68.4716 93.3535 68.2368C93.1814 68.1534 93.0561 68.1221 93.0561 68.1221C93.0561 68.1221 91.7962 68.5916 91.7597 69.995C90.6198 70.4149 90.5859 71.0019 90.7241 71.6644C90.3094 71.7922 90.1033 72.0922 90.1033 72.4235C90.1033 73.266 90.1033 76.438 90.1033 77.6092H90.7007V72.3817V72.3844Z" fill="black"/>
<path d="M82.8309 72.7837C82.8309 72.4889 83.0161 72.2176 83.3865 72.1055C83.2639 71.5133 83.2926 70.989 84.3125 70.6134C84.3334 69.7369 84.889 69.27 85.2229 69.0666C85.0794 68.9987 84.9751 68.9727 84.9751 68.9727C84.9751 68.9727 83.8482 69.39 83.8169 70.6473C82.797 71.0229 82.7657 71.5472 82.8909 72.1394C82.5205 72.2541 82.3353 72.5228 82.3353 72.8176C82.3353 73.0863 82.3353 76.9468 82.3353 77.6303H82.8309C82.8309 76.5712 82.8309 73.0315 82.8309 72.7837Z" fill="black"/>
<path d="M80.5066 84.0366C80.5066 83.7575 80.3423 83.5019 80.011 83.3976C80.1205 82.8446 80.0944 82.3437 79.1841 82.0411C79.1554 80.8934 78.1511 80.5908 78.1511 80.5908C78.1511 80.5908 77.1468 80.8934 77.1182 82.0125C76.2104 82.2837 76.1817 82.7507 76.2913 83.2854C75.96 83.3637 75.7956 83.5932 75.7956 83.8567C75.7956 84.0966 75.7956 88.2676 75.7956 88.8754L80.5014 89.1963V84.0393L80.5066 84.0366Z" fill="#161616"/>
<path d="M76.2442 83.8542C76.2442 83.5908 76.4085 83.3612 76.7398 83.283C76.6302 82.7482 76.6563 82.2813 77.5667 82.01C77.5849 81.2301 78.0806 80.8466 78.3779 80.6875C78.2501 80.6171 78.1562 80.5884 78.1562 80.5884C78.1562 80.5884 77.1519 80.891 77.1232 82.01C76.2155 82.2813 76.1868 82.7482 76.2964 83.283C75.9651 83.3612 75.8007 83.5908 75.8007 83.8542C75.8007 84.0942 75.8007 88.2652 75.8007 88.873L76.2442 88.9043V83.8542Z" fill="black"/>
<path d="M80.5066 73.2686C80.5066 72.9895 80.3423 72.7443 80.011 72.6661C80.1205 72.1052 80.0944 71.607 79.1841 71.367C79.1554 70.2193 78.1511 69.9897 78.1511 69.9897C78.1511 69.9897 77.1468 70.3628 77.1182 71.4818C76.2104 71.8157 76.1817 72.2852 76.2913 72.8121C75.96 72.9139 75.7956 73.1539 75.7956 73.4173C75.7956 73.6573 75.7956 77.0979 75.7956 77.7083L80.5014 77.6979V73.2712L80.5066 73.2686Z" fill="#161616"/>
<path d="M76.2442 73.3862C76.2442 73.1227 76.4085 72.8827 76.7398 72.781C76.6302 72.2541 76.6563 71.7846 77.5667 71.4507C77.5849 70.6707 78.0806 70.2534 78.3779 70.0708C78.2501 70.0108 78.1562 69.9873 78.1562 69.9873C78.1562 69.9873 77.1519 70.3603 77.1232 71.4794C76.2155 71.8133 76.1868 72.2828 76.2964 72.8097C75.9651 72.9114 75.8007 73.1514 75.8007 73.4149C75.8007 73.6549 75.8007 77.0955 75.8007 77.7058H76.2442V73.3862Z" fill="black"/>
<path d="M84 89.5C50.9019 91.9044 32.5671 94.8342 0 101L-9 108H135.5V99.5C121.858 94.1701 110.024 92.1017 84 89.5Z" fill="#1D1D1D"/>
<path d="M70 90.5C43.852 93.9178 33.4459 96.4062 20 101.5L10 103L-2.5 101.5L62.5 88.5L108 91L113 91.5L136 99L134 100.5C113.838 94.1982 98.1596 92.8348 70 90.5Z" fill="#1D1D1D"/>
</g>
<defs>
<linearGradient id="paint0_linear_7170_84723" x1="71.5" y1="80" x2="-0.499998" y2="81" gradientUnits="userSpaceOnUse">
<stop stop-color="#2A2A2A"/>
<stop offset="1" stop-color="#343434"/>
</linearGradient>
<linearGradient id="paint1_linear_7170_84723" x1="70.9592" y1="80" x2="142.959" y2="81" gradientUnits="userSpaceOnUse">
<stop stop-color="#2A2A2A"/>
<stop offset="1" stop-color="#343434"/>
</linearGradient>
<clipPath id="clip0_7170_84723">
<rect width="11" height="77" fill="white" transform="translate(62)"/>
</clipPath>
<clipPath id="clip1_7170_84723">
<rect width="134.241" height="80" fill="white" transform="translate(0 21.6001)"/>
</clipPath>
</defs>
</svg>
