<svg width="134" height="95" viewBox="0 0 134 95" fill="none" xmlns="http://www.w3.org/2000/svg">
<g clip-path="url(#clip0_7170_85113)">
<path d="M79.5 12.5C22 19 56 83.5 -16 95L-24.5001 101.5L148 99.5001C119 52 120.764 7.83534 79.5 12.5Z" fill="#F0FAE8"/>
<path fill-rule="evenodd" clip-rule="evenodd" d="M70.4197 70.3723C85.6629 68.5117 100.963 65.355 114.58 70.4084C115.468 70.7378 115.655 74.8351 115.463 75.8192C103.101 73.2106 82.2171 73.8331 69.6705 75.8313C69.415 74.0437 69.6376 71.2288 70.4197 70.3723Z" fill="#35683C"/>
<path fill-rule="evenodd" clip-rule="evenodd" d="M92.4998 24.6816C92.5578 25.1237 92.6159 25.5655 92.6737 26.0075C93.3495 26.0075 93.2836 26.8914 92.7406 26.8914V27.9494C93.4096 27.9494 93.3962 28.9807 92.754 28.9807V29.9448C93.3415 29.9448 93.3273 30.9493 92.7674 30.9493V31.5653C95.9935 35.2425 98.3173 36.6982 102.53 39.507C109.004 43.8231 110.604 47.9 111.512 54.4724C111.589 55.0303 111.615 55.4746 111.679 55.7894C111.897 56.8472 112.334 56.006 112.334 58.3915V59.8365C112.576 59.9766 112.819 60.1167 113.062 60.2568V63.9078C113.805 64.107 114.549 64.3062 115.292 64.5056C115.055 64.5692 114.817 64.6329 114.58 64.6965V71.3201C108.124 70.6221 100.405 70.1452 92.627 70.1452C84.8494 70.1452 76.9628 70.6253 70.4192 71.3272V64.6967C70.1817 64.6331 69.9441 64.5695 69.7065 64.5059C70.45 64.3067 71.1935 64.1075 71.9372 63.9081V60.2571C72.1798 60.117 72.4224 59.9769 72.665 59.8368V58.4056C72.665 57.0328 72.452 57.2577 73.074 56.2241C73.275 55.8901 73.3712 55.3055 73.4868 54.4729C74.3959 47.9253 76.0085 43.8143 82.4686 39.5075C86.6815 36.6989 89.0053 35.243 92.2314 31.5658V30.9498C91.6715 30.9498 91.6573 29.9453 92.2448 29.9453V28.9812C91.6026 28.9812 91.5892 27.9499 92.2582 27.9499V26.8919C91.7154 26.8919 91.6495 26.008 92.3251 26.008C92.3831 25.566 92.442 25.1237 92.4998 24.6816Z" fill="#5DB955"/>
<path fill-rule="evenodd" clip-rule="evenodd" d="M94.9541 33.8601C95.2637 34.1557 95.5706 34.4365 95.8781 34.7063C93.6043 35.6962 91.3312 35.6957 89.0581 34.7621C89.3734 34.4872 89.688 34.2009 90.0051 33.8992C91.4602 33.8732 92.9381 33.8599 94.4341 33.8599C94.6075 33.8599 94.781 33.8599 94.9539 33.8604L94.9541 33.8601Z" fill="#35683C"/>
<path d="M111.656 55.6532C111.651 55.6247 111.647 55.5954 111.642 55.5651C111.205 55.3392 110.728 55.1218 110.215 54.9135C110.182 54.1287 110.074 53.0242 109.774 51.7008C110.311 51.974 110.792 52.2603 111.213 52.5581L111.195 52.4577C110.772 52.1626 110.29 51.879 109.753 51.6089C109.485 50.4481 109.069 49.1235 108.43 47.7015C109.131 48.0365 109.748 48.3939 110.268 48.7706C110.253 48.7279 110.238 48.6853 110.223 48.6429C109.697 48.2712 109.079 47.9188 108.379 47.5889C107.858 46.4442 107.191 45.238 106.341 44.0048C107.045 44.2507 107.688 44.515 108.262 44.7955C108.233 44.7546 108.204 44.7134 108.174 44.6725C107.602 44.3991 106.965 44.1419 106.27 43.9025C105.63 42.9841 104.888 42.0516 104.027 41.1185C104.441 41.2397 104.832 41.3672 105.198 41.5004C105.145 41.4555 105.091 41.4106 105.037 41.3656C104.689 41.2429 104.319 41.1256 103.93 41.014C103.373 40.4169 102.768 39.8199 102.11 39.2269L101.438 38.7795C102.281 39.5005 103.042 40.2291 103.731 40.9579C103.37 40.858 102.992 40.7628 102.6 40.6727C101.803 39.657 100.892 38.6624 99.8516 37.7142C99.7857 37.6692 99.7203 37.6245 99.6552 37.5801L99.6332 37.565C99.4396 37.4322 99.2495 37.3009 99.0629 37.1704C99.1798 37.2688 99.2949 37.368 99.4088 37.4678C99.151 37.4259 98.8887 37.386 98.6221 37.3486C97.5596 36.2709 96.3415 35.2656 94.9452 34.3752C95.3564 34.5981 95.756 34.8236 96.1456 35.051C96.3475 35.177 96.5457 35.3047 96.7411 35.4337C96.5197 35.254 96.3001 35.0705 96.0812 34.8819C94.9951 34.2129 93.8127 33.5918 92.5219 33.0342L92.5019 33.0811H92.5004H92.4989L92.4789 33.0342C91.1884 33.5918 90.0059 34.2129 88.9196 34.8819C88.7007 35.0705 88.4811 35.254 88.2594 35.4337C88.4546 35.3045 88.6528 35.1767 88.855 35.051C89.2448 34.8236 89.6442 34.5981 90.0554 34.3752C88.6591 35.2656 87.441 36.2706 86.3784 37.3486C86.1118 37.386 85.8495 37.4256 85.5918 37.4678C85.7056 37.368 85.8207 37.2688 85.9376 37.1704C85.7604 37.2943 85.5799 37.4193 85.3961 37.545L85.3393 37.5839C85.2762 37.6271 85.2126 37.6705 85.1485 37.7142C84.1076 38.6624 83.1973 39.657 82.4 40.6727C82.0079 40.7628 81.6308 40.858 81.2698 40.9579C81.958 40.2291 82.7191 39.5005 83.562 38.7795L82.8898 39.2269C82.2316 39.8199 81.6267 40.4169 81.0703 41.014C80.6826 41.1251 80.3142 41.2419 79.9674 41.3639C79.9138 41.4088 79.8603 41.4537 79.8076 41.4987C80.1716 41.3661 80.5611 41.2392 80.9731 41.1185C80.1123 42.0516 79.3703 42.9844 78.7303 43.9025C78.0409 44.1398 77.4077 44.3953 76.8387 44.6662C76.8092 44.7071 76.7801 44.748 76.7511 44.7889C77.3222 44.5107 77.9606 44.2484 78.6592 44.0045C77.8089 45.2378 77.1427 46.4437 76.6211 47.5886C75.9253 47.9165 75.3099 48.2669 74.7858 48.6363C74.7709 48.6787 74.7557 48.7214 74.7411 48.764C75.2594 48.3899 75.8728 48.0344 76.5701 47.7012C75.9317 49.1233 75.5159 50.4479 75.247 51.6087C74.7115 51.8783 74.2299 52.1613 73.8075 52.4559L73.7893 52.5564C74.2089 52.259 74.6898 51.973 75.226 51.7003C74.9261 53.0237 74.8176 54.1282 74.785 54.913C74.2491 55.1304 73.7525 55.3579 73.2993 55.5947C73.292 55.6265 73.2844 55.6575 73.2769 55.6878C73.734 55.4465 74.2374 55.2145 74.7817 54.9928C74.754 55.7625 74.7997 56.2033 74.8002 56.2106L74.9087 56.2013C74.908 56.194 74.861 55.7398 74.8918 54.9484C75.4558 54.7224 76.0632 54.5076 76.7105 54.3051C76.789 54.2806 76.8683 54.2561 76.948 54.2322C76.7986 55.5477 76.8112 56.3482 76.8112 56.3586L76.92 56.3581C76.92 56.3477 76.9071 55.5333 77.0614 54.1978C77.7569 53.9896 78.4953 53.7954 79.2721 53.6164C79.1004 55.2705 79.1259 56.3091 79.1259 56.3212L79.2347 56.3194C79.2347 56.3073 79.2085 55.2586 79.3832 53.5909C80.1385 53.4193 80.93 53.262 81.7527 53.1204C81.6573 55.1526 81.781 56.4638 81.7823 56.4772L81.8911 56.4679C81.8898 56.4545 81.7656 55.1387 81.8625 53.1014C82.6232 52.9722 83.4108 52.8565 84.2217 52.7553C84.1263 54.9625 84.2098 56.4224 84.2106 56.4371L84.3194 56.4315C84.3187 56.4169 84.2351 54.9527 84.3313 52.7417C85.0061 52.6586 85.697 52.5857 86.4021 52.5233C86.2921 54.8186 86.3352 56.3449 86.3358 56.3596L86.4446 56.3571C86.4443 56.3422 86.4009 54.8123 86.5115 52.5137C87.133 52.4597 87.7654 52.414 88.4074 52.3769C88.3314 54.8035 88.3465 56.456 88.3468 56.4729L88.4556 56.4724C88.4556 56.4558 88.4402 54.7997 88.5159 52.3706C88.9746 52.3448 89.4384 52.3234 89.9062 52.3065C89.812 54.7954 89.7886 56.4936 89.7883 56.51L89.8971 56.5113C89.8971 56.4949 89.9206 54.7939 90.0147 52.3027C90.4078 52.289 90.8042 52.2787 91.203 52.2716C91.1765 53.7066 91.1614 55.1216 91.1546 56.5108L91.2634 56.5113C91.2702 55.1216 91.2853 53.7058 91.3121 52.2698C91.6873 52.2638 92.0649 52.2605 92.4449 52.2603V56.5684H92.5542V52.2603C92.9341 52.2605 93.3118 52.2638 93.6869 52.2698C93.7137 53.7058 93.7288 55.1216 93.7357 56.5113L93.8445 56.5108C93.8377 55.1216 93.8225 53.7066 93.796 52.2716C94.1949 52.2787 94.5912 52.289 94.9843 52.3027C95.0785 54.7939 95.1017 56.4949 95.1019 56.5113L95.2107 56.51C95.2107 56.4936 95.1873 54.7954 95.0928 52.3065C95.5609 52.3234 96.0244 52.3448 96.4831 52.3706C96.5588 54.7997 96.5437 56.4558 96.5434 56.4724L96.6522 56.4729C96.6522 56.4563 96.6676 54.8037 96.5917 52.3769C97.2336 52.414 97.866 52.4599 98.4876 52.5137C98.5979 54.8123 98.5547 56.3422 98.5545 56.3571L98.6633 56.3596C98.6635 56.3447 98.707 54.8186 98.5969 52.5233C99.302 52.5857 99.993 52.6589 100.668 52.7417C100.764 54.9527 100.68 56.4169 100.68 56.4315L100.788 56.4371C100.789 56.4224 100.873 54.9625 100.777 52.7553C101.588 52.8565 102.376 52.9722 103.137 53.1014C103.233 55.1387 103.109 56.4545 103.108 56.4679L103.217 56.4772C103.218 56.4638 103.342 55.1526 103.246 53.1204C104.069 53.262 104.861 53.4193 105.616 53.5909C105.791 55.2586 105.764 56.3073 105.764 56.3194L105.873 56.3212C105.873 56.3093 105.899 55.2708 105.727 53.6164C106.504 53.7954 107.242 53.9896 107.938 54.1978C108.092 55.5333 108.079 56.3475 108.079 56.3581L108.188 56.3586C108.188 56.3482 108.2 55.5477 108.051 54.2322C108.131 54.2564 108.21 54.2806 108.289 54.3051C108.936 54.5076 109.544 54.7224 110.107 54.9481C110.138 55.7398 110.091 56.194 110.09 56.2013L110.199 56.2106C110.2 56.2036 110.245 55.7628 110.217 54.9928C110.735 55.2036 111.216 55.4237 111.655 55.6525L111.656 55.6532ZM109.628 51.5468C108.961 51.2184 108.213 50.9101 107.395 50.6256C107.099 49.4439 106.694 48.1435 106.139 46.7878C106.242 46.8224 106.344 46.857 106.445 46.8923C107.106 47.1231 107.72 47.37 108.281 47.6313C108.93 49.0546 109.353 50.382 109.628 51.5468H109.628ZM88.2764 37.2034C87.72 38.0666 87.238 38.9913 86.821 39.9511C86.359 40.0009 85.9071 40.0564 85.4661 40.1175C86.0459 39.1403 86.7165 38.1878 87.4912 37.283C87.7495 37.2544 88.0113 37.2277 88.2764 37.2034ZM87.5619 37.2014C88.4957 36.1232 89.5788 35.1144 90.8355 34.2147C89.8663 35.0498 89.037 36.0379 88.3274 37.1254C88.0691 37.1487 87.8141 37.1742 87.5619 37.2014ZM90.2356 37.0684C89.9966 37.8858 89.7875 38.7835 89.6048 39.7313C89.2695 39.7487 88.938 39.7689 88.6101 39.7921C88.9239 38.8525 89.2826 37.9462 89.6929 37.0972C89.8726 37.0866 90.0536 37.077 90.2356 37.0684ZM89.73 37.0214C90.1609 36.1394 90.6476 35.3204 91.198 34.5923C90.842 35.2588 90.5303 36.0742 90.2576 36.9939C90.0806 37.0022 89.9047 37.0113 89.73 37.0214ZM95.3064 37.0972C95.7164 37.9462 96.0751 38.8525 96.3889 39.7921C96.0613 39.7689 95.7295 39.7487 95.3943 39.7313C95.2118 38.7835 95.0027 37.8858 94.7634 37.0684C94.9454 37.077 95.1264 37.0866 95.3062 37.0972H95.3064ZM94.7417 36.9939C94.4688 36.0742 94.1573 35.2585 93.8013 34.5923C94.3516 35.3204 94.8384 36.1394 95.2693 37.0214C95.0946 37.0113 94.9187 37.0022 94.7417 36.9939ZM97.5081 37.283C98.2828 38.1878 98.9534 39.1403 99.5332 40.1175C99.0925 40.0564 98.6406 40.0009 98.1786 39.9511C97.7615 38.9913 97.2796 38.0668 96.7232 37.2034C96.9883 37.2277 97.2498 37.2542 97.5083 37.283H97.5081ZM96.6719 37.1252C95.9623 36.0376 95.133 35.0495 94.1638 34.2144C95.4205 35.1141 96.5036 36.1232 97.4374 37.2012C97.1854 37.1737 96.9302 37.1484 96.6719 37.1252ZM84.1652 42.6716C84.7286 42.5812 85.308 42.4999 85.9013 42.4277C85.6021 43.3767 85.354 44.3373 85.148 45.2875C84.4434 45.3862 83.759 45.4985 83.097 45.624C83.3853 44.6501 83.737 43.6584 84.1652 42.6713V42.6716ZM82.9774 45.6472C82.3331 45.7712 81.7106 45.9075 81.1125 46.0552C81.4836 45.0441 81.9274 44.0108 82.4591 42.9818C82.9695 42.8773 83.4964 42.7809 84.0379 42.6923C83.6128 43.6806 83.2636 44.673 82.9774 45.6472ZM98.9554 42.3368C98.3778 42.2684 97.787 42.2091 97.1849 42.1591C96.9923 41.3861 96.7749 40.6209 96.5296 39.8757C97.06 39.9148 97.58 39.9612 98.0877 40.015C98.4156 40.7711 98.7032 41.5494 98.9554 42.3368ZM98.2117 40.0284C98.6787 40.0791 99.1354 40.1357 99.5805 40.198C100.042 40.9844 100.446 41.7862 100.799 42.5916C100.239 42.5024 99.663 42.4219 99.0735 42.3507C98.8231 41.5636 98.5373 40.7852 98.2117 40.0281V40.0284ZM97.0721 42.15C96.6469 42.1157 96.2163 42.0859 95.7805 42.0611C95.671 41.2896 95.5475 40.5333 95.4087 39.8055C95.7475 39.8232 96.0827 39.8439 96.4139 39.8676C96.6603 40.6121 96.8787 41.3767 97.0721 42.15ZM95.6745 42.0551C95.261 42.0324 94.8427 42.0139 94.4206 42.0001C94.3426 41.2336 94.2572 40.481 94.1633 39.7547C94.5473 39.7661 94.9272 39.7812 95.3026 39.7999C95.4415 40.527 95.5647 41.2833 95.6742 42.0551H95.6745ZM94.3128 41.9965C94.0043 41.9869 93.6935 41.9799 93.381 41.9751C93.3322 41.2296 93.2787 40.4826 93.2201 39.7348C93.5006 39.7383 93.7791 39.7439 94.0558 39.7515C94.1494 40.477 94.235 41.2298 94.3128 41.9963V41.9965ZM93.2714 41.9735C93.0333 41.9705 92.7943 41.9687 92.5542 41.9685V39.7305C92.7405 39.7305 92.9258 39.7318 93.1106 39.7338C93.1692 40.4815 93.2227 41.2283 93.2714 41.9738V41.9735ZM92.4449 41.9685C92.2048 41.9685 91.9657 41.9703 91.7276 41.9735C91.7764 41.2281 91.8299 40.4813 91.8885 39.7335C92.073 39.7315 92.2586 39.7305 92.4449 39.7302V41.9682V41.9685ZM91.6183 41.9751C91.3058 41.9799 90.995 41.9869 90.6865 41.9965C90.7645 41.2301 90.8499 40.4773 90.9435 39.7517C91.22 39.7441 91.4987 39.7386 91.7791 39.735C91.7206 40.4828 91.6671 41.2296 91.6183 41.9753V41.9751ZM90.5787 41.9998C90.1564 42.0137 89.7383 42.0321 89.3248 42.0548C89.4344 41.2831 89.5578 40.5267 89.6964 39.7997C90.0718 39.7807 90.4517 39.7656 90.8357 39.7545C90.7421 40.4805 90.6565 41.2334 90.5785 41.9998H90.5787ZM89.2188 42.0609C88.783 42.0856 88.3523 42.1154 87.9272 42.1498C88.1206 41.3765 88.339 40.6118 88.5854 39.8673C88.9166 39.8436 89.2516 39.8229 89.5906 39.8052C89.4518 40.533 89.3283 41.2894 89.2188 42.0609ZM87.8146 42.1591C87.2125 42.2091 86.6218 42.2684 86.0442 42.3368C86.2964 41.5494 86.5839 40.7714 86.9118 40.015C87.4198 39.9612 87.9396 39.9148 88.47 39.8757C88.2249 40.6209 88.0072 41.3861 87.8146 42.1591ZM85.926 42.351C85.3365 42.4222 84.7607 42.5027 84.2005 42.5918C84.5532 41.7865 84.9571 40.9847 85.4191 40.1983C85.8642 40.1359 86.3209 40.0791 86.7879 40.0286C86.4622 40.7858 86.1767 41.5641 85.926 42.3512V42.351ZM86.0197 42.4136C86.5991 42.3447 87.1918 42.2848 87.7959 42.2343C87.5657 43.1669 87.3711 44.1106 87.2067 45.0444C86.544 45.1085 85.8952 45.1845 85.2626 45.2716C85.4696 44.3214 85.719 43.3613 86.0197 42.4136ZM87.9085 42.2252C88.3362 42.1904 88.7697 42.1604 89.2084 42.1354C89.0799 43.0477 88.9704 43.98 88.8772 44.9098C88.3498 44.9439 87.8295 44.9853 87.3178 45.0338C87.4826 44.1 87.6775 43.1568 87.9085 42.2252ZM89.3144 42.1293C89.729 42.1063 90.148 42.0879 90.5714 42.0738C90.4795 42.9831 90.3982 43.9106 90.3263 44.8354C89.8741 44.8525 89.4265 44.8752 88.984 44.903C89.0769 43.973 89.1862 43.0409 89.3144 42.1293ZM90.6792 42.0705C90.9885 42.0609 91.3 42.0536 91.6135 42.049C91.5537 42.97 91.5012 43.8884 91.455 44.8035C91.1124 44.8099 90.7721 44.8192 90.4343 44.8313C90.5063 43.9066 90.5873 42.9791 90.6792 42.0705ZM91.7231 42.0473C91.9627 42.0442 92.2033 42.0425 92.4451 42.0422V44.794C92.15 44.7942 91.8564 44.7967 91.5643 44.8015C91.6105 43.8866 91.6633 42.9682 91.7231 42.0473ZM92.5544 42.0422C92.7963 42.0422 93.0369 42.0442 93.2764 42.0473C93.3363 42.9682 93.389 43.8866 93.4352 44.8015C93.1431 44.7967 92.8495 44.7942 92.5544 44.794V42.0422ZM93.386 42.0488C93.6996 42.0536 94.0111 42.0606 94.3203 42.0702C94.412 42.9788 94.4933 43.9063 94.5652 44.8311C94.2274 44.8187 93.8871 44.8096 93.5446 44.8033C93.4984 43.8881 93.4458 42.9697 93.386 42.0488ZM94.4284 42.0738C94.8518 42.0877 95.2708 42.1063 95.6854 42.1293C95.8136 43.0407 95.9229 43.973 96.0158 44.903C95.5733 44.8752 95.1257 44.8528 94.6735 44.8354C94.6016 43.9109 94.5203 42.9831 94.4284 42.0738ZM95.7914 42.1351C96.2301 42.1601 96.6636 42.1901 97.0913 42.225C97.3223 43.1565 97.5172 44.0997 97.682 45.0335C97.1703 44.9851 96.65 44.9437 96.1226 44.9096C96.0294 43.9798 95.9199 43.0472 95.7914 42.1351ZM97.2039 42.2343C97.8082 42.2848 98.4007 42.3447 98.9801 42.4136C99.2808 43.3613 99.5302 44.3214 99.7372 45.2716C99.1046 45.1845 98.4558 45.1088 97.7931 45.0444C97.6287 44.1103 97.4341 43.1669 97.2039 42.2343ZM99.0983 42.4277C99.6915 42.4997 100.271 42.5812 100.834 42.6716C101.262 43.6587 101.614 44.6503 101.903 45.6243C101.241 45.4991 100.556 45.3865 99.8516 45.2877C99.6456 44.3375 99.3974 43.3767 99.0983 42.428V42.4277ZM100.962 42.692C101.503 42.7804 102.03 42.8771 102.54 42.9816C103.072 44.0108 103.516 45.0441 103.887 46.055C103.289 45.9073 102.667 45.7712 102.022 45.647C101.736 44.6728 101.387 43.6804 100.962 42.692ZM102.673 43.0089C103.248 43.1285 103.801 43.2583 104.332 43.3969C104.981 44.4908 105.518 45.5831 105.961 46.6439C105.347 46.444 104.695 46.2574 104.011 46.086C103.642 45.0744 103.201 44.0401 102.673 43.0089ZM102.63 42.9253C102.2 42.0937 101.713 41.2647 101.162 40.4523C101.625 40.5368 102.072 40.628 102.501 40.7252C103.171 41.5762 103.76 42.4418 104.278 43.3073C103.751 43.1707 103.201 43.0432 102.63 42.925L102.63 42.9253ZM102.497 42.898C101.989 42.795 101.465 42.6993 100.927 42.6123C100.577 41.8072 100.177 41.0049 99.7185 40.2177C100.163 40.2816 100.597 40.351 101.017 40.426C101.573 41.2376 102.063 42.0662 102.497 42.898H102.497ZM99.6716 40.1367C99.0975 39.16 98.4336 38.2072 97.6669 37.3006C97.961 37.3345 98.2505 37.3711 98.535 37.4102C99.4547 38.3415 100.258 39.3273 100.959 40.3409C100.542 40.2675 100.112 40.1991 99.6716 40.1364V40.1367ZM98.0541 39.9378C97.549 39.8847 97.0322 39.8388 96.5048 39.8004C96.193 38.8616 95.8366 37.955 95.4294 37.1047C95.8204 37.129 96.2057 37.1577 96.5846 37.1913C97.1466 38.0527 97.633 38.9772 98.0541 39.938V39.9378ZM95.2887 39.726C94.9149 39.7073 94.5364 39.6924 94.1542 39.6813C94.032 38.7432 93.8962 37.8505 93.745 37.0315C94.0515 37.0393 94.3552 37.05 94.6559 37.0636C94.8959 37.879 95.1057 38.777 95.289 39.7262L95.2887 39.726ZM94.0464 39.6782C93.771 39.6707 93.4938 39.6654 93.2146 39.6618C93.1452 38.781 93.0692 37.8992 92.9849 37.0179C93.2032 37.0202 93.4206 37.0237 93.6364 37.0287C93.7879 37.8464 93.924 38.7391 94.0464 39.6782ZM93.1053 39.6603C92.9225 39.6583 92.739 39.6573 92.5547 39.6573V37.0156C92.6617 37.0156 92.7685 37.0161 92.875 37.0171C92.9594 37.8984 93.0361 38.78 93.1053 39.6606V39.6603ZM92.4454 39.6573C92.2611 39.6573 92.0775 39.6586 91.8948 39.6603C91.9642 38.7798 92.0409 37.8982 92.125 37.0169C92.2315 37.0161 92.3383 37.0156 92.4454 37.0154V39.657V39.6573ZM91.7852 39.6618C91.506 39.6654 91.2288 39.6709 90.9534 39.6782C91.0756 38.7394 91.2116 37.8467 91.3634 37.0287C91.5792 37.0237 91.7966 37.0199 92.0149 37.0179C91.9306 37.8992 91.8546 38.781 91.7852 39.6618ZM90.8456 39.6813C90.4634 39.6924 90.0849 39.7075 89.7111 39.726C89.8941 38.7767 90.1039 37.8788 90.3442 37.0633C90.6449 37.05 90.9486 37.0391 91.2551 37.0313C91.1038 37.8502 90.968 38.7429 90.8458 39.681L90.8456 39.6813ZM88.495 39.8007C87.9676 39.8393 87.4508 39.885 86.9457 39.938C87.3668 38.9772 87.8532 38.0527 88.4152 37.1913C88.7941 37.158 89.1794 37.129 89.5704 37.1047C89.1632 37.9552 88.8068 38.8618 88.495 39.8004V39.8007ZM85.3282 40.1369C84.8874 40.1996 84.458 40.268 84.0412 40.3414C84.742 39.3278 85.5451 38.3418 86.4648 37.4105C86.7493 37.3711 87.0388 37.3347 87.3329 37.3009C86.5662 38.2072 85.9023 39.1602 85.3282 40.1369ZM85.2813 40.2177C84.8231 41.0049 84.4227 41.8069 84.073 42.6123C83.5345 42.6996 83.0107 42.795 82.5028 42.898C82.9362 42.0662 83.427 41.2376 83.9826 40.426C84.403 40.351 84.8362 40.2816 85.281 40.2177H85.2813ZM82.37 42.9253C81.7992 43.0432 81.2491 43.1709 80.7217 43.3073C81.2402 42.4418 81.8292 41.5759 82.4987 40.7252C82.9279 40.628 83.375 40.5368 83.838 40.4523C83.2869 41.2647 82.8001 42.0937 82.3702 42.9253H82.37ZM82.327 43.0089C81.7989 44.0399 81.3574 45.0744 80.9888 46.086C80.3049 46.2577 79.6533 46.444 79.0383 46.6439C79.4822 45.5831 80.0191 44.4908 80.6682 43.3969C81.1986 43.2583 81.7522 43.1285 82.327 43.0089ZM80.9557 46.1779C80.4814 47.4934 80.1294 48.7683 79.8687 49.9453C79.1504 50.1313 78.4693 50.333 77.8298 50.5486C77.7958 50.56 77.7619 50.5716 77.7281 50.5832C78.0273 49.3992 78.4367 48.0978 78.9977 46.7426C79.6144 46.5402 80.2683 46.3516 80.9557 46.1779ZM81.0794 46.1468C81.6795 45.9976 82.3046 45.8601 82.9519 45.7348C82.5795 47.0176 82.3154 48.2677 82.1299 49.4351C81.3841 49.5805 80.6679 49.741 79.9845 49.9157C80.2473 48.7375 80.6018 47.4619 81.0794 46.1471V46.1468ZM83.0718 45.7119C83.7357 45.5854 84.4227 45.472 85.13 45.3726C84.8607 46.6303 84.665 47.8686 84.5241 49.0354C83.7383 49.146 82.9769 49.2722 82.2435 49.4131C82.4306 48.245 82.6966 46.9943 83.0718 45.7119ZM85.2441 45.3564C85.8781 45.2688 86.5279 45.1923 87.1921 45.1277C86.9742 46.3796 86.8104 47.6131 86.6874 48.7779C85.9874 48.8466 85.3027 48.9274 84.6355 49.0198C84.7771 47.8522 84.9735 46.6136 85.2441 45.3564ZM87.3032 45.1171C87.8171 45.0681 88.3392 45.0265 88.8691 44.9921C88.7467 46.2264 88.6525 47.4551 88.5806 48.6244C87.9764 48.6633 87.3819 48.7113 86.7975 48.7673C86.9207 47.602 87.0848 46.3685 87.3032 45.1171ZM88.9759 44.9851C89.419 44.957 89.8673 44.9346 90.32 44.9171C90.2245 46.1509 90.146 47.3781 90.0811 48.5467C89.6118 48.5651 89.1476 48.5888 88.6884 48.6176C88.7603 47.4477 88.854 46.219 88.9759 44.9853V44.9851ZM90.4283 44.9131C90.7668 44.9007 91.1079 44.8914 91.4512 44.8851C91.4492 44.9252 91.4469 44.9656 91.4449 45.006C91.3868 46.1817 91.3394 47.3508 91.3005 48.5113C90.9274 48.5184 90.557 48.529 90.1894 48.5426C90.2543 47.3735 90.3328 46.1466 90.428 44.9131H90.4283ZM91.554 45.0111C91.556 44.9684 91.5583 44.9257 91.5605 44.8833C91.8539 44.8785 92.149 44.876 92.4454 44.8757V48.4997C92.098 48.5 91.7529 48.5032 91.4098 48.5091C91.4484 47.3513 91.4959 46.1845 91.554 45.0111ZM92.5547 44.8755C92.8513 44.8757 93.1462 44.8783 93.4395 44.8831C93.4415 44.9257 93.4441 44.9684 93.4461 45.0108C93.5042 46.1842 93.5516 47.351 93.5902 48.5088C93.2472 48.5027 92.9018 48.4997 92.5547 48.4995V44.8755ZM93.5552 45.0058C93.5531 44.9656 93.5509 44.9252 93.5488 44.8848C93.8922 44.8911 94.2332 44.9005 94.5718 44.9129C94.667 46.1463 94.7455 47.3733 94.8104 48.5424C94.4428 48.5287 94.0724 48.5181 93.6993 48.5111C93.6607 47.3508 93.6132 46.1814 93.5549 45.0058H93.5552ZM94.6801 44.9171C95.133 44.9346 95.5811 44.9573 96.0241 44.9851C96.1463 46.2188 96.24 47.4475 96.3117 48.6174C95.8525 48.5886 95.388 48.5648 94.9189 48.5464C94.854 47.3778 94.7753 46.1509 94.6801 44.9169V44.9171ZM96.1312 44.9921C96.6608 45.0265 97.1832 45.0684 97.6972 45.1171C97.9155 46.3685 98.0799 47.6017 98.2028 48.7673C97.6186 48.711 97.0239 48.6633 96.4197 48.6244C96.3475 47.4551 96.2536 46.2266 96.1312 44.9921ZM97.808 45.1279C98.4722 45.1926 99.122 45.2691 99.7559 45.3567C100.027 46.6139 100.223 47.8524 100.365 49.02C99.6973 48.9279 99.0124 48.8471 98.3126 48.7782C98.1897 47.6133 98.0258 46.3799 97.808 45.1279ZM99.87 45.3726C100.577 45.472 101.264 45.5856 101.928 45.7119C102.303 46.9943 102.569 48.245 102.757 49.4131C102.023 49.2722 101.262 49.1457 100.476 49.0354C100.335 47.8686 100.139 46.6303 99.87 45.3726ZM102.048 45.7351C102.695 45.8603 103.321 45.9979 103.921 46.1471C104.398 47.4621 104.752 48.7378 105.016 49.9157C104.332 49.7413 103.616 49.5805 102.87 49.4351C102.685 48.268 102.421 47.0178 102.048 45.7348V45.7351ZM104.044 46.1782C104.732 46.3518 105.386 46.5404 106.002 46.7429C106.563 48.0981 106.973 49.3997 107.272 50.5835C107.238 50.5718 107.204 50.5602 107.17 50.5489C106.531 50.3333 105.85 50.1316 105.131 49.9455C104.871 48.7688 104.519 47.4937 104.044 46.1782ZM108.23 47.5197C107.688 47.271 107.1 47.0357 106.469 46.8153C106.347 46.7727 106.223 46.7308 106.098 46.6894C105.659 45.6278 105.127 44.5337 104.483 43.4373C104.977 43.5693 105.451 43.7092 105.902 43.8566C105.992 43.8861 106.081 43.9159 106.17 43.946C107.028 45.1747 107.701 46.3771 108.23 47.5197ZM103.827 41.0612C104.699 41.9935 105.45 42.9261 106.099 43.8445C106.041 43.825 105.983 43.8058 105.925 43.7867C105.45 43.6317 104.951 43.485 104.43 43.3471C103.917 42.4822 103.334 41.6163 102.672 40.7645C103.074 40.8582 103.46 40.9572 103.828 41.0612H103.827ZM99.5128 37.5591C100.622 38.5407 101.588 39.5755 102.429 40.634C102.004 40.5391 101.562 40.45 101.104 40.3674C100.411 39.3543 99.6158 38.3678 98.706 37.4347C98.9796 37.4738 99.2487 37.5152 99.5128 37.5594V37.5591ZM98.4505 37.3249C98.1708 37.287 97.8862 37.2517 97.5974 37.2191C96.5109 35.9488 95.2198 34.7718 93.6864 33.7519C95.5457 34.7738 97.119 35.9919 98.4505 37.3249ZM96.5331 37.1131C96.159 37.0805 95.7785 37.0525 95.3928 37.029C94.8184 35.8432 94.1444 34.7685 93.3532 33.8706C93.2585 33.74 93.1613 33.6191 93.0611 33.5083C94.4551 34.4555 95.5975 35.6973 96.5331 37.1131ZM93.2863 33.9589C93.8169 34.6948 94.2615 35.743 94.6336 36.9891C94.3357 36.976 94.0348 36.9654 93.7314 36.9578C93.4461 35.4302 93.1068 34.1652 92.7031 33.349C92.9041 33.5419 93.099 33.7448 93.2863 33.9589ZM93.6226 36.955C93.4087 36.95 93.1939 36.9464 92.9775 36.9444C92.8627 35.7488 92.7337 34.5537 92.5888 33.3624C92.9947 34.1649 93.336 35.4259 93.6226 36.955ZM92.8677 36.9437C92.7635 36.9429 92.6592 36.9424 92.5544 36.9424V33.9953C92.6693 34.9766 92.7733 35.9601 92.8677 36.9437ZM92.4451 36.9424C92.3403 36.9424 92.2358 36.9429 92.1318 36.9437C92.2265 35.9599 92.3303 34.9766 92.4451 33.9953V36.9424ZM92.0218 36.9447C91.8054 36.9467 91.5906 36.9505 91.3767 36.9553C91.6633 35.4262 92.0046 34.1652 92.4105 33.3626C92.2656 34.5539 92.1366 35.7488 92.0218 36.9447ZM92.2964 33.3492C91.893 34.1654 91.5537 35.4305 91.2682 36.9581C90.9647 36.9656 90.6638 36.9762 90.3659 36.9894C90.738 35.7433 91.1826 34.6951 91.7133 33.9592C91.9006 33.7451 92.0955 33.5421 92.2964 33.3492ZM91.6464 33.8708C90.8552 34.7688 90.1809 35.8435 89.6068 37.0293C89.221 37.0527 88.8406 37.0808 88.4665 37.1133C89.402 35.6976 90.5444 34.4557 91.9384 33.5085C91.8385 33.6194 91.741 33.7403 91.6464 33.8708ZM91.3131 33.7524C89.7797 34.7723 88.4889 35.9493 87.4021 37.2196C87.1133 37.2522 86.8288 37.2875 86.5491 37.3254C87.8805 35.9924 89.4538 34.7746 91.3131 33.7524ZM85.487 37.5594C85.7511 37.5155 86.0202 37.4738 86.2938 37.4347C85.384 38.368 84.5893 39.3543 83.8955 40.3674C83.4378 40.45 82.9958 40.5391 82.5707 40.634C83.4116 39.5755 84.3775 38.5409 85.487 37.5591V37.5594ZM81.1723 41.0614C81.5404 40.9574 81.9259 40.8585 82.3276 40.7648C81.6654 41.6166 81.083 42.4822 80.5702 43.3474C80.0484 43.4852 79.5493 43.6322 79.0755 43.7869C79.0169 43.8061 78.9591 43.8253 78.9013 43.8447C79.5496 42.9261 80.3014 41.9937 81.1726 41.0614H81.1723ZM78.8301 43.9462C78.9184 43.9162 79.0075 43.8861 79.0979 43.8568C79.5488 43.7094 80.0227 43.5696 80.5172 43.4375C79.8735 44.5339 79.3413 45.6281 78.9015 46.6896C78.7765 46.731 78.6531 46.7729 78.5312 46.8156C77.9003 47.036 77.3118 47.2713 76.77 47.5199C77.2984 46.3776 77.9722 45.1749 78.8301 43.9462ZM76.7188 47.6318C77.2803 47.3705 77.894 47.1236 78.5546 46.8928C78.6554 46.8575 78.7576 46.8229 78.8606 46.7883C78.3055 48.1438 77.9005 49.4444 77.6052 50.6261C76.7865 50.9106 76.0389 51.2189 75.3717 51.5473C75.6466 50.3825 76.0702 49.0551 76.7191 47.6318H76.7188ZM76.6888 54.2362C76.0513 54.4356 75.4525 54.6472 74.8951 54.8696C74.9304 54.0764 75.0435 52.9659 75.35 51.639C76.0155 51.3083 76.7635 50.998 77.584 50.7109C77.255 52.0442 77.0657 53.2229 76.9571 54.1539C76.867 54.1812 76.7774 54.2087 76.6888 54.2362ZM77.0707 54.1196C77.1818 53.1837 77.3742 52.0025 77.7067 50.6683C77.7551 50.6516 77.8038 50.635 77.8528 50.6186C78.4802 50.407 79.1477 50.2091 79.8507 50.026C79.5602 51.3534 79.385 52.5531 79.2799 53.5404C78.5039 53.7187 77.7657 53.9121 77.0705 54.1196H77.0707ZM79.3915 53.5149C79.4976 52.5248 79.674 51.3239 79.9669 49.996C80.6518 49.8203 81.37 49.6587 82.118 49.5123C81.9133 50.8208 81.807 52.0224 81.7565 53.0464C80.9355 53.1873 80.1459 53.344 79.3915 53.5149ZM81.8666 53.0275C81.9178 52.0022 82.0251 50.7991 82.2314 49.4903C82.9658 49.3487 83.7282 49.222 84.5153 49.1109C84.3598 50.4173 84.2722 51.6319 84.2252 52.6821C83.4146 52.7831 82.6272 52.8987 81.8666 53.0275ZM84.3348 52.6685C84.382 51.6173 84.4701 50.4017 84.6264 49.0952C85.2939 49.0026 85.979 48.9216 86.6796 48.8526C86.5428 50.1646 86.4579 51.3878 86.4059 52.4503C85.7008 52.5127 85.0099 52.5857 84.3348 52.6685ZM86.515 52.4408C86.5673 51.3774 86.6523 50.1538 86.7894 48.8418C87.3746 48.7852 87.9704 48.7373 88.5758 48.6981C88.4962 49.9998 88.444 51.2265 88.4097 52.3039C87.7682 52.341 87.136 52.3867 86.515 52.4405V52.4408ZM88.5182 52.2979C88.5523 51.2196 88.6045 49.9927 88.6836 48.6916C89.1428 48.6628 89.6075 48.6391 90.0769 48.6206C90.0052 49.9233 89.9504 51.1515 89.909 52.234C89.4409 52.2509 88.9769 52.2724 88.5182 52.2981V52.2979ZM90.0178 52.23C90.0589 51.1472 90.1137 49.9187 90.1852 48.6163C90.5532 48.6025 90.9241 48.5921 91.2977 48.5848C91.2576 49.8009 91.227 51.0066 91.2046 52.1989C90.8059 52.206 90.4103 52.2163 90.0175 52.23H90.0178ZM91.3136 52.1969C91.3361 51.0048 91.3666 49.7988 91.4068 48.5828C91.7506 48.5767 92.0967 48.5737 92.4449 48.5732V52.1873C92.0654 52.1875 91.6883 52.1908 91.3136 52.1969ZM92.5542 52.1873V48.5732C92.9023 48.5734 93.2484 48.5767 93.5923 48.5828C93.6324 49.7991 93.663 51.0048 93.6854 52.1969C93.3108 52.1908 92.9336 52.1875 92.5542 52.1873ZM93.7945 52.1989C93.772 51.0066 93.7417 49.8009 93.7013 48.5848C94.075 48.5921 94.4458 48.6025 94.8139 48.6163C94.8856 49.9187 94.9401 51.1472 94.9813 52.23C94.5887 52.2163 94.1929 52.206 93.7942 52.1989H93.7945ZM95.0903 52.2337C95.0489 51.1515 94.9944 49.923 94.9224 48.6204C95.3918 48.6388 95.8565 48.6625 96.3157 48.6913C96.3947 49.9925 96.4468 51.2194 96.4811 52.2976C96.0221 52.2719 95.5584 52.2504 95.0903 52.2335V52.2337ZM96.5896 52.3042C96.5553 51.2265 96.5031 50 96.4235 48.6984C97.0289 48.7375 97.6247 48.7855 98.2099 48.842C98.347 50.154 98.432 51.3777 98.4843 52.441C97.8633 52.3872 97.2311 52.3415 96.5896 52.3044V52.3042ZM98.5934 52.4503C98.5414 51.388 98.4563 50.1646 98.3197 48.8526C99.0203 48.9216 99.7054 49.0028 100.373 49.0952C100.529 50.4017 100.617 51.6173 100.664 52.6685C99.9894 52.5857 99.2985 52.5127 98.5934 52.4503ZM100.774 52.6821C100.727 51.6322 100.639 50.4173 100.484 49.1109C101.271 49.2217 102.034 49.3487 102.768 49.4903C102.974 50.7993 103.082 52.0022 103.133 53.0275C102.372 52.8985 101.585 52.7831 100.774 52.6821ZM103.243 53.0464C103.192 52.0227 103.086 50.8208 102.881 49.5123C103.629 49.6587 104.348 49.8203 105.032 49.996C105.325 51.3239 105.501 52.5248 105.608 53.5149C104.853 53.344 104.064 53.1873 103.243 53.0464ZM105.719 53.5404C105.614 52.5531 105.439 51.3534 105.148 50.026C105.852 50.2091 106.519 50.407 107.146 50.6186C107.195 50.635 107.244 50.6516 107.292 50.6683C107.625 52.0025 107.817 53.1837 107.928 54.1196C107.233 53.9121 106.495 53.7187 105.719 53.5404H105.719ZM108.311 54.2362C108.222 54.2084 108.132 54.1812 108.042 54.1539C107.933 53.2229 107.744 52.0442 107.415 50.7109C108.236 50.998 108.984 51.3085 109.649 51.639C109.956 52.9659 110.069 54.0761 110.104 54.8694C109.547 54.6469 108.948 54.4356 108.311 54.2362Z" fill="#35683C"/>
<path fill-rule="evenodd" clip-rule="evenodd" d="M112.334 59.4784V59.8366C112.577 59.9767 112.819 60.1168 113.062 60.2569V60.4301C107.263 59.9734 100.687 59.6316 94.1112 59.6316C86.2834 59.6316 78.4558 60.1158 71.9377 60.7018V60.2567C72.1804 60.1166 72.423 59.9765 72.6658 59.8364V59.8356C78.9915 59.1747 86.4482 58.793 94.4344 58.793C100.846 58.793 106.916 59.0391 112.334 59.4781L112.334 59.4784Z" fill="#35683C"/>
<path fill-rule="evenodd" clip-rule="evenodd" d="M109.031 69.3544C109.847 69.4389 110.651 69.5296 111.439 69.6262C111.316 64.1692 109.22 64.0786 109.031 69.3544Z" fill="#35683C"/>
<path fill-rule="evenodd" clip-rule="evenodd" d="M102.459 68.828C103.308 68.8772 104.147 68.9328 104.974 68.9944C104.832 63.8655 102.646 63.8108 102.459 68.828Z" fill="#35683C"/>
<path fill-rule="evenodd" clip-rule="evenodd" d="M94.6318 68.5636C95.5525 68.5732 96.4654 68.5901 97.3694 68.6141C97.2417 63.5135 94.775 63.4964 94.6318 68.5636Z" fill="#35683C"/>
<path fill-rule="evenodd" clip-rule="evenodd" d="M87.2339 68.6447C88.1397 68.6149 89.0551 68.5925 89.9786 68.5771C89.8788 63.4475 87.3116 63.4697 87.2339 68.6447Z" fill="#35683C"/>
<path fill-rule="evenodd" clip-rule="evenodd" d="M79.9155 69.0527C80.8605 68.9774 81.8205 68.91 82.794 68.8512C82.617 63.657 80.0304 63.7244 79.9155 69.0527Z" fill="#35683C"/>
<path fill-rule="evenodd" clip-rule="evenodd" d="M73.5571 69.7078C74.5296 69.5833 75.5247 69.468 76.5406 69.3624C76.3336 64.0369 73.6571 64.1515 73.5571 69.7078Z" fill="#35683C"/>
<path fill-rule="evenodd" clip-rule="evenodd" d="M123 78.0004C115.659 76.7308 104.08 75.205 92.5001 75.205C80.9204 75.205 69.3403 76.7306 62 78.0004C73.267 72.608 111.655 72.5701 123 78.0004Z" fill="#35683C"/>
<path fill-rule="evenodd" clip-rule="evenodd" d="M110.994 61.8849V63.8612H111.672V61.8849C111.672 60.9186 110.994 60.9186 110.994 61.8849Z" fill="#35683C"/>
<path fill-rule="evenodd" clip-rule="evenodd" d="M109.547 61.8849V63.8612H110.225V61.8849C110.225 60.9186 109.547 60.9186 109.547 61.8849Z" fill="#35683C"/>
<path fill-rule="evenodd" clip-rule="evenodd" d="M104.678 61.6144V63.5906H105.357V61.6144C105.357 60.6481 104.678 60.6481 104.678 61.6144Z" fill="#35683C"/>
<path fill-rule="evenodd" clip-rule="evenodd" d="M102.827 61.6144V63.5906H103.506V61.6144C103.506 60.6481 102.827 60.6481 102.827 61.6144Z" fill="#35683C"/>
<path fill-rule="evenodd" clip-rule="evenodd" d="M97.5293 61.5718V63.4322H98.2079V61.5718C98.2079 60.6623 97.5293 60.6623 97.5293 61.5718Z" fill="#35683C"/>
<path fill-rule="evenodd" clip-rule="evenodd" d="M94.8867 61.5718V63.4322H95.5653V61.5718C95.5653 60.6623 94.8867 60.6623 94.8867 61.5718Z" fill="#35683C"/>
<path fill-rule="evenodd" clip-rule="evenodd" d="M90.2441 61.5718V63.4322H90.9227V61.5718C90.9227 60.6623 90.2441 60.6623 90.2441 61.5718Z" fill="#35683C"/>
<path fill-rule="evenodd" clip-rule="evenodd" d="M87.6016 61.6144V63.5906H88.2802V61.6144C88.2802 60.6481 87.6016 60.6481 87.6016 61.6144Z" fill="#35683C"/>
<path fill-rule="evenodd" clip-rule="evenodd" d="M82.0459 61.6144V63.5906H82.7245V61.6144C82.7245 60.6481 82.0459 60.6481 82.0459 61.6144Z" fill="#35683C"/>
<path fill-rule="evenodd" clip-rule="evenodd" d="M80.1943 61.6144V63.5906H80.8729V61.6144C80.8729 60.6481 80.1943 60.6481 80.1943 61.6144Z" fill="#35683C"/>
<path fill-rule="evenodd" clip-rule="evenodd" d="M75.5659 61.8849V63.8612H76.2445V61.8849C76.2445 60.9186 75.5659 60.9186 75.5659 61.8849Z" fill="#35683C"/>
<path fill-rule="evenodd" clip-rule="evenodd" d="M74.1196 61.8849V63.8612H74.7982V61.8849C74.7982 60.9186 74.1196 60.9186 74.1196 61.8849Z" fill="#35683C"/>
<path fill-rule="evenodd" clip-rule="evenodd" d="M113.062 63.5326V63.9075C113.806 64.1067 114.549 64.3059 115.292 64.5053L115.001 64.5833C108.752 64.0491 101.432 63.6258 94.1109 63.6258C85.6653 63.6258 77.2203 64.1892 70.4195 64.8363V64.6962C70.1819 64.6325 69.9443 64.5689 69.707 64.5053C70.4505 64.3061 71.194 64.1069 71.9375 63.9075C78.4159 63.1989 86.1395 62.7871 94.4338 62.7871C101.134 62.7871 107.462 63.056 113.062 63.5326H113.062Z" fill="#35683C"/>
<path fill-rule="evenodd" clip-rule="evenodd" d="M92.4999 24.6816C92.558 25.1237 92.6161 25.5655 92.6741 26.0075C93.3499 26.0075 93.2838 26.8914 92.741 26.8914V27.9494C93.41 27.9494 93.3966 28.9807 92.7544 28.9807V29.9448C93.3419 29.9448 93.3277 30.9493 92.7678 30.9493V31.5653C93.537 32.4421 94.255 33.1923 94.9593 33.8649C94.2118 34.2491 93.3787 34.4642 92.4999 34.4642C91.6211 34.4642 90.788 34.2491 90.0405 33.8649C90.7449 33.1923 91.4628 32.4421 92.2321 31.5653V30.9493C91.6721 30.9493 91.658 29.9448 92.2455 29.9448V28.9807C91.6032 28.9807 91.5898 27.9494 92.2588 27.9494V26.8914C91.7161 26.8914 91.6502 26.0075 92.3257 26.0075C92.3838 25.5655 92.4419 25.1237 92.4999 24.6816Z" fill="#35683C"/>
<path fill-rule="evenodd" clip-rule="evenodd" d="M92.6741 26.0078C93.3499 26.0078 93.2838 26.8917 92.741 26.8917V26.932H92.2588V26.8917C91.7161 26.8917 91.6502 26.0078 92.3257 26.0078H92.6739H92.6741ZM92.741 27.9497C93.41 27.9497 93.3966 28.981 92.7544 28.981H92.2455C91.6032 28.981 91.5898 27.9497 92.2588 27.9497H92.741ZM92.7544 29.9451C93.3075 29.9451 93.3272 30.8357 92.8599 30.9395H92.1399C91.6726 30.8357 91.6923 29.9451 92.2455 29.9451H92.7544ZM92.7678 31.5656C93.537 32.4423 94.255 33.1926 94.9593 33.8652C94.2118 34.2494 93.3787 34.4645 92.4999 34.4645C91.6211 34.4645 90.788 34.2494 90.0405 33.8652C90.7449 33.1926 91.4628 32.4423 92.2321 31.5656H92.7678Z" fill="#35683C"/>
<path fill-rule="evenodd" clip-rule="evenodd" d="M111.68 55.7896C111.887 56.7987 112.294 56.0797 112.331 58.0817C106.676 57.5949 100.458 57.2521 94.2387 57.2521C86.7145 57.2521 79.1909 57.7542 72.6655 58.4053V57.0284C72.7163 56.8386 72.8319 56.627 73.0745 56.2239C79.4568 55.5059 86.788 55.0972 94.5873 55.0972C100.642 55.0972 106.414 55.3436 111.68 55.7896H111.68Z" fill="#35683C"/>
<path fill-rule="evenodd" clip-rule="evenodd" d="M114.58 70.2372C115.055 70.4624 115.26 71.4071 115.29 71.9498C99.7871 69.6833 85.2784 69.728 69.7752 71.9869C69.6664 71.5123 70.1885 70.2374 70.42 70.1973C82.9412 68.0254 102.341 67.3877 114.58 70.2372Z" fill="#35683C"/>
<g clip-path="url(#clip1_7170_85113)">
<path d="M72.0974 66.8037H62.9023V79H72.0974V66.8037Z" fill="#82B473"/>
<path d="M72.3138 65.5635H62.6858V66.8371C62.6858 66.8719 62.6992 66.905 62.7232 66.9292C62.7472 66.9537 62.7797 66.9675 62.8137 66.9675H72.186C72.2199 66.9675 72.2524 66.9537 72.2764 66.9292C72.3004 66.905 72.3138 66.8719 72.3138 66.8371V65.5635Z" fill="#82B473"/>
<path d="M72.6545 63.9761H62.3455V65.4151C62.3455 65.5642 62.4536 65.6851 62.587 65.6851H72.4128C72.5462 65.6851 72.6543 65.5642 72.6543 65.4151V63.9761H72.6545Z" fill="#82B473"/>
<path d="M73 63.1142C73 63.0858 72.9896 63.0587 72.9713 63.0386C72.953 63.0185 72.928 63.0073 72.902 63.0073H62.098C62.072 63.0073 62.047 63.0185 62.0287 63.0386C62.0104 63.0587 62 63.0858 62 63.1142V63.8327C62 63.9656 62.0988 64.0735 62.2208 64.0735H72.779C72.901 64.0735 72.9998 63.9656 72.9998 63.8327V63.1142H73Z" fill="#82B473"/>
<path d="M71.3014 45.7632H63.6985V60.1489H71.3014V45.7632Z" fill="#5A7851"/>
<path d="M71.3017 49.3491L70.7002 48.8739C70.6061 48.7998 70.4737 48.7998 70.3798 48.8739L69.9157 49.2402C69.7718 49.3536 69.5691 49.3536 69.4252 49.2402L68.9623 48.8747C68.8682 48.8006 68.7359 48.8006 68.6417 48.8747L68.1789 49.2402C68.0349 49.3536 67.8323 49.3536 67.6883 49.2402L67.2255 48.8749C67.1314 48.8008 66.999 48.8008 66.9051 48.8749L66.442 49.2402C66.2981 49.3536 66.0954 49.3536 65.9515 49.2402L65.4886 48.8747C65.3945 48.8006 65.2622 48.8006 65.1683 48.8747L64.7054 49.2402C64.5615 49.3536 64.3588 49.3536 64.2149 49.2402L63.6987 48.8329V48.4614L64.347 48.9733C64.4133 49.0255 64.5068 49.0255 64.5733 48.9733L65.0312 48.6115C65.2057 48.4738 65.4512 48.4738 65.6256 48.6115L66.0999 48.9859C66.1568 49.031 66.2369 49.0306 66.2938 48.9855L66.7699 48.6076C66.9453 48.4683 67.1936 48.4687 67.3684 48.6091L67.8522 48.9971C67.9 49.0352 67.9679 49.0356 68.016 48.9977L68.5049 48.6115C68.6793 48.4738 68.9249 48.4738 69.0993 48.6115L69.5939 49.0021C69.639 49.0377 69.7025 49.0377 69.7476 49.0021L70.243 48.6109C70.4174 48.4732 70.663 48.4732 70.8374 48.6109L71.3021 48.9778V49.3491H71.3017Z" fill="#82B473"/>
<path d="M71.3017 50.0859L70.7002 49.6107C70.6061 49.5366 70.4737 49.5366 70.3798 49.6107L69.9157 49.977C69.7718 50.0905 69.5691 50.0905 69.4252 49.977L68.9623 49.6115C68.8682 49.5372 68.7359 49.5372 68.6417 49.6115L68.1789 49.977C68.0349 50.0905 67.8323 50.0905 67.6883 49.977L67.2255 49.6117C67.1314 49.5374 66.999 49.5374 66.9051 49.6117L66.442 49.977C66.2981 50.0905 66.0954 50.0905 65.9515 49.977L65.4886 49.6115C65.3945 49.5372 65.2622 49.5372 65.1683 49.6115L64.7054 49.977C64.5615 50.0905 64.3588 50.0905 64.2149 49.977L63.6987 49.5697V49.1982L64.347 49.7101C64.4133 49.7623 64.5068 49.7623 64.5733 49.7101L65.0312 49.3484C65.2057 49.2107 65.4512 49.2107 65.6256 49.3484L66.0999 49.7227C66.1568 49.7679 66.2369 49.7674 66.2938 49.7223L66.7699 49.3444C66.9453 49.2051 67.1936 49.2055 67.3684 49.3459L67.8522 49.7339C67.9 49.772 67.9679 49.7724 68.016 49.7345L68.5049 49.3484C68.6793 49.2107 68.9249 49.2107 69.0993 49.3484L69.5939 49.7387C69.639 49.7743 69.7025 49.7743 69.7476 49.7387L70.243 49.3475C70.4174 49.2098 70.663 49.2098 70.8374 49.3475L71.3021 49.7144V50.0857L71.3017 50.0859Z" fill="#82B473"/>
<path d="M71.3017 50.8237L70.7002 50.3485C70.6061 50.2744 70.4737 50.2744 70.3798 50.3485L69.9157 50.7148C69.7718 50.8282 69.5691 50.8282 69.4252 50.7148L68.9623 50.3493C68.8682 50.275 68.7359 50.275 68.6417 50.3493L68.1789 50.7148C68.0349 50.8282 67.8323 50.8282 67.6883 50.7148L67.2255 50.3495C67.1314 50.2752 66.999 50.2752 66.9051 50.3495L66.442 50.7148C66.2981 50.8282 66.0954 50.8282 65.9515 50.7148L65.4886 50.3493C65.3945 50.275 65.2622 50.275 65.1683 50.3493L64.7054 50.7148C64.5615 50.8282 64.3588 50.8282 64.2149 50.7148L63.6987 50.3075V49.936L64.347 50.4479C64.4133 50.5001 64.5068 50.5001 64.5733 50.4479L65.0312 50.0862C65.2057 49.9485 65.4512 49.9485 65.6256 50.0862L66.0999 50.4605C66.1568 50.5056 66.2369 50.5052 66.2938 50.4601L66.7699 50.0822C66.9453 49.9429 67.1936 49.9433 67.3684 50.0837L67.8522 50.4717C67.9 50.5098 67.9679 50.5102 68.016 50.4723L68.5049 50.0862C68.6793 49.9485 68.9249 49.9485 69.0993 50.0862L69.5939 50.4767C69.639 50.5123 69.7025 50.5123 69.7476 50.4767L70.243 50.0855C70.4174 49.9478 70.663 49.9478 70.8374 50.0855L71.3021 50.4524V50.8237H71.3017Z" fill="#82B473"/>
<path d="M71.3017 51.5605L70.7002 51.0853C70.6061 51.011 70.4737 51.011 70.3798 51.0853L69.9157 51.4516C69.7718 51.5651 69.5691 51.5651 69.4252 51.4516L68.9623 51.0861C68.8682 51.0118 68.7359 51.0118 68.6417 51.0861L68.1789 51.4516C68.0349 51.5651 67.8323 51.5651 67.6883 51.4516L67.2255 51.0863C67.1314 51.0122 66.999 51.0122 66.9051 51.0863L66.442 51.4516C66.2981 51.5651 66.0954 51.5651 65.9515 51.4516L65.4886 51.0861C65.3945 51.0118 65.2622 51.0118 65.1683 51.0861L64.7054 51.4516C64.5615 51.5651 64.3588 51.5651 64.2149 51.4516L63.6987 51.0443V50.6729L64.347 51.1847C64.4133 51.2369 64.5068 51.2369 64.5733 51.1847L65.0312 50.823C65.2057 50.6853 65.4512 50.6853 65.6256 50.823L66.0999 51.1973C66.1568 51.2425 66.2369 51.2421 66.2938 51.1969L66.7699 50.819C66.9453 50.6797 67.1936 50.6801 67.3684 50.8205L67.8522 51.2085C67.9 51.2466 67.9679 51.247 68.016 51.2091L68.5049 50.823C68.6793 50.6853 68.9249 50.6853 69.0993 50.823L69.5939 51.2135C69.639 51.2491 69.7025 51.2491 69.7476 51.2135L70.243 50.8223C70.4174 50.6847 70.663 50.6847 70.8374 50.8223L71.3021 51.1892V51.5605H71.3017Z" fill="#82B473"/>
<path d="M71.3017 52.2983L70.7002 51.8231C70.6061 51.7488 70.4737 51.7488 70.3798 51.8231L69.9157 52.1894C69.7718 52.3028 69.5691 52.3028 69.4252 52.1894L68.9623 51.8239C68.8682 51.7496 68.7359 51.7496 68.6417 51.8239L68.1789 52.1894C68.0349 52.3028 67.8323 52.3028 67.6883 52.1894L67.2255 51.8241C67.1314 51.75 66.999 51.75 66.9051 51.8241L66.442 52.1894C66.2981 52.3028 66.0954 52.3028 65.9515 52.1894L65.4886 51.8239C65.3945 51.7496 65.2622 51.7496 65.1683 51.8239L64.7054 52.1894C64.5615 52.3028 64.3588 52.3028 64.2149 52.1894L63.6987 51.7821V51.4106L64.347 51.9225C64.4133 51.9747 64.5068 51.9747 64.5733 51.9225L65.0312 51.5608C65.2057 51.4231 65.4512 51.4231 65.6256 51.5608L66.0999 51.9351C66.1568 51.9803 66.2369 51.9798 66.2938 51.9347L66.7699 51.5568C66.9453 51.4175 67.1936 51.4179 67.3684 51.5583L67.8522 51.9463C67.9 51.9844 67.9679 51.9848 68.016 51.9469L68.5049 51.5608C68.6793 51.4231 68.9249 51.4231 69.0993 51.5608L69.5939 51.9513C69.639 51.9869 69.7025 51.9869 69.7476 51.9513L70.243 51.5601C70.4174 51.4224 70.663 51.4224 70.8374 51.5601L71.3021 51.927V52.2983H71.3017Z" fill="#82B473"/>
<path d="M71.3017 53.0312L70.7002 52.556C70.6061 52.4817 70.4737 52.4817 70.3798 52.556L69.9157 52.9223C69.7718 53.0358 69.5691 53.0358 69.4252 52.9223L68.9623 52.5568C68.8682 52.4827 68.7359 52.4827 68.6417 52.5568L68.1789 52.9223C68.0349 53.0358 67.8323 53.0358 67.6883 52.9223L67.2255 52.557C67.1314 52.4829 66.999 52.4829 66.9051 52.557L66.442 52.9223C66.2981 53.0358 66.0954 53.0358 65.9515 52.9223L65.4886 52.5568C65.3945 52.4827 65.2622 52.4827 65.1683 52.5568L64.7054 52.9223C64.5615 53.0358 64.3588 53.0358 64.2149 52.9223L63.6987 52.515V52.1436L64.347 52.6554C64.4133 52.7076 64.5068 52.7076 64.5733 52.6554L65.0312 52.2937C65.2057 52.156 65.4512 52.156 65.6256 52.2937L66.0999 52.668C66.1568 52.7132 66.2369 52.7128 66.2938 52.6676L66.7699 52.2897C66.9453 52.1504 67.1936 52.1508 67.3684 52.2912L67.8522 52.6792C67.9 52.7173 67.9679 52.7177 68.016 52.6798L68.5049 52.2937C68.6793 52.156 68.9249 52.156 69.0993 52.2937L69.5939 52.684C69.639 52.7196 69.7025 52.7196 69.7476 52.684L70.243 52.2928C70.4174 52.1551 70.663 52.1551 70.8374 52.2928L71.3021 52.6597V53.031L71.3017 53.0312Z" fill="#82B473"/>
<path d="M71.3017 53.769L70.7002 53.2938C70.6061 53.2195 70.4737 53.2195 70.3798 53.2938L69.9157 53.6601C69.7718 53.7736 69.5691 53.7736 69.4252 53.6601L68.9623 53.2946C68.8682 53.2203 68.7359 53.2203 68.6417 53.2946L68.1789 53.6601C68.0349 53.7736 67.8323 53.7736 67.6883 53.6601L67.2255 53.2948C67.1314 53.2207 66.999 53.2207 66.9051 53.2948L66.442 53.6601C66.2981 53.7736 66.0954 53.7736 65.9515 53.6601L65.4886 53.2946C65.3945 53.2203 65.2622 53.2203 65.1683 53.2946L64.7054 53.6601C64.5615 53.7736 64.3588 53.7736 64.2149 53.6601L63.6987 53.2528V52.8813L64.347 53.3932C64.4133 53.4454 64.5068 53.4454 64.5733 53.3932L65.0312 53.0315C65.2057 52.8938 65.4512 52.8938 65.6256 53.0315L66.0999 53.4058C66.1568 53.451 66.2369 53.4505 66.2938 53.4054L66.7699 53.0275C66.9453 52.8882 67.1936 52.8886 67.3684 53.029L67.8522 53.417C67.9 53.4551 67.9679 53.4555 68.016 53.4176L68.5049 53.0315C68.6793 52.8938 68.9249 52.8938 69.0993 53.0315L69.5939 53.4218C69.639 53.4574 69.7025 53.4574 69.7476 53.4218L70.243 53.0306C70.4174 52.8929 70.663 52.8929 70.8374 53.0306L71.3021 53.3975V53.7688L71.3017 53.769Z" fill="#82B473"/>
<path d="M71.3017 54.5058L70.7002 54.0306C70.6061 53.9563 70.4737 53.9563 70.3798 54.0306L69.9157 54.3969C69.7718 54.5104 69.5691 54.5104 69.4252 54.3969L68.9623 54.0314C68.8682 53.9571 68.7359 53.9571 68.6417 54.0314L68.1789 54.3969C68.0349 54.5104 67.8323 54.5104 67.6883 54.3969L67.2255 54.0317C67.1314 53.9575 66.999 53.9575 66.9051 54.0317L66.442 54.3969C66.2981 54.5104 66.0954 54.5104 65.9515 54.3969L65.4886 54.0314C65.3945 53.9571 65.2622 53.9571 65.1683 54.0314L64.7054 54.3969C64.5615 54.5104 64.3588 54.5104 64.2149 54.3969L63.6987 53.9896V53.6182L64.347 54.13C64.4133 54.1822 64.5068 54.1822 64.5733 54.13L65.0312 53.7683C65.2057 53.6306 65.4512 53.6306 65.6256 53.7683L66.0999 54.1426C66.1568 54.1878 66.2369 54.1874 66.2938 54.1422L66.7699 53.7643C66.9453 53.625 67.1936 53.6254 67.3684 53.7658L67.8522 54.1538C67.9 54.1919 67.9679 54.1923 68.016 54.1544L68.5049 53.7683C68.6793 53.6306 68.9249 53.6306 69.0993 53.7683L69.5939 54.1588C69.639 54.1944 69.7025 54.1944 69.7476 54.1588L70.243 53.7677C70.4174 53.63 70.663 53.63 70.8374 53.7677L71.3021 54.1346V54.5058H71.3017Z" fill="#82B473"/>
<path d="M71.3017 55.2436L70.7002 54.7684C70.6061 54.6943 70.4737 54.6943 70.3798 54.7684L69.9157 55.1347C69.7718 55.2482 69.5691 55.2482 69.4252 55.1347L68.9623 54.7692C68.8682 54.6951 68.7359 54.6951 68.6417 54.7692L68.1789 55.1347C68.0349 55.2482 67.8323 55.2482 67.6883 55.1347L67.2255 54.7694C67.1314 54.6953 66.999 54.6953 66.9051 54.7694L66.442 55.1347C66.2981 55.2482 66.0954 55.2482 65.9515 55.1347L65.4886 54.7692C65.3945 54.6951 65.2622 54.6951 65.1683 54.7692L64.7054 55.1347C64.5615 55.2482 64.3588 55.2482 64.2149 55.1347L63.6987 54.7274V54.356L64.347 54.8678C64.4133 54.92 64.5068 54.92 64.5733 54.8678L65.0312 54.5061C65.2057 54.3684 65.4512 54.3684 65.6256 54.5061L66.0999 54.8804C66.1568 54.9256 66.2369 54.9252 66.2938 54.88L66.7699 54.5021C66.9453 54.3628 67.1936 54.3632 67.3684 54.5036L67.8522 54.8916C67.9 54.9297 67.9679 54.9301 68.016 54.8922L68.5049 54.5061C68.6793 54.3684 68.9249 54.3684 69.0993 54.5061L69.5939 54.8966C69.639 54.9322 69.7025 54.9322 69.7476 54.8966L70.243 54.5055C70.4174 54.3678 70.663 54.3678 70.8374 54.5055L71.3021 54.8724V55.2436H71.3017Z" fill="#82B473"/>
<path d="M71.3017 55.9765L70.7002 55.5013C70.6061 55.4272 70.4737 55.4272 70.3798 55.5013L69.9157 55.8676C69.7718 55.9811 69.5691 55.9811 69.4252 55.8676L68.9623 55.5022C68.8682 55.4278 68.7359 55.4278 68.6417 55.5022L68.1789 55.8676C68.0349 55.9811 67.8323 55.9811 67.6883 55.8676L67.2255 55.5024C67.1314 55.428 66.999 55.428 66.9051 55.5024L66.442 55.8676C66.2981 55.9811 66.0954 55.9811 65.9515 55.8676L65.4886 55.5022C65.3945 55.4278 65.2622 55.4278 65.1683 55.5022L64.7054 55.8676C64.5615 55.9811 64.3588 55.9811 64.2149 55.8676L63.6987 55.4603V55.0889L64.347 55.6007C64.4133 55.6529 64.5068 55.6529 64.5733 55.6007L65.0312 55.239C65.2057 55.1013 65.4512 55.1013 65.6256 55.239L66.0999 55.6133C66.1568 55.6585 66.2369 55.6581 66.2938 55.6129L66.7699 55.2351C66.9453 55.0957 67.1936 55.0961 67.3684 55.2365L67.8522 55.6245C67.9 55.6626 67.9679 55.663 68.016 55.6251L68.5049 55.239C68.6793 55.1013 68.9249 55.1013 69.0993 55.239L69.5939 55.6293C69.639 55.6649 69.7025 55.6649 69.7476 55.6293L70.243 55.2382C70.4174 55.1005 70.663 55.1005 70.8374 55.2382L71.3021 55.6051V55.9763L71.3017 55.9765Z" fill="#82B473"/>
<path d="M71.3017 56.7143L70.7002 56.2391C70.6061 56.165 70.4737 56.165 70.3798 56.2391L69.9157 56.6054C69.7718 56.7189 69.5691 56.7189 69.4252 56.6054L68.9623 56.2399C68.8682 56.1656 68.7359 56.1656 68.6417 56.2399L68.1789 56.6054C68.0349 56.7189 67.8323 56.7189 67.6883 56.6054L67.2255 56.2402C67.1314 56.166 66.999 56.166 66.9051 56.2402L66.442 56.6054C66.2981 56.7189 66.0954 56.7189 65.9515 56.6054L65.4886 56.2399C65.3945 56.1656 65.2622 56.1656 65.1683 56.2399L64.7054 56.6054C64.5615 56.7189 64.3588 56.7189 64.2149 56.6054L63.6987 56.1981V55.8267L64.347 56.3385C64.4133 56.3907 64.5068 56.3907 64.5733 56.3385L65.0312 55.9768C65.2057 55.8391 65.4512 55.8391 65.6256 55.9768L66.0999 56.3511C66.1568 56.3963 66.2369 56.3959 66.2938 56.3507L66.7699 55.9728C66.9453 55.8335 67.1936 55.8339 67.3684 55.9743L67.8522 56.3623C67.9 56.4004 67.9679 56.4008 68.016 56.3629L68.5049 55.9768C68.6793 55.8391 68.9249 55.8391 69.0993 55.9768L69.5939 56.3673C69.639 56.4029 69.7025 56.4029 69.7476 56.3673L70.243 55.9762C70.4174 55.8385 70.663 55.8385 70.8374 55.9762L71.3021 56.3431V56.7143H71.3017Z" fill="#82B473"/>
<path d="M71.3017 57.4516L70.7002 56.9764C70.6061 56.9023 70.4737 56.9023 70.3798 56.9764L69.9157 57.3427C69.7718 57.4562 69.5691 57.4562 69.4252 57.3427L68.9623 56.9772C68.8682 56.9029 68.7359 56.9029 68.6417 56.9772L68.1789 57.3427C68.0349 57.4562 67.8323 57.4562 67.6883 57.3427L67.2255 56.9775C67.1314 56.9033 66.999 56.9033 66.9051 56.9775L66.442 57.3427C66.2981 57.4562 66.0954 57.4562 65.9515 57.3427L65.4886 56.9772C65.3945 56.9029 65.2622 56.9029 65.1683 56.9772L64.7054 57.3427C64.5615 57.4562 64.3588 57.4562 64.2149 57.3427L63.6987 56.9354V56.564L64.347 57.0758C64.4133 57.128 64.5068 57.128 64.5733 57.0758L65.0312 56.7141C65.2057 56.5764 65.4512 56.5764 65.6256 56.7141L66.0999 57.0884C66.1568 57.1336 66.2369 57.1332 66.2938 57.088L66.7699 56.7101C66.9453 56.5708 67.1936 56.5712 67.3684 56.7116L67.8522 57.0996C67.9 57.1377 67.9679 57.1381 68.016 57.1002L68.5049 56.7141C68.6793 56.5764 68.9249 56.5764 69.0993 56.7141L69.5939 57.1046C69.639 57.1402 69.7025 57.1402 69.7476 57.1046L70.243 56.7135C70.4174 56.5758 70.663 56.5758 70.8374 56.7135L71.3021 57.0804V57.4516H71.3017Z" fill="#82B473"/>
<path d="M72.8648 60.1206H62.135V63.0465H72.8648V60.1206Z" fill="#82B473"/>
<path d="M69.803 19H65.197V20.2854H69.803V19Z" fill="#5A7851"/>
<path d="M70.1699 20.3736C70.1699 20.2481 70.0698 20.146 69.9462 20.146H65.0534C64.9298 20.146 64.8298 20.2481 64.8298 20.3736V23.1785H70.1699V20.3736Z" fill="#82B473"/>
<path d="M67.728 5.13428H67.2719L66.6252 12.761H68.3749L67.7283 5.13428H67.728Z" fill="#82B473"/>
<path d="M68.4164 11.2561C68.3997 11.1675 68.3237 11.1035 68.2353 11.1035H66.7647C66.6763 11.1035 66.6003 11.1675 66.5836 11.2561C66.5633 11.3638 66.5358 11.5098 66.5131 11.6307C66.5027 11.6858 66.5169 11.7425 66.5521 11.7858C66.5871 11.829 66.6393 11.8539 66.6942 11.8539H68.3056C68.3607 11.8539 68.4127 11.8288 68.4477 11.7858C68.4827 11.7425 68.4971 11.6858 68.4867 11.6307C68.464 11.51 68.4365 11.3638 68.4162 11.2561H68.4164Z" fill="#5A7851"/>
<path d="M68.3134 8.87055C68.2987 8.7225 68.1765 8.60986 68.0306 8.60986H66.9695C66.8235 8.60986 66.7011 8.7225 66.6867 8.87055C66.6682 9.05814 66.6432 9.31199 66.6235 9.5116C66.6155 9.59297 66.6416 9.67413 66.6954 9.7348C66.7493 9.79547 66.8259 9.83005 66.9062 9.83005H68.0936C68.1739 9.83005 68.2505 9.79547 68.3044 9.7348C68.3583 9.67413 68.3845 9.59297 68.3764 9.5116C68.3567 9.31199 68.3316 9.05793 68.3131 8.87055H68.3134Z" fill="#5A7851"/>
<path d="M68.0354 6.55073C68.0213 6.45052 67.937 6.37598 67.8374 6.37598H67.1466C67.045 6.37598 66.9596 6.45362 66.948 6.55632C66.9303 6.71306 66.9047 6.94103 66.8856 7.1102C66.8791 7.16776 66.897 7.22553 66.935 7.26901C66.973 7.31229 67.0273 7.33713 67.0842 7.33713H67.9152C67.9731 7.33713 68.0282 7.31146 68.0663 7.26694C68.1043 7.22222 68.1213 7.16321 68.113 7.10461C68.089 6.93399 68.0569 6.70602 68.0349 6.55073H68.0354Z" fill="#5A7851"/>
<path d="M68.7632 4.90891C68.4473 5.24393 68.01 5.42925 67.5512 5.375C66.7269 5.27789 66.1435 4.4449 66.2492 3.51604C66.3547 2.58719 67.1097 1.91218 67.9338 2.00929C68.0232 2.01985 68.11 2.03911 68.1932 2.06623C67.5764 2.14574 67.0633 2.67146 66.9849 3.36137C66.8936 4.16537 67.4266 4.88966 68.1747 4.97786C68.3794 5.00209 68.579 4.976 68.763 4.90912L68.7632 4.90891Z" fill="#5A7851"/>
<path d="M67.5 12.7357C67.5 12.7357 68.0599 12.7337 68.3902 12.7324C68.5268 12.732 68.6435 12.8324 68.6657 12.9697C68.7449 13.4339 68.9462 14.5402 69.2885 15.9662C69.5253 16.9524 70.0514 17.9618 70.0514 17.9618L67.4998 17.9797L64.9482 17.9618C64.9482 17.9618 65.4743 16.9524 65.7112 15.9662C66.0537 14.5402 66.2549 13.4339 66.3342 12.9697C66.3564 12.8324 66.4731 12.7318 66.6097 12.7324C66.94 12.7335 67.4998 12.7355 67.4998 12.7355L67.5 12.7357Z" fill="#82B473"/>
<path d="M70.2442 17.8201C70.2442 17.6824 70.1347 17.5708 69.9995 17.5708H65.0004C64.8652 17.5708 64.7556 17.6824 64.7556 17.8201V18.809C64.7556 18.9467 64.8652 19.0585 65.0004 19.0585H69.9995C70.1347 19.0585 70.2442 18.9469 70.2442 18.809V17.8201Z" fill="#82B473"/>
<path d="M64.0838 60.5718H62.6899V62.5962H64.0838V60.5718Z" fill="#5A7851"/>
<path d="M66.1402 60.5718H64.7463V62.5962H66.1402V60.5718Z" fill="#5A7851"/>
<path d="M68.1966 60.5718H66.8027V62.5962H68.1966V60.5718Z" fill="#5A7851"/>
<path d="M70.2535 60.5718H68.8596V62.5962H70.2535V60.5718Z" fill="#5A7851"/>
<path d="M72.3102 60.5718H70.9163V62.5962H72.3102V60.5718Z" fill="#5A7851"/>
<path d="M70.7284 28.1289H64.2717V40.1243H70.7284V28.1289Z" fill="#82B473"/>
<path d="M66.8441 40.1463L66.8359 32.2935L67.499 31.5508L68.1622 32.2935V40.1463H66.8441Z" fill="#5A7851"/>
<path d="M67.4989 30.6288C67.7688 30.6288 67.9876 30.406 67.9876 30.1311C67.9876 29.8562 67.7688 29.6333 67.4989 29.6333C67.229 29.6333 67.0103 29.8562 67.0103 30.1311C67.0103 30.406 67.229 30.6288 67.4989 30.6288Z" fill="#5A7851"/>
<path d="M64.9339 40.1463L64.9268 32.2935L65.5106 31.5508L66.0944 32.2935V40.1463H64.9341H64.9339Z" fill="#5A7851"/>
<path d="M65.5104 30.6288C65.7481 30.6288 65.9408 30.406 65.9408 30.1311C65.9408 29.8562 65.7481 29.6333 65.5104 29.6333C65.2728 29.6333 65.0801 29.8562 65.0801 30.1311C65.0801 30.406 65.2728 30.6288 65.5104 30.6288Z" fill="#5A7851"/>
<path d="M70.0658 40.1463L70.0729 32.2935L69.4891 31.5508L68.9053 32.2935V40.1463H70.0656H70.0658Z" fill="#5A7851"/>
<path d="M69.4892 30.6288C69.7269 30.6288 69.9195 30.406 69.9195 30.1311C69.9195 29.8562 69.7269 29.6333 69.4892 29.6333C69.2515 29.6333 69.0588 29.8562 69.0588 30.1311C69.0588 30.406 69.2515 30.6288 69.4892 30.6288Z" fill="#5A7851"/>
<path d="M70.9967 27.1094H64.0032V28.0345C64.0032 28.0598 64.0129 28.0838 64.0304 28.1014C64.0479 28.1192 64.0715 28.1291 64.0961 28.1291H70.9036C70.9282 28.1291 70.9518 28.1192 70.9692 28.1014C70.9867 28.0838 70.9965 28.0598 70.9965 28.0345V27.1094H70.9967Z" fill="#82B473"/>
<path d="M71.2438 26.0083H63.7559V27.01C63.7559 27.1138 63.8345 27.198 63.9313 27.198H71.0683C71.1653 27.198 71.2438 27.114 71.2438 27.01V26.0083Z" fill="#82B473"/>
<path d="M71.4949 25.3047C71.4949 25.2833 71.4874 25.2628 71.4739 25.2477C71.4605 25.2326 71.4424 25.2241 71.4235 25.2241H63.5762C63.5573 25.2241 63.5392 25.2326 63.5258 25.2477C63.5124 25.2628 63.5049 25.2833 63.5049 25.3047V25.8463C63.5049 25.9465 63.5766 26.0277 63.6653 26.0277H71.3343C71.4229 26.0277 71.4947 25.9465 71.4947 25.8463V25.3047H71.4949Z" fill="#82B473"/>
<path d="M71.3967 23.1562H63.603V25.2815H71.3967V23.1562Z" fill="#82B473"/>
<path d="M65.0187 23.4839H64.0061V24.9542H65.0187V23.4839Z" fill="#5A7851"/>
<path d="M66.5123 23.4839H65.4998V24.9542H66.5123V23.4839Z" fill="#5A7851"/>
<path d="M68.0062 23.4839H66.9937V24.9542H68.0062V23.4839Z" fill="#5A7851"/>
<path d="M69.5001 23.4839H68.4875V24.9542H69.5001V23.4839Z" fill="#5A7851"/>
<path d="M70.9937 23.4839H69.9812V24.9542H70.9937V23.4839Z" fill="#5A7851"/>
<path d="M66.566 79.0001L66.5544 73.0032L67.4987 71.9453L68.4429 73.0032V79.0001H66.566Z" fill="#5A7851"/>
<path d="M67.9909 70.4247C68.2627 70.1478 68.2627 69.6989 67.9909 69.422C67.7191 69.1452 67.2784 69.1452 67.0066 69.422C66.7348 69.6989 66.7348 70.1478 67.0066 70.4247C67.2784 70.7015 67.7191 70.7015 67.9909 70.4247Z" fill="#5A7851"/>
<path d="M63.8456 79.0001L63.8354 73.0032L64.6667 71.9453L65.4979 73.0032V79.0001H63.8454H63.8456Z" fill="#5A7851"/>
<path d="M64.6666 70.6323C65.0051 70.6323 65.2795 70.3149 65.2795 69.9233C65.2795 69.5318 65.0051 69.2144 64.6666 69.2144C64.3281 69.2144 64.0537 69.5318 64.0537 69.9233C64.0537 70.3149 64.3281 70.6323 64.6666 70.6323Z" fill="#5A7851"/>
<path d="M71.1545 79.0001L71.1646 73.0032L70.3334 71.9453L69.5022 73.0032V79.0001H71.1547H71.1545Z" fill="#5A7851"/>
<path d="M70.3334 70.6323C70.6718 70.6323 70.9462 70.3149 70.9462 69.9233C70.9462 69.5318 70.6718 69.2144 70.3334 69.2144C69.9949 69.2144 69.7205 69.5318 69.7205 69.9233C69.7205 70.3149 69.9949 70.6323 70.3334 70.6323Z" fill="#5A7851"/>
<path d="M71.5182 44.6045H63.4817V45.6677C63.4817 45.6967 63.4929 45.7245 63.513 45.7445C63.5329 45.765 63.5602 45.7764 63.5886 45.7764H71.4115C71.4398 45.7764 71.467 45.7648 71.4871 45.7445C71.5071 45.7243 71.5184 45.6967 71.5184 45.6677V44.6045H71.5182Z" fill="#82B473"/>
<path d="M71.8027 43.3213H63.1978V44.4876C63.1978 44.6086 63.288 44.7065 63.3994 44.7065H71.601C71.7124 44.7065 71.8027 44.6086 71.8027 44.4876V43.3213Z" fill="#82B473"/>
<path d="M72.0908 42.5368C72.0908 42.5123 72.0821 42.4891 72.0668 42.4717C72.0516 42.4546 72.0307 42.4448 72.0089 42.4448H62.9911C62.9694 42.4448 62.9486 42.4546 62.9332 42.4717C62.9179 42.4889 62.9092 42.5123 62.9092 42.5368V43.154C62.9092 43.2683 62.9917 43.3608 63.0936 43.3608H71.9064C72.0083 43.3608 72.0908 43.2683 72.0908 43.154V42.5368Z" fill="#82B473"/>
<path d="M71.9782 40.0615H63.022V42.5038H71.9782V40.0615Z" fill="#82B473"/>
</g>
<g clip-path="url(#clip2_7170_85113)">
<path d="M71.6668 70.8318L1 61.6343V103L71.6668 94.5066V70.8318Z" fill="url(#paint0_linear_7170_85113)"/>
<path d="M25.593 87.2709C25.593 86.8457 25.8434 86.4571 26.3469 86.3006C26.1799 85.458 26.2217 84.6989 27.6016 84.2346C27.6433 82.4869 29.1719 82.0278 29.1719 82.0278C29.1719 82.0278 30.7005 82.4869 30.7422 84.1877C32.1247 84.5998 32.1664 85.3093 31.9969 86.1206C32.5003 86.2406 32.7507 86.5875 32.7507 86.9892C32.7507 89.0603 32.7507 91.1289 32.7507 93.2L25.593 93.6878V87.2683V87.2709Z" fill="#F0C990"/>
<path d="M25.593 87.2709C25.593 86.8457 25.8434 86.4571 26.3469 86.3006C26.1799 85.458 26.2217 84.6989 27.6016 84.2346C27.6433 82.4869 29.1719 82.0278 29.1719 82.0278C29.1719 82.0278 30.7005 82.4869 30.7422 84.1877C32.1247 84.5998 32.1664 85.3093 31.9969 86.1206C32.5003 86.2406 32.7507 86.5875 32.7507 86.9892C32.7507 89.0603 32.7507 91.1289 32.7507 93.2L25.593 93.6878V87.2683V87.2709Z" fill="#B6D5AC"/>
<path d="M36.5251 87.0911C36.5251 86.7024 36.7547 86.3477 37.2138 86.2042C37.0599 85.4373 37.099 84.7409 38.3589 84.3209C38.398 82.7271 39.791 82.3071 39.791 82.3071C39.791 82.3071 41.1865 82.7271 41.223 84.2792C42.483 84.6548 42.5221 85.3017 42.3682 86.0451C42.8273 86.1547 43.0568 86.4703 43.0568 86.8381C43.0568 88.2832 43.0568 90.9256 43.0568 92.5011L36.5251 92.9446C36.5251 91.2569 36.5251 88.5753 36.5251 87.0911Z" fill="#B6D5AC"/>
<path d="M46.4507 86.9108C46.4507 86.5587 46.6568 86.2404 47.0715 86.11C46.9333 85.4162 46.9672 84.7875 48.1071 84.4067C48.141 82.9642 49.4035 82.5859 49.4035 82.5859C49.4035 82.5859 50.6634 82.9668 50.6999 84.3702C51.8398 84.7093 51.8737 85.2962 51.7355 85.9666C52.1502 86.0657 52.3563 86.3526 52.3563 86.6839C52.3563 87.5264 52.3563 90.6984 52.3563 91.8696L46.4507 92.2713C46.4507 90.9279 46.4507 87.7742 46.4507 86.9134V86.9108Z" fill="#B6D5AC"/>
<path d="M54.842 86.7335C54.842 86.4178 55.0272 86.1335 55.3976 86.0187C55.275 85.3979 55.3037 84.8371 56.3237 84.4954C56.355 83.2068 57.4818 82.8677 57.4818 82.8677C57.4818 82.8677 58.6087 83.2068 58.64 84.4615C59.6599 84.7641 59.6912 85.2884 59.566 85.8883C59.9364 85.977 60.1216 86.2326 60.1216 86.53C60.1216 86.7987 60.1216 90.6593 60.1216 91.3427L54.842 91.7027C54.842 90.6958 54.842 87.0074 54.842 86.7361V86.7335Z" fill="#B6D5AC"/>
<path d="M31.8457 86.9916C31.8457 86.5899 31.5953 86.243 31.0918 86.123C31.2588 85.3092 31.217 84.5996 29.8371 84.1901C29.8111 83.1024 29.1746 82.5233 28.7207 82.2468C28.9737 82.0903 29.172 82.0303 29.172 82.0303C29.172 82.0303 30.7006 82.4894 30.7423 84.1901C32.1248 84.6023 32.1665 85.3118 31.997 86.123C32.5004 86.243 32.7508 86.5899 32.7508 86.9916C32.7508 89.0628 32.7508 91.1313 32.7508 93.2025L31.8457 93.2651V86.9942V86.9916Z" fill="#A1BB98"/>
<path d="M42.2978 86.8376C42.2978 86.4724 42.0683 86.1542 41.6092 86.0446C41.7631 85.3038 41.724 84.6543 40.4641 84.2787C40.438 83.2587 39.8276 82.7292 39.4128 82.484C39.6267 82.3562 39.7911 82.3066 39.7911 82.3066C39.7911 82.3066 41.1866 82.7266 41.2231 84.2787C42.483 84.6543 42.5222 85.3012 42.3683 86.0446C42.8274 86.1542 43.0569 86.4698 43.0569 86.8376C43.0569 88.2827 43.0569 90.9251 43.0569 92.5006L42.2978 92.5528V86.8376Z" fill="#A1BB98"/>
<path d="M51.759 86.6814C51.759 86.3502 51.553 86.0632 51.1382 85.9641C51.2765 85.2937 51.2426 84.7068 50.1026 84.3677C50.0792 83.4078 49.4818 82.9278 49.1062 82.7191C49.2784 82.6226 49.4036 82.5835 49.4036 82.5835C49.4036 82.5835 50.6635 82.9643 50.7 84.3677C51.8399 84.7068 51.8738 85.2937 51.7356 85.9641C52.1503 86.0632 52.3564 86.3502 52.3564 86.6814C52.3564 87.524 52.3564 90.6959 52.3564 91.8671L51.759 91.9089V86.6814Z" fill="#A1BB98"/>
<path d="M59.6288 86.5276C59.6288 86.2328 59.4436 85.9746 59.0732 85.8859C59.1958 85.2859 59.1671 84.7616 58.1472 84.459C58.1263 83.5852 57.5707 83.1548 57.2368 82.9748C57.3803 82.8965 57.4846 82.8652 57.4846 82.8652C57.4846 82.8652 58.6115 83.2043 58.6428 84.459C59.6627 84.7616 59.694 85.2859 59.5688 85.8859C59.9392 85.9746 60.1244 86.2302 60.1244 86.5276C60.1244 86.7962 60.1244 90.6568 60.1244 91.3402L59.6288 91.3742C59.6288 90.3151 59.6288 86.778 59.6288 86.5276Z" fill="#A1BB98"/>
<path d="M25.593 73.1377C25.593 72.7125 25.8434 72.3421 26.3469 72.2195C26.1799 71.3665 26.2217 70.6074 27.6016 70.2422C27.6433 68.4972 29.1719 68.145 29.1719 68.145C29.1719 68.145 30.7005 68.7137 30.7422 70.417C32.1247 70.9257 32.1664 71.6378 31.9969 72.4386C32.5003 72.5925 32.7507 72.9577 32.7507 73.3594C32.7507 75.4305 32.7507 77.4991 32.7507 79.5702L25.593 79.5546V73.1351V73.1377Z" fill="#DCA95F"/>
<path d="M25.593 73.1377C25.593 72.7125 25.8434 72.3421 26.3469 72.2195C26.1799 71.3665 26.2217 70.6074 27.6016 70.2422C27.6433 68.4972 29.1719 68.145 29.1719 68.145C29.1719 68.145 30.7005 68.7137 30.7422 70.417C32.1247 70.9257 32.1664 71.6378 31.9969 72.4386C32.5003 72.5925 32.7507 72.9577 32.7507 73.3594C32.7507 75.4305 32.7507 77.4991 32.7507 79.5702L25.593 79.5546V73.1351V73.1377Z" fill="#C6E7BB"/>
<path d="M36.5251 73.7244C36.5251 73.3357 36.7547 72.9992 37.2138 72.887C37.0599 72.1071 37.099 71.4158 38.3589 71.082C38.398 69.4908 39.791 69.1699 39.791 69.1699C39.791 69.1699 41.1865 69.689 41.223 71.2437C42.483 71.708 42.5221 72.3575 42.3682 73.0879C42.8273 73.2287 43.0568 73.5626 43.0568 73.9278C43.0568 75.3729 43.0568 78.0153 43.0568 79.5909L36.5251 79.5778C36.5251 77.8901 36.5251 75.2086 36.5251 73.7244Z" fill="#C6E7BB"/>
<path d="M46.4507 74.2436C46.4507 73.8915 46.6568 73.5863 47.0715 73.4872C46.9333 72.7829 46.9672 72.1569 48.1071 71.8569C48.141 70.417 49.4035 70.1274 49.4035 70.1274C49.4035 70.1274 50.6634 70.597 50.6999 72.0003C51.8398 72.4203 51.8737 73.0072 51.7355 73.6698C52.1502 73.7976 52.3563 74.0976 52.3563 74.4289C52.3563 75.2714 52.3563 78.4433 52.3563 79.6145L46.4507 79.6015C46.4507 78.2581 46.4507 75.1045 46.4507 74.2436Z" fill="#C6E7BB"/>
<path d="M54.842 74.6532C54.842 74.3402 55.0272 74.0663 55.3976 73.9776C55.275 73.349 55.3037 72.7882 56.3237 72.5195C56.355 71.2335 57.4818 70.9727 57.4818 70.9727C57.4818 70.9727 58.6087 71.39 58.64 72.6473C59.6599 73.0229 59.6912 73.5472 59.566 74.1394C59.9364 74.2541 60.1216 74.5228 60.1216 74.8176C60.1216 75.0863 60.1216 78.9468 60.1216 79.6303L54.842 79.6198C54.842 78.6129 54.842 74.9245 54.842 74.6532Z" fill="#C6E7BB"/>
<path d="M31.8452 73.2966C31.8452 72.8949 31.5948 72.5297 31.0913 72.3758C31.2583 71.575 31.2165 70.8603 29.8367 70.3542C29.8106 69.2639 29.1741 68.6405 28.7202 68.3327C28.9732 68.1944 29.1715 68.1475 29.1715 68.1475C29.1715 68.1475 30.7001 68.7161 30.7418 70.4195C32.1243 70.9281 32.166 71.6402 31.9965 72.441C32.4999 72.5949 32.7503 72.9601 32.7503 73.3618C32.7503 75.433 32.7503 77.5015 32.7503 79.5727H31.8452V73.2992V73.2966Z" fill="#A5C59B"/>
<path d="M13.9954 72.6265C13.9954 72.2013 14.2458 71.8309 14.7492 71.7083C14.5823 70.8553 14.624 70.0962 16.0039 69.731C16.0456 67.9859 17.5742 67.6338 17.5742 67.6338C17.5742 67.6338 19.1028 68.2024 19.1445 69.9058C20.527 70.4144 20.5688 71.1266 20.3992 71.9274C20.9027 72.0813 21.1531 72.4465 21.1531 72.8482V79.5781L13.9954 79.5624V72.6238V72.6265Z" fill="#DCA95F"/>
<path d="M13.9954 72.6265C13.9954 72.2013 14.2458 71.8309 14.7492 71.7083C14.5823 70.8553 14.624 70.0962 16.0039 69.731C16.0456 67.9859 17.5742 67.6338 17.5742 67.6338C17.5742 67.6338 19.1028 68.2024 19.1445 69.9058C20.527 70.4144 20.5688 71.1266 20.3992 71.9274C20.9027 72.0813 21.1531 72.4465 21.1531 72.8482V79.5781L13.9954 79.5624V72.6238V72.6265Z" fill="#C6E7BB"/>
<path d="M20.2505 72.7854C20.2505 72.3837 20.0001 72.0185 19.4966 71.8646C19.6636 71.0638 19.6218 70.3491 18.2419 69.843C18.2158 68.7527 17.5794 68.1292 17.1255 67.8214C17.3785 67.6832 17.5768 67.6362 17.5768 67.6362C17.5768 67.6362 19.1053 68.2049 19.1471 69.9082C20.5296 70.4169 20.5713 71.129 20.4018 71.9298C20.9052 72.0837 21.1556 72.4489 21.1556 72.8506V79.5805H20.2505V72.788V72.7854Z" fill="#A5C59B"/>
<path d="M13.9954 86.8765C13.9954 86.4513 14.2458 86.0809 14.7492 85.9583C14.5823 85.1053 14.624 84.3462 16.0039 83.981C16.0456 82.2359 17.5742 81.8838 17.5742 81.8838C17.5742 81.8838 19.1028 82.4524 19.1445 84.1558C20.527 84.6644 20.5688 85.3766 20.3992 86.1774C20.9027 86.3313 21.1531 86.6965 21.1531 87.0982V93.8281L13.9954 93.8124V86.8738V86.8765Z" fill="#DCA95F"/>
<path d="M13.9954 86.8765C13.9954 86.4513 14.2458 86.0809 14.7492 85.9583C14.5823 85.1053 14.624 84.3462 16.0039 83.981C16.0456 82.2359 17.5742 81.8838 17.5742 81.8838C17.5742 81.8838 19.1028 82.4524 19.1445 84.1558C20.527 84.6644 20.5688 85.3766 20.3992 86.1774C20.9027 86.3313 21.1531 86.6965 21.1531 87.0982V93.8281L13.9954 94.2011V86.8765Z" fill="#B6D5AC"/>
<path d="M20.2505 87.0383C20.2505 86.6366 20.0001 86.2714 19.4966 86.1175C19.6636 85.3167 19.6218 84.602 18.2419 84.096C18.2158 83.0056 17.5794 82.3822 17.1255 82.0744C17.3785 81.9361 17.5768 81.8892 17.5768 81.8892C17.5768 81.8892 19.1053 82.4578 19.1471 84.1612C20.5296 84.6698 20.5713 85.3819 20.4018 86.1827C20.9052 86.3366 21.1556 86.7018 21.1556 87.1035V93.8335H20.2505V87.0409V87.0383Z" fill="#A1BB98"/>
<path d="M42.2976 73.876C42.2976 73.5108 42.068 73.1769 41.609 73.036C41.7629 72.3057 41.7237 71.6535 40.4638 71.1918C40.4377 70.1693 39.8273 69.598 39.4126 69.3241C39.6265 69.212 39.7908 69.1729 39.7908 69.1729C39.7908 69.1729 41.1864 69.6919 41.2229 71.2466C42.4828 71.7109 42.5219 72.3604 42.368 73.0908C42.8271 73.2317 43.0567 73.5656 43.0567 73.9308C43.0567 75.3759 43.0567 78.0183 43.0567 79.5938H42.2976V73.876Z" fill="#A5C59B"/>
<path d="M51.7586 74.3844C51.7586 74.0531 51.5525 73.7505 51.1377 73.6253C51.276 72.9653 51.2421 72.3758 50.1022 71.9558C50.0787 70.9959 49.4813 70.4716 49.1057 70.2368C49.2779 70.1534 49.4031 70.1221 49.4031 70.1221C49.4031 70.1221 50.663 70.5916 50.6995 71.995C51.8394 72.4149 51.8733 73.0019 51.7351 73.6644C52.1498 73.7922 52.3559 74.0922 52.3559 74.4235C52.3559 75.266 52.3559 78.438 52.3559 79.6092H51.7586V74.3817V74.3844Z" fill="#A5C59B"/>
<path d="M59.6283 74.7837C59.6283 74.4889 59.4431 74.2176 59.0727 74.1055C59.1953 73.5133 59.1666 72.989 58.1467 72.6134C58.1258 71.7369 57.5702 71.27 57.2363 71.0666C57.3798 70.9987 57.4841 70.9727 57.4841 70.9727C57.4841 70.9727 58.611 71.39 58.6423 72.6473C59.6622 73.0229 59.6935 73.5472 59.5683 74.1394C59.9387 74.2541 60.1239 74.5228 60.1239 74.8176C60.1239 75.0863 60.1239 78.9468 60.1239 79.6303H59.6283C59.6283 78.5712 59.6283 75.0315 59.6283 74.7837Z" fill="#A5C59B"/>
<path d="M61.9526 86.0366C61.9526 85.7575 62.117 85.5019 62.4483 85.3976C62.3387 84.8446 62.3648 84.3437 63.2751 84.0411C63.3038 82.8934 64.3081 82.5908 64.3081 82.5908C64.3081 82.5908 65.3124 82.8934 65.3411 84.0125C66.2488 84.2837 66.2775 84.7507 66.168 85.2854C66.4992 85.3637 66.6636 85.5932 66.6636 85.8567C66.6636 86.0966 66.6636 90.2676 66.6636 90.8754L61.9579 91.1963V86.0393L61.9526 86.0366Z" fill="#B6D5AC"/>
<path d="M66.215 85.8542C66.215 85.5908 66.0507 85.3612 65.7194 85.283C65.829 84.7482 65.8029 84.2813 64.8925 84.01C64.8743 83.2301 64.3787 82.8466 64.0813 82.6875C64.2091 82.6171 64.303 82.5884 64.303 82.5884C64.303 82.5884 65.3073 82.891 65.336 84.01C66.2437 84.2813 66.2724 84.7482 66.1629 85.283C66.4942 85.3612 66.6585 85.5908 66.6585 85.8542C66.6585 86.0942 66.6585 90.2652 66.6585 90.873L66.215 90.9043V85.8542Z" fill="#A1BB98"/>
<path d="M61.9526 75.2686C61.9526 74.9895 62.117 74.7443 62.4483 74.6661C62.3387 74.1052 62.3648 73.607 63.2751 73.367C63.3038 72.2193 64.3081 71.9897 64.3081 71.9897C64.3081 71.9897 65.3124 72.3628 65.3411 73.4818C66.2488 73.8157 66.2775 74.2852 66.168 74.8121C66.4992 74.9139 66.6636 75.1539 66.6636 75.4173C66.6636 75.6573 66.6636 79.0979 66.6636 79.7083L61.9579 79.6979V75.2712L61.9526 75.2686Z" fill="#C6E7BB"/>
<path d="M66.215 75.3862C66.215 75.1227 66.0507 74.8827 65.7194 74.781C65.829 74.2541 65.8029 73.7846 64.8925 73.4507C64.8743 72.6707 64.3787 72.2534 64.0813 72.0708C64.2091 72.0108 64.303 71.9873 64.303 71.9873C64.303 71.9873 65.3073 72.3603 65.336 73.4794C66.2437 73.8133 66.2724 74.2828 66.1629 74.8097C66.4942 74.9114 66.6585 75.1514 66.6585 75.4149C66.6585 75.6549 66.6585 79.0955 66.6585 79.7058H66.215V75.3862Z" fill="#A5C59B"/>
<path d="M70.7922 70.8318L141.459 61.6343V103L70.7922 94.5066V70.8318Z" fill="url(#paint1_linear_7170_85113)"/>
<path d="M116.866 87.2709C116.866 86.8457 116.615 86.4571 116.112 86.3006C116.279 85.458 116.237 84.6989 114.857 84.2346C114.815 82.4869 113.287 82.0278 113.287 82.0278C113.287 82.0278 111.758 82.4869 111.717 84.1877C110.334 84.5998 110.292 85.3093 110.462 86.1206C109.958 86.2406 109.708 86.5875 109.708 86.9892C109.708 89.0603 109.708 91.1289 109.708 93.2L116.866 93.6878V87.2683V87.2709Z" fill="#F0C990"/>
<path d="M116.866 87.2709C116.866 86.8457 116.615 86.4571 116.112 86.3006C116.279 85.458 116.237 84.6989 114.857 84.2346C114.815 82.4869 113.287 82.0278 113.287 82.0278C113.287 82.0278 111.758 82.4869 111.717 84.1877C110.334 84.5998 110.292 85.3093 110.462 86.1206C109.958 86.2406 109.708 86.5875 109.708 86.9892C109.708 89.0603 109.708 91.1289 109.708 93.2L116.866 93.6878V87.2683V87.2709Z" fill="#B6D5AC"/>
<path d="M105.934 87.0911C105.934 86.7024 105.704 86.3477 105.245 86.2042C105.399 85.4373 105.36 84.7409 104.1 84.3209C104.061 82.7271 102.668 82.3071 102.668 82.3071C102.668 82.3071 101.272 82.7271 101.236 84.2792C99.9758 84.6548 99.9367 85.3017 100.091 86.0451C99.6315 86.1547 99.4019 86.4703 99.4019 86.8381C99.4019 88.2832 99.4019 90.9256 99.4019 92.5011L105.934 92.9446C105.934 91.2569 105.934 88.5753 105.934 87.0911Z" fill="#B6D5AC"/>
<path d="M96.0083 86.9108C96.0083 86.5587 95.8022 86.2404 95.3875 86.11C95.5257 85.4162 95.4918 84.7875 94.3519 84.4067C94.318 82.9642 93.0555 82.5859 93.0555 82.5859C93.0555 82.5859 91.7956 82.9668 91.7591 84.3702C90.6191 84.7093 90.5852 85.2962 90.7235 85.9666C90.3087 86.0657 90.1027 86.3526 90.1027 86.6839C90.1027 87.5264 90.1027 90.6984 90.1027 91.8696L96.0083 92.2713C96.0083 90.9279 96.0083 87.7742 96.0083 86.9134V86.9108Z" fill="#B6D5AC"/>
<path d="M87.6167 86.7335C87.6167 86.4178 87.4315 86.1335 87.0611 86.0187C87.1837 85.3979 87.155 84.8371 86.1351 84.4954C86.1038 83.2068 84.9769 82.8677 84.9769 82.8677C84.9769 82.8677 83.85 83.2068 83.8187 84.4615C82.7988 84.7641 82.7675 85.2884 82.8927 85.8883C82.5223 85.977 82.3371 86.2326 82.3371 86.53C82.3371 86.7987 82.3371 90.6593 82.3371 91.3427L87.6167 91.7027C87.6167 90.6958 87.6167 87.0074 87.6167 86.7361V86.7335Z" fill="#B6D5AC"/>
<path d="M110.613 86.9916C110.613 86.5899 110.864 86.243 111.367 86.123C111.2 85.3092 111.242 84.5996 112.622 84.1901C112.648 83.1024 113.284 82.5233 113.738 82.2468C113.485 82.0903 113.287 82.0303 113.287 82.0303C113.287 82.0303 111.758 82.4894 111.717 84.1901C110.334 84.6023 110.292 85.3118 110.462 86.123C109.959 86.243 109.708 86.5899 109.708 86.9916C109.708 89.0628 109.708 91.1313 109.708 93.2025L110.613 93.2651V86.9942V86.9916Z" fill="#A1BB98"/>
<path d="M100.161 86.8376C100.161 86.4724 100.39 86.1542 100.85 86.0446C100.696 85.3038 100.735 84.6543 101.995 84.2787C102.021 83.2587 102.631 82.7292 103.046 82.484C102.832 82.3562 102.668 82.3066 102.668 82.3066C102.668 82.3066 101.272 82.7266 101.236 84.2787C99.9757 84.6543 99.9366 85.3012 100.09 86.0446C99.6314 86.1542 99.4018 86.4698 99.4018 86.8376C99.4018 88.2827 99.4018 90.9251 99.4018 92.5006L100.161 92.5528V86.8376Z" fill="#A1BB98"/>
<path d="M90.7002 86.6814C90.7002 86.3502 90.9063 86.0632 91.321 85.9641C91.1828 85.2937 91.2167 84.7068 92.3566 84.3677C92.3801 83.4078 92.9774 82.9278 93.353 82.7191C93.1809 82.6226 93.0557 82.5835 93.0557 82.5835C93.0557 82.5835 91.7958 82.9643 91.7592 84.3677C90.6193 84.7068 90.5854 85.2937 90.7237 85.9641C90.3089 86.0632 90.1028 86.3502 90.1028 86.6814C90.1028 87.524 90.1028 90.6959 90.1028 91.8671L90.7002 91.9089V86.6814Z" fill="#A1BB98"/>
<path d="M82.8302 86.5276C82.8302 86.2328 83.0154 85.9746 83.3858 85.8859C83.2632 85.2859 83.2919 84.7616 84.3118 84.459C84.3327 83.5852 84.8883 83.1548 85.2222 82.9748C85.0787 82.8965 84.9744 82.8652 84.9744 82.8652C84.9744 82.8652 83.8475 83.2043 83.8162 84.459C82.7963 84.7616 82.765 85.2859 82.8902 85.8859C82.5198 85.9746 82.3346 86.2302 82.3346 86.5276C82.3346 86.7962 82.3346 90.6568 82.3346 91.3402L82.8302 91.3742C82.8302 90.3151 82.8302 86.778 82.8302 86.5276Z" fill="#A1BB98"/>
<path d="M116.866 73.1377C116.866 72.7125 116.615 72.3421 116.112 72.2195C116.279 71.3665 116.237 70.6074 114.857 70.2422C114.815 68.4972 113.287 68.145 113.287 68.145C113.287 68.145 111.758 68.7137 111.717 70.417C110.334 70.9257 110.292 71.6378 110.462 72.4386C109.958 72.5925 109.708 72.9577 109.708 73.3594C109.708 75.4305 109.708 77.4991 109.708 79.5702L116.866 79.5546V73.1351V73.1377Z" fill="#DCA95F"/>
<path d="M116.866 73.1377C116.866 72.7125 116.615 72.3421 116.112 72.2195C116.279 71.3665 116.237 70.6074 114.857 70.2422C114.815 68.4972 113.287 68.145 113.287 68.145C113.287 68.145 111.758 68.7137 111.717 70.417C110.334 70.9257 110.292 71.6378 110.462 72.4386C109.958 72.5925 109.708 72.9577 109.708 73.3594C109.708 75.4305 109.708 77.4991 109.708 79.5702L116.866 79.5546V73.1351V73.1377Z" fill="#C6E7BB"/>
<path d="M105.934 73.7244C105.934 73.3357 105.704 72.9992 105.245 72.887C105.399 72.1071 105.36 71.4158 104.1 71.082C104.061 69.4908 102.668 69.1699 102.668 69.1699C102.668 69.1699 101.272 69.689 101.236 71.2437C99.9758 71.708 99.9367 72.3575 100.091 73.0879C99.6315 73.2287 99.4019 73.5626 99.4019 73.9278C99.4019 75.3729 99.4019 78.0153 99.4019 79.5909L105.934 79.5778C105.934 77.8901 105.934 75.2086 105.934 73.7244Z" fill="#C6E7BB"/>
<path d="M96.0083 74.2436C96.0083 73.8915 95.8022 73.5863 95.3875 73.4872C95.5257 72.7829 95.4918 72.1569 94.3519 71.8569C94.318 70.417 93.0555 70.1274 93.0555 70.1274C93.0555 70.1274 91.7956 70.597 91.7591 72.0003C90.6191 72.4203 90.5852 73.0072 90.7235 73.6698C90.3087 73.7976 90.1027 74.0976 90.1027 74.4289C90.1027 75.2714 90.1027 78.4433 90.1027 79.6145L96.0083 79.6015C96.0083 78.2581 96.0083 75.1045 96.0083 74.2436Z" fill="#C6E7BB"/>
<path d="M87.6167 74.6532C87.6167 74.3402 87.4315 74.0663 87.0611 73.9776C87.1837 73.349 87.155 72.7882 86.1351 72.5195C86.1038 71.2335 84.9769 70.9727 84.9769 70.9727C84.9769 70.9727 83.85 71.39 83.8187 72.6473C82.7988 73.0229 82.7675 73.5472 82.8927 74.1394C82.5223 74.2541 82.3371 74.5228 82.3371 74.8176C82.3371 75.0863 82.3371 78.9468 82.3371 79.6303L87.6167 79.6198C87.6167 78.6129 87.6167 74.9245 87.6167 74.6532Z" fill="#C6E7BB"/>
<path d="M110.613 73.2966C110.613 72.8949 110.864 72.5297 111.367 72.3758C111.2 71.575 111.242 70.8603 112.622 70.3542C112.648 69.2639 113.284 68.6405 113.738 68.3327C113.485 68.1944 113.287 68.1475 113.287 68.1475C113.287 68.1475 111.758 68.7161 111.717 70.4195C110.334 70.9281 110.292 71.6402 110.462 72.441C109.959 72.5949 109.708 72.9601 109.708 73.3618C109.708 75.433 109.708 77.5015 109.708 79.5727H110.613V73.2992V73.2966Z" fill="#A5C59B"/>
<path d="M128.463 72.6265C128.463 72.2013 128.213 71.8309 127.71 71.7083C127.876 70.8553 127.835 70.0962 126.455 69.731C126.413 67.9859 124.885 67.6338 124.885 67.6338C124.885 67.6338 123.356 68.2024 123.314 69.9058C121.932 70.4144 121.89 71.1266 122.06 71.9274C121.556 72.0813 121.306 72.4465 121.306 72.8482V79.5781L128.463 79.5624V72.6238V72.6265Z" fill="#DCA95F"/>
<path d="M128.463 72.6265C128.463 72.2013 128.213 71.8309 127.71 71.7083C127.876 70.8553 127.835 70.0962 126.455 69.731C126.413 67.9859 124.885 67.6338 124.885 67.6338C124.885 67.6338 123.356 68.2024 123.314 69.9058C121.932 70.4144 121.89 71.1266 122.06 71.9274C121.556 72.0813 121.306 72.4465 121.306 72.8482V79.5781L128.463 79.5624V72.6238V72.6265Z" fill="#C6E7BB"/>
<path d="M122.208 72.7854C122.208 72.3837 122.458 72.0185 122.962 71.8646C122.795 71.0638 122.837 70.3491 124.217 69.843C124.243 68.7527 124.879 68.1292 125.333 67.8214C125.08 67.6832 124.882 67.6362 124.882 67.6362C124.882 67.6362 123.353 68.2049 123.311 69.9082C121.929 70.4169 121.887 71.129 122.057 71.9298C121.553 72.0837 121.303 72.4489 121.303 72.8506V79.5805H122.208V72.788V72.7854Z" fill="#A5C59B"/>
<path d="M128.463 86.8765C128.463 86.4513 128.213 86.0809 127.71 85.9583C127.876 85.1053 127.835 84.3462 126.455 83.981C126.413 82.2359 124.885 81.8838 124.885 81.8838C124.885 81.8838 123.356 82.4524 123.314 84.1558C121.932 84.6644 121.89 85.3766 122.06 86.1774C121.556 86.3313 121.306 86.6965 121.306 87.0982V93.8281L128.463 93.8124V86.8738V86.8765Z" fill="#DCA95F"/>
<path d="M128.463 86.8765C128.463 86.4513 128.213 86.0809 127.71 85.9583C127.876 85.1053 127.835 84.3462 126.455 83.981C126.413 82.2359 124.885 81.8838 124.885 81.8838C124.885 81.8838 123.356 82.4524 123.314 84.1558C121.932 84.6644 121.89 85.3766 122.06 86.1774C121.556 86.3313 121.306 86.6965 121.306 87.0982V93.8281L128.463 94.2011V86.8765Z" fill="#B6D5AC"/>
<path d="M122.208 87.0383C122.208 86.6366 122.458 86.2714 122.962 86.1175C122.795 85.3167 122.837 84.602 124.217 84.096C124.243 83.0056 124.879 82.3822 125.333 82.0744C125.08 81.9361 124.882 81.8892 124.882 81.8892C124.882 81.8892 123.353 82.4578 123.311 84.1612C121.929 84.6698 121.887 85.3819 122.057 86.1827C121.553 86.3366 121.303 86.7018 121.303 87.1035V93.8335H122.208V87.0409V87.0383Z" fill="#A1BB98"/>
<path d="M100.161 73.876C100.161 73.5108 100.391 73.1769 100.85 73.036C100.696 72.3057 100.735 71.6535 101.995 71.1918C102.021 70.1693 102.632 69.598 103.046 69.3241C102.832 69.212 102.668 69.1729 102.668 69.1729C102.668 69.1729 101.273 69.6919 101.236 71.2466C99.9762 71.7109 99.9371 72.3604 100.091 73.0908C99.6319 73.2317 99.4023 73.5656 99.4023 73.9308C99.4023 75.3759 99.4023 78.0183 99.4023 79.5938H100.161V73.876Z" fill="#A5C59B"/>
<path d="M90.7002 74.3844C90.7002 74.0531 90.9063 73.7505 91.321 73.6253C91.1828 72.9653 91.2167 72.3758 92.3566 71.9558C92.3801 70.9959 92.9774 70.4716 93.353 70.2368C93.1809 70.1534 93.0557 70.1221 93.0557 70.1221C93.0557 70.1221 91.7958 70.5916 91.7592 71.995C90.6193 72.4149 90.5854 73.0019 90.7237 73.6644C90.3089 73.7922 90.1028 74.0922 90.1028 74.4235C90.1028 75.266 90.1028 78.438 90.1028 79.6092H90.7002V74.3817V74.3844Z" fill="#A5C59B"/>
<path d="M82.8302 74.7837C82.8302 74.4889 83.0154 74.2176 83.3858 74.1055C83.2632 73.5133 83.2919 72.989 84.3118 72.6134C84.3327 71.7369 84.8883 71.27 85.2222 71.0666C85.0787 70.9987 84.9744 70.9727 84.9744 70.9727C84.9744 70.9727 83.8475 71.39 83.8162 72.6473C82.7963 73.0229 82.765 73.5472 82.8902 74.1394C82.5198 74.2541 82.3346 74.5228 82.3346 74.8176C82.3346 75.0863 82.3346 78.9468 82.3346 79.6303H82.8302C82.8302 78.5712 82.8302 75.0315 82.8302 74.7837Z" fill="#A5C59B"/>
<path d="M80.5061 86.0366C80.5061 85.7575 80.3418 85.5019 80.0105 85.3976C80.12 84.8446 80.094 84.3437 79.1836 84.0411C79.1549 82.8934 78.1506 82.5908 78.1506 82.5908C78.1506 82.5908 77.1464 82.8934 77.1177 84.0125C76.2099 84.2837 76.1812 84.7507 76.2908 85.2854C75.9595 85.3637 75.7952 85.5932 75.7952 85.8567C75.7952 86.0966 75.7952 90.2676 75.7952 90.8754L80.5009 91.1963V86.0393L80.5061 86.0366Z" fill="#B6D5AC"/>
<path d="M76.2437 85.8542C76.2437 85.5908 76.408 85.3612 76.7393 85.283C76.6297 84.7482 76.6558 84.2813 77.5662 84.01C77.5845 83.2301 78.0801 82.8466 78.3774 82.6875C78.2496 82.6171 78.1557 82.5884 78.1557 82.5884C78.1557 82.5884 77.1514 82.891 77.1228 84.01C76.215 84.2813 76.1863 84.7482 76.2959 85.283C75.9646 85.3612 75.8002 85.5908 75.8002 85.8542C75.8002 86.0942 75.8002 90.2652 75.8002 90.873L76.2437 90.9043V85.8542Z" fill="#A1BB98"/>
<path d="M80.5061 75.2686C80.5061 74.9895 80.3418 74.7443 80.0105 74.6661C80.12 74.1052 80.094 73.607 79.1836 73.367C79.1549 72.2193 78.1506 71.9897 78.1506 71.9897C78.1506 71.9897 77.1464 72.3628 77.1177 73.4818C76.2099 73.8157 76.1812 74.2852 76.2908 74.8121C75.9595 74.9139 75.7952 75.1539 75.7952 75.4173C75.7952 75.6573 75.7952 79.0979 75.7952 79.7083L80.5009 79.6979V75.2712L80.5061 75.2686Z" fill="#C6E7BB"/>
<path d="M76.2437 75.3862C76.2437 75.1227 76.408 74.8827 76.7393 74.781C76.6297 74.2541 76.6558 73.7846 77.5662 73.4507C77.5845 72.6707 78.0801 72.2534 78.3774 72.0708C78.2496 72.0108 78.1557 71.9873 78.1557 71.9873C78.1557 71.9873 77.1514 72.3603 77.1228 73.4794C76.215 73.8133 76.1863 74.2828 76.2959 74.8097C75.9646 74.9114 75.8002 75.1514 75.8002 75.4149C75.8002 75.6549 75.8002 79.0955 75.8002 79.7058H76.2437V75.3862Z" fill="#A5C59B"/>
<path d="M84 91.5C50.9019 93.9044 32.5671 96.8342 0 103L-9 110H135.5V101.5C121.858 96.1701 110.024 94.1017 84 91.5Z" fill="#CEE5C6"/>
<path d="M70 92.5C43.852 95.9178 33.4459 98.4062 20 103.5L10 105L-2.5 103.5L62.5 90.5L108 93L113 93.5L136 101L134 102.5C113.838 96.1982 98.1596 94.8348 70 92.5Z" fill="#CEE5C6"/>
</g>
</g>
<defs>
<linearGradient id="paint0_linear_7170_85113" x1="71.5" y1="82" x2="-0.499998" y2="83" gradientUnits="userSpaceOnUse">
<stop stop-color="#F4FFF0"/>
<stop offset="1" stop-color="#E4F9DD"/>
</linearGradient>
<linearGradient id="paint1_linear_7170_85113" x1="70.959" y1="82" x2="142.959" y2="83" gradientUnits="userSpaceOnUse">
<stop stop-color="#F4FFF0"/>
<stop offset="1" stop-color="#E4F9DD"/>
</linearGradient>
<clipPath id="clip0_7170_85113">
<rect width="134" height="95" fill="white"/>
</clipPath>
<clipPath id="clip1_7170_85113">
<rect width="11" height="77" fill="white" transform="translate(62 2)"/>
</clipPath>
<clipPath id="clip2_7170_85113">
<rect width="134.241" height="80" fill="white" transform="translate(0 23.6001)"/>
</clipPath>
</defs>
</svg>
