<svg width="22" height="22" viewBox="0 0 22 22" fill="none" xmlns="http://www.w3.org/2000/svg">
<path opacity="0.4" d="M4.64447 15.7511V14.4747C4.64447 11.5881 4.64506 10.6722 4.64447 9.66386C5.70377 9.66384 8.00411 9.66385 11.0003 9.66385C13.9964 9.66385 16.2968 9.6632 17.3561 9.66391C17.3561 10.7232 17.3561 11.5881 17.3561 14.4747V15.7511C17.3561 17.5831 17.3561 18.499 16.7421 18.8269C15.553 19.4618 13.3227 17.3435 12.2635 16.7057C11.6492 16.3358 11.342 16.1509 11.0003 16.1509C10.6585 16.1509 10.3513 16.3358 9.73705 16.7057C8.67786 17.3435 6.44751 19.4618 5.25848 18.8269C4.64447 18.499 4.64447 17.5831 4.64447 15.7511Z" fill="#895737" stroke="#895737" stroke-width="1.38569" stroke-linecap="round" stroke-linejoin="round"/>
<path d="M4.64447 4.90325C4.64447 3.88286 5.47166 3.05566 6.49206 3.05566H15.5085C16.5289 3.05566 17.3561 3.88286 17.3561 4.90325V6.76263H4.64447V4.90325Z" fill="#895737" stroke="#895737" stroke-width="1.38569" stroke-linecap="round" stroke-linejoin="round"/>
</svg>
