<svg width="20" height="20" viewBox="0 0 20 20" fill="none" xmlns="http://www.w3.org/2000/svg">
<path d="M6.4585 2.9165V1.6665C6.4585 1.32484 6.17516 1.0415 5.8335 1.0415C5.49183 1.0415 5.2085 1.32484 5.2085 1.6665V2.9665C5.41683 2.9415 5.6085 2.9165 5.8335 2.9165H6.4585Z" fill="white"/>
<path d="M13.125 2.9665V1.6665C13.125 1.32484 12.8417 1.0415 12.5 1.0415C12.1583 1.0415 11.875 1.32484 11.875 1.6665V2.9165H12.5C12.725 2.9165 12.9167 2.9415 13.125 2.9665Z" fill="white"/>
<path d="M17.7415 12.4748C17.0998 11.9665 16.2915 11.6665 15.4165 11.6665C14.5415 11.6665 13.7165 11.9748 13.0748 12.4915C12.2082 13.1748 11.6665 14.2415 11.6665 15.4165C11.6665 16.1165 11.8665 16.7915 12.2082 17.3415C12.4748 17.7748 12.8165 18.1582 13.2248 18.4498C13.8415 18.8998 14.5915 19.1665 15.4165 19.1665C16.3665 19.1665 17.2248 18.8165 17.8832 18.2332C18.1748 17.9915 18.4248 17.6915 18.6248 17.3498C18.9665 16.7915 19.1665 16.1165 19.1665 15.4165C19.1665 14.2248 18.6082 13.1582 17.7415 12.4748ZM15.4165 17.1998C15.4165 16.2165 14.6165 15.4165 13.6332 15.4165C14.6165 15.4165 15.4165 14.6165 15.4165 13.6332C15.4165 14.6165 16.2165 15.4165 17.1998 15.4165C16.2165 15.4165 15.4165 16.2165 15.4165 17.1998Z" fill="white"/>
<path d="M13.1248 2.9665V4.1665C13.1248 4.50817 12.8415 4.7915 12.4998 4.7915C12.1582 4.7915 11.8748 4.50817 11.8748 4.1665V2.9165H6.45817V4.1665C6.45817 4.50817 6.17484 4.7915 5.83317 4.7915C5.4915 4.7915 5.20817 4.50817 5.20817 4.1665V2.9665C2.74984 3.1915 1.6665 4.77484 1.6665 7.08317V14.1665C1.6665 16.6665 2.9165 18.3332 5.83317 18.3332H9.27484C9.90817 18.3332 10.3332 17.6248 10.1748 17.0082C10.0582 16.5582 9.99984 16.0915 9.99984 15.6248C9.99984 13.8915 10.7748 12.2915 12.1165 11.2332C13.0915 10.4415 14.3415 9.99984 15.6248 9.99984H15.6582C16.1832 9.99984 16.6665 9.6165 16.6665 9.0915V7.08317C16.6665 4.77484 15.5832 3.1915 13.1248 2.9665ZM7.49984 13.9582H5.83317C5.4915 13.9582 5.20817 13.6748 5.20817 13.3332C5.20817 12.9915 5.4915 12.7082 5.83317 12.7082H7.49984C7.8415 12.7082 8.12484 12.9915 8.12484 13.3332C8.12484 13.6748 7.8415 13.9582 7.49984 13.9582ZM9.99984 9.7915H5.83317C5.4915 9.7915 5.20817 9.50817 5.20817 9.1665C5.20817 8.82484 5.4915 8.5415 5.83317 8.5415H9.99984C10.3415 8.5415 10.6248 8.82484 10.6248 9.1665C10.6248 9.50817 10.3415 9.7915 9.99984 9.7915Z" fill="white"/>
</svg>
