<svg width="25" height="24" viewBox="0 0 25 24" fill="none" xmlns="http://www.w3.org/2000/svg">
<path opacity="0.4" d="M22.1919 1.97581C22.5962 2.25605 22.8084 2.74046 22.7323 3.22488L20.1702 19.8791C20.1101 20.2675 19.8739 20.6077 19.5296 20.7999C19.1853 20.9921 18.773 21.0161 18.4087 20.864L11.2185 17.8734V17.341L17.4919 9.18998C17.7 8.92175 17.66 8.53342 17.3998 8.31323C17.1396 8.09304 16.7552 8.10906 16.519 8.35727L9.40895 15.7876L8.84447 16.3521C8.72437 16.4722 8.65631 16.6364 8.65631 16.8045L7.52334 16.3321L3.0395 14.4625C2.58712 14.2743 2.28286 13.85 2.25483 13.3615C2.22681 12.8731 2.47502 12.4127 2.89938 12.1685L20.8347 1.91976C21.2631 1.67555 21.7915 1.69957 22.1959 1.97581H22.1919Z" fill="#895737"/>
<path d="M17.4918 9.18946C17.696 8.92123 17.66 8.5409 17.4077 8.31671C17.1555 8.09252 16.7712 8.10453 16.531 8.34473L9.36486 15.5109L8.84441 16.0313C8.72431 16.1514 8.65625 16.3156 8.65625 16.4837V16.804V19.0459V20.9675C8.65625 21.496 8.98053 21.9684 9.46895 22.1606C9.95736 22.3527 10.5178 22.2246 10.8782 21.8363L13.6205 18.8737L11.2184 17.8729V17.3404L17.4918 9.18946Z" fill="#895737"/>
</svg>
