<svg width="25" height="24" viewBox="0 0 25 24" fill="none" xmlns="http://www.w3.org/2000/svg">
<path opacity="0.4" d="M19.85 5.65995L13.56 2.27C12.9 1.91 12.1 1.91 11.43 2.27L5.14005 5.65995C4.68005 5.90995 4.40002 6.39998 4.40002 6.93998C4.40002 7.47998 4.68005 7.96995 5.14005 8.21995L11.43 11.61C11.76 11.79 12.13 11.88 12.49 11.88C12.86 11.88 13.22 11.79 13.55 11.61L19.84 8.21995C20.3 7.96995 20.58 7.47998 20.58 6.93998C20.59 6.39998 20.31 5.90995 19.85 5.65995Z" fill="#614730"/>
<path opacity="0.4" d="M10.4 12.79L4.54996 9.86001C4.09996 9.63001 3.57996 9.66001 3.14996 9.92001C2.71996 10.18 2.46997 10.64 2.46997 11.14V16.67C2.46997 17.63 2.99995 18.49 3.85995 18.92L9.70996 21.8401C9.90996 21.9401 10.13 21.99 10.35 21.99C10.61 21.99 10.87 21.92 11.1 21.77C11.53 21.51 11.78 21.05 11.78 20.55V15.02C11.79 14.08 11.26 13.22 10.4 12.79Z" fill="#614730"/>
<path opacity="0.4" d="M22.53 11.15V15.74C22.52 15.73 22.51 15.71 22.5 15.7C22.5 15.69 22.49 15.68 22.48 15.67C22.44 15.61 22.39 15.55 22.34 15.5C22.33 15.49 22.32 15.47 22.31 15.46C21.5 14.56 20.31 14 19 14C17.74 14 16.59 14.52 15.77 15.36C14.98 16.17 14.5 17.28 14.5 18.5C14.5 19.34 14.74 20.14 15.15 20.82C15.32 21.11 15.53 21.37 15.76 21.61L15.29 21.85C15.09 21.95 14.87 22 14.65 22C14.39 22 14.13 21.93 13.89 21.78C13.47 21.52 13.21 21.06 13.21 20.56V15.04C13.21 14.08 13.74 13.22 14.6 12.79L20.45 9.87C20.9 9.64 21.42 9.66 21.85 9.93C22.27 10.19 22.53 10.65 22.53 11.15Z" fill="#614730"/>
<path opacity="1" d="M22.48 15.65C21.66 14.64 20.41 14 19 14C17.94 14 16.96 14.37 16.19 14.99C15.15 15.81 14.5 17.08 14.5 18.5C14.5 19.91 15.14 21.16 16.15 21.98C16.92 22.62 17.92 23 19 23C20.14 23 21.17 22.57 21.97 21.88C22.9 21.05 23.5 19.85 23.5 18.5C23.5 17.42 23.12 16.42 22.48 15.65ZM20.03 18.78C20.03 19.04 19.89 19.29 19.67 19.42L18.26 20.26C18.14 20.33 18.01 20.37 17.87 20.37C17.62 20.37 17.37 20.24 17.23 20.01C17.02 19.65 17.13 19.19 17.49 18.98L18.53 18.36V17.1C18.53 16.69 18.87 16.35 19.28 16.35C19.69 16.35 20.03 16.69 20.03 17.1V18.78Z" fill="#614730"/>
</svg>
