<svg width="16" height="16" viewBox="0 0 16 16" fill="none" xmlns="http://www.w3.org/2000/svg">
<g id="vuesax/linear/ayah">
<g id="ayah">
<path id="Star 6" d="M7.31722 1.97167C7.70157 1.61245 8.29851 1.61245 8.68286 1.97167L10.3305 3.51159C10.442 3.61583 10.576 3.69316 10.722 3.73763L12.8795 4.39458C13.3827 4.54782 13.6812 5.06479 13.5623 5.57725L13.0525 7.77412C13.018 7.92284 13.018 8.07749 13.0525 8.22621L13.5623 10.4231C13.6812 10.9355 13.3827 11.4525 12.8795 11.6057L10.722 12.2627C10.576 12.3072 10.442 12.3845 10.3305 12.4887L8.68286 14.0287C8.29851 14.3879 7.70157 14.3879 7.31722 14.0287L5.66957 12.4887C5.55803 12.3845 5.4241 12.3072 5.27805 12.2627L3.12062 11.6057C2.61736 11.4525 2.31889 10.9355 2.4378 10.4231L2.94759 8.22621C2.9821 8.07749 2.9821 7.92284 2.94759 7.77412L2.4378 5.57725C2.31889 5.06479 2.61736 4.54782 3.12062 4.39458L5.27805 3.73763C5.42411 3.69316 5.55803 3.61583 5.66957 3.51159L7.31722 1.97167Z" stroke="#8B7D6F" stroke-width="1.5"/>
</g>
</g>
</svg>
