<svg width="18" height="19" viewBox="0 0 18 19" fill="none" xmlns="http://www.w3.org/2000/svg">
<path fill-rule="evenodd" clip-rule="evenodd" d="M10.9799 17.7739V16.4614H12.7799V17.7739H13.8599V16.4614H14.0399C14.3381 16.4614 14.5799 16.2096 14.5799 15.8989V3.89893C14.5799 3.58826 14.3381 3.33643 14.0399 3.33643H13.8599V2.02393H12.7799V3.33643H10.9799V2.02393H9.89992V3.33643H8.09992V2.02393H7.01992V3.33643H5.21992V2.02393H4.13992V3.33643H3.95992C3.81671 3.33643 3.67935 3.39568 3.57808 3.50117C3.47682 3.60667 3.41992 3.74974 3.41992 3.89893V15.8989C3.41992 16.2096 3.66169 16.4614 3.95992 16.4614H4.13992V17.7739H5.21992V16.4614H7.01992V17.7739H8.09992V16.4614H9.89992V17.7739H10.9799ZM8.17754 6.66297C7.31383 7.27816 6.3544 7.96149 7.1183 9.38905C7.26278 9.65898 7.33499 9.79398 7.35897 9.8905C7.38302 9.98703 7.38302 10.0998 7.38302 10.3252V13.6486L10.6166 13.6489L10.6177 10.3245C10.6178 10.0994 10.6178 9.9868 10.6418 9.89043C10.6658 9.79405 10.7379 9.6592 10.882 9.38958C11.6453 7.96189 10.6853 7.27843 9.82108 6.66325C9.75448 6.61579 9.68839 6.56875 9.62373 6.5218L8.99891 6.14893L8.37431 6.52189C8.3098 6.56872 8.24392 6.61564 8.17754 6.66297Z" fill="#F5F1E9"/>
</svg>
