<svg width="38" height="38" viewBox="0 0 38 38" fill="none" xmlns="http://www.w3.org/2000/svg">
<path d="M21.7388 5.55719L24.5254 11.1305C24.9054 11.9064 25.9188 12.6505 26.7738 12.793L31.8246 13.6322C35.0546 14.1705 35.8146 16.5139 33.4871 18.8255L29.5604 22.7522C28.8954 23.4172 28.5313 24.6997 28.7371 25.618L29.8613 30.4789C30.7479 34.3264 28.7054 35.8147 25.3013 33.8039L20.5671 31.0014C19.7121 30.4947 18.3029 30.4947 17.4321 31.0014L12.6979 33.8039C9.30961 35.8147 7.25128 34.3105 8.13794 30.4789L9.26211 25.618C9.46795 24.6997 9.10378 23.4172 8.43878 22.7522L4.51211 18.8255C2.20045 16.5139 2.94461 14.1705 6.17461 13.6322L11.2254 12.793C12.0646 12.6505 13.0779 11.9064 13.4579 11.1305L16.2446 5.55719C17.7646 2.53302 20.2346 2.53302 21.7388 5.55719Z" fill="#C3A895"/>
</svg>
