<svg width="20" height="20" viewBox="0 0 20 20" fill="none" xmlns="http://www.w3.org/2000/svg">
<path d="M16.9666 10.6081C16.6582 10.6081 16.3999 10.3748 16.3666 10.0665C16.1666 8.23315 15.1832 6.58315 13.6666 5.53315C13.3916 5.34148 13.3249 4.96648 13.5166 4.69148C13.7082 4.41648 14.0832 4.34982 14.3582 4.54148C16.1666 5.79982 17.3332 7.76648 17.5749 9.94148C17.6082 10.2748 17.3666 10.5748 17.0332 10.6081C17.0082 10.6081 16.9916 10.6081 16.9666 10.6081Z" fill="white"/>
<path d="M3.11674 10.6502C3.10008 10.6502 3.07508 10.6502 3.05841 10.6502C2.72508 10.6168 2.48341 10.3168 2.51674 9.9835C2.74174 7.8085 3.89174 5.84183 5.68341 4.57517C5.95008 4.3835 6.33341 4.45017 6.52508 4.71683C6.71674 4.99183 6.65008 5.36683 6.38341 5.5585C4.88341 6.62517 3.90841 8.27517 3.72508 10.1002C3.69174 10.4168 3.42508 10.6502 3.11674 10.6502Z" fill="white"/>
<path d="M13.3248 17.5834C12.2998 18.0751 11.1998 18.3251 10.0498 18.3251C8.84984 18.3251 7.70817 18.0584 6.64151 17.5168C6.34151 17.3751 6.22484 17.0084 6.37484 16.7084C6.51651 16.4084 6.88317 16.2918 7.18317 16.4334C7.70817 16.7001 8.26651 16.8834 8.83317 16.9918C9.59984 17.1418 10.3832 17.1501 11.1498 17.0168C11.7165 16.9168 12.2748 16.7418 12.7915 16.4918C13.0998 16.3501 13.4665 16.4668 13.5998 16.7751C13.7498 17.0751 13.6332 17.4418 13.3248 17.5834Z" fill="white"/>
<path d="M10.0419 1.6748C8.75023 1.6748 7.69189 2.7248 7.69189 4.0248C7.69189 5.32481 8.7419 6.37481 10.0419 6.37481C11.3419 6.37481 12.3919 5.32481 12.3919 4.0248C12.3919 2.7248 11.3419 1.6748 10.0419 1.6748Z" fill="white"/>
<path d="M4.2084 11.5581C2.91673 11.5581 1.8584 12.6081 1.8584 13.9081C1.8584 15.2081 2.9084 16.2581 4.2084 16.2581C5.5084 16.2581 6.5584 15.2081 6.5584 13.9081C6.5584 12.6081 5.50007 11.5581 4.2084 11.5581Z" fill="white"/>
<path d="M15.7919 11.5581C14.5002 11.5581 13.4419 12.6081 13.4419 13.9081C13.4419 15.2081 14.4919 16.2581 15.7919 16.2581C17.0919 16.2581 18.1419 15.2081 18.1419 13.9081C18.1419 12.6081 17.0919 11.5581 15.7919 11.5581Z" fill="white"/>
</svg>
