<svg width="16" height="16" viewBox="0 0 16 16" fill="none" xmlns="http://www.w3.org/2000/svg">
<g id="vuesax/linear/volume-slash">
<g id="volume-slash">
<path id="Vector" d="M10 5.58018V4.94018C10 2.95352 8.62004 2.19352 6.94004 3.24685L4.99337 4.46685C4.78004 4.59352 4.53337 4.66685 4.28671 4.66685H3.33337C2.00004 4.66685 1.33337 5.33352 1.33337 6.66685V9.33352C1.33337 10.6669 2.00004 11.3335 3.33337 11.3335H4.66671" stroke="#8B7D6F" stroke-width="1.5" stroke-linecap="round" stroke-linejoin="round"/>
<path id="Vector_2" d="M6.93994 12.7533C8.61994 13.8066 9.99994 13.04 9.99994 11.06V8.6333" stroke="#8B7D6F" stroke-width="1.5" stroke-linecap="round" stroke-linejoin="round"/>
<path id="Vector_3" d="M12.54 6.27979C13.14 7.71312 12.96 9.38645 12 10.6665" stroke="#8B7D6F" stroke-width="1.5" stroke-linecap="round" stroke-linejoin="round"/>
<path id="Vector_4" d="M14.1 5.2002C15.08 7.52686 14.7866 10.2469 13.22 12.3335" stroke="#8B7D6F" stroke-width="1.5" stroke-linecap="round" stroke-linejoin="round"/>
<path id="Vector_5" d="M14.6667 1.3335L1.33337 14.6668" stroke="#8B7D6F" stroke-width="1.5" stroke-linecap="round" stroke-linejoin="round"/>
</g>
</g>
</svg>
