<svg width="16" height="16" viewBox="0 0 16 16" fill="none" xmlns="http://www.w3.org/2000/svg">
<g id="vuesax/linear/volume-high">
<g id="volume-high">
<path id="Vector" d="M1.33337 6.66685V9.33352C1.33337 10.6669 2.00004 11.3335 3.33337 11.3335H4.28671C4.53337 11.3335 4.78004 11.4069 4.99337 11.5335L6.94004 12.7535C8.62004 13.8069 10 13.0402 10 11.0602V4.94018C10 2.95352 8.62004 2.19352 6.94004 3.24685L4.99337 4.46685C4.78004 4.59352 4.53337 4.66685 4.28671 4.66685H3.33337C2.00004 4.66685 1.33337 5.33352 1.33337 6.66685Z" stroke="#8B7D6F" stroke-width="1.5"/>
<path id="Vector_2" d="M12 5.3335C13.1867 6.9135 13.1867 9.08683 12 10.6668" stroke="#8B7D6F" stroke-width="1.5" stroke-linecap="round" stroke-linejoin="round"/>
<path id="Vector_3" d="M13.22 3.6665C15.1466 6.23317 15.1466 9.7665 13.22 12.3332" stroke="#8B7D6F" stroke-width="1.5" stroke-linecap="round" stroke-linejoin="round"/>
</g>
</g>
</svg>
