<svg width="36" height="36" viewBox="0 0 36 36" fill="none" xmlns="http://www.w3.org/2000/svg">
<rect width="36" height="36" rx="9" fill="#614730" fill-opacity="0.1"/>
<path opacity="0.3" d="M19 14H17.49C16.86 14 16.24 14.3 15.9 14.7L15 12H12.13L9.74 19H11.43L12.17 17H15V21H10C8.9 21 8 20.1 8 19V12C8 10.9 8.9 10 10 10H17C18.1 10 19 10.9 19 12V14ZM14.51 16H12.49L13.49 13.07L14.51 16Z" fill="#614730"/>
<path d="M18 15H25C26.1 15 27 15.9 27 17V24C27 25.1 26.1 26 25 26H18C16.9 26 16 25.1 16 24V17C16 15.9 16.9 15 18 15ZM25.25 20V18.92H22.08V16.75H20.92V18.92H17.75V20H19.03C19.14 20.85 19.59 21.85 20.31 22.62C19.44 22.98 18.42 23.24 18 23.24C17.99 23.26 18.22 24.21 18.2 24.7C19.04 24.7 20.41 24.2 21.48 23.55C22.57 24.2 23.96 24.7 24.82 24.7C24.8 24.21 25.02 23.26 25.02 23.24C24.59 23.24 23.53 22.97 22.64 22.61C23.34 21.84 23.78 20.84 23.89 20H25.25ZM21.44 21.93C20.94 21.47 20.59 20.8 20.43 20H22.52C22.35 20.8 22.01 21.47 21.52 21.93L21.48 21.96C21.48 21.96 21.45 21.94 21.44 21.93Z" fill="#614730"/>
</svg>
