<svg width="320" height="104" viewBox="0 0 320 104" fill="none" xmlns="http://www.w3.org/2000/svg">
<g clip-path="url(#clip0_3034_104003)">
<rect width="320" height="104" rx="14" fill="#F4EDE3"/>
<g clip-path="url(#clip1_3034_104003)">
<path d="M283.493 87.7522C288.582 86.3332 294.129 87.7414 298.685 90.4179C300.82 91.6727 302.877 93.2317 305.314 93.6814C307.493 94.0826 309.722 93.5468 311.935 93.536C314.852 93.4498 317.849 94.5403 320 96.4844V101.921C315.396 102.712 311.017 105.836 305.441 103.62C303.114 102.12 300.812 100.278 297.869 100.373C295.974 100.33 294.118 100.841 292.255 101.186C290.392 101.53 288.477 101.229 286.603 100.957C279.298 99.9256 274.023 90.3264 283.493 87.7522Z" fill="#EEE8E0"/>
<path d="M287.174 92.5233C289.188 93.4442 291.364 93.9343 293.545 94.2816C299.172 94.7178 304.296 97.0012 309.623 98.6356C312.797 99.5888 316.54 99.8635 320 100.647V101.455C319.429 101.323 318.858 101.204 318.304 101.083C314.722 100.359 311.068 99.9227 307.584 98.7945C304.076 97.6178 300.699 96.0292 297.026 95.3964C293.666 94.7502 290.101 94.419 287.066 92.7172C286.956 92.6553 287.061 92.4695 287.174 92.5233Z" fill="#CFC4B9"/>
<path d="M306.222 44.4248C310.045 44.9768 313.139 48.0949 314.908 51.3826C316.265 54.0214 316.79 57.0156 318.075 59.6894C318.67 60.7314 319.332 61.7546 320.003 62.7698V76.9626C319.136 76.338 318.285 75.6863 317.641 74.8193C315.202 70.7346 315.186 67.6919 310.476 65.0047C306.504 62.8425 302.953 59.5898 301.833 55.0581C300.43 50.9195 300.462 43.9455 306.222 44.4248Z" fill="#EEE8E0"/>
<path d="M299.237 64.1455C302.961 65.6668 305.075 69.283 308.104 71.6902C310.236 73.1631 312.986 73.5401 315.089 75.056C317.644 77.0567 319.324 80.1532 320 83.3144V83.694C318.473 81.2733 315.562 80.6729 312.913 80.1936C309.819 79.5123 306.308 77.4336 303.187 76.879C284.969 75.0426 284.646 58.7602 299.237 64.1455Z" fill="#EEE8E0"/>
<path d="M320 74.0034C316.86 67.673 312.803 61.7034 308.667 54.6649C308.51 54.2637 307.21 52.5081 307.999 52.7854C312.014 59.2289 316.424 65.5485 320 72.272V74.0034Z" fill="#CFC4B9"/>
<path d="M296.019 68.3408C307.24 75.0616 314.593 76.1791 320 83.363V84.4374C319.106 83.153 318.094 81.9548 316.933 80.875C313.67 77.8243 309.437 76.1899 305.481 74.2538C302.511 72.781 299.638 71.1088 296.854 69.3075C296.526 69.0517 295.22 68.4135 296.019 68.3408Z" fill="#CFC4B9"/>
</g>
<path d="M82.4503 44V29.4545H88.0185C89.0696 29.4545 89.9432 29.6203 90.6392 29.9517C91.34 30.2784 91.8632 30.7259 92.2088 31.294C92.5592 31.8622 92.7344 32.5062 92.7344 33.2259C92.7344 33.8177 92.6207 34.3243 92.3935 34.7457C92.1662 35.1624 91.8608 35.5009 91.4773 35.7614C91.0938 36.0218 90.6652 36.2088 90.1918 36.3224V36.4645C90.7079 36.4929 91.2027 36.6515 91.6761 36.9403C92.1544 37.2244 92.545 37.6269 92.848 38.1477C93.151 38.6686 93.3026 39.2983 93.3026 40.0369C93.3026 40.7898 93.1203 41.4669 92.7557 42.0682C92.3911 42.6648 91.8419 43.1359 91.108 43.4815C90.3741 43.8272 89.4508 44 88.3381 44H82.4503ZM85.0852 41.7983H87.919C88.8755 41.7983 89.5644 41.616 89.9858 41.2514C90.4119 40.8821 90.625 40.4086 90.625 39.831C90.625 39.4001 90.5185 39.0118 90.3054 38.6662C90.0923 38.3158 89.7893 38.0412 89.3963 37.8423C89.0033 37.6387 88.5346 37.5369 87.9901 37.5369H85.0852V41.7983ZM85.0852 35.6406H87.6918C88.1463 35.6406 88.5559 35.5578 88.9205 35.392C89.285 35.2216 89.5715 34.9825 89.7798 34.6747C89.9929 34.3622 90.0994 33.9929 90.0994 33.5668C90.0994 33.0033 89.9006 32.5393 89.5028 32.1747C89.1098 31.8101 88.5251 31.6278 87.7486 31.6278H85.0852V35.6406ZM100.311 44.2131C99.217 44.2131 98.2724 43.9858 97.4769 43.5312C96.6862 43.072 96.0778 42.4233 95.6516 41.5852C95.2255 40.7424 95.0124 39.7505 95.0124 38.6094C95.0124 37.4872 95.2255 36.5024 95.6516 35.6548C96.0825 34.8026 96.6838 34.1397 97.4556 33.6662C98.2274 33.188 99.1341 32.9489 100.176 32.9489C100.848 32.9489 101.483 33.0578 102.079 33.2756C102.681 33.4886 103.211 33.8201 103.67 34.2699C104.134 34.7197 104.499 35.2926 104.764 35.9886C105.029 36.6799 105.162 37.5038 105.162 38.4602V39.2486H96.2198V37.5156H102.697C102.692 37.0232 102.586 36.5852 102.377 36.2017C102.169 35.8134 101.878 35.508 101.504 35.2855C101.135 35.063 100.704 34.9517 100.211 34.9517C99.6857 34.9517 99.2241 35.0795 98.8263 35.3352C98.4286 35.5862 98.1185 35.9176 97.896 36.3295C97.6781 36.7367 97.5669 37.1842 97.5621 37.6719V39.1847C97.5621 39.8191 97.6781 40.3636 97.9102 40.8182C98.1422 41.268 98.4665 41.6136 98.8832 41.8551C99.2998 42.0919 99.7875 42.2102 100.346 42.2102C100.72 42.2102 101.059 42.1581 101.362 42.054C101.665 41.9451 101.928 41.7865 102.15 41.5781C102.373 41.3698 102.541 41.1117 102.654 40.804L105.055 41.0739C104.904 41.7083 104.615 42.2623 104.189 42.7358C103.767 43.2045 103.227 43.5691 102.569 43.8295C101.911 44.0852 101.158 44.2131 100.311 44.2131ZM115.437 44.2202C114.746 44.2202 114.123 44.0971 113.569 43.8509C113.02 43.5999 112.584 43.2306 112.262 42.7429C111.945 42.2552 111.786 41.6539 111.786 40.9389C111.786 40.3234 111.9 39.8144 112.127 39.4119C112.354 39.0095 112.665 38.6875 113.058 38.446C113.451 38.2045 113.893 38.0223 114.386 37.8991C114.883 37.7713 115.397 37.679 115.927 37.6222C116.566 37.5559 117.085 37.4967 117.482 37.4446C117.88 37.3878 118.169 37.3026 118.349 37.1889C118.533 37.0705 118.626 36.8883 118.626 36.642V36.5994C118.626 36.0644 118.467 35.6501 118.15 35.3565C117.833 35.063 117.376 34.9162 116.779 34.9162C116.149 34.9162 115.65 35.0535 115.281 35.3281C114.916 35.6027 114.67 35.9271 114.542 36.3011L112.141 35.9602C112.331 35.2973 112.643 34.7434 113.079 34.2983C113.514 33.8485 114.047 33.5123 114.677 33.2898C115.307 33.0625 116.003 32.9489 116.765 32.9489C117.29 32.9489 117.814 33.0104 118.335 33.1335C118.855 33.2566 119.331 33.4602 119.762 33.7443C120.193 34.0237 120.539 34.4048 120.799 34.8878C121.064 35.3707 121.197 35.9744 121.197 36.6989V44H118.725V42.5014H118.64C118.484 42.8045 118.263 43.0885 117.979 43.3537C117.7 43.6141 117.347 43.8248 116.921 43.9858C116.5 44.142 116.005 44.2202 115.437 44.2202ZM116.104 42.331C116.621 42.331 117.068 42.2292 117.447 42.0256C117.826 41.8172 118.117 41.5426 118.32 41.2017C118.529 40.8608 118.633 40.4891 118.633 40.0866V38.8011C118.552 38.8674 118.415 38.929 118.221 38.9858C118.031 39.0426 117.818 39.0923 117.582 39.1349C117.345 39.1776 117.111 39.2154 116.879 39.2486C116.647 39.2817 116.445 39.3101 116.275 39.3338C115.891 39.3859 115.548 39.4711 115.245 39.5895C114.942 39.7079 114.703 39.8736 114.528 40.0866C114.353 40.295 114.265 40.5649 114.265 40.8963C114.265 41.3698 114.438 41.7273 114.783 41.9688C115.129 42.2102 115.569 42.331 116.104 42.331ZM128.857 44V29.4545H134.311C135.429 29.4545 136.366 29.6629 137.124 30.0795C137.886 30.4962 138.461 31.0691 138.849 31.7983C139.242 32.5227 139.439 33.3466 139.439 34.2699C139.439 35.2027 139.242 36.0312 138.849 36.7557C138.456 37.4801 137.876 38.0507 137.109 38.4673C136.342 38.8793 135.398 39.0852 134.276 39.0852H130.661V36.919H133.92C134.574 36.919 135.109 36.8054 135.526 36.5781C135.942 36.3509 136.25 36.0384 136.449 35.6406C136.652 35.2429 136.754 34.786 136.754 34.2699C136.754 33.7538 136.652 33.2992 136.449 32.9062C136.25 32.5133 135.94 32.2079 135.518 31.9901C135.102 31.7675 134.564 31.6562 133.906 31.6562H131.491V44H128.857ZM144.558 44.2202C143.867 44.2202 143.244 44.0971 142.69 43.8509C142.141 43.5999 141.705 43.2306 141.383 42.7429C141.066 42.2552 140.907 41.6539 140.907 40.9389C140.907 40.3234 141.021 39.8144 141.248 39.4119C141.475 39.0095 141.786 38.6875 142.179 38.446C142.572 38.2045 143.014 38.0223 143.507 37.8991C144.004 37.7713 144.518 37.679 145.048 37.6222C145.687 37.5559 146.206 37.4967 146.603 37.4446C147.001 37.3878 147.29 37.3026 147.47 37.1889C147.654 37.0705 147.747 36.8883 147.747 36.642V36.5994C147.747 36.0644 147.588 35.6501 147.271 35.3565C146.954 35.063 146.497 34.9162 145.9 34.9162C145.27 34.9162 144.771 35.0535 144.402 35.3281C144.037 35.6027 143.791 35.9271 143.663 36.3011L141.262 35.9602C141.452 35.2973 141.764 34.7434 142.2 34.2983C142.636 33.8485 143.168 33.5123 143.798 33.2898C144.428 33.0625 145.124 32.9489 145.886 32.9489C146.412 32.9489 146.935 33.0104 147.456 33.1335C147.976 33.2566 148.452 33.4602 148.883 33.7443C149.314 34.0237 149.66 34.4048 149.92 34.8878C150.185 35.3707 150.318 35.9744 150.318 36.6989V44H147.846V42.5014H147.761C147.605 42.8045 147.385 43.0885 147.1 43.3537C146.821 43.6141 146.468 43.8248 146.042 43.9858C145.621 44.142 145.126 44.2202 144.558 44.2202ZM145.225 42.331C145.742 42.331 146.189 42.2292 146.568 42.0256C146.947 41.8172 147.238 41.5426 147.441 41.2017C147.65 40.8608 147.754 40.4891 147.754 40.0866V38.8011C147.673 38.8674 147.536 38.929 147.342 38.9858C147.153 39.0426 146.94 39.0923 146.703 39.1349C146.466 39.1776 146.232 39.2154 146 39.2486C145.768 39.2817 145.566 39.3101 145.396 39.3338C145.012 39.3859 144.669 39.4711 144.366 39.5895C144.063 39.7079 143.824 39.8736 143.649 40.0866C143.474 40.295 143.386 40.5649 143.386 40.8963C143.386 41.3698 143.559 41.7273 143.904 41.9688C144.25 42.2102 144.69 42.331 145.225 42.331ZM152.903 44V33.0909H155.396V34.9091H155.51C155.708 34.2794 156.049 33.794 156.532 33.4531C157.02 33.1075 157.576 32.9347 158.201 32.9347C158.343 32.9347 158.502 32.9418 158.677 32.956C158.857 32.9654 159.006 32.982 159.125 33.0057V35.3707C159.016 35.3329 158.843 35.2997 158.606 35.2713C158.374 35.2382 158.149 35.2216 157.931 35.2216C157.463 35.2216 157.041 35.3234 156.667 35.527C156.298 35.7259 156.007 36.0028 155.794 36.358C155.581 36.7131 155.474 37.1226 155.474 37.5866V44H152.903ZM166.866 33.0909V35.0795H160.595V33.0909H166.866ZM162.143 30.4773H164.714V40.7188C164.714 41.0644 164.766 41.3295 164.87 41.5142C164.979 41.6941 165.121 41.8172 165.297 41.8835C165.472 41.9498 165.666 41.983 165.879 41.983C166.04 41.983 166.187 41.9711 166.319 41.9474C166.457 41.9238 166.561 41.9025 166.632 41.8835L167.065 43.8935C166.928 43.9408 166.731 43.9929 166.475 44.0497C166.225 44.1065 165.917 44.1397 165.552 44.1491C164.908 44.1681 164.328 44.071 163.812 43.858C163.296 43.6402 162.886 43.304 162.583 42.8494C162.285 42.3949 162.138 41.8267 162.143 41.1449V30.4773ZM178.736 44.2131C177.67 44.2131 176.747 43.9787 175.966 43.5099C175.185 43.0412 174.579 42.3854 174.148 41.5426C173.722 40.6998 173.509 39.715 173.509 38.5881C173.509 37.4612 173.722 36.474 174.148 35.6264C174.579 34.7789 175.185 34.1207 175.966 33.652C176.747 33.1832 177.67 32.9489 178.736 32.9489C179.801 32.9489 180.724 33.1832 181.506 33.652C182.287 34.1207 182.891 34.7789 183.317 35.6264C183.748 36.474 183.963 37.4612 183.963 38.5881C183.963 39.715 183.748 40.6998 183.317 41.5426C182.891 42.3854 182.287 43.0412 181.506 43.5099C180.724 43.9787 179.801 44.2131 178.736 44.2131ZM178.75 42.1534C179.328 42.1534 179.811 41.9948 180.199 41.6776C180.587 41.3556 180.876 40.9247 181.065 40.3849C181.259 39.8452 181.357 39.2438 181.357 38.581C181.357 37.9134 181.259 37.3097 181.065 36.7699C180.876 36.2254 180.587 35.7921 180.199 35.4702C179.811 35.1482 179.328 34.9872 178.75 34.9872C178.158 34.9872 177.666 35.1482 177.273 35.4702C176.884 35.7921 176.593 36.2254 176.399 36.7699C176.21 37.3097 176.115 37.9134 176.115 38.581C176.115 39.2438 176.21 39.8452 176.399 40.3849C176.593 40.9247 176.884 41.3556 177.273 41.6776C177.666 41.9948 178.158 42.1534 178.75 42.1534ZM191.671 33.0909V35.0795H185.222V33.0909H191.671ZM186.834 44V32.0611C186.834 31.3272 186.986 30.7164 187.289 30.2287C187.596 29.741 188.008 29.3764 188.525 29.1349C189.041 28.8935 189.614 28.7727 190.243 28.7727C190.688 28.7727 191.084 28.8082 191.429 28.8793C191.775 28.9503 192.031 29.0142 192.196 29.071L191.685 31.0597C191.576 31.0265 191.439 30.9934 191.273 30.9602C191.107 30.9223 190.923 30.9034 190.719 30.9034C190.241 30.9034 189.902 31.0194 189.703 31.2514C189.509 31.4787 189.412 31.8054 189.412 32.2315V44H186.834ZM198.12 31.6634V29.4545H209.725V31.6634H205.229V44H202.615V31.6634H198.12ZM214.419 37.608V44H211.848V29.4545H214.363V34.9446H214.49C214.746 34.3291 215.141 33.8437 215.676 33.4886C216.216 33.1288 216.903 32.9489 217.736 32.9489C218.494 32.9489 219.154 33.1075 219.718 33.4247C220.281 33.742 220.717 34.206 221.025 34.8168C221.337 35.4276 221.493 36.1733 221.493 37.054V44H218.922V37.4517C218.922 36.7178 218.733 36.1473 218.354 35.7401C217.98 35.3281 217.454 35.1222 216.777 35.1222C216.323 35.1222 215.916 35.2216 215.556 35.4205C215.201 35.6146 214.921 35.8963 214.718 36.2656C214.519 36.6349 214.419 37.0824 214.419 37.608ZM224.114 44V33.0909H226.685V44H224.114ZM225.407 31.5426C224.999 31.5426 224.649 31.4077 224.355 31.1378C224.062 30.8632 223.915 30.5341 223.915 30.1506C223.915 29.7623 224.062 29.4332 224.355 29.1634C224.649 28.8887 224.999 28.7514 225.407 28.7514C225.819 28.7514 226.169 28.8887 226.458 29.1634C226.751 29.4332 226.898 29.7623 226.898 30.1506C226.898 30.5341 226.751 30.8632 226.458 31.1378C226.169 31.4077 225.819 31.5426 225.407 31.5426ZM237.951 35.9744L235.607 36.2301C235.541 35.9934 235.425 35.7708 235.259 35.5625C235.098 35.3542 234.88 35.1861 234.606 35.0582C234.331 34.9304 233.995 34.8665 233.597 34.8665C233.062 34.8665 232.612 34.9825 232.248 35.2145C231.888 35.4465 231.71 35.7472 231.715 36.1165C231.71 36.4337 231.826 36.6918 232.063 36.8906C232.305 37.0895 232.702 37.2528 233.256 37.3807L235.117 37.7784C236.149 38.0009 236.916 38.3537 237.418 38.8366C237.925 39.3196 238.181 39.9517 238.185 40.733C238.181 41.4195 237.979 42.0256 237.582 42.5511C237.189 43.072 236.642 43.4792 235.941 43.7727C235.24 44.0663 234.435 44.2131 233.526 44.2131C232.191 44.2131 231.116 43.9337 230.302 43.375C229.487 42.8116 229.002 42.0279 228.846 41.0241L231.353 40.7827C231.467 41.2751 231.708 41.6468 232.077 41.8977C232.447 42.1487 232.927 42.2741 233.519 42.2741C234.13 42.2741 234.62 42.1487 234.989 41.8977C235.363 41.6468 235.55 41.3366 235.55 40.9673C235.55 40.6548 235.43 40.3968 235.188 40.1932C234.951 39.9896 234.582 39.8333 234.08 39.7244L232.219 39.3338C231.173 39.116 230.399 38.7491 229.897 38.233C229.395 37.7121 229.147 37.054 229.151 36.2585C229.147 35.5862 229.329 35.0038 229.698 34.5114C230.072 34.0142 230.591 33.6307 231.254 33.3608C231.921 33.0862 232.691 32.9489 233.562 32.9489C234.84 32.9489 235.846 33.2211 236.58 33.7656C237.319 34.3101 237.776 35.0464 237.951 35.9744Z" fill="#101010"/>
<path d="M86.756 63.8153C86.7087 63.2945 86.498 62.8897 86.1239 62.6009C85.7546 62.3073 85.2267 62.1605 84.5401 62.1605C84.0856 62.1605 83.7068 62.2197 83.4038 62.3381C83.1007 62.4564 82.8735 62.6198 82.7219 62.8281C82.5704 63.0317 82.4923 63.2661 82.4876 63.5312C82.4781 63.7491 82.5207 63.9408 82.6154 64.1065C82.7148 64.2723 82.8569 64.419 83.0415 64.5469C83.2309 64.67 83.4582 64.7789 83.7234 64.8736C83.9885 64.9683 84.2868 65.0511 84.6183 65.1222L85.8683 65.4062C86.588 65.5625 87.2224 65.7708 87.7717 66.0312C88.3256 66.2917 88.7897 66.6018 89.1637 66.9616C89.5425 67.3215 89.829 67.7358 90.0231 68.2045C90.2172 68.6733 90.3166 69.1989 90.3214 69.7812C90.3166 70.6998 90.0846 71.4882 89.6254 72.1463C89.1661 72.8045 88.5056 73.3087 87.6438 73.6591C86.7868 74.0095 85.7522 74.1847 84.5401 74.1847C83.3233 74.1847 82.2627 74.0024 81.3583 73.6378C80.454 73.2732 79.7508 72.7192 79.2489 71.9759C78.747 71.2325 78.489 70.2926 78.4748 69.1562H81.8413C81.8697 69.625 81.9951 70.0156 82.2177 70.3281C82.4402 70.6406 82.7456 70.8774 83.1339 71.0384C83.5269 71.1993 83.9814 71.2798 84.4975 71.2798C84.971 71.2798 85.3735 71.2159 85.7049 71.0881C86.0411 70.9602 86.2991 70.7827 86.479 70.5554C86.659 70.3281 86.7513 70.0677 86.756 69.7741C86.7513 69.4995 86.6661 69.2652 86.5004 69.071C86.3346 68.8722 86.079 68.7017 85.7333 68.5597C85.3924 68.4129 84.9568 68.2779 84.4265 68.1548L82.9066 67.7997C81.6471 67.5109 80.6552 67.0445 79.9308 66.4006C79.2063 65.7519 78.8465 64.8759 78.8512 63.7727C78.8465 62.8731 79.0879 62.0848 79.5756 61.4077C80.0633 60.7306 80.738 60.2027 81.5998 59.8239C82.4615 59.4451 83.444 59.2557 84.5472 59.2557C85.6741 59.2557 86.6519 59.4474 87.4805 59.831C88.3138 60.2098 88.9601 60.7424 89.4194 61.429C89.8787 62.1155 90.113 62.911 90.1225 63.8153H86.756ZM95.1722 74.1847C94.4762 74.1847 93.8583 74.0687 93.3185 73.8366C92.7835 73.5999 92.3597 73.2448 92.0472 72.7713C91.7395 72.2931 91.5856 71.6941 91.5856 70.9744C91.5856 70.3684 91.6921 69.857 91.9052 69.4403C92.1183 69.0237 92.4118 68.6851 92.7859 68.4247C93.1599 68.1643 93.5908 67.9678 94.0785 67.8352C94.5662 67.6979 95.087 67.6056 95.641 67.5582C96.2612 67.5014 96.7608 67.4422 97.1396 67.3807C97.5183 67.3144 97.793 67.2221 97.9634 67.1037C98.1386 66.9806 98.2262 66.8078 98.2262 66.5852V66.5497C98.2262 66.1851 98.1007 65.9034 97.8498 65.7045C97.5988 65.5057 97.2603 65.4062 96.8342 65.4062C96.3749 65.4062 96.0056 65.5057 95.7262 65.7045C95.4469 65.9034 95.2693 66.178 95.1935 66.5284L91.9904 66.4148C92.0851 65.7519 92.329 65.16 92.7219 64.6392C93.1197 64.1136 93.6642 63.7017 94.3555 63.4034C95.0515 63.1004 95.8872 62.9489 96.8626 62.9489C97.5586 62.9489 98.2002 63.0317 98.7873 63.1974C99.3744 63.3584 99.8858 63.5952 100.321 63.9077C100.757 64.2154 101.093 64.5942 101.33 65.044C101.571 65.4938 101.692 66.0076 101.692 66.5852V74H98.4251V72.4801H98.3398C98.1457 72.8494 97.8971 73.1619 97.5941 73.4176C97.2958 73.6733 96.9431 73.8651 96.5359 73.9929C96.1334 74.1207 95.6789 74.1847 95.1722 74.1847ZM96.2447 71.9119C96.6187 71.9119 96.9549 71.8362 97.2532 71.6847C97.5562 71.5331 97.7977 71.3248 97.9776 71.0597C98.1576 70.7898 98.2475 70.4773 98.2475 70.1222V69.0852C98.1481 69.1373 98.0273 69.1847 97.8853 69.2273C97.748 69.2699 97.5965 69.3101 97.4308 69.348C97.265 69.3859 97.0946 69.419 96.9194 69.4474C96.7442 69.4759 96.5761 69.5019 96.4151 69.5256C96.0884 69.5777 95.8091 69.6581 95.5771 69.767C95.3498 69.8759 95.1746 70.018 95.0515 70.1932C94.9331 70.3636 94.8739 70.5672 94.8739 70.804C94.8739 71.1638 95.0018 71.4384 95.2575 71.6278C95.5179 71.8172 95.8469 71.9119 96.2447 71.9119ZM107.8 74.1562C106.995 74.1562 106.264 73.9479 105.605 73.5312C104.947 73.1146 104.422 72.4896 104.029 71.6562C103.636 70.8229 103.439 69.7884 103.439 68.5526C103.439 67.2694 103.643 66.2135 104.05 65.3849C104.457 64.5563 104.99 63.9432 105.648 63.5455C106.311 63.1477 107.024 62.9489 107.786 62.9489C108.359 62.9489 108.849 63.0483 109.256 63.2472C109.663 63.4413 109.999 63.6922 110.265 64C110.53 64.3078 110.731 64.6274 110.868 64.9588H110.939V59.4545H114.412V74H110.975V72.2315H110.868C110.721 72.5677 110.513 72.8826 110.243 73.1761C109.973 73.4697 109.635 73.7064 109.228 73.8864C108.825 74.0663 108.349 74.1562 107.8 74.1562ZM109.007 71.4503C109.429 71.4503 109.789 71.3319 110.087 71.0952C110.385 70.8537 110.615 70.5152 110.776 70.0795C110.937 69.6439 111.017 69.1326 111.017 68.5455C111.017 67.9489 110.937 67.4351 110.776 67.0043C110.62 66.5734 110.39 66.242 110.087 66.0099C109.789 65.7779 109.429 65.6619 109.007 65.6619C108.577 65.6619 108.212 65.7803 107.914 66.017C107.615 66.2538 107.388 66.5876 107.232 67.0185C107.08 67.4493 107.005 67.9583 107.005 68.5455C107.005 69.1326 107.083 69.6439 107.239 70.0795C107.395 70.5152 107.62 70.8537 107.914 71.0952C108.212 71.3319 108.577 71.4503 109.007 71.4503ZM119.684 74.1847C118.988 74.1847 118.37 74.0687 117.83 73.8366C117.295 73.5999 116.871 73.2448 116.559 72.7713C116.251 72.2931 116.097 71.6941 116.097 70.9744C116.097 70.3684 116.204 69.857 116.417 69.4403C116.63 69.0237 116.924 68.6851 117.298 68.4247C117.672 68.1643 118.103 67.9678 118.59 67.8352C119.078 67.6979 119.599 67.6056 120.153 67.5582C120.773 67.5014 121.272 67.4422 121.651 67.3807C122.03 67.3144 122.305 67.2221 122.475 67.1037C122.65 66.9806 122.738 66.8078 122.738 66.5852V66.5497C122.738 66.1851 122.612 65.9034 122.362 65.7045C122.111 65.5057 121.772 65.4062 121.346 65.4062C120.887 65.4062 120.517 65.5057 120.238 65.7045C119.959 65.9034 119.781 66.178 119.705 66.5284L116.502 66.4148C116.597 65.7519 116.841 65.16 117.234 64.6392C117.631 64.1136 118.176 63.7017 118.867 63.4034C119.563 63.1004 120.399 62.9489 121.374 62.9489C122.07 62.9489 122.712 63.0317 123.299 63.1974C123.886 63.3584 124.397 63.5952 124.833 63.9077C125.269 64.2154 125.605 64.5942 125.842 65.044C126.083 65.4938 126.204 66.0076 126.204 66.5852V74H122.937V72.4801H122.852C122.657 72.8494 122.409 73.1619 122.106 73.4176C121.808 73.6733 121.455 73.8651 121.048 73.9929C120.645 74.1207 120.191 74.1847 119.684 74.1847ZM120.756 71.9119C121.13 71.9119 121.467 71.8362 121.765 71.6847C122.068 71.5331 122.309 71.3248 122.489 71.0597C122.669 70.7898 122.759 70.4773 122.759 70.1222V69.0852C122.66 69.1373 122.539 69.1847 122.397 69.2273C122.26 69.2699 122.108 69.3101 121.942 69.348C121.777 69.3859 121.606 69.419 121.431 69.4474C121.256 69.4759 121.088 69.5019 120.927 69.5256C120.6 69.5777 120.321 69.6581 120.089 69.767C119.862 69.8759 119.686 70.018 119.563 70.1932C119.445 70.3636 119.386 70.5672 119.386 70.804C119.386 71.1638 119.513 71.4384 119.769 71.6278C120.03 71.8172 120.359 71.9119 120.756 71.9119ZM135.451 78.0909V72.2315H135.38C135.233 72.5677 135.025 72.8826 134.755 73.1761C134.485 73.4697 134.147 73.7064 133.739 73.8864C133.337 74.0663 132.861 74.1562 132.312 74.1562C131.507 74.1562 130.775 73.9479 130.117 73.5312C129.459 73.1146 128.933 72.4896 128.54 71.6562C128.147 70.8229 127.951 69.7884 127.951 68.5526C127.951 67.2694 128.155 66.2135 128.562 65.3849C128.969 64.5563 129.502 63.9432 130.16 63.5455C130.823 63.1477 131.535 62.9489 132.298 62.9489C132.871 62.9489 133.361 63.0483 133.768 63.2472C134.175 63.4413 134.511 63.6922 134.776 64C135.041 64.3078 135.243 64.6274 135.38 64.9588H135.487V63.0909H138.924V78.0909H135.451ZM133.519 71.4503C133.941 71.4503 134.3 71.3319 134.599 71.0952C134.897 70.8537 135.127 70.5152 135.288 70.0795C135.449 69.6439 135.529 69.1326 135.529 68.5455C135.529 67.9489 135.449 67.4351 135.288 67.0043C135.131 66.5734 134.902 66.242 134.599 66.0099C134.3 65.7779 133.941 65.6619 133.519 65.6619C133.088 65.6619 132.724 65.7803 132.425 66.017C132.127 66.2538 131.9 66.5876 131.744 67.0185C131.592 67.4493 131.516 67.9583 131.516 68.5455C131.516 69.1326 131.594 69.6439 131.751 70.0795C131.907 70.5152 132.132 70.8537 132.425 71.0952C132.724 71.3319 133.088 71.4503 133.519 71.4503ZM144.196 74.1847C143.5 74.1847 142.882 74.0687 142.342 73.8366C141.807 73.5999 141.383 73.2448 141.071 72.7713C140.763 72.2931 140.609 71.6941 140.609 70.9744C140.609 70.3684 140.716 69.857 140.929 69.4403C141.142 69.0237 141.435 68.6851 141.809 68.4247C142.183 68.1643 142.614 67.9678 143.102 67.8352C143.59 67.6979 144.11 67.6056 144.664 67.5582C145.285 67.5014 145.784 67.4422 146.163 67.3807C146.542 67.3144 146.816 67.2221 146.987 67.1037C147.162 66.9806 147.25 66.8078 147.25 66.5852V66.5497C147.25 66.1851 147.124 65.9034 146.873 65.7045C146.622 65.5057 146.284 65.4062 145.858 65.4062C145.398 65.4062 145.029 65.5057 144.75 65.7045C144.47 65.9034 144.293 66.178 144.217 66.5284L141.014 66.4148C141.109 65.7519 141.352 65.16 141.745 64.6392C142.143 64.1136 142.688 63.7017 143.379 63.4034C144.075 63.1004 144.911 62.9489 145.886 62.9489C146.582 62.9489 147.224 63.0317 147.811 63.1974C148.398 63.3584 148.909 63.5952 149.345 63.9077C149.78 64.2154 150.117 64.5942 150.353 65.044C150.595 65.4938 150.716 66.0076 150.716 66.5852V74H147.449V72.4801H147.363C147.169 72.8494 146.921 73.1619 146.618 73.4176C146.319 73.6733 145.967 73.8651 145.559 73.9929C145.157 74.1207 144.702 74.1847 144.196 74.1847ZM145.268 71.9119C145.642 71.9119 145.978 71.8362 146.277 71.6847C146.58 71.5331 146.821 71.3248 147.001 71.0597C147.181 70.7898 147.271 70.4773 147.271 70.1222V69.0852C147.172 69.1373 147.051 69.1847 146.909 69.2273C146.771 69.2699 146.62 69.3101 146.454 69.348C146.288 69.3859 146.118 69.419 145.943 69.4474C145.768 69.4759 145.6 69.5019 145.439 69.5256C145.112 69.5777 144.833 69.6581 144.6 69.767C144.373 69.8759 144.198 70.018 144.075 70.1932C143.957 70.3636 143.897 70.5672 143.897 70.804C143.897 71.1638 144.025 71.4384 144.281 71.6278C144.541 71.8172 144.87 71.9119 145.268 71.9119ZM156.312 67.7784V74H152.839V59.4545H156.199V65.0938H156.319C156.565 64.4214 156.968 63.8958 157.527 63.517C158.09 63.1383 158.779 62.9489 159.593 62.9489C160.36 62.9489 161.028 63.1193 161.596 63.4602C162.164 63.7964 162.605 64.2723 162.917 64.8878C163.234 65.5033 163.391 66.223 163.386 67.0469V74H159.913V67.7287C159.918 67.1226 159.766 66.6491 159.458 66.3082C159.151 65.9673 158.717 65.7969 158.159 65.7969C157.794 65.7969 157.472 65.8774 157.193 66.0384C156.918 66.1946 156.703 66.4195 156.547 66.7131C156.395 67.0066 156.317 67.3617 156.312 67.7784ZM175.76 59.4545H179.226V69.5114C179.221 70.4536 178.996 71.2775 178.551 71.983C178.106 72.6837 177.491 73.2282 176.705 73.6165C175.923 74.0047 175.019 74.1989 173.991 74.1989C173.082 74.1989 172.256 74.0402 171.513 73.723C170.774 73.4058 170.185 72.9134 169.744 72.2457C169.309 71.5781 169.093 70.7235 169.098 69.6818H172.599C172.614 70.0559 172.685 70.3755 172.812 70.6406C172.945 70.901 173.127 71.0975 173.359 71.2301C173.591 71.3627 173.868 71.429 174.19 71.429C174.527 71.429 174.811 71.358 175.043 71.2159C175.275 71.0691 175.45 70.8537 175.568 70.5696C175.691 70.2855 175.755 69.9328 175.76 69.5114V59.4545ZM184.508 74.1847C183.812 74.1847 183.194 74.0687 182.654 73.8366C182.119 73.5999 181.696 73.2448 181.383 72.7713C181.075 72.2931 180.922 71.6941 180.922 70.9744C180.922 70.3684 181.028 69.857 181.241 69.4403C181.454 69.0237 181.748 68.6851 182.122 68.4247C182.496 68.1643 182.927 67.9678 183.414 67.8352C183.902 67.6979 184.423 67.6056 184.977 67.5582C185.597 67.5014 186.097 67.4422 186.475 67.3807C186.854 67.3144 187.129 67.2221 187.299 67.1037C187.475 66.9806 187.562 66.8078 187.562 66.5852V66.5497C187.562 66.1851 187.437 65.9034 187.186 65.7045C186.935 65.5057 186.596 65.4062 186.17 65.4062C185.711 65.4062 185.342 65.5057 185.062 65.7045C184.783 65.9034 184.605 66.178 184.529 66.5284L181.326 66.4148C181.421 65.7519 181.665 65.16 182.058 64.6392C182.456 64.1136 183 63.7017 183.691 63.4034C184.387 63.1004 185.223 62.9489 186.199 62.9489C186.895 62.9489 187.536 63.0317 188.123 63.1974C188.71 63.3584 189.222 63.5952 189.657 63.9077C190.093 64.2154 190.429 64.5942 190.666 65.044C190.907 65.4938 191.028 66.0076 191.028 66.5852V74H187.761V72.4801H187.676C187.482 72.8494 187.233 73.1619 186.93 73.4176C186.632 73.6733 186.279 73.8651 185.872 73.9929C185.469 74.1207 185.015 74.1847 184.508 74.1847ZM185.581 71.9119C185.955 71.9119 186.291 71.8362 186.589 71.6847C186.892 71.5331 187.134 71.3248 187.314 71.0597C187.493 70.7898 187.583 70.4773 187.583 70.1222V69.0852C187.484 69.1373 187.363 69.1847 187.221 69.2273C187.084 69.2699 186.932 69.3101 186.767 69.348C186.601 69.3859 186.431 69.419 186.255 69.4474C186.08 69.4759 185.912 69.5019 185.751 69.5256C185.424 69.5777 185.145 69.6581 184.913 69.767C184.686 69.8759 184.511 70.018 184.387 70.1932C184.269 70.3636 184.21 70.5672 184.21 70.804C184.21 71.1638 184.338 71.4384 184.593 71.6278C184.854 71.8172 185.183 71.9119 185.581 71.9119ZM193.152 74V63.0909H196.525V65.0795H196.639C196.838 64.3598 197.162 63.8248 197.612 63.4744C198.062 63.1193 198.585 62.9418 199.181 62.9418C199.342 62.9418 199.508 62.9536 199.679 62.9773C199.849 62.9962 200.008 63.027 200.154 63.0696V66.0881C199.989 66.0312 199.771 65.9863 199.501 65.9531C199.236 65.92 198.999 65.9034 198.791 65.9034C198.379 65.9034 198.007 65.9957 197.676 66.1804C197.349 66.3603 197.091 66.6136 196.902 66.9403C196.717 67.2623 196.625 67.6411 196.625 68.0767V74H193.152ZM201.57 74V63.0909H205.043V74H201.57ZM203.31 61.8196C202.822 61.8196 202.403 61.6586 202.053 61.3366C201.702 61.0099 201.527 60.617 201.527 60.1577C201.527 59.7031 201.702 59.3149 202.053 58.9929C202.403 58.6662 202.822 58.5028 203.31 58.5028C203.802 58.5028 204.221 58.6662 204.567 58.9929C204.917 59.3149 205.092 59.7031 205.092 60.1577C205.092 60.617 204.917 61.0099 204.567 61.3366C204.221 61.6586 203.802 61.8196 203.31 61.8196ZM209.377 78.0909C208.96 78.0909 208.567 78.0578 208.198 77.9915C207.828 77.9299 207.511 77.8471 207.246 77.7429L208.013 75.2216C208.354 75.3352 208.662 75.4015 208.936 75.4205C209.216 75.4394 209.455 75.3944 209.654 75.2855C209.857 75.1813 210.014 74.9943 210.123 74.7244L210.257 74.3977L206.38 63.0909H210.016L212.026 70.875H212.14L214.178 63.0909H217.836L213.723 75.044C213.525 75.6406 213.243 76.1662 212.878 76.6207C212.518 77.08 212.052 77.4399 211.479 77.7003C210.911 77.9607 210.21 78.0909 209.377 78.0909ZM221.95 74.1847C221.254 74.1847 220.636 74.0687 220.096 73.8366C219.561 73.5999 219.137 73.2448 218.825 72.7713C218.517 72.2931 218.363 71.6941 218.363 70.9744C218.363 70.3684 218.469 69.857 218.683 69.4403C218.896 69.0237 219.189 68.6851 219.563 68.4247C219.937 68.1643 220.368 67.9678 220.856 67.8352C221.344 67.6979 221.864 67.6056 222.418 67.5582C223.039 67.5014 223.538 67.4422 223.917 67.3807C224.296 67.3144 224.57 67.2221 224.741 67.1037C224.916 66.9806 225.004 66.8078 225.004 66.5852V66.5497C225.004 66.1851 224.878 65.9034 224.627 65.7045C224.376 65.5057 224.038 65.4062 223.612 65.4062C223.152 65.4062 222.783 65.5057 222.504 65.7045C222.224 65.9034 222.047 66.178 221.971 66.5284L218.768 66.4148C218.862 65.7519 219.106 65.16 219.499 64.6392C219.897 64.1136 220.442 63.7017 221.133 63.4034C221.829 63.1004 222.665 62.9489 223.64 62.9489C224.336 62.9489 224.978 63.0317 225.565 63.1974C226.152 63.3584 226.663 63.5952 227.099 63.9077C227.534 64.2154 227.871 64.5942 228.107 65.044C228.349 65.4938 228.469 66.0076 228.469 66.5852V74H225.202V72.4801H225.117C224.923 72.8494 224.674 73.1619 224.371 73.4176C224.073 73.6733 223.72 73.8651 223.313 73.9929C222.911 74.1207 222.456 74.1847 221.95 74.1847ZM223.022 71.9119C223.396 71.9119 223.732 71.8362 224.031 71.6847C224.334 71.5331 224.575 71.3248 224.755 71.0597C224.935 70.7898 225.025 70.4773 225.025 70.1222V69.0852C224.925 69.1373 224.805 69.1847 224.663 69.2273C224.525 69.2699 224.374 69.3101 224.208 69.348C224.042 69.3859 223.872 69.419 223.697 69.4474C223.522 69.4759 223.353 69.5019 223.192 69.5256C222.866 69.5777 222.586 69.6581 222.354 69.767C222.127 69.8759 221.952 70.018 221.829 70.1932C221.71 70.3636 221.651 70.5672 221.651 70.804C221.651 71.1638 221.779 71.4384 222.035 71.6278C222.295 71.8172 222.624 71.9119 223.022 71.9119ZM234.066 67.7784V74H230.593V59.4545H233.952V65.0938H234.073C234.319 64.4214 234.722 63.8958 235.281 63.517C235.844 63.1383 236.533 62.9489 237.347 62.9489C238.114 62.9489 238.782 63.1193 239.35 63.4602C239.918 63.7964 240.359 64.2723 240.671 64.8878C240.988 65.5033 241.145 66.223 241.14 67.0469V74H237.667V67.7287C237.672 67.1226 237.52 66.6491 237.212 66.3082C236.905 65.9673 236.471 65.7969 235.913 65.7969C235.548 65.7969 235.226 65.8774 234.947 66.0384C234.672 66.1946 234.457 66.4195 234.3 66.7131C234.149 67.0066 234.071 67.3617 234.066 67.7784Z" fill="#614730"/>
<g clip-path="url(#clip2_3034_104003)">
<path d="M7.01687 77.4652C4.10079 78.1256 1.90205 80.7226 0.739687 83.3684C0.430807 84.1081 0.203211 84.8742 0 85.6505V101.724C0.0203211 101.692 0.0426743 101.661 0.0629953 101.629C1.69681 98.3268 1.52205 95.9756 4.99492 93.6163C7.92725 91.7041 10.4714 88.977 11.0587 85.4107C11.8858 82.1268 11.4326 76.7438 7.01687 77.4652Z" fill="#EEE8E0"/>
<path d="M13.6151 92.2628C10.8332 93.6649 9.42288 96.5871 7.23227 98.6294C5.67771 99.8974 3.57651 100.357 2.04633 101.655C1.21114 102.421 0.528348 103.352 0 104.368V107.174C1.12985 106.284 2.63361 105.86 4.03983 105.488C6.38691 104.772 8.96972 102.954 11.3432 102.334C25.3465 99.7735 24.4991 87.215 13.6131 92.2628H13.6151Z" fill="#EEE8E0"/>
<path d="M16.3544 95.3037C8.92705 100.601 3.68827 102.166 0 106.651V107.403C2.39179 104.273 6.02723 102.38 9.41272 100.449C11.6155 99.1302 13.7309 97.663 15.7692 96.1023C16.0923 95.8341 16.96 95.2976 16.3544 95.3057V95.3037Z" fill="#CFC4B9"/>
<path d="M0 97.0491C1.94066 92.9402 4.21256 88.8211 6.37269 84.1554C6.42552 84.0274 6.23044 83.9034 6.15525 84.0314C5.11685 85.7831 4.19833 87.612 3.26966 89.4226C2.23329 91.5705 1.09327 93.6839 0 95.8176V97.0511V97.0491Z" fill="#CFC4B9"/>
</g>
<g clip-path="url(#clip3_3034_104003)">
<path d="M297.746 7.46578C295.807 7.00951 293.28 9.01862 291.542 12.1818C289.212 9.43654 286.339 7.97956 284.529 8.81924C282.325 9.84296 282.53 13.8918 284.989 17.8602C287.182 21.403 292.669 23.4044 292.669 23.4044C292.669 23.4044 297.648 20.3294 299.093 16.4147C300.714 12.0284 300.11 8.02173 297.746 7.46578Z" fill="#EEE8E0"/>
</g>
<g clip-path="url(#clip4_3034_104003)">
<path d="M69.1442 84.4537C67.5473 84.083 65.466 85.7154 64.0348 88.2855C62.116 86.0549 59.7504 84.8711 58.2598 85.5534C56.4442 86.3852 56.6129 89.6749 58.6379 92.8992C60.4442 95.7777 64.9629 97.4039 64.9629 97.4039C64.9629 97.4039 69.0629 94.9054 70.2535 91.7247C71.5879 88.1609 71.091 84.9054 69.1442 84.4537Z" fill="#EEE8E0"/>
</g>
<g clip-path="url(#clip5_3034_104003)">
<path d="M47.5418 8.44162C46.2871 8.15646 44.6518 9.41215 43.5273 11.3891C42.0197 9.67335 40.161 8.76274 38.9898 9.28754C37.5632 9.92737 37.6958 12.4579 39.2869 14.9381C40.7061 17.1524 44.2565 18.4033 44.2565 18.4033C44.2565 18.4033 47.4779 16.4814 48.4134 14.0347C49.4619 11.2933 49.0715 8.7891 47.5418 8.44162Z" fill="#EEE8E0"/>
</g>
<g clip-path="url(#clip6_3034_104003)">
<path d="M251.057 20.3437L255 21.9004L251.057 23.4571L249.5 27.4004L247.943 23.4571L244 21.9004L247.943 20.3437L249.5 16.4004L251.057 20.3437Z" fill="#FAFAFA"/>
</g>
<g clip-path="url(#clip7_3034_104003)">
<path d="M182.057 93.3437L186 94.9004L182.057 96.4571L180.5 100.4L178.943 96.4571L175 94.9004L178.943 93.3437L180.5 89.4004L182.057 93.3437Z" fill="#FAFAFA"/>
</g>
<g clip-path="url(#clip8_3034_104003)">
<path d="M45.0567 44.3437L49 45.9004L45.0567 47.4571L43.5 51.4004L41.9433 47.4571L38 45.9004L41.9433 44.3437L43.5 40.4004L45.0567 44.3437Z" fill="#FAFAFA"/>
</g>
</g>
<defs>
<clipPath id="clip0_3034_104003">
<rect width="320" height="104" rx="14" fill="white"/>
</clipPath>
<clipPath id="clip1_3034_104003">
<rect width="41.6147" height="60" fill="white" transform="matrix(-1 0 0 1 320 44.4004)"/>
</clipPath>
<clipPath id="clip2_3034_104003">
<rect width="21.8208" height="30" fill="white" transform="translate(0 77.4004)"/>
</clipPath>
<clipPath id="clip3_3034_104003">
<rect width="17" height="16" fill="white" transform="translate(283 7.40039)"/>
</clipPath>
<clipPath id="clip4_3034_104003">
<rect width="14" height="13" fill="white" transform="translate(57 84.4004)"/>
</clipPath>
<clipPath id="clip5_3034_104003">
<rect width="11" height="10" fill="white" transform="translate(38 8.40039)"/>
</clipPath>
<clipPath id="clip6_3034_104003">
<rect width="11" height="11" fill="white" transform="translate(244 16.4004)"/>
</clipPath>
<clipPath id="clip7_3034_104003">
<rect width="11" height="11" fill="white" transform="translate(175 89.4004)"/>
</clipPath>
<clipPath id="clip8_3034_104003">
<rect width="11" height="11" fill="white" transform="translate(38 40.4004)"/>
</clipPath>
</defs>
</svg>
