<svg width="380" height="44" viewBox="0 0 380 44" fill="none" xmlns="http://www.w3.org/2000/svg">
<g clip-path="url(#clip0_6418_5691)">
<path d="M193.874 5.1936H276.767C276.878 5.27802 276.987 5.36245 277.096 5.44687C278.001 6.12223 278.864 6.88202 279.687 7.72623C280.016 8.06392 280.331 8.41595 280.632 8.7815C284.005 8.89378 286.897 10.2031 289.31 12.7071C289.995 13.4103 290.598 14.1701 291.119 14.9864C291.567 15.6846 291.944 16.4165 292.25 17.1814C292.848 18.7001 293.157 20.3463 293.176 22.12M349.107 13.6788C349.354 13.6788 349.601 13.6788 349.848 13.6788C351.164 13.7345 352.452 13.8898 353.713 14.1431C355.468 14.5086 357.126 15.0996 358.69 15.9159C360.718 16.9568 362.583 18.3498 364.283 20.0948C364.968 20.798 365.585 21.5164 366.133 22.2475C369.121 18.3928 370.616 13.8907 370.616 8.74013H339.319C335.809 8.82455 332.808 10.1474 330.313 12.7079C329.654 13.3833 329.079 14.1152 328.585 14.9029M325.748 12.7915C326.076 12.2807 326.432 11.7886 326.818 11.3141C327.146 10.9199 327.489 10.54 327.846 10.1744C328.367 9.66792 328.902 9.18925 329.449 8.73929H320.032C320.58 9.18925 321.102 9.66792 321.594 10.1744C322.911 11.5252 323.966 12.9882 324.762 14.5643C325.885 16.8158 326.461 19.3063 326.489 22.0356V22.543C326.543 25.2166 327.243 27.5939 328.587 29.6765C329.081 30.4363 329.656 31.1539 330.315 31.8301C332.809 34.3906 335.811 35.7135 339.32 35.7971L370.618 35.754C370.618 30.633 369.123 26.1317 366.135 22.2466C365.586 22.9786 364.969 23.6826 364.284 24.3572C362.585 26.1317 360.734 27.5508 358.732 28.6213C357.142 29.4376 355.483 30.0277 353.756 30.3941C352.494 30.6482 351.192 30.8027 349.849 30.8593C349.602 30.8593 349.355 30.8593 349.109 30.8593M293.177 22.2897C293.177 22.234 293.177 22.1766 293.177 22.1209C293.175 22.1757 293.175 22.2323 293.177 22.2897ZM293.177 22.2897C293.177 24.1841 293.436 25.9713 293.958 27.6496C294.213 28.4626 294.527 29.2502 294.903 30.0142C295.671 31.5608 296.713 33.0103 298.029 34.3619C301.182 37.5969 304.979 39.2718 309.421 39.3841H374.4M374.4 5.1936H309.421C304.98 5.30588 301.182 6.96644 298.029 10.1744C296.713 11.5252 295.671 13.0025 294.903 14.6065M291.12 29.5921C290.599 30.3806 289.996 31.1252 289.311 31.8293C286.898 34.3324 284.006 35.6561 280.633 35.7962C280.331 36.1339 280.016 36.4724 279.687 36.8084C278.838 37.6805 277.96 38.4555 277.055 39.13C276.946 39.2161 276.836 39.2997 276.727 39.3841H193.448H196.697M324.72 30.0556C323.952 31.6039 322.911 33.0382 321.594 34.3627C321.101 34.8693 320.593 35.3471 320.073 35.7971H329.408C328.86 35.3471 328.339 34.8684 327.846 34.3627C327.489 33.9964 327.16 33.6308 326.859 33.2644C326.511 32.8389 326.19 32.4084 325.893 31.977M197.395 5.1936H196.737" stroke="#E5D5C3" stroke-width="0.75" stroke-miterlimit="10"/>
<path d="M193.447 42.8884H375.469C377.662 42.8884 378.759 41.7622 378.759 39.5116V4.22358C378.759 1.97207 377.662 0.846741 375.469 0.846741H193.447" stroke="#E5D5C3" stroke-width="0.75" stroke-miterlimit="10"/>
<path d="M289.347 31.8292C290.005 31.153 290.58 30.4363 291.075 29.6756C292.418 27.593 293.117 25.2157 293.172 22.542V22.0347C293.199 19.3053 293.775 16.8149 294.899 14.5634C295.695 12.9873 296.75 11.5243 298.067 10.1735" stroke="#E5D5C3" stroke-width="0.75" stroke-miterlimit="10"/>
<path fill-rule="evenodd" clip-rule="evenodd" d="M295.685 7.72623C296.618 6.76974 297.605 5.92553 298.647 5.1936H280.428C284.842 5.30588 288.612 6.96644 291.738 10.1744C292.122 10.5687 292.492 10.9764 292.848 11.3985C293.616 10.1044 294.562 8.88027 295.685 7.72623Z" stroke="#E5D5C3" stroke-width="0.75" stroke-miterlimit="10"/>
<path fill-rule="evenodd" clip-rule="evenodd" d="M295.685 36.8093C294.562 35.6569 293.615 34.4463 292.848 33.18C292.491 33.5742 292.121 33.9685 291.737 34.3619C288.612 37.5969 284.841 39.2718 280.428 39.3841H298.687C297.646 38.6522 296.645 37.7953 295.685 36.8093Z" stroke="#E5D5C3" stroke-width="0.75" stroke-miterlimit="10"/>
<path fill-rule="evenodd" clip-rule="evenodd" d="M370.698 22.1622C373.001 25.9324 374.235 30.1535 374.4 34.8253V9.20355C374.289 13.3689 373.357 17.1678 371.603 20.6004C371.329 21.1356 371.028 21.6556 370.698 22.1622Z" stroke="#E5D5C3" stroke-width="0.75" stroke-miterlimit="10"/>
<path d="M367.614 11.3985C367.614 11.3985 367.409 14.2832 365.969 17.0969C365.969 17.0969 362.473 12.6648 355.482 11.4686" stroke="#E5D5C3" stroke-width="0.75" stroke-miterlimit="10"/>
<path d="M367.614 33.2079C367.614 33.2079 367.409 30.3241 365.969 27.5095C365.97 27.5078 362.473 31.9416 355.482 33.137" stroke="#E5D5C3" stroke-width="0.75" stroke-miterlimit="10"/>
<path fill-rule="evenodd" clip-rule="evenodd" d="M336.344 22.277C336.344 18.4688 337.901 15.0413 340.389 12.6058C340.098 12.5779 339.803 12.5602 339.505 12.5602C334.277 12.5602 330.039 16.9104 330.039 22.277C330.039 27.6428 334.276 31.9922 339.505 31.9922C339.803 31.9922 340.098 31.9745 340.389 31.9458C337.901 29.5111 336.344 26.0844 336.344 22.277Z" stroke="#E5D5C3" stroke-width="0.75" stroke-miterlimit="10"/>
<path d="M340.389 12.6057C337.902 15.0413 336.345 18.4688 336.345 22.277C336.345 26.0844 337.902 29.511 340.389 31.9466" stroke="#E5D5C3" stroke-width="0.75" stroke-miterlimit="10"/>
<path fill-rule="evenodd" clip-rule="evenodd" d="M310.711 13.4863C311.271 14.4259 311.55 15.5478 311.55 16.853C311.55 17.427 311.499 17.9758 311.397 18.4975C311.652 18.0796 311.982 17.6626 312.389 17.2455C313.304 16.3051 314.258 15.6922 315.25 15.4051C315.784 15.2743 316.242 15.2743 316.624 15.4051C316.7 15.7445 316.675 16.1886 316.547 16.7365C316.318 17.8069 315.745 18.8115 314.83 19.7511C314.423 20.169 314.017 20.5075 313.61 20.7693C314.093 20.6646 314.627 20.6122 315.212 20.6122C316.484 20.6122 317.578 20.8739 318.492 21.3957C318.976 21.6827 319.295 22.0086 319.446 22.3749C319.294 22.6881 318.976 22.9878 318.492 23.2749C317.578 23.8506 316.484 24.1368 315.212 24.1368C314.627 24.1368 314.093 24.0845 313.61 23.9798C314.042 24.2668 314.462 24.6197 314.869 25.0367C315.784 25.9763 316.382 26.9539 316.663 27.9737C316.789 28.5208 316.789 28.991 316.663 29.3836C316.332 29.4612 315.898 29.4351 315.365 29.3042C314.323 29.0704 313.343 28.4828 312.428 27.5432C311.996 27.0983 311.653 26.6542 311.398 26.211C311.5 26.7336 311.551 27.2941 311.551 27.8944C311.551 29.2004 311.297 30.3232 310.788 31.2611C310.509 31.7575 310.189 32.0842 309.834 32.2404C309.529 32.0834 309.236 31.7575 308.956 31.2611C308.396 30.3232 308.117 29.2004 308.117 27.8944C308.117 27.2941 308.181 26.7471 308.308 26.2507C308.002 26.6939 307.647 27.1245 307.239 27.5432C306.324 28.4828 305.37 29.0965 304.378 29.3836C303.845 29.5136 303.386 29.5136 303.004 29.3836C302.928 29.0442 302.954 28.6001 303.081 28.0514C303.31 26.9809 303.882 25.9772 304.799 25.0376C305.231 24.5944 305.663 24.2415 306.094 23.9806C305.587 24.0845 305.04 24.1376 304.455 24.1376C303.183 24.1376 302.089 23.8751 301.175 23.3542C300.69 23.0672 300.372 22.7413 300.221 22.3749C300.373 22.0617 300.69 21.7612 301.175 21.475C302.089 20.9001 303.183 20.6131 304.455 20.6131C305.04 20.6131 305.573 20.6781 306.056 20.8081C305.624 20.4949 305.205 20.1293 304.799 19.7123C303.882 18.7719 303.284 17.7934 303.004 16.7753C302.878 16.2274 302.878 15.7572 303.004 15.3663C303.335 15.2886 303.768 15.314 304.301 15.4448C305.344 15.6795 306.324 16.2671 307.238 17.2067C307.671 17.6507 308.014 18.0939 308.269 18.538C308.167 18.0154 308.116 17.454 308.116 16.8538C308.116 15.5487 308.37 14.4267 308.879 13.4871C309.158 12.9907 309.477 12.6648 309.832 12.5078C310.138 12.6631 310.43 12.9899 310.711 13.4863Z" stroke="#E5D5C3" stroke-width="0.75" stroke-miterlimit="10"/>
<path d="M308.268 18.5372C308.599 19.0589 308.815 19.6076 308.917 20.1817C308.917 20.207 308.93 20.2467 308.954 20.2991C308.955 20.3261 308.969 20.3514 308.993 20.3776C309.248 20.2467 309.527 20.1826 309.833 20.1826C310.112 20.1826 310.367 20.2349 310.596 20.3387C310.596 20.2602 310.608 20.1952 310.635 20.1429C310.788 19.5688 311.04 19.0209 311.397 18.4984" stroke="#E5D5C3" stroke-width="0.75" stroke-miterlimit="10"/>
<path d="M306.056 20.8073C306.565 21.1466 307.087 21.3822 307.62 21.5122C307.696 21.5375 307.773 21.551 307.849 21.551C307.849 21.5763 307.875 21.5898 307.925 21.5898C308.002 21.2758 308.154 21.0023 308.383 20.7676C308.561 20.5844 308.752 20.4535 308.955 20.3759C308.955 20.3505 308.955 20.3244 308.955 20.2974" stroke="#E5D5C3" stroke-width="0.75" stroke-miterlimit="10"/>
<path d="M308.955 20.3767H308.992" stroke="#E5D5C3" stroke-width="0.75" stroke-miterlimit="10"/>
<path d="M306.094 23.9789C306.603 23.6395 307.137 23.4167 307.696 23.3128C307.722 23.3128 307.76 23.3128 307.81 23.3128C307.862 23.2605 307.925 23.209 308.001 23.1558C307.875 22.8949 307.81 22.5944 307.81 22.2559C307.81 22.0203 307.849 21.7983 307.925 21.5898" stroke="#E5D5C3" stroke-width="0.75" stroke-miterlimit="10"/>
<path d="M307.809 23.3128C307.886 23.2867 307.962 23.2605 308.039 23.2335C308.013 23.209 308 23.182 308 23.1558" stroke="#E5D5C3" stroke-width="0.75" stroke-miterlimit="10"/>
<path d="M310.596 20.3379C310.824 20.4164 311.04 20.5599 311.244 20.7684C311.473 21.0031 311.638 21.264 311.741 21.5519C311.765 21.5257 311.791 21.513 311.817 21.513C311.843 21.4869 311.88 21.4742 311.931 21.4742C312.516 21.3433 313.076 21.1087 313.61 20.7693" stroke="#E5D5C3" stroke-width="0.75" stroke-miterlimit="10"/>
<path d="M311.741 21.5518C311.817 21.7603 311.856 21.995 311.856 22.2567C311.856 22.5699 311.805 22.8435 311.703 23.0773C311.727 23.1296 311.778 23.1693 311.856 23.1963C311.906 23.1963 311.97 23.2098 312.046 23.2343C312.579 23.366 313.1 23.6134 313.609 23.9798" stroke="#E5D5C3" stroke-width="0.75" stroke-miterlimit="10"/>
<path d="M311.855 23.1964C311.777 23.1964 311.714 23.1828 311.664 23.1567C311.562 23.366 311.422 23.5492 311.243 23.7054C311.066 23.8869 310.875 24.0431 310.672 24.174C310.697 24.2533 310.723 24.3571 310.748 24.4872C310.748 24.5133 310.748 24.5395 310.748 24.5665C310.849 25.1406 311.067 25.6893 311.396 26.2102" stroke="#E5D5C3" stroke-width="0.75" stroke-miterlimit="10"/>
<path d="M311.703 23.0773C311.677 23.1035 311.664 23.1297 311.664 23.1567" stroke="#E5D5C3" stroke-width="0.75" stroke-miterlimit="10"/>
<path d="M310.749 24.4871C310.672 24.3833 310.608 24.293 310.559 24.2136C310.329 24.293 310.088 24.331 309.833 24.331C309.605 24.331 309.388 24.293 309.186 24.2136C309.134 24.293 309.083 24.3706 309.032 24.4492C309.032 24.5007 309.019 24.5665 308.993 24.6433C308.867 25.1921 308.637 25.7264 308.307 26.249" stroke="#E5D5C3" stroke-width="0.75" stroke-miterlimit="10"/>
<path d="M310.671 24.174C310.621 24.174 310.583 24.1875 310.557 24.2137" stroke="#E5D5C3" stroke-width="0.75" stroke-miterlimit="10"/>
<path d="M309.032 24.4492C309.058 24.3437 309.07 24.2533 309.07 24.174C308.816 24.0701 308.587 23.9131 308.383 23.7054C308.257 23.5737 308.141 23.4167 308.041 23.2335" stroke="#E5D5C3" stroke-width="0.75" stroke-miterlimit="10"/>
<path d="M309.185 24.2136C309.133 24.2136 309.095 24.2001 309.069 24.174" stroke="#E5D5C3" stroke-width="0.75" stroke-miterlimit="10"/>
<path fill-rule="evenodd" clip-rule="evenodd" d="M319.127 12.7071C321.649 15.2963 322.939 18.4055 322.993 22.0356V22.543C322.939 26.1723 321.649 29.2671 319.127 31.8293C316.577 34.4742 313.48 35.7962 309.833 35.7962C306.186 35.7962 303.074 34.4742 300.497 31.8293C297.947 29.2106 296.673 26.0321 296.673 22.2897C296.673 18.5465 297.948 15.3529 300.497 12.7071C303.074 10.0622 306.186 8.73932 309.833 8.73932C313.48 8.73932 316.578 10.0622 319.127 12.7071Z" stroke="#E5D5C3" stroke-width="0.75" stroke-miterlimit="10"/>
<path d="M356.523 26.7606C357.303 25.4529 357.761 23.9215 357.761 22.277C357.761 20.6316 357.303 19.0994 356.523 17.7925" stroke="#E5D5C3" stroke-width="0.75" stroke-miterlimit="10"/>
<path d="M349.374 13.6846C344.751 13.6846 341.004 17.5309 341.004 22.2762C341.004 27.0215 344.751 30.8677 349.374 30.8677" stroke="#E5D5C3" stroke-width="0.75" stroke-miterlimit="10"/>
<path d="M349.375 26.7868C351.802 26.7868 353.77 24.7673 353.77 22.2762C353.77 19.785 351.802 17.7656 349.375 17.7656C346.948 17.7656 344.98 19.785 344.98 22.2762C344.98 24.7673 346.948 26.7868 349.375 26.7868Z" stroke="#E5D5C3" stroke-width="0.75" stroke-miterlimit="10"/>
<path d="M309.872 24.309C310.96 24.309 311.843 23.4034 311.843 22.2863C311.843 21.1692 310.96 20.2635 309.872 20.2635C308.784 20.2635 307.901 21.1692 307.901 22.2863C307.901 23.4034 308.784 24.309 309.872 24.309Z" stroke="#E5D5C3" stroke-width="0.75" stroke-miterlimit="10"/>
<path fill-rule="evenodd" clip-rule="evenodd" d="M313.866 12.9975H313.904C314.03 13.1537 314.094 13.3233 314.094 13.5057C314.094 13.531 314.094 13.5707 314.094 13.623C314.069 13.7531 314.005 13.8704 313.904 13.9751C313.777 14.1313 313.624 14.2098 313.447 14.2098C313.244 14.2098 313.079 14.1313 312.951 13.9751C312.825 13.8451 312.761 13.6889 312.761 13.5065C312.761 13.3242 312.825 13.1545 312.951 12.9983C313.078 12.8683 313.243 12.8033 313.447 12.8033C313.624 12.8016 313.764 12.8666 313.866 12.9975Z" stroke="#E5D5C3" stroke-width="0.75" stroke-miterlimit="10"/>
<path fill-rule="evenodd" clip-rule="evenodd" d="M305.757 12.9578C305.883 12.8269 306.036 12.7754 306.214 12.8016L306.252 12.7628C306.43 12.7889 306.582 12.8666 306.71 12.9966C306.735 13.0228 306.76 13.0489 306.786 13.0743C306.861 13.2043 306.901 13.3216 306.901 13.4255C306.925 13.6602 306.874 13.8433 306.748 13.9725C306.621 14.1025 306.442 14.1549 306.215 14.1287C306.037 14.1549 305.885 14.1025 305.758 13.9725C305.631 13.8425 305.568 13.6728 305.568 13.4651C305.567 13.2575 305.63 13.0878 305.757 12.9578Z" stroke="#E5D5C3" stroke-width="0.75" stroke-miterlimit="10"/>
<path fill-rule="evenodd" clip-rule="evenodd" d="M301.303 17.9977C301.431 18.0239 301.545 18.0889 301.646 18.1936C301.799 18.3236 301.874 18.4798 301.874 18.6621C301.874 18.8707 301.798 19.0395 301.646 19.1703C301.52 19.3004 301.367 19.3654 301.19 19.3654C301.011 19.3654 300.846 19.3004 300.694 19.1703C300.568 19.0403 300.504 18.8707 300.504 18.6621C300.504 18.4798 300.568 18.3363 300.694 18.2324V18.1936C300.846 18.0636 301.011 17.9977 301.19 17.9977C301.215 17.9977 301.254 17.9977 301.303 17.9977Z" stroke="#E5D5C3" stroke-width="0.75" stroke-miterlimit="10"/>
<path fill-rule="evenodd" clip-rule="evenodd" d="M300.771 25.4994C300.897 25.42 301.012 25.382 301.114 25.382C301.342 25.3559 301.519 25.4065 301.646 25.5374C301.773 25.6674 301.824 25.8506 301.799 26.0844C301.824 26.2676 301.774 26.4221 301.646 26.553C301.519 26.683 301.354 26.7488 301.151 26.7488C300.948 26.7488 300.782 26.683 300.656 26.553C300.529 26.4229 300.479 26.2676 300.503 26.0844L300.465 26.0464C300.49 25.8632 300.567 25.7071 300.693 25.5762C300.72 25.5509 300.745 25.5239 300.771 25.4994Z" stroke="#E5D5C3" stroke-width="0.75" stroke-miterlimit="10"/>
<path fill-rule="evenodd" clip-rule="evenodd" d="M306.9 31.2425C306.9 31.424 306.835 31.5937 306.71 31.7507C306.582 31.8807 306.418 31.9449 306.214 31.9449C306.036 31.9449 305.895 31.8807 305.795 31.7507H305.757C305.63 31.5937 305.567 31.424 305.567 31.2425C305.567 31.2163 305.567 31.1766 305.567 31.1251C305.592 30.9951 305.655 30.8778 305.757 30.7739C305.883 30.6169 306.036 30.5401 306.214 30.5401C306.417 30.5401 306.581 30.6178 306.71 30.7739C306.835 30.904 306.9 31.0593 306.9 31.2425Z" stroke="#E5D5C3" stroke-width="0.75" stroke-miterlimit="10"/>
<path fill-rule="evenodd" clip-rule="evenodd" d="M318.47 18.0374C318.674 18.0374 318.839 18.1024 318.966 18.2324C319.093 18.3624 319.143 18.5195 319.119 18.701L319.157 18.7406C319.132 18.923 319.054 19.0792 318.929 19.21C318.904 19.2353 318.878 19.2624 318.851 19.2877C318.726 19.3662 318.612 19.405 318.51 19.405C318.281 19.4312 318.104 19.3789 317.978 19.2489C317.85 19.1188 317.799 18.9357 317.825 18.7018C317.799 18.5203 317.849 18.3633 317.978 18.2333C318.103 18.1016 318.267 18.0374 318.47 18.0374Z" stroke="#E5D5C3" stroke-width="0.75" stroke-miterlimit="10"/>
<path fill-rule="evenodd" clip-rule="evenodd" d="M312.762 31.3219C312.737 31.0863 312.787 30.9048 312.914 30.7748C313.041 30.6448 313.219 30.5916 313.448 30.6178C313.625 30.5916 313.777 30.644 313.904 30.7748C314.032 30.9057 314.094 31.0737 314.094 31.283C314.094 31.4907 314.031 31.6604 313.904 31.7896C313.778 31.9213 313.625 31.9728 313.448 31.9466L313.409 31.9863C313.231 31.9601 313.079 31.8824 312.952 31.7524C312.927 31.7263 312.901 31.7001 312.875 31.6748C312.8 31.5422 312.762 31.424 312.762 31.3219Z" stroke="#E5D5C3" stroke-width="0.75" stroke-miterlimit="10"/>
<path fill-rule="evenodd" clip-rule="evenodd" d="M319.156 26.0844C319.156 26.2676 319.093 26.4111 318.966 26.5149V26.5529C318.813 26.6829 318.649 26.7488 318.47 26.7488C318.446 26.7488 318.408 26.7488 318.357 26.7488C318.23 26.7226 318.116 26.6585 318.014 26.5529C317.862 26.4229 317.786 26.2676 317.786 26.0844C317.786 25.8767 317.863 25.707 318.014 25.5762C318.141 25.4462 318.294 25.382 318.47 25.382C318.649 25.382 318.813 25.4462 318.966 25.5762C319.093 25.707 319.156 25.8767 319.156 26.0844Z" stroke="#E5D5C3" stroke-width="0.75" stroke-miterlimit="10"/>
<path fill-rule="evenodd" clip-rule="evenodd" d="M349.417 21.6776C349.621 21.6776 349.786 21.7426 349.913 21.8726C350.04 22.0026 350.09 22.1588 350.066 22.3412L350.104 22.3808C350.079 22.5632 350.001 22.7194 349.876 22.8494C349.851 22.8755 349.825 22.9017 349.798 22.927C349.673 23.0064 349.559 23.0444 349.457 23.0444C349.228 23.0706 349.051 23.0182 348.925 22.8891C348.797 22.7582 348.746 22.5759 348.772 22.3412C348.746 22.1588 348.796 22.0026 348.925 21.8726C349.05 21.7426 349.214 21.6776 349.417 21.6776Z" stroke="#E5D5C3" stroke-width="0.75" stroke-miterlimit="10"/>
<path fill-rule="evenodd" clip-rule="evenodd" d="M332.967 21.6776C333.17 21.6776 333.336 21.7426 333.462 21.8726C333.59 22.0026 333.64 22.1588 333.616 22.3412L333.654 22.3808C333.628 22.5632 333.551 22.7194 333.425 22.8494C333.401 22.8755 333.375 22.9017 333.348 22.927C333.223 23.0064 333.109 23.0444 333.007 23.0444C332.778 23.0706 332.6 23.0182 332.474 22.8891C332.347 22.7582 332.296 22.5759 332.321 22.3412C332.296 22.1588 332.346 22.0026 332.474 21.8726C332.6 21.7426 332.764 21.6776 332.967 21.6776Z" stroke="#E5D5C3" stroke-width="0.75" stroke-miterlimit="10"/>
<path fill-rule="evenodd" clip-rule="evenodd" d="M364.36 11.266C364.563 11.266 364.728 11.331 364.855 11.461C364.983 11.591 365.033 11.748 365.009 11.9295L365.047 11.9692C365.021 12.1516 364.944 12.3077 364.818 12.4386C364.793 12.4639 364.768 12.4909 364.741 12.5163C364.616 12.5948 364.501 12.6336 364.399 12.6336C364.171 12.6598 363.993 12.6074 363.867 12.4774C363.74 12.3474 363.689 12.1642 363.714 11.9304C363.689 11.7489 363.739 11.5919 363.867 11.4618C363.992 11.3302 364.157 11.266 364.36 11.266Z" stroke="#E5D5C3" stroke-width="0.75" stroke-miterlimit="10"/>
<path fill-rule="evenodd" clip-rule="evenodd" d="M292.459 6.76294C292.662 6.76294 292.827 6.82794 292.954 6.95795C293.081 7.08796 293.131 7.24498 293.107 7.42649L293.145 7.46617C293.12 7.64852 293.043 7.80469 292.917 7.93555C292.892 7.96087 292.867 7.98789 292.839 8.01321C292.714 8.09173 292.6 8.13056 292.498 8.13056C292.269 8.15673 292.092 8.10439 291.966 7.97438C291.838 7.84437 291.787 7.66118 291.813 7.42733C291.787 7.24583 291.838 7.0888 291.966 6.9588C292.091 6.82794 292.255 6.76294 292.459 6.76294Z" stroke="#E5D5C3" stroke-width="0.75" stroke-miterlimit="10"/>
<path fill-rule="evenodd" clip-rule="evenodd" d="M292.459 36.4513C292.662 36.4513 292.827 36.5155 292.954 36.6455C293.081 36.7755 293.131 36.9325 293.107 37.114L293.145 37.1537C293.12 37.3369 293.043 37.493 292.917 37.6239C292.892 37.6484 292.867 37.6754 292.839 37.7016C292.714 37.7792 292.6 37.8189 292.498 37.8189C292.269 37.8451 292.092 37.7927 291.966 37.6619C291.838 37.5319 291.787 37.3504 291.813 37.1148C291.787 36.9333 291.838 36.7772 291.966 36.6463C292.091 36.5155 292.255 36.4513 292.459 36.4513Z" stroke="#E5D5C3" stroke-width="0.75" stroke-miterlimit="10"/>
<path fill-rule="evenodd" clip-rule="evenodd" d="M364.36 32.0192C364.563 32.0192 364.728 32.0834 364.855 32.2134C364.983 32.3434 365.033 32.5004 365.009 32.6819L365.047 32.7216C365.021 32.9048 364.944 33.061 364.818 33.1918C364.793 33.2163 364.768 33.2433 364.741 33.2695C364.616 33.3472 364.501 33.3868 364.399 33.3868C364.171 33.413 363.993 33.3607 363.867 33.2298C363.74 33.0998 363.689 32.9183 363.714 32.6828C363.689 32.5013 363.739 32.3451 363.867 32.2142C363.992 32.0834 364.157 32.0192 364.36 32.0192Z" stroke="#E5D5C3" stroke-width="0.75" stroke-miterlimit="10"/>
<path fill-rule="evenodd" clip-rule="evenodd" d="M343.283 11.2659C343.486 11.2659 343.651 11.3309 343.778 11.4609C343.905 11.591 343.956 11.748 343.932 11.9295L343.97 11.9692C343.944 12.1515 343.867 12.3077 343.741 12.4385C343.716 12.4639 343.691 12.4909 343.664 12.5162C343.539 12.5947 343.424 12.6336 343.322 12.6336C343.094 12.6597 342.916 12.6074 342.79 12.4774C342.663 12.3474 342.612 12.1642 342.637 11.9303C342.612 11.7488 342.662 11.5918 342.79 11.4618C342.915 11.3301 343.08 11.2659 343.283 11.2659Z" stroke="#E5D5C3" stroke-width="0.75" stroke-miterlimit="10"/>
<path fill-rule="evenodd" clip-rule="evenodd" d="M343.283 32.0192C343.486 32.0192 343.651 32.0834 343.778 32.2134C343.905 32.3434 343.956 32.5004 343.932 32.6819L343.97 32.7216C343.944 32.9048 343.867 33.061 343.741 33.1918C343.716 33.2163 343.691 33.2433 343.664 33.2695C343.539 33.3472 343.424 33.3868 343.322 33.3868C343.094 33.413 342.916 33.3607 342.79 33.2298C342.663 33.0998 342.612 32.9183 342.637 32.6828C342.612 32.5013 342.662 32.3451 342.79 32.2142C342.915 32.0834 343.08 32.0192 343.283 32.0192Z" stroke="#E5D5C3" stroke-width="0.75" stroke-miterlimit="10"/>
<path fill-rule="evenodd" clip-rule="evenodd" d="M361.074 21.1694C361.319 21.1694 361.517 21.2471 361.67 21.4041C361.823 21.5611 361.883 21.7486 361.855 21.9681L361.9 22.0162C361.869 22.2348 361.776 22.4222 361.625 22.5801C361.595 22.6097 361.565 22.6417 361.533 22.6721C361.382 22.7658 361.244 22.8131 361.122 22.8131C360.846 22.8443 360.633 22.7819 360.483 22.6257C360.328 22.4687 360.268 22.25 360.298 21.9681C360.268 21.7486 360.328 21.5611 360.483 21.4041C360.632 21.2471 360.831 21.1694 361.074 21.1694Z" stroke="#E5D5C3" stroke-width="0.75" stroke-miterlimit="10"/>
<path fill-rule="evenodd" clip-rule="evenodd" d="M333.714 18.327C333.917 18.327 334.082 18.392 334.209 18.522C334.336 18.652 334.386 18.809 334.362 18.9905L334.4 19.0302C334.375 19.2125 334.297 19.3687 334.172 19.4996C334.147 19.5249 334.121 19.5519 334.094 19.5772C333.969 19.6558 333.855 19.6946 333.753 19.6946C333.524 19.7208 333.347 19.6684 333.221 19.5384C333.093 19.4084 333.042 19.2252 333.068 18.9914C333.042 18.8099 333.093 18.6528 333.221 18.5228C333.345 18.392 333.51 18.327 333.714 18.327Z" stroke="#E5D5C3" stroke-width="0.75" stroke-miterlimit="10"/>
<path fill-rule="evenodd" clip-rule="evenodd" d="M333.714 25.0806C333.917 25.0806 334.082 25.1448 334.209 25.2748C334.336 25.4048 334.386 25.5618 334.362 25.745L334.4 25.7847C334.375 25.9662 334.297 26.1224 334.172 26.2532C334.147 26.2794 334.121 26.3056 334.094 26.3309C333.969 26.4103 333.855 26.4482 333.753 26.4482C333.524 26.4744 333.347 26.4221 333.221 26.2929C333.093 26.1629 333.042 25.9797 333.068 25.7459C333.042 25.5627 333.093 25.4065 333.221 25.2756C333.345 25.1448 333.51 25.0806 333.714 25.0806Z" stroke="#E5D5C3" stroke-width="0.75" stroke-miterlimit="10"/>
<path d="M86.5627 22.1209C86.5816 20.3472 86.89 18.701 87.488 17.1822C87.794 16.4174 88.1715 15.6854 88.619 14.9873C89.1404 14.1709 89.7433 13.4111 90.4285 12.7079C92.8417 10.204 95.7337 8.89462 99.106 8.78234C99.4078 8.4168 99.7229 8.06476 100.052 7.72708C100.874 6.88287 101.738 6.12308 102.642 5.44771C102.752 5.36329 102.862 5.27887 102.971 5.19445H194.09M86.5627 22.1209C86.5627 22.1766 86.5627 22.234 86.5627 22.2897M86.5627 22.1209C86.5643 22.1757 86.5643 22.2323 86.5627 22.2897M51.1536 14.902C50.6593 14.1144 50.0843 13.3824 49.4255 12.7071C46.9308 10.1466 43.9287 8.82371 40.4198 8.73929H9.12329C9.12329 13.889 10.6178 18.3911 13.606 22.2466M13.606 22.2466C14.1546 21.5156 14.7715 20.798 15.4566 20.0939C17.1559 18.3498 19.0214 16.9568 21.0497 15.9151C22.6125 15.0987 24.2715 14.5078 26.0267 14.1422C27.2876 13.889 28.5765 13.7345 29.8917 13.6779C30.1393 13.6779 30.386 13.6779 30.6319 13.6779M13.606 22.2466C14.1546 22.9786 14.7715 23.6818 15.4566 24.3563C17.1559 26.1309 19.0066 27.55 21.0086 28.6204C22.5993 29.4368 24.2575 30.0269 25.9848 30.3933C27.2465 30.6474 28.5485 30.8027 29.8917 30.8584C30.1384 30.8584 30.3852 30.8584 30.6319 30.8584M13.606 22.2466C10.6178 26.1309 9.12329 30.6313 9.12329 35.7532L40.4207 35.7962C43.9303 35.7118 46.9316 34.3898 49.4263 31.8293C50.0852 31.1531 50.6601 30.4363 51.1544 29.6757C52.4976 27.593 53.1967 25.2157 53.2518 22.5421V22.0347C53.279 19.3054 53.8547 16.815 54.9791 14.5635C55.7745 12.9873 56.8297 11.5243 58.1466 10.1736C58.6401 9.66707 59.1607 9.1884 59.7085 8.73844H50.2908C50.8386 9.1884 51.3732 9.66707 51.8939 10.1736C52.2508 10.54 52.5938 10.919 52.922 11.3133C53.3078 11.7877 53.6631 12.2799 53.9921 12.7906M5.33974 39.3841H70.3181C74.7597 39.2718 78.5572 37.5969 81.7099 34.3619C83.0267 33.0095 84.068 31.5608 84.8362 30.0142C85.2121 29.2511 85.5271 28.4626 85.7813 27.6496C86.3028 25.9713 86.5627 24.1841 86.5627 22.2897M84.8362 14.6065C84.068 13.0025 83.0267 11.5252 81.7099 10.1744C78.5572 6.96644 74.7605 5.30588 70.3181 5.1936H5.33974M191.268 39.3841H194.517H103.013C102.904 39.2997 102.793 39.2161 102.685 39.13C101.779 38.4555 100.902 37.6805 100.053 36.8084C99.7237 36.4724 99.4087 36.1339 99.1068 35.7962C95.7345 35.6561 92.8426 34.3324 90.4293 31.8293C89.7442 31.1252 89.1413 30.3798 88.6198 29.5921M53.8473 31.9762C53.5512 32.4084 53.2288 32.8381 52.8809 33.2636C52.5798 33.63 52.25 33.9955 51.8939 34.3619C51.4003 34.8684 50.8797 35.3462 50.3319 35.7962H59.6674C59.1468 35.3462 58.6393 34.8676 58.1458 34.3619C56.8289 33.0382 55.7876 31.603 55.0202 30.0547M191.227 5.1936H190.569" stroke="#E5D5C3" stroke-width="0.75" stroke-miterlimit="10"/>
<path d="M194.517 42.8884H4.27048C2.07684 42.8884 0.980433 41.7622 0.980433 39.5116V4.22358C0.980433 1.97207 2.07684 0.846741 4.27048 0.846741H194.517" stroke="#E5D5C3" stroke-width="0.75" stroke-miterlimit="10"/>
<path d="M90.3923 31.8293C89.7335 31.153 89.1585 30.4363 88.6642 29.6757C87.321 27.593 86.6219 25.2157 86.5668 22.5421V22.0347C86.5396 19.3054 85.9639 16.815 84.8395 14.5635C84.0442 12.9873 82.9889 11.5243 81.672 10.1736" stroke="#E5D5C3" stroke-width="0.75" stroke-miterlimit="10"/>
<path fill-rule="evenodd" clip-rule="evenodd" d="M84.0536 7.72617C83.1209 6.76968 82.1339 5.92547 81.0918 5.19354H99.3104C94.8968 5.30582 91.1264 6.96638 88.0008 10.1744C87.6167 10.5686 87.2466 10.9764 86.8905 11.3985C86.1239 10.1043 85.178 8.88021 84.0536 7.72617Z" stroke="#E5D5C3" stroke-width="0.75" stroke-miterlimit="10"/>
<path fill-rule="evenodd" clip-rule="evenodd" d="M84.054 36.8093C85.1776 35.6569 86.1243 34.4463 86.8917 33.18C87.2478 33.5742 87.618 33.9685 88.0021 34.3619C91.1276 37.5969 94.898 39.2718 99.3116 39.3841H81.0519C82.094 38.6522 83.0942 37.7953 84.054 36.8093Z" stroke="#E5D5C3" stroke-width="0.75" stroke-miterlimit="10"/>
<path fill-rule="evenodd" clip-rule="evenodd" d="M9.04104 22.1622C6.73801 25.9324 5.50424 30.1535 5.33974 34.8253V9.20355C5.44996 13.3689 6.38186 17.1678 8.13628 20.6004C8.411 21.1356 8.71203 21.6556 9.04104 22.1622Z" stroke="#E5D5C3" stroke-width="0.75" stroke-miterlimit="10"/>
<path d="M12.125 11.3985C12.125 11.3985 12.3306 14.2832 13.77 17.0969C13.77 17.0969 17.2665 12.6648 24.257 11.4686" stroke="#E5D5C3" stroke-width="0.75" stroke-miterlimit="10"/>
<path d="M12.125 33.2079C12.125 33.2079 12.3306 30.3241 13.77 27.5095C13.7692 27.5078 17.2665 31.9416 24.257 33.137" stroke="#E5D5C3" stroke-width="0.75" stroke-miterlimit="10"/>
<path fill-rule="evenodd" clip-rule="evenodd" d="M43.3957 22.277C43.3957 18.4688 41.8387 15.0413 39.3514 12.6058C39.6426 12.5779 39.937 12.5602 40.2356 12.5602C45.4635 12.5602 49.701 16.9104 49.701 22.277C49.701 27.6428 45.4643 31.9922 40.2356 31.9922C39.937 31.9922 39.6426 31.9745 39.3514 31.9458C41.8387 29.5111 43.3957 26.0844 43.3957 22.277Z" stroke="#E5D5C3" stroke-width="0.75" stroke-miterlimit="10"/>
<path d="M39.3514 12.6058C41.8387 15.0413 43.3957 18.4688 43.3957 22.277C43.3957 26.0844 41.8387 29.5111 39.3514 31.9466" stroke="#E5D5C3" stroke-width="0.75" stroke-miterlimit="10"/>
<path fill-rule="evenodd" clip-rule="evenodd" d="M69.029 13.4862C68.4688 14.4258 68.19 15.5478 68.19 16.8529C68.19 17.427 68.241 17.9757 68.343 18.4974C68.088 18.0795 67.7574 17.6625 67.3511 17.2455C66.4356 16.305 65.4823 15.6921 64.4895 15.4051C63.9557 15.2742 63.4976 15.2742 63.1159 15.4051C63.0395 15.7445 63.065 16.1885 63.1924 16.7364C63.4219 17.8069 63.9944 18.8115 64.9098 19.7511C65.317 20.169 65.7225 20.5075 66.1296 20.7692C65.6468 20.6645 65.113 20.6122 64.5282 20.6122C63.2558 20.6122 62.1618 20.8739 61.248 21.3956C60.7636 21.6826 60.4453 22.0085 60.2939 22.3749C60.4461 22.6881 60.7636 22.9878 61.248 23.2748C62.1618 23.8506 63.2558 24.1367 64.5282 24.1367C65.113 24.1367 65.6468 24.0844 66.1296 23.9797C65.6978 24.2668 65.2775 24.6196 64.8712 25.0367C63.9557 25.9763 63.3578 26.9539 63.0773 27.9737C62.9506 28.5207 62.9506 28.991 63.0773 29.3835C63.4079 29.4612 63.8414 29.435 64.3744 29.3042C65.4173 29.0703 66.3969 28.4827 67.3116 27.5431C67.7442 27.0982 68.0872 26.6542 68.3422 26.211C68.2402 26.7335 68.1892 27.2941 68.1892 27.8943C68.1892 29.2003 68.4433 30.3231 68.9517 31.261C69.2313 31.7574 69.5504 32.0841 69.9058 32.2403C70.2109 32.0833 70.5037 31.7574 70.7834 31.261C71.3435 30.3231 71.6224 29.2003 71.6224 27.8943C71.6224 27.2941 71.559 26.747 71.4315 26.2506C71.7375 26.6939 72.0928 27.1244 72.5008 27.5431C73.4154 28.4827 74.3695 29.0965 75.3623 29.3835C75.8953 29.5135 76.3534 29.5135 76.7359 29.3835C76.8116 29.0441 76.7861 28.6001 76.6586 28.0513C76.4299 26.9809 75.8575 25.9771 74.9412 25.0375C74.5094 24.5943 74.0767 24.2414 73.6457 23.9806C74.1532 24.0844 74.7002 24.1376 75.285 24.1376C76.5566 24.1376 77.6505 23.875 78.5652 23.3542C79.0496 23.0671 79.3679 22.7413 79.5193 22.3749C79.3671 22.0617 79.0496 21.7611 78.5652 21.4749C77.6505 20.9 76.5566 20.613 75.285 20.613C74.7002 20.613 74.1664 20.678 73.6836 20.808C74.1154 20.4948 74.5349 20.1293 74.9412 19.7122C75.8575 18.7718 76.4554 17.7934 76.7359 16.7752C76.8617 16.2273 76.8617 15.7571 76.7359 15.3662C76.4044 15.2886 75.9718 15.3139 75.4388 15.4448C74.3959 15.6794 73.4163 16.267 72.5016 17.2066C72.069 17.6507 71.726 18.0939 71.471 18.5379C71.573 18.0154 71.624 17.454 71.624 16.8537C71.624 15.5486 71.3698 14.4266 70.8607 13.487C70.5819 12.9906 70.2627 12.6648 69.9074 12.5078C69.6014 12.6631 69.3095 12.9898 69.029 13.4862Z" stroke="#E5D5C3" stroke-width="0.75" stroke-miterlimit="10"/>
<path d="M71.4716 18.5372C71.1409 19.0589 70.9246 19.6076 70.8234 20.1817C70.8234 20.207 70.8103 20.2467 70.7856 20.2991C70.7848 20.3261 70.7708 20.3514 70.7469 20.3776C70.492 20.2467 70.2131 20.1826 69.9072 20.1826C69.6275 20.1826 69.3725 20.2349 69.1439 20.3387C69.1439 20.2602 69.1315 20.1952 69.1052 20.1429C68.9522 19.5688 68.6997 19.0209 68.3427 18.4984" stroke="#E5D5C3" stroke-width="0.75" stroke-miterlimit="10"/>
<path d="M73.6838 20.8073C73.1747 21.1466 72.6532 21.3822 72.1202 21.5122C72.0437 21.5375 71.9672 21.551 71.8916 21.551C71.8916 21.5763 71.8652 21.5898 71.8151 21.5898C71.7386 21.2758 71.5856 21.0023 71.3569 20.7676C71.1793 20.5844 70.9884 20.4535 70.7853 20.3759C70.7853 20.3505 70.7853 20.3244 70.7853 20.2974" stroke="#E5D5C3" stroke-width="0.75" stroke-miterlimit="10"/>
<path d="M70.7844 20.3766H70.747" stroke="#E5D5C3" stroke-width="0.75" stroke-miterlimit="10"/>
<path d="M73.6456 23.9789C73.1365 23.6395 72.6019 23.4167 72.0434 23.3128C72.0171 23.3128 71.9792 23.3128 71.9291 23.3128C71.8772 23.2605 71.8139 23.209 71.7382 23.1558C71.8641 22.8949 71.9291 22.5944 71.9291 22.2559C71.9291 22.0203 71.8904 21.7983 71.8139 21.5898" stroke="#E5D5C3" stroke-width="0.75" stroke-miterlimit="10"/>
<path d="M71.9286 23.3128C71.8515 23.2867 71.7761 23.2605 71.6991 23.2335C71.7253 23.209 71.7384 23.182 71.7384 23.1558" stroke="#E5D5C3" stroke-width="0.75" stroke-miterlimit="10"/>
<path d="M69.1436 20.3379C68.9149 20.4164 68.6994 20.5599 68.4954 20.7684C68.2668 21.0031 68.1014 21.264 67.9986 21.5519C67.9739 21.5257 67.9484 21.513 67.9221 21.513C67.8966 21.4869 67.8588 21.4742 67.8078 21.4742C67.223 21.3433 66.6629 21.1087 66.129 20.7693" stroke="#E5D5C3" stroke-width="0.75" stroke-miterlimit="10"/>
<path d="M67.9994 21.5518C67.9229 21.7603 67.8843 21.995 67.8843 22.2567C67.8843 22.5699 67.9353 22.8435 68.0373 23.0773C68.0126 23.1296 67.9616 23.1693 67.8843 23.1963C67.8341 23.1963 67.77 23.2098 67.6943 23.2343C67.1613 23.366 66.6398 23.6134 66.1307 23.9798" stroke="#E5D5C3" stroke-width="0.75" stroke-miterlimit="10"/>
<path d="M67.8847 23.1964C67.962 23.1964 68.0254 23.1828 68.0756 23.1567C68.1775 23.366 68.3174 23.5492 68.4959 23.7054C68.6735 23.8869 68.8643 24.0431 69.0675 24.174C69.042 24.2533 69.0165 24.3571 68.991 24.4872C68.991 24.5133 68.991 24.5395 68.991 24.5665C68.8898 25.1406 68.6727 25.6893 68.3429 26.2102" stroke="#E5D5C3" stroke-width="0.75" stroke-miterlimit="10"/>
<path d="M68.0373 23.0773C68.0627 23.1035 68.0758 23.1297 68.0758 23.1567" stroke="#E5D5C3" stroke-width="0.75" stroke-miterlimit="10"/>
<path d="M68.9914 24.4871C69.0679 24.3833 69.132 24.293 69.1814 24.2136C69.4109 24.293 69.6519 24.331 69.9068 24.331C70.1355 24.331 70.3518 24.293 70.5542 24.2136C70.606 24.293 70.657 24.3706 70.708 24.4492C70.708 24.5007 70.7211 24.5665 70.7466 24.6433C70.8733 25.1921 71.1028 25.7264 71.4326 26.249" stroke="#E5D5C3" stroke-width="0.75" stroke-miterlimit="10"/>
<path d="M69.0683 24.174C69.1191 24.174 69.1568 24.1875 69.1822 24.2137" stroke="#E5D5C3" stroke-width="0.75" stroke-miterlimit="10"/>
<path d="M70.708 24.4492C70.6825 24.3437 70.6701 24.2533 70.6701 24.174C70.9243 24.0701 71.1529 23.9131 71.3569 23.7054C71.4836 23.5737 71.5987 23.4167 71.6991 23.2335" stroke="#E5D5C3" stroke-width="0.75" stroke-miterlimit="10"/>
<path d="M70.5537 24.2137C70.6053 24.2137 70.643 24.2002 70.6692 24.174" stroke="#E5D5C3" stroke-width="0.75" stroke-miterlimit="10"/>
<path fill-rule="evenodd" clip-rule="evenodd" d="M60.6128 12.7071C58.091 15.2963 56.8013 18.4055 56.747 22.0356V22.543C56.8013 26.1723 58.091 29.2671 60.6128 31.8293C63.1626 34.4742 66.2602 35.7962 69.9072 35.7962C73.5542 35.7962 76.6658 34.4742 79.2427 31.8293C81.7933 29.2106 83.0674 26.0321 83.0674 22.2897C83.0674 18.5465 81.7925 15.3529 79.2427 12.7071C76.6658 10.0622 73.5542 8.73932 69.9072 8.73932C66.2602 8.73932 63.1626 10.0622 60.6128 12.7071Z" stroke="#E5D5C3" stroke-width="0.75" stroke-miterlimit="10"/>
<path d="M23.2173 26.7606C22.4376 25.4529 21.9795 23.9215 21.9795 22.277C21.9795 20.6316 22.4376 19.0994 23.2173 17.7925" stroke="#E5D5C3" stroke-width="0.75" stroke-miterlimit="10"/>
<path d="M30.3663 13.6846C34.9888 13.6846 38.7361 17.5309 38.7361 22.2762C38.7361 27.0215 34.9888 30.8677 30.3663 30.8677" stroke="#E5D5C3" stroke-width="0.75" stroke-miterlimit="10"/>
<path d="M30.3655 26.7868C32.7926 26.7868 34.7601 24.7673 34.7601 22.2762C34.7601 19.785 32.7926 17.7656 30.3655 17.7656C27.9383 17.7656 25.9708 19.785 25.9708 22.2762C25.9708 24.7673 27.9383 26.7868 30.3655 26.7868Z" stroke="#E5D5C3" stroke-width="0.75" stroke-miterlimit="10"/>
<path d="M69.8682 24.309C70.9566 24.309 71.8389 23.4034 71.8389 22.2863C71.8389 21.1692 70.9566 20.2635 69.8682 20.2635C68.7798 20.2635 67.8974 21.1692 67.8974 22.2863C67.8974 23.4034 68.7798 24.309 69.8682 24.309Z" stroke="#E5D5C3" stroke-width="0.75" stroke-miterlimit="10"/>
<path fill-rule="evenodd" clip-rule="evenodd" d="M65.8741 12.9975H65.8362C65.7096 13.1537 65.6462 13.3233 65.6462 13.5057C65.6462 13.531 65.6462 13.5707 65.6462 13.623C65.6709 13.7531 65.7351 13.8704 65.8362 13.9751C65.9629 14.1313 66.1159 14.2098 66.2927 14.2098C66.4959 14.2098 66.6612 14.1313 66.7887 13.9751C66.9154 13.8451 66.9787 13.6889 66.9787 13.5065C66.9787 13.3242 66.9154 13.1545 66.7887 12.9983C66.662 12.8683 66.4967 12.8033 66.2927 12.8033C66.1159 12.8016 65.9761 12.8666 65.8741 12.9975Z" stroke="#E5D5C3" stroke-width="0.75" stroke-miterlimit="10"/>
<path fill-rule="evenodd" clip-rule="evenodd" d="M73.982 12.9578C73.8562 12.8269 73.7032 12.7754 73.5255 12.8016L73.4877 12.7628C73.3092 12.7889 73.1579 12.8666 73.0295 12.9966C73.0049 13.0228 72.9794 13.0489 72.9539 13.0743C72.8782 13.2043 72.8387 13.3216 72.8387 13.4255C72.8149 13.6602 72.865 13.8433 72.9917 13.9725C73.1184 14.1025 73.2977 14.1549 73.5247 14.1287C73.7024 14.1549 73.8545 14.1025 73.9812 13.9725C74.1087 13.8425 74.1712 13.6728 74.1712 13.4651C74.1728 13.2575 74.1103 13.0878 73.982 12.9578Z" stroke="#E5D5C3" stroke-width="0.75" stroke-miterlimit="10"/>
<path fill-rule="evenodd" clip-rule="evenodd" d="M78.436 17.9977C78.3085 18.0239 78.1942 18.0889 78.093 18.1936C77.94 18.3236 77.8652 18.4798 77.8652 18.6621C77.8652 18.8707 77.9409 19.0395 78.093 19.1703C78.2197 19.3004 78.3719 19.3654 78.5495 19.3654C78.728 19.3654 78.8933 19.3004 79.0455 19.1703C79.1713 19.0403 79.2355 18.8707 79.2355 18.6621C79.2355 18.4798 79.1713 18.3363 79.0455 18.2324V18.1936C78.8933 18.0636 78.728 17.9977 78.5495 17.9977C78.5249 17.9977 78.4862 17.9977 78.436 17.9977Z" stroke="#E5D5C3" stroke-width="0.75" stroke-miterlimit="10"/>
<path fill-rule="evenodd" clip-rule="evenodd" d="M78.9693 25.4994C78.8426 25.42 78.7283 25.382 78.6263 25.382C78.3984 25.3559 78.2208 25.4065 78.0941 25.5374C77.9666 25.6674 77.9156 25.8506 77.9411 26.0844C77.9156 26.2676 77.9658 26.4221 78.0941 26.553C78.2208 26.683 78.3861 26.7488 78.5893 26.7488C78.7924 26.7488 78.9577 26.683 79.0844 26.553C79.2111 26.4229 79.2613 26.2676 79.2374 26.0844L79.2752 26.0464C79.2506 25.8632 79.1732 25.7071 79.0474 25.5762C79.0194 25.5509 78.9948 25.5239 78.9693 25.4994Z" stroke="#E5D5C3" stroke-width="0.75" stroke-miterlimit="10"/>
<path fill-rule="evenodd" clip-rule="evenodd" d="M72.8399 31.2425C72.8399 31.424 72.9049 31.5937 73.0299 31.7508C73.1574 31.8808 73.3219 31.9449 73.5259 31.9449C73.7035 31.9449 73.8442 31.8808 73.9445 31.7508H73.9824C74.1099 31.5937 74.1724 31.424 74.1724 31.2425C74.1724 31.2164 74.1724 31.1767 74.1724 31.1252C74.1477 30.9952 74.0844 30.8778 73.9824 30.774C73.8565 30.617 73.7035 30.5402 73.5259 30.5402C73.3227 30.5402 73.1582 30.6178 73.0299 30.774C72.9049 30.904 72.8399 31.0594 72.8399 31.2425Z" stroke="#E5D5C3" stroke-width="0.75" stroke-miterlimit="10"/>
<path fill-rule="evenodd" clip-rule="evenodd" d="M61.2688 18.0374C61.0657 18.0374 60.9003 18.1024 60.7737 18.2324C60.6462 18.3624 60.596 18.5195 60.6199 18.701L60.582 18.7406C60.6075 18.923 60.6848 19.0792 60.8107 19.21C60.8354 19.2353 60.8609 19.2624 60.888 19.2877C61.013 19.3662 61.1274 19.405 61.2294 19.405C61.458 19.4312 61.6357 19.3789 61.7615 19.2489C61.889 19.1188 61.94 18.9357 61.9145 18.7018C61.94 18.5203 61.8898 18.3633 61.7615 18.2333C61.6373 18.1016 61.472 18.0374 61.2688 18.0374Z" stroke="#E5D5C3" stroke-width="0.75" stroke-miterlimit="10"/>
<path fill-rule="evenodd" clip-rule="evenodd" d="M66.9787 31.3219C67.0034 31.0863 66.9532 30.9048 66.8265 30.7748C66.699 30.6448 66.5214 30.5916 66.2927 30.6178C66.1159 30.5916 65.9637 30.644 65.8362 30.7748C65.7087 30.9057 65.6462 31.0737 65.6462 31.283C65.6462 31.4907 65.7096 31.6604 65.8362 31.7896C65.9629 31.9213 66.1159 31.9728 66.2927 31.9466L66.3314 31.9863C66.5099 31.9601 66.6612 31.8824 66.7887 31.7524C66.8134 31.7263 66.8397 31.7001 66.8652 31.6748C66.94 31.5422 66.9787 31.424 66.9787 31.3219Z" stroke="#E5D5C3" stroke-width="0.75" stroke-miterlimit="10"/>
<path fill-rule="evenodd" clip-rule="evenodd" d="M60.5829 26.0844C60.5829 26.2676 60.6462 26.4111 60.7737 26.5149V26.5529C60.9258 26.6829 61.0903 26.7488 61.2688 26.7488C61.2935 26.7488 61.3313 26.7488 61.3823 26.7488C61.509 26.7226 61.6233 26.6585 61.7253 26.5529C61.8775 26.4229 61.9532 26.2676 61.9532 26.0844C61.9532 25.8767 61.8767 25.707 61.7253 25.5762C61.5987 25.4462 61.4457 25.382 61.2688 25.382C61.0903 25.382 60.9258 25.4462 60.7737 25.5762C60.6462 25.707 60.5829 25.8767 60.5829 26.0844Z" stroke="#E5D5C3" stroke-width="0.75" stroke-miterlimit="10"/>
<path fill-rule="evenodd" clip-rule="evenodd" d="M30.3215 21.6777C30.1184 21.6777 29.953 21.7427 29.8264 21.8727C29.6989 22.0027 29.6487 22.1589 29.6726 22.3412L29.6347 22.3809C29.6602 22.5632 29.7375 22.7194 29.8634 22.8494C29.8881 22.8756 29.9136 22.9018 29.9407 22.9271C30.0657 23.0065 30.1801 23.0445 30.282 23.0445C30.5107 23.0706 30.6884 23.0183 30.8142 22.8891C30.9417 22.7583 30.9927 22.5759 30.9672 22.3412C30.9927 22.1589 30.9425 22.0027 30.8142 21.8727C30.6892 21.7427 30.5247 21.6777 30.3215 21.6777Z" stroke="#E5D5C3" stroke-width="0.75" stroke-miterlimit="10"/>
<path fill-rule="evenodd" clip-rule="evenodd" d="M46.7717 21.6777C46.5686 21.6777 46.4032 21.7427 46.2766 21.8727C46.1491 22.0027 46.0989 22.1589 46.1228 22.3412L46.0849 22.3809C46.1104 22.5632 46.1877 22.7194 46.3136 22.8494C46.3383 22.8756 46.3638 22.9018 46.3909 22.9271C46.5159 23.0065 46.6303 23.0445 46.7322 23.0445C46.9609 23.0706 47.1386 23.0183 47.2644 22.8891C47.3919 22.7583 47.4429 22.5759 47.4174 22.3412C47.4429 22.1589 47.3927 22.0027 47.2644 21.8727C47.1394 21.7427 46.9749 21.6777 46.7717 21.6777Z" stroke="#E5D5C3" stroke-width="0.75" stroke-miterlimit="10"/>
<path fill-rule="evenodd" clip-rule="evenodd" d="M15.3793 11.266C15.1761 11.266 15.0108 11.331 14.8842 11.461C14.7567 11.591 14.7065 11.748 14.7303 11.9295L14.6925 11.9692C14.718 12.1516 14.7953 12.3077 14.9212 12.4386C14.9458 12.4639 14.9713 12.4909 14.9985 12.5163C15.1235 12.5948 15.2378 12.6336 15.3398 12.6336C15.5685 12.6598 15.7461 12.6074 15.872 12.4774C15.9995 12.3474 16.0505 12.1642 16.025 11.9304C16.0505 11.7489 16.0003 11.5919 15.872 11.4618C15.7478 11.3302 15.5825 11.266 15.3793 11.266Z" stroke="#E5D5C3" stroke-width="0.75" stroke-miterlimit="10"/>
<path fill-rule="evenodd" clip-rule="evenodd" d="M87.2807 6.76294C87.0776 6.76294 86.9122 6.82794 86.7856 6.95795C86.6581 7.08796 86.6079 7.24498 86.6318 7.42649L86.5939 7.46617C86.6194 7.64852 86.6967 7.80469 86.8226 7.93555C86.8473 7.96087 86.8728 7.98789 86.8999 8.01321C87.0249 8.09173 87.1393 8.13056 87.2413 8.13056C87.4699 8.15673 87.6476 8.10439 87.7734 7.97438C87.9009 7.84437 87.9519 7.66118 87.9264 7.42733C87.9519 7.24583 87.9017 7.0888 87.7734 6.9588C87.6484 6.82794 87.4839 6.76294 87.2807 6.76294Z" stroke="#E5D5C3" stroke-width="0.75" stroke-miterlimit="10"/>
<path fill-rule="evenodd" clip-rule="evenodd" d="M87.2807 36.4513C87.0776 36.4513 86.9122 36.5155 86.7856 36.6455C86.6581 36.7755 86.6079 36.9325 86.6318 37.114L86.5939 37.1537C86.6194 37.3369 86.6967 37.493 86.8226 37.6239C86.8473 37.6484 86.8728 37.6754 86.8999 37.7016C87.0249 37.7792 87.1393 37.8189 87.2413 37.8189C87.4699 37.8451 87.6476 37.7927 87.7734 37.6619C87.9009 37.5319 87.9519 37.3504 87.9264 37.1148C87.9519 36.9333 87.9017 36.7772 87.7734 36.6463C87.6484 36.5155 87.4839 36.4513 87.2807 36.4513Z" stroke="#E5D5C3" stroke-width="0.75" stroke-miterlimit="10"/>
<path fill-rule="evenodd" clip-rule="evenodd" d="M15.3793 32.0192C15.1761 32.0192 15.0108 32.0834 14.8842 32.2134C14.7567 32.3434 14.7065 32.5004 14.7303 32.6819L14.6925 32.7216C14.718 32.9048 14.7953 33.061 14.9212 33.1918C14.9458 33.2163 14.9713 33.2433 14.9985 33.2695C15.1235 33.3472 15.2378 33.3868 15.3398 33.3868C15.5685 33.413 15.7461 33.3607 15.872 33.2298C15.9995 33.0998 16.0505 32.9183 16.025 32.6828C16.0505 32.5013 16.0003 32.3451 15.872 32.2142C15.7478 32.0834 15.5825 32.0192 15.3793 32.0192Z" stroke="#E5D5C3" stroke-width="0.75" stroke-miterlimit="10"/>
<path fill-rule="evenodd" clip-rule="evenodd" d="M36.4561 11.266C36.253 11.266 36.0877 11.331 35.961 11.461C35.8335 11.591 35.7833 11.748 35.8072 11.9295L35.7694 11.9692C35.7948 12.1516 35.8722 12.3077 35.998 12.4386C36.0227 12.4639 36.0482 12.4909 36.0753 12.5163C36.2003 12.5948 36.3147 12.6336 36.4167 12.6336C36.6453 12.6598 36.823 12.6074 36.9488 12.4774C37.0763 12.3474 37.1273 12.1642 37.1018 11.9304C37.1273 11.7489 37.0771 11.5919 36.9488 11.4618C36.8246 11.3302 36.6593 11.266 36.4561 11.266Z" stroke="#E5D5C3" stroke-width="0.75" stroke-miterlimit="10"/>
<path fill-rule="evenodd" clip-rule="evenodd" d="M36.4561 32.0192C36.253 32.0192 36.0877 32.0834 35.961 32.2134C35.8335 32.3434 35.7833 32.5004 35.8072 32.6819L35.7694 32.7216C35.7948 32.9048 35.8722 33.061 35.998 33.1918C36.0227 33.2163 36.0482 33.2433 36.0753 33.2695C36.2003 33.3472 36.3147 33.3868 36.4167 33.3868C36.6453 33.413 36.823 33.3607 36.9488 33.2298C37.0763 33.0998 37.1273 32.9183 37.1018 32.6828C37.1273 32.5013 37.0771 32.3451 36.9488 32.2142C36.8246 32.0834 36.6593 32.0192 36.4561 32.0192Z" stroke="#E5D5C3" stroke-width="0.75" stroke-miterlimit="10"/>
<path fill-rule="evenodd" clip-rule="evenodd" d="M18.6656 21.1694C18.4205 21.1694 18.2223 21.247 18.0693 21.4041C17.9163 21.5611 17.8563 21.7485 17.885 21.968L17.8398 22.0161C17.8702 22.2348 17.9632 22.4222 18.1145 22.58C18.145 22.6096 18.1746 22.6417 18.2066 22.6721C18.358 22.7658 18.4953 22.813 18.6179 22.813C18.8934 22.8443 19.1065 22.7818 19.257 22.6256C19.4116 22.4686 19.4717 22.25 19.4412 21.968C19.4717 21.7485 19.4116 21.5611 19.257 21.4041C19.1073 21.247 18.9091 21.1694 18.6656 21.1694Z" stroke="#E5D5C3" stroke-width="0.75" stroke-miterlimit="10"/>
<path fill-rule="evenodd" clip-rule="evenodd" d="M46.0266 18.327C45.8234 18.327 45.6581 18.392 45.5315 18.522C45.404 18.652 45.3538 18.809 45.3776 18.9905L45.3398 19.0302C45.3653 19.2125 45.4426 19.3687 45.5685 19.4996C45.5931 19.5249 45.6186 19.5519 45.6458 19.5772C45.7708 19.6558 45.8851 19.6946 45.9871 19.6946C46.2158 19.7208 46.3934 19.6684 46.5193 19.5384C46.6468 19.4084 46.6978 19.2252 46.6723 18.9914C46.6978 18.8099 46.6476 18.6528 46.5193 18.5228C46.3943 18.392 46.2298 18.327 46.0266 18.327Z" stroke="#E5D5C3" stroke-width="0.75" stroke-miterlimit="10"/>
<path fill-rule="evenodd" clip-rule="evenodd" d="M46.0266 25.0806C45.8234 25.0806 45.6581 25.1448 45.5315 25.2748C45.404 25.4048 45.3538 25.5618 45.3776 25.745L45.3398 25.7847C45.3653 25.9662 45.4426 26.1224 45.5685 26.2532C45.5931 26.2794 45.6186 26.3056 45.6458 26.3309C45.7708 26.4103 45.8851 26.4482 45.9871 26.4482C46.2158 26.4744 46.3934 26.4221 46.5193 26.2929C46.6468 26.1629 46.6978 25.9797 46.6723 25.7459C46.6978 25.5627 46.6476 25.4065 46.5193 25.2756C46.3943 25.1448 46.2298 25.0806 46.0266 25.0806Z" stroke="#E5D5C3" stroke-width="0.75" stroke-miterlimit="10"/>
<path fill-rule="evenodd" clip-rule="evenodd" d="M169.626 9.31767C169.209 9.52518 168.805 9.85229 168.295 10.3934C167.682 11.0433 167.511 11.1709 167.255 11.1709C166.886 11.1709 166.417 11.3971 166.333 11.6153C166.213 11.9271 166.276 12.4854 166.477 12.9002C166.713 13.3861 166.86 13.4428 166.86 13.0476C166.86 12.4951 166.96 12.4605 168.673 12.4214C170.439 12.3811 170.707 12.2993 171.387 11.5948C171.961 10.9998 172.106 10.3499 171.82 9.66482C171.514 8.9359 170.662 8.80104 169.626 9.31767ZM227.609 9.32843C227.175 9.54161 226.753 9.87067 226.246 10.3905C225.599 11.0531 225.459 11.1504 225.08 11.1989C224.499 11.2732 224.237 11.547 224.238 12.0782C224.239 12.5005 224.55 13.2307 224.758 13.3C224.832 13.3246 224.874 13.2191 224.874 13.0077C224.874 12.4768 224.97 12.4422 226.446 12.4422C227.927 12.4422 228.495 12.3248 229.047 11.9046C229.751 11.3685 230.063 10.6089 229.871 9.89659C229.614 8.94646 228.801 8.74208 227.609 9.32843ZM208.068 9.25332C207.342 9.48088 206.656 10.0067 205.787 10.9998C205.516 11.3097 205.405 11.3665 205.072 11.3665C204.273 11.3665 203.948 12.1591 204.391 13.0262C204.645 13.5222 204.785 13.6024 204.785 13.2521C204.785 13.0994 204.853 12.8768 204.937 12.7573C205.084 12.5489 205.152 12.5399 206.579 12.539C207.932 12.5381 208.113 12.5172 208.558 12.31C209.346 11.9439 209.881 11.2328 209.88 10.5533C209.878 9.38143 209.203 8.89717 208.068 9.25332ZM170.565 9.91918C170.707 10.0609 170.719 10.5294 170.586 10.7759C170.534 10.8743 170.351 11.0034 170.18 11.0628C169.825 11.1861 168.428 11.2106 168.428 11.0934C168.428 10.9703 169.228 10.2317 169.604 10.0072C169.987 9.77855 170.387 9.74198 170.565 9.91918ZM228.578 9.91918C228.859 10.1991 228.661 10.7895 228.208 11.0232C227.907 11.1784 226.442 11.2371 226.442 11.0938C226.442 10.9969 227.291 10.1779 227.615 9.96289C227.899 9.77445 228.41 9.75127 228.578 9.91918ZM208.582 10.2084C208.739 10.5351 208.614 10.9017 208.271 11.1258C207.993 11.3079 206.996 11.426 206.592 11.3249L206.324 11.2577L206.706 10.8596C207.231 10.3127 207.916 9.88583 208.214 9.92025C208.365 9.93776 208.505 10.0476 208.582 10.2084ZM163.254 11.342C162.966 12.096 162.694 13.6635 162.802 13.945C162.832 14.0229 162.986 14.1401 163.144 14.2053C163.301 14.2705 163.431 14.3459 163.431 14.3728C163.431 14.3997 163.497 14.8895 163.578 15.4611C163.659 16.0327 163.793 17.0065 163.876 17.625C163.959 18.2436 164.067 18.9917 164.115 19.2875C164.163 19.5833 164.23 20.0673 164.264 20.3632C164.297 20.659 164.365 21.143 164.414 21.4388C164.463 21.7347 164.572 22.5268 164.657 23.1991C164.743 23.8714 164.833 24.5204 164.858 24.6415L164.904 24.8615H163.187H161.471V24.1414C161.471 23.1896 161.331 22.4965 160.994 21.7815C160.666 21.0836 159.757 19.9231 159.539 19.9231C159.434 19.9231 159.285 20.2004 159.07 20.7956L158.755 21.6682L159.238 22.2624C159.503 22.5893 159.905 23.2309 160.13 23.688C160.529 24.4964 160.54 24.5461 160.54 25.5022C160.54 26.4395 160.523 26.5189 160.177 27.2135C159.368 28.8363 158.213 29.6744 156.404 29.9503C155.727 30.0537 154.979 29.9996 152.794 29.6892C152.496 29.6469 152.365 29.6728 152.264 29.7939C152.186 29.8871 152.168 29.9862 152.219 30.0293C152.502 30.2657 154.977 31.3358 155.634 31.5057C157.349 31.9491 158.073 31.6977 159.676 30.1022C160.479 29.3025 160.742 28.9666 161.023 28.3813C161.215 27.9813 161.373 27.5626 161.373 27.4508C161.373 27.0341 161.495 27.0129 163.903 27.0129H166.199L166.147 25.5705C166.112 24.6072 165.963 23.2672 165.697 21.5366C165.478 20.1113 165.229 18.4831 165.145 17.9184C165.06 17.3537 164.95 16.6276 164.9 16.3049C164.85 15.9822 164.782 15.5353 164.75 15.3118L164.69 14.9054L165.011 14.9206C165.323 14.9353 165.336 14.92 165.459 14.398C165.529 14.1021 165.575 13.5973 165.562 13.276L165.537 12.692L164.921 12.4355C164.094 12.0919 163.765 11.8329 163.628 11.4189C163.49 11.0032 163.391 10.9827 163.254 11.342ZM218.406 11.8629C216.669 12.6459 216.152 13.0036 216.152 13.4216C216.152 13.5283 216.165 13.6156 216.18 13.6156C216.256 13.6156 218.959 12.5161 219.433 12.2921C219.735 12.1499 220.042 11.9384 220.117 11.8223C220.289 11.5543 220.347 11.1479 220.219 11.1151C220.165 11.1013 219.349 11.4378 218.406 11.8629ZM201.062 11.9483C200.951 12.3221 200.833 12.9779 200.799 13.4056L200.739 14.1831L201.04 14.3384C201.4 14.5242 201.409 14.5483 201.589 15.9137C201.667 16.5053 201.823 17.6275 201.936 18.4074C202.35 21.2826 202.825 24.6799 202.825 24.7694C202.825 24.8234 202.136 24.8615 201.159 24.8615H199.493L199.491 24.2992C199.487 22.9308 198.961 21.5649 198.052 20.5627C197.758 20.2378 197.485 19.972 197.446 19.972C197.407 19.972 197.231 20.3882 197.055 20.8969L196.734 21.8218L197.222 22.4246C197.491 22.7562 197.881 23.3631 198.088 23.7733C198.453 24.497 198.464 24.5497 198.464 25.546C198.464 26.5477 198.455 26.5884 198.105 27.2085C197.411 28.4363 195.753 29.9723 194.362 30.6759C193.5 31.112 192.384 31.4095 191.602 31.4118C191.277 31.4127 190.398 31.3061 189.648 31.1748C188.898 31.0435 188.254 30.9548 188.217 30.9777C188.18 31.0006 188.126 31.1086 188.097 31.2179C188.055 31.3771 188.126 31.453 188.453 31.6004C190.588 32.5636 192.367 33.0374 193.534 32.954C194.766 32.8661 196.413 31.8704 197.851 30.3451C198.829 29.3079 199.363 28.2734 199.444 27.2574C199.46 27.0685 199.54 27.0609 201.779 27.0356L204.099 27.0094L204.098 25.8132C204.098 25.1553 204.031 24.177 203.949 23.6391C203.703 22.0255 203.614 21.4354 203.469 20.4609C202.903 16.6629 202.758 15.7297 202.667 15.2892C202.622 15.0743 202.642 15.0607 202.921 15.1163C203.185 15.169 203.236 15.143 203.326 14.9095C203.382 14.7626 203.467 14.2684 203.515 13.8112C203.614 12.8656 203.609 12.8567 202.904 12.5986C202.226 12.3504 201.818 12.0451 201.616 11.6341C201.518 11.4332 201.398 11.2687 201.351 11.2687C201.304 11.2687 201.174 11.5745 201.062 11.9483ZM158.537 12.5996C157.651 12.9996 156.781 13.4379 156.602 13.5734C156.312 13.7942 156.083 14.2375 156.2 14.3535C156.224 14.3777 156.836 14.1622 157.559 13.8745C159.956 12.9211 160.187 12.7758 160.348 12.1243C160.396 11.929 160.378 11.8578 160.281 11.8638C160.208 11.8684 159.423 12.1995 158.537 12.5996ZM195.72 12.7915C194.011 13.5458 193.417 13.9589 193.417 14.3941C193.417 14.556 193.454 14.5744 193.638 14.5035C194.663 14.1073 196.609 13.2978 196.933 13.1329C197.318 12.9369 197.631 12.5196 197.631 12.2026C197.631 12.1192 197.576 12.0522 197.509 12.0536C197.441 12.0551 196.636 12.3871 195.72 12.7915ZM179.159 13.1305C176.359 14.29 175.721 14.5811 175.539 14.7835C175.389 14.9494 175.229 15.4737 175.328 15.4737C175.362 15.4737 175.907 15.2601 176.539 14.9991C177.172 14.7381 178.262 14.2912 178.963 14.006C180.448 13.4015 181.282 13 181.435 12.8163C181.582 12.6402 181.7 12.1478 181.595 12.1526C181.549 12.1548 180.452 12.5948 179.159 13.1305ZM168.137 13.9032C167.611 14.9501 167.564 15.2192 167.743 16.1634C168.248 18.8212 168.729 23.3181 168.715 25.2495C168.707 26.2274 168.74 26.7742 168.806 26.7963C168.945 26.8424 169.422 25.8752 169.753 24.8774C170.017 24.0793 170.022 24.0281 169.962 22.4327C169.874 20.0507 169.691 18.5523 168.862 13.4424C168.825 13.2125 168.758 13.0017 168.712 12.9738C168.667 12.946 168.408 13.3642 168.137 13.9032ZM220.132 13.0452C219.855 13.9873 219.508 14.3764 219.047 14.261C218.86 14.2141 218.736 14.0728 218.596 13.7483C218.368 13.2176 218.229 13.267 218.027 13.9508C217.71 15.0207 216.557 15.2358 216.547 14.2268C216.543 13.8068 216.387 13.8233 216.203 14.2632C215.815 15.1892 216.15 15.9626 216.938 15.9626C217.409 15.9626 217.653 15.8529 218.08 15.4498C218.366 15.1805 218.418 15.1652 218.708 15.2659C219.378 15.4991 220.017 15.2712 220.317 14.6923C220.507 14.3253 220.489 13.02 220.293 12.9553C220.225 12.9331 220.153 12.9736 220.132 13.0452ZM206.064 14.0933C205.476 15.2824 205.489 15.1303 205.814 17.1361C205.978 18.1423 206.174 19.5419 206.412 21.39C206.496 22.0354 206.585 23.5096 206.61 24.6659C206.643 26.1724 206.689 26.7684 206.771 26.7684C206.921 26.7684 207.365 25.8781 207.674 24.959C208.074 23.7688 208.023 21.9665 207.474 17.9184C207.231 16.1295 206.731 13.1824 206.657 13.1031C206.62 13.0633 206.353 13.509 206.064 14.0933ZM226.572 13.3893C226.414 13.5944 226.143 13.987 225.97 14.2616L225.656 14.7611L225.81 15.9241C226.451 20.768 226.776 24.3427 226.704 25.7661C226.636 27.1333 226.774 27.1634 227.376 25.9127C227.998 24.6186 228.078 24.0284 227.931 21.7928C227.866 20.8028 227.771 19.6471 227.719 19.2246C227.668 18.802 227.486 17.2681 227.314 15.8159C227.142 14.3637 226.97 13.1397 226.931 13.0959C226.892 13.0521 226.731 13.1841 226.572 13.3893ZM187.468 14.0034C186.478 14.6056 186.081 16.5576 186.81 17.2403C187.156 17.5649 188.048 17.6212 188.574 17.3517C189.278 16.9916 189.693 16.3531 189.693 15.6316C189.693 15.0821 189.559 14.7202 189.222 14.3648C188.676 13.7887 188.037 13.6571 187.468 14.0034ZM160.105 14.6016C159.963 15.3193 159.651 15.6984 159.239 15.6511C159.025 15.6265 158.921 15.5167 158.718 15.102C158.437 14.5264 158.353 14.5447 158.141 15.2292C157.748 16.4905 156.916 17.056 156.685 16.2187C156.637 16.0477 156.62 15.7604 156.647 15.5804C156.72 15.0802 156.46 15.2397 156.251 15.8224C156.139 16.1378 156.09 16.5045 156.112 16.8817C156.14 17.3866 156.183 17.4933 156.457 17.7374C156.682 17.9374 156.872 18.0162 157.132 18.0162C157.443 18.0162 157.565 17.9418 157.994 17.4893C158.467 16.9896 158.505 16.9693 158.732 17.0947C158.864 17.1675 159.12 17.2285 159.3 17.2305C160.162 17.2395 160.799 15.7183 160.504 14.3571C160.396 13.863 160.231 13.9648 160.105 14.6016ZM197.435 14.4294C197.435 14.5543 197.364 14.8635 197.278 15.1167C196.969 16.021 196.172 16.0763 195.939 15.2096C195.877 14.9783 195.773 14.7891 195.708 14.7891C195.642 14.7891 195.514 15.0202 195.423 15.3025C195.169 16.0892 194.82 16.6357 194.526 16.7094C194.109 16.8139 193.96 16.6438 193.927 16.0258C193.911 15.7221 193.853 15.4737 193.799 15.4737C193.609 15.4737 193.385 16.2084 193.382 16.8427C193.38 17.6044 193.515 17.8873 193.973 18.0782C194.45 18.2772 194.883 18.1172 195.354 17.5683L195.725 17.1345L196.131 17.2938C196.514 17.4437 196.559 17.4424 196.913 17.2701C197.569 16.9504 197.929 15.908 197.783 14.748C197.736 14.3722 197.671 14.2024 197.575 14.2024C197.494 14.2024 197.435 14.2979 197.435 14.4294ZM263.623 14.5905C263.345 14.703 262.641 15.5163 262.518 15.8675C262.383 16.2528 262.525 16.3194 262.938 16.0647C263.239 15.879 263.362 15.8657 264.235 15.9241C264.765 15.9596 265.265 16.024 265.346 16.0673C265.605 16.206 264.506 17.1629 263.594 17.5939C262.228 18.239 262.766 18.429 264.385 17.8736C265.223 17.5862 265.567 17.2585 266.198 16.1477C266.647 15.3574 266.764 15.0025 266.638 14.8112C266.486 14.5793 264.086 14.4035 263.623 14.5905ZM188.328 15.0378C188.525 15.1745 188.767 15.4352 188.866 15.617C189.019 15.9019 189.025 15.9703 188.908 16.1114C188.71 16.3487 187.445 16.2822 187.154 16.0193C186.893 15.7837 186.893 15.3766 187.153 15.0468C187.417 14.7112 187.851 14.7079 188.328 15.0378ZM222.625 15.3687C222.28 15.8518 222.036 16.481 222.034 16.893C222.03 17.7158 222.917 23.9438 223.075 24.1991C223.165 24.3449 222.9 24.6659 222.69 24.6649C222.333 24.6634 221.485 24.2182 221.014 23.7851C220.3 23.1283 220.3 23.1325 219.571 16.8716L219.455 15.8736L219.2 16.0725C218.802 16.3835 218.422 17.0125 218.352 17.4778C218.289 17.9009 218.374 18.8606 218.656 20.901C219.024 23.5663 219.02 23.477 218.809 23.8169C218.038 25.0565 216.763 25.3962 215.945 24.58C215.348 23.9843 215.177 22.9791 215.174 20.0511C215.173 18.9383 215.133 18.0035 215.085 17.9739C214.964 17.8995 214.302 18.65 214.134 19.0506C214.058 19.2312 213.996 19.5715 213.996 19.807C213.996 20.3077 213.947 20.3593 212.914 20.9387C212.134 21.3761 211.214 22.0304 210.703 22.5107C210.535 22.6688 210.147 23.2907 209.84 23.8927C209.197 25.1551 209.161 25.4818 209.636 25.7539C210.071 26.0034 211.326 26.2306 212.27 26.2306C213.03 26.2306 213.126 26.2084 213.417 25.9636C213.592 25.8167 213.856 25.5064 214.004 25.274C214.152 25.0415 214.292 24.8866 214.317 24.9298C214.341 24.9729 214.456 25.3265 214.573 25.7155C214.858 26.6655 215.299 27.1374 216.062 27.3064C217.184 27.5553 218.24 26.9634 218.897 25.7174C219.382 24.7962 219.369 24.8026 219.699 25.3C220.236 26.1085 220.987 26.5636 222.198 26.8139C222.98 26.9757 223.219 26.9085 223.474 26.4537C223.958 25.5903 224.14 24.785 224.122 23.5902C224.112 22.9717 224.038 22.0036 223.957 21.4388C223.25 16.5122 223.11 15.4971 223.11 15.304C223.11 14.9939 222.87 15.026 222.625 15.3687ZM176.587 15.9871C176.244 16.4188 176.249 16.522 176.651 17.3555C176.865 17.7996 177.12 18.4379 177.217 18.774C177.315 19.11 177.444 19.3851 177.505 19.3852C177.901 19.3856 177.641 16.8031 177.173 16.0848C177.015 15.8428 176.738 15.7966 176.587 15.9871ZM171.635 18.0668C171.434 18.471 171.271 18.856 171.271 18.9224C171.272 19.0849 173.03 20.0157 173.135 19.9092C173.231 19.8113 174.021 18.2809 173.988 18.2574C173.752 18.0923 172.226 17.3317 172.131 17.3317C172.058 17.3317 171.835 17.6624 171.635 18.0668ZM271.996 18.8722L271.556 19.826L272.08 20.4591C272.697 21.2046 272.865 21.6879 272.941 22.9381C272.971 23.4312 273.017 24.0658 273.042 24.3481C273.079 24.7508 273.059 24.8615 272.949 24.8615C272.872 24.8615 272.171 24.6385 271.392 24.3661L269.976 23.8706L269.863 22.9726C269.781 22.322 269.657 21.8791 269.414 21.3655C269.23 20.9755 269.043 20.6565 268.997 20.6565C268.952 20.6565 268.749 20.9395 268.546 21.2854L268.177 21.9144L268.574 22.495C269.262 23.5008 269.439 24.2974 269.059 24.6773C268.887 24.8485 268.768 24.8762 268.367 24.8377C267.495 24.7541 266.933 23.9834 266.567 22.3679C266.47 21.9376 266.359 21.5493 266.321 21.5051C266.284 21.4608 266.158 21.5788 266.041 21.7673C265.844 22.085 265.836 22.167 265.926 22.8862C266.044 23.8265 265.942 24.2839 265.553 24.5601C265.205 24.8078 264.577 24.9538 263.846 24.9569C262.248 24.9636 261.544 24.3257 260.783 22.1827L260.509 21.411L260.281 21.6938C260.065 21.9618 260.057 22.0288 260.117 22.9655C260.19 24.1119 260.07 24.4396 259.471 24.7377C259.146 24.8991 258.419 24.9122 248.324 24.9373L237.525 24.9643L237.465 24.595C237.387 24.1132 237.062 23.1781 236.76 22.5634C236.276 21.5807 235.503 20.3664 235.359 20.3649C235.279 20.364 234.926 20.4984 234.576 20.6636C233.655 21.0976 232.389 22.4212 231.491 23.8902C231.115 24.5051 230.563 25.2519 230.266 25.5496C229.245 26.5709 227.169 27.8439 225.244 28.6291C224.788 28.8151 224.419 29.026 224.401 29.111C224.374 29.2433 224.613 29.2621 226.322 29.2621H228.273L228.901 28.8594C229.677 28.3615 230.865 27.1606 231.549 26.184C231.832 25.7794 232.103 25.4482 232.151 25.4482C232.198 25.4482 232.444 25.6196 232.696 25.829C233.24 26.2807 233.939 26.6432 234.683 26.8591C235.169 26.9999 236.469 27.0133 247.419 26.9899L259.613 26.964L260.166 26.6515L260.718 26.3391L261.489 26.6748C262.243 27.0032 262.289 27.0105 263.603 27.0117C265.005 27.013 265.692 26.8645 266.326 26.4236C266.563 26.2589 266.583 26.2611 266.91 26.4851C267.489 26.8823 268.081 27.0235 269.034 26.9924L269.903 26.964L269.933 26.4995C269.949 26.244 269.979 26.035 269.998 26.035C270.017 26.035 270.672 26.255 271.452 26.5239C272.515 26.8904 273.012 27.0129 273.435 27.0129H274L273.94 24.2014C273.875 21.1289 273.764 19.954 273.475 19.3026C273.27 18.841 272.626 17.9184 272.509 17.9184C272.469 17.9184 272.238 18.3476 271.996 18.8722ZM142.875 20.1738L142.389 21.1944L142.657 21.4877C143.472 22.3793 143.761 23.0464 143.875 24.2992L143.935 24.9593H132.026H120.116V24.7076C120.116 24.062 119.383 22.3816 118.464 20.9208C118.138 20.4026 118.083 20.3584 117.825 20.4075C116.813 20.6001 115.331 21.9748 114.237 23.7369C113.36 25.1494 112.566 25.9802 111.297 26.8135C110.289 27.4752 108.562 28.3743 107.622 28.727C107.286 28.8532 107.02 29.0149 107.002 29.1048C106.974 29.245 107.181 29.2621 108.918 29.2621H110.865L111.603 28.7788C112.43 28.2368 113.396 27.2618 114.225 26.1329L114.78 25.3767L115.187 25.7374C115.411 25.9358 115.855 26.2365 116.173 26.4058C117.395 27.0558 115.849 27.0129 138.021 27.0129H158.139V25.9985V24.9841L157.646 24.9369C157.015 24.8764 156.535 24.5492 154.807 22.9988C153.105 21.4722 152.392 20.9363 151.426 20.4573C150.445 19.9709 149.831 19.8502 149.009 19.982C148.007 20.1425 147.121 20.859 146.696 21.8525L146.581 22.1195L147.594 22.1154C148.217 22.1128 148.848 22.1721 149.232 22.2693C150.206 22.5155 151.729 23.3047 152.899 24.1701L153.966 24.9593H149.389H144.811L144.811 24.0547C144.81 22.9396 144.658 21.5638 144.478 21.0433C144.344 20.6556 143.884 19.8435 143.541 19.3898L143.362 19.1533L142.875 20.1738ZM186.477 20.0135C185.945 20.1864 185.36 20.5866 185.056 20.9855C184.804 21.3162 184.5 21.8695 184.5 21.9963C184.5 22.0393 184.952 22.0772 185.504 22.0805C186.67 22.0876 187.451 22.2658 188.517 22.7681C189.234 23.1055 190.818 24.114 191.408 24.6083L191.702 24.8545L187.912 24.858C183.67 24.8619 184.096 24.9407 183.962 24.1281C183.84 23.386 182.236 20.3632 181.964 20.3632C181.77 20.3632 181.08 20.7045 180.445 21.114C179.646 21.6292 178.95 22.3061 178.242 23.2571C177.468 24.2959 176.654 24.8615 175.933 24.8615C175.61 24.8615 175.61 24.8615 175.548 24.2671C175.513 23.9402 175.416 23.4012 175.331 23.0692C175.135 22.3024 174.602 21.1292 174.469 21.1733C174.414 21.1919 174.155 21.7207 173.896 22.3485L173.423 23.4901L173.712 23.8885C174.28 24.6707 174.701 26.1465 174.699 27.3487C174.697 28.4542 174.014 29.404 172.773 30.0267C171.305 30.7629 168.062 31.6903 165.386 32.1391C162.348 32.6485 161.245 32.7337 157.698 32.7326C154.318 32.7316 153.525 32.6737 151.034 32.245C147.042 31.5582 142.789 30.0252 139.743 28.1756C139.378 27.9536 139.049 27.7548 139.013 27.7338C138.928 27.6844 138.62 27.9907 138.658 28.0869C138.674 28.1272 139.809 29.075 141.18 30.1929C143.839 32.3597 144.028 32.4771 146.015 33.1865C149.883 34.568 154.662 35.2027 159.24 34.943C163.729 34.6882 167.103 34.1133 170.241 33.0677C172.47 32.3251 174.03 31.413 174.755 30.428C175.297 29.691 175.511 29.0543 175.575 27.9908L175.631 27.0618L176.239 26.9948C177.062 26.9043 177.635 26.6325 178.273 26.0302L178.808 25.5255L179.487 25.9761C179.86 26.224 180.469 26.5476 180.838 26.6954L181.511 26.964L188.738 26.9915L195.965 27.0189V25.9402V24.8615H195.487C195.062 24.8615 194.931 24.8036 194.321 24.3481C193.942 24.0658 193.044 23.3141 192.325 22.6778C190.842 21.3667 189.587 20.4854 188.747 20.1666C188.033 19.895 187.045 19.8284 186.477 20.0135ZM214.051 23.3485C213.974 23.7599 213.494 24.0795 212.956 24.0784C212.505 24.0775 211.081 23.7511 210.947 23.618C210.888 23.5591 211.325 23.2086 212.137 22.6632C212.843 22.1892 213.539 21.6459 213.684 21.4557L213.947 21.11L214.03 22.0654C214.076 22.5908 214.085 23.1682 214.051 23.3485ZM117.8 22.539C118.193 23.1556 118.646 24.262 118.646 24.603V24.8491L117.936 24.6526C117.111 24.4246 116.416 24.0696 116.053 23.6913L115.797 23.4246L116.255 22.9164C116.612 22.5194 117.219 22.0682 117.447 22.0299C117.461 22.0275 117.62 22.2567 117.8 22.539ZM235.697 23.5392C235.831 23.8403 235.97 24.2458 236.006 24.4403L236.073 24.794L235.594 24.7305C235.001 24.6517 233.836 24.0918 233.469 23.709L233.195 23.4235L233.582 22.935C233.794 22.6664 234.157 22.3534 234.388 22.2396L234.807 22.0324L235.131 22.5121C235.309 22.7758 235.564 23.2381 235.697 23.5392ZM181.658 22.3898C181.931 22.7368 182.522 23.9649 182.598 24.3451C182.631 24.5085 182.617 24.6674 182.567 24.6981C182.272 24.8799 180.453 24.1292 179.986 23.6333L179.768 23.401L180.037 23.0489C180.36 22.6261 181.032 22.1234 181.273 22.1234C181.369 22.1234 181.542 22.2433 181.658 22.3898ZM266.293 27.7951C266.123 28.082 266.124 28.0984 266.324 28.3785C266.825 29.0816 266.786 29.5554 266.225 29.5554C265.846 29.5554 265.488 29.1001 265.337 28.4287C265.181 27.7345 265.003 27.8662 265.003 28.6755C265.003 28.9926 264.952 29.3033 264.889 29.3659C264.827 29.4285 264.566 29.5187 264.311 29.5663C263.374 29.7409 262.79 29.3584 262.444 28.3431C262.314 27.9649 262.263 27.9062 262.147 28.0024C262.045 28.0869 262.024 28.2325 262.069 28.534C262.104 28.7624 262.101 29.0457 262.064 29.1636C261.914 29.6337 261.689 29.6532 256.432 29.6532C252.574 29.6532 251.529 29.6792 251.531 29.7755C251.532 29.8427 251.962 30.085 252.486 30.3138L253.44 30.7298L257.458 30.7272C261.257 30.7248 261.499 30.714 261.905 30.5299L262.336 30.3351L262.955 30.5438C263.657 30.7805 264.383 30.747 264.964 30.451C265.28 30.2899 265.315 30.2899 265.64 30.4513C265.829 30.5448 266.215 30.6512 266.498 30.6876L267.012 30.7541L267.008 29.6414C267.004 28.5352 266.81 27.6083 266.568 27.5318C266.513 27.5143 266.389 27.6328 266.293 27.7951ZM150.054 28.4433C148.795 28.9609 148.213 29.2519 148.021 29.4612C147.765 29.7394 147.655 30.1422 147.835 30.1422C147.953 30.1422 150.695 29.0206 151.175 28.7762C151.62 28.5495 151.898 28.1932 151.85 27.9091C151.821 27.7354 151.661 27.783 150.054 28.4433ZM212.478 28.4257C210.637 29.1687 210.175 29.4602 210.175 29.8778V30.1251L210.885 29.8495C212.309 29.2973 213.536 28.7765 213.762 28.6285C214.056 28.4365 214.316 28.0436 214.274 27.8571C214.249 27.7461 213.843 27.8744 212.478 28.4257ZM270.563 28.2108C270.328 28.5018 269.749 29.7818 269.822 29.8468C269.987 29.9923 271.708 30.8666 271.744 30.823C271.765 30.7981 271.986 30.3993 272.236 29.9367L272.69 29.0956L271.725 28.5921C271.195 28.3152 270.738 28.0886 270.711 28.0886C270.684 28.0886 270.618 28.1436 270.563 28.2108ZM115.217 29.3191C113.996 29.8323 113.424 30.1257 113.232 30.3372C112.975 30.6202 112.867 31.0223 113.047 31.0223C113.157 31.0223 115.943 29.8815 116.399 29.6495C116.823 29.4341 116.962 29.2763 117.076 28.8804C117.138 28.6627 117.13 28.5804 117.047 28.5878C116.984 28.5934 116.16 28.9224 115.217 29.3191ZM233.155 29.2495C232.292 29.6121 231.449 29.9813 231.281 30.07C230.986 30.2259 230.577 30.8786 230.698 30.9998C230.767 31.068 233.411 30.037 234.118 29.6663C234.57 29.4294 234.869 29.0554 234.869 28.7291C234.869 28.6457 234.836 28.5805 234.796 28.584C234.756 28.5875 234.017 28.887 233.155 29.2495ZM136.896 30.4859C136.668 30.9438 136.482 31.3375 136.482 31.3608C136.482 31.4065 137.994 32.242 138.259 32.3427C138.383 32.3899 138.521 32.2122 138.871 31.5552C139.12 31.0886 139.324 30.6932 139.324 30.6765C139.324 30.6354 137.45 29.6532 137.371 29.6532C137.337 29.6532 137.123 30.0279 136.896 30.4859ZM133.705 30.7193L133.245 31.5898L134.249 32.1252L135.253 32.6607L135.726 31.7816C135.986 31.298 136.185 30.8913 136.169 30.8778C136.095 30.8168 134.254 29.8488 134.212 29.8488C134.186 29.8488 133.958 30.2405 133.705 30.7193ZM271.912 31.6216C271.023 31.9971 270.202 32.3426 270.087 32.3895C269.818 32.4998 269.462 32.9537 269.462 33.1869C269.462 33.2872 269.497 33.3692 269.539 33.3692C269.661 33.3692 272.296 32.301 272.789 32.0516C273.034 31.9274 273.306 31.744 273.393 31.644C273.568 31.4432 273.723 30.9203 273.604 30.9317C273.563 30.9357 272.801 31.2462 271.912 31.6216ZM174.656 32.943C173.621 33.3667 172.785 33.771 172.623 33.9255C172.347 34.1897 172.23 34.7114 172.471 34.6094C172.538 34.5809 173.248 34.2919 174.048 33.9673C175.81 33.2523 176.344 32.9532 176.424 32.6365C176.456 32.5062 176.468 32.36 176.449 32.3114C176.43 32.2629 175.624 32.5471 174.656 32.943Z" fill="#614730"/>
</g>
<defs>
<clipPath id="clip0_6418_5691">
<rect width="380" height="43.8989" fill="white"/>
</clipPath>
</defs>
</svg>
