<svg width="149" height="95" viewBox="0 0 149 95" fill="none" xmlns="http://www.w3.org/2000/svg">
<g clip-path="url(#clip0_7208_85107)">
<path d="M94.5 12.5C37 19 71 83.5 -1 95L-9.50013 101.5L163 99.5001C134 52 135.764 7.83534 94.5 12.5Z" fill="#F0FAE8"/>
<g clip-path="url(#clip1_7208_85107)">
<path d="M48.3241 27.7319C48.3763 27.8076 48.4102 27.8937 48.4102 27.985C48.4102 28.2589 48.1494 28.4806 47.8259 28.4806C47.5024 28.4806 47.2416 28.2589 47.2416 27.985C47.2416 27.8911 47.2729 27.805 47.3277 27.7319C47.192 27.8624 47.106 28.045 47.106 28.251C47.106 28.6475 47.4294 28.971 47.8259 28.971C48.2224 28.971 48.5458 28.6475 48.5458 28.251C48.5458 28.0476 48.4598 27.865 48.3241 27.7319Z" fill="#82B473"/>
<path d="M47.823 31.3032C48.0103 31.3032 48.1621 31.1514 48.1621 30.9641C48.1621 30.7768 48.0103 30.625 47.823 30.625C47.6357 30.625 47.4839 30.7768 47.4839 30.9641C47.4839 31.1514 47.6357 31.3032 47.823 31.3032Z" fill="#82B473"/>
<path d="M48.165 29.1536C48.165 29.3414 48.0137 29.4927 47.8259 29.4927C47.6381 29.4927 47.4868 29.3414 47.4868 29.1536C47.4868 28.9657 47.6381 28.8145 47.8259 28.8145C48.0137 28.8145 48.165 28.9657 48.165 29.1536Z" fill="#82B473"/>
<path d="M48.165 29.7483C48.165 29.9361 48.0137 30.0874 47.8259 30.0874C47.6381 30.0874 47.4868 29.9361 47.4868 29.7483C47.4868 29.5605 47.6381 29.4092 47.8259 29.4092C48.0137 29.4092 48.165 29.5605 48.165 29.7483Z" fill="#82B473"/>
<path d="M47.823 30.7187C48.0103 30.7187 48.1621 30.5669 48.1621 30.3796C48.1621 30.1923 48.0103 30.0405 47.823 30.0405C47.6357 30.0405 47.4839 30.1923 47.4839 30.3796C47.4839 30.5669 47.6357 30.7187 47.823 30.7187Z" fill="#82B473"/>
<path d="M47.8231 34.2583C47.2909 34.2583 46.8579 33.8227 46.8579 33.2932V32.1819C46.8579 31.6498 47.2935 31.2168 47.8231 31.2168C48.3552 31.2168 48.7882 31.6524 48.7882 32.1819V33.2932C48.7882 33.8253 48.3526 34.2583 47.8231 34.2583Z" fill="#CDEFC3"/>
<path d="M49.2813 34.8948C49.2813 35.4791 48.6553 35.9513 47.8858 35.9513C47.1163 35.9513 46.4902 35.4791 46.4902 34.8948C46.4902 34.3105 47.1163 33.8384 47.8858 33.8384C48.6553 33.8384 49.2813 34.3105 49.2813 34.8948Z" fill="#82B473"/>
<path d="M46.4642 38.0304H49.3048C49.777 37.7252 50.0769 37.2739 50.0769 36.7679C50.0769 35.8523 49.0961 35.1089 47.8832 35.1089C46.6702 35.1089 45.6895 35.8523 45.6895 36.7679C45.6895 37.2739 45.9894 37.7252 46.4616 38.0304H46.4642Z" fill="#CDEFC3"/>
<path d="M49.2549 41.2363H46.7925L45.123 41.6459L45.8378 42.5432H47.0872H48.9236H50.0557L50.7731 41.6459L49.2549 41.2363Z" fill="#82B473"/>
<path d="M50.0558 59.6992H45.8379V42.5432L47.0874 42.2354H48.9237L50.0558 42.5432V59.6992Z" fill="#82B473"/>
<path d="M48.9238 42.2354H47.0874V59.6966H48.9238V42.2354Z" fill="#CDEFC3"/>
<path d="M50.6219 41.4446L49.2263 41.0481H46.8213L45.3579 41.4446V37.9492H50.6219V41.4446Z" fill="#5A7851"/>
<path d="M49.2549 37.6963H46.7951L45.123 38.1058V41.6456L46.7951 41.236H49.2549L50.7731 41.6456V38.1058L49.2549 37.6963ZM46.4403 40.8995L45.5143 41.116V39.3396C45.5143 38.9614 45.723 38.6014 45.976 38.5414C46.229 38.4814 46.4377 38.7423 46.4377 39.1205V40.8969L46.4403 40.8995ZM48.7123 40.7978H47.3351V39.0214C47.3351 38.6432 47.6455 38.3328 48.0237 38.3328C48.4019 38.3328 48.7123 38.6432 48.7123 39.0214V40.7978ZM50.5383 41.116L49.6123 40.8995V39.1231C49.6123 38.7449 49.821 38.4841 50.074 38.5441C50.327 38.604 50.5357 38.9614 50.5357 39.3423V41.1186L50.5383 41.116Z" fill="#CDEFC3"/>
<path d="M49.2552 37.6963H46.7954V41.236H49.2552V37.6963ZM48.7127 40.7978H47.3354V39.0214C47.3354 38.6432 47.6458 38.3328 48.024 38.3328C48.4022 38.3328 48.7127 38.6432 48.7127 39.0214V40.7978Z" fill="#82B473"/>
<path d="M49.7116 36.958H46.4875L43.313 38.2023L45.1233 39.0761V38.3327L46.871 37.9049H49.276L50.7733 38.3327V39.0761L52.6984 38.2179L49.7116 36.958Z" fill="#82B473"/>
<path d="M67.2769 35.2417C67.3212 35.3043 67.3473 35.3747 67.3473 35.4504C67.3473 35.6773 67.1308 35.8599 66.8648 35.8599C66.5987 35.8599 66.3822 35.6773 66.3822 35.4504C66.3822 35.3721 66.4083 35.3017 66.4526 35.2417C66.3404 35.3486 66.27 35.4999 66.27 35.6695C66.27 35.9982 66.5361 36.2642 66.8648 36.2642C67.1934 36.2642 67.4595 35.9982 67.4595 35.6695C67.4595 35.4999 67.3891 35.3486 67.2769 35.2417Z" fill="#82B473"/>
<path d="M67.1464 37.9126C67.1464 38.0665 67.0212 38.1943 66.8647 38.1943C66.7082 38.1943 66.583 38.0691 66.583 37.9126C66.583 37.7561 66.7082 37.6309 66.8647 37.6309C67.0212 37.6309 67.1464 37.7561 67.1464 37.9126Z" fill="#82B473"/>
<path d="M67.1464 36.4155C67.1464 36.5694 67.0212 36.6972 66.8647 36.6972C66.7082 36.6972 66.583 36.572 66.583 36.4155C66.583 36.259 66.7082 36.1338 66.8647 36.1338C67.0212 36.1338 67.1464 36.259 67.1464 36.4155Z" fill="#82B473"/>
<path d="M67.1464 36.9057C67.1464 37.0596 67.0212 37.1875 66.8647 37.1875C66.7082 37.1875 66.583 37.0623 66.583 36.9057C66.583 36.7492 66.7082 36.624 66.8647 36.624C67.0212 36.624 67.1464 36.7492 67.1464 36.9057Z" fill="#82B473"/>
<path d="M67.1464 37.4277C67.1464 37.5816 67.0212 37.7094 66.8647 37.7094C66.7082 37.7094 66.583 37.5842 66.583 37.4277C66.583 37.2712 66.7082 37.146 66.8647 37.146C67.0212 37.146 67.1464 37.2712 67.1464 37.4277Z" fill="#82B473"/>
<path d="M66.8646 40.6332C66.4264 40.6332 66.0664 40.2733 66.0664 39.835V38.9169C66.0664 38.4786 66.4264 38.1187 66.8646 38.1187C67.3028 38.1187 67.6628 38.4786 67.6628 38.9169V39.835C67.6628 40.2733 67.3028 40.6332 66.8646 40.6332Z" fill="#CDEFC3"/>
<path d="M68.0671 41.1579C68.0671 41.6404 67.5507 42.0291 66.9142 42.0291C66.2777 42.0291 65.7612 41.6378 65.7612 41.1579C65.7612 40.6779 66.2777 40.2866 66.9142 40.2866C67.5507 40.2866 68.0671 40.6779 68.0671 41.1579Z" fill="#82B473"/>
<path d="M65.7405 43.7478H68.0881C68.4768 43.4974 68.7246 43.1244 68.7246 42.7044C68.7246 41.948 67.9134 41.335 66.9143 41.335C65.9152 41.335 65.104 41.948 65.104 42.7044C65.104 43.1218 65.3518 43.4948 65.7405 43.7478Z" fill="#CDEFC3"/>
<path d="M68.0464 46.3955H66.0117L64.6318 46.7346L65.224 47.4754H66.2543H67.7725H68.7089L69.301 46.7346L68.0464 46.3955Z" fill="#82B473"/>
<path d="M68.7091 61.6445H65.2241V47.4752L66.2545 47.2222H67.7726L68.7091 47.4752V61.6445Z" fill="#82B473"/>
<path d="M67.7725 47.2222H66.2544V61.6472H67.7725V47.2222Z" fill="#CDEFC3"/>
<path d="M69.176 46.5704L68.023 46.2391H66.038L64.8276 46.5704V43.6802H69.176V46.5704Z" fill="#5A7851"/>
<path d="M68.0462 43.4717H66.0142L64.6343 43.8108V46.7349L66.0142 46.3958H68.0462L69.3009 46.7349V43.8108L68.0462 43.4717ZM65.722 46.1167L64.9577 46.2967V44.8281C64.9577 44.5151 65.1299 44.2177 65.3386 44.1681C65.5499 44.1186 65.7194 44.3351 65.7194 44.6481V46.1167H65.722ZM67.6001 46.0332H66.4628V44.5646C66.4628 44.2516 66.7185 43.996 67.0315 43.996C67.3445 43.996 67.6001 44.2516 67.6001 44.5646V46.0332ZM69.1078 46.2967L68.3436 46.1167V44.6481C68.3436 44.3351 68.5157 44.1186 68.7244 44.1681C68.9357 44.2177 69.1052 44.5151 69.1052 44.8281V46.2967H69.1078Z" fill="#CDEFC3"/>
<path d="M68.0462 43.4717H66.0142V46.3958H68.0462V43.4717ZM67.5975 46.0332H66.4602V44.5646C66.4602 44.2516 66.7158 43.996 67.0289 43.996C67.3419 43.996 67.5975 44.2516 67.5975 44.5646V46.0332Z" fill="#82B473"/>
<path d="M68.422 42.8613H65.7587L63.1372 43.8917L64.6319 44.6116V43.9986L66.077 43.6439H68.0647L69.3011 43.9986V44.6116L70.8897 43.9021L68.422 42.8613Z" fill="#82B473"/>
<path d="M125.567 15.5996C125.496 15.7013 125.452 15.8187 125.452 15.9439C125.452 16.3169 125.807 16.6169 126.245 16.6169C126.683 16.6169 127.038 16.3143 127.038 15.9439C127.038 15.8161 126.993 15.6987 126.923 15.5996C127.108 15.777 127.223 16.0248 127.223 16.3039C127.223 16.8439 126.785 17.2821 126.245 17.2821C125.705 17.2821 125.267 16.8439 125.267 16.3039C125.267 16.0274 125.381 15.7796 125.567 15.5996Z" fill="#82B473"/>
<path d="M126.245 20.4517C126.5 20.4517 126.707 20.245 126.707 19.99C126.707 19.735 126.5 19.5283 126.245 19.5283C125.99 19.5283 125.783 19.735 125.783 19.99C125.783 20.245 125.99 20.4517 126.245 20.4517Z" fill="#82B473"/>
<path d="M126.245 17.9918C126.5 17.9918 126.707 17.7851 126.707 17.5301C126.707 17.2751 126.5 17.0684 126.245 17.0684C125.99 17.0684 125.783 17.2751 125.783 17.5301C125.783 17.7851 125.99 17.9918 126.245 17.9918Z" fill="#82B473"/>
<path d="M125.783 18.3387C125.783 18.5943 125.989 18.8004 126.245 18.8004C126.501 18.8004 126.707 18.5943 126.707 18.3387C126.707 18.083 126.501 17.877 126.245 17.877C125.989 17.877 125.783 18.083 125.783 18.3387Z" fill="#82B473"/>
<path d="M126.245 19.6558C126.5 19.6558 126.707 19.4491 126.707 19.1941C126.707 18.9391 126.5 18.7324 126.245 18.7324C125.99 18.7324 125.783 18.9391 125.783 19.1941C125.783 19.4491 125.99 19.6558 126.245 19.6558Z" fill="#82B473"/>
<path d="M126.245 24.4631C126.967 24.4631 127.557 23.8736 127.557 23.151V21.6407C127.557 20.9181 126.967 20.3286 126.245 20.3286C125.522 20.3286 124.933 20.9181 124.933 21.6407V23.151C124.933 23.8736 125.522 24.4631 126.245 24.4631Z" fill="#CDEFC3"/>
<path d="M126.164 26.759C127.211 26.759 128.06 26.1167 128.06 25.3243C128.06 24.532 127.211 23.8896 126.164 23.8896C125.117 23.8896 124.268 24.532 124.268 25.3243C124.268 26.1167 125.117 26.759 126.164 26.759Z" fill="#82B473"/>
<path d="M128.092 29.5811H124.234C123.592 29.169 123.185 28.5534 123.185 27.8673C123.185 26.6231 124.518 25.6162 126.161 25.6162C127.805 25.6162 129.138 26.6231 129.138 27.8673C129.138 28.5534 128.731 29.1664 128.089 29.5811H128.092Z" fill="#CDEFC3"/>
<path d="M124.304 33.9346H127.643L129.912 34.4928L128.939 35.7083H127.246H124.753H123.214L122.241 34.4928L124.304 33.9346Z" fill="#82B473"/>
<path d="M123.214 58.9995H128.94V35.7082L127.247 35.2935H124.753L123.214 35.7082V58.9995Z" fill="#82B473"/>
<path d="M124.753 58.9995H127.247V35.2909H124.753V58.9995Z" fill="#CDEFC3"/>
<path d="M122.447 34.2191L124.341 33.6792H127.604L129.591 34.2191V29.4717H122.447V34.2191Z" fill="#5A7851"/>
<path d="M122.241 29.6855V34.4903L124.304 33.9321H127.646L129.915 34.4903V29.6855L127.646 29.1299H124.304L122.241 29.6855ZM128.125 31.0654C128.125 30.5515 128.407 30.1968 128.754 30.2776C129.098 30.3585 129.383 30.8463 129.383 31.3601V33.773L128.128 33.4782V31.0654H128.125ZM125.04 30.9271C125.04 30.4133 125.46 29.9907 125.976 29.9907C126.493 29.9907 126.913 30.4107 126.913 30.9271V33.34H125.042V30.9271H125.04ZM122.562 31.3601C122.562 30.8463 122.843 30.3585 123.19 30.2776C123.537 30.1968 123.819 30.5515 123.819 31.0654V33.4782L122.564 33.773V31.3601H122.562Z" fill="#CDEFC3"/>
<path d="M124.304 33.9347H127.646V29.1299H124.304V33.9347ZM125.04 30.9271C125.04 30.4133 125.46 29.9907 125.976 29.9907C126.493 29.9907 126.913 30.4107 126.913 30.9271V33.34H125.042V30.9271H125.04Z" fill="#82B473"/>
<path d="M123.683 28.1255H128.06L132.372 29.8158L129.912 31.0027V29.9932L127.541 29.4115H124.273L122.241 29.9932V31.0027L119.627 29.8367L123.683 28.1255Z" fill="#82B473"/>
<path d="M105.351 25.7964C105.291 25.8799 105.257 25.9764 105.257 26.0807C105.257 26.3885 105.549 26.6363 105.912 26.6363C106.274 26.6363 106.566 26.3885 106.566 26.0807C106.566 25.9764 106.53 25.8799 106.472 25.7964C106.624 25.9425 106.72 26.1485 106.72 26.3781C106.72 26.8241 106.358 27.1867 105.912 27.1867C105.466 27.1867 105.103 26.8241 105.103 26.3781C105.103 26.1485 105.2 25.9451 105.351 25.7964Z" fill="#82B473"/>
<path d="M105.528 29.4223C105.528 29.6336 105.698 29.8032 105.909 29.8032C106.12 29.8032 106.29 29.6336 106.29 29.4223C106.29 29.2111 106.12 29.0415 105.909 29.0415C105.698 29.0415 105.528 29.2111 105.528 29.4223Z" fill="#82B473"/>
<path d="M105.528 27.3901C105.528 27.6014 105.698 27.771 105.909 27.771C106.12 27.771 106.29 27.6014 106.29 27.3901C106.29 27.1788 106.12 27.0093 105.909 27.0093C105.698 27.0093 105.528 27.1788 105.528 27.3901Z" fill="#82B473"/>
<path d="M105.528 28.0581C105.528 28.2694 105.698 28.4389 105.909 28.4389C106.12 28.4389 106.29 28.2694 106.29 28.0581C106.29 27.8468 106.12 27.6772 105.909 27.6772C105.698 27.6772 105.528 27.8468 105.528 28.0581Z" fill="#82B473"/>
<path d="M105.528 28.7646C105.528 28.9759 105.698 29.1455 105.909 29.1455C106.12 29.1455 106.29 28.9759 106.29 28.7646C106.29 28.5533 106.12 28.3838 105.909 28.3838C105.698 28.3838 105.528 28.5533 105.528 28.7646Z" fill="#82B473"/>
<path d="M105.912 33.116C106.506 33.116 106.994 32.6282 106.994 32.0335V30.7866C106.994 30.1919 106.506 29.7041 105.912 29.7041C105.317 29.7041 104.829 30.1919 104.829 30.7866V32.0335C104.829 32.6282 105.317 33.116 105.912 33.116Z" fill="#CDEFC3"/>
<path d="M104.279 33.8278C104.279 34.4825 104.98 35.0121 105.844 35.0121C106.707 35.0121 107.409 34.4825 107.409 33.8278C107.409 33.1731 106.707 32.6436 105.844 32.6436C104.98 32.6436 104.279 33.1731 104.279 33.8278Z" fill="#82B473"/>
<path d="M107.438 37.3441H104.253C103.723 37.0024 103.387 36.4964 103.387 35.9277C103.387 34.9 104.488 34.0679 105.847 34.0679C107.206 34.0679 108.306 34.9 108.306 35.9277C108.306 36.4938 107.97 37.0024 107.44 37.3441H107.438Z" fill="#CDEFC3"/>
<path d="M104.307 40.9414H107.067L108.94 41.4005L108.137 42.4048H106.738H104.678H103.407L102.604 41.4005L104.307 40.9414Z" fill="#82B473"/>
<path d="M103.407 61.645H108.136V42.4047L106.738 42.063H104.678L103.407 42.4047V61.645Z" fill="#82B473"/>
<path d="M104.678 61.645H106.738V42.0604H104.678V61.645Z" fill="#CDEFC3"/>
<path d="M102.774 41.1759L104.339 40.7299H107.036L108.677 41.1759V37.2554H102.774V41.1759Z" fill="#5A7851"/>
<path d="M102.604 37.4303V41.4004L104.307 40.9413H107.067L108.94 41.4004V37.4303L107.067 36.9712H104.307L102.604 37.4303ZM107.464 38.5702C107.464 38.145 107.696 37.8529 107.983 37.9207C108.267 37.9885 108.502 38.3902 108.502 38.8154V40.8083L107.464 40.5657V38.5728V38.5702ZM104.915 38.4554C104.915 38.0302 105.262 37.6833 105.687 37.6833C106.112 37.6833 106.459 38.0302 106.459 38.4554V40.4483H104.915V38.4554ZM102.867 38.8128C102.867 38.3876 103.1 37.9859 103.387 37.9181C103.671 37.8503 103.906 38.145 103.906 38.5676V40.5605L102.867 40.8031V38.8102V38.8128Z" fill="#CDEFC3"/>
<path d="M104.308 40.9413H107.067V36.9712H104.308V40.9413ZM104.915 38.458C104.915 38.0328 105.262 37.6859 105.688 37.6859C106.113 37.6859 106.46 38.0328 106.46 38.458V40.4509H104.915V38.458Z" fill="#82B473"/>
<path d="M103.796 36.1445H107.412L110.972 37.5401L108.94 38.5183V37.6835L106.981 37.2036H104.281L102.604 37.6835V38.5183L100.444 37.5557L103.796 36.1445Z" fill="#82B473"/>
<path d="M85.4503 39.8354C85.4138 39.8876 85.3929 39.945 85.3929 40.0076C85.3929 40.1954 85.5703 40.3467 85.792 40.3467C86.0137 40.3467 86.1911 40.1954 86.1911 40.0076C86.1911 39.945 86.1702 39.885 86.1337 39.8354C86.2276 39.9241 86.285 40.0493 86.285 40.1876C86.285 40.4589 86.0659 40.678 85.7946 40.678C85.5233 40.678 85.3042 40.4589 85.3042 40.1876C85.3042 40.0493 85.3616 39.9241 85.4555 39.8354H85.4503Z" fill="#82B473"/>
<path d="M85.7893 42.2744C85.9175 42.2744 86.0214 42.1704 86.0214 42.0422C86.0214 41.914 85.9175 41.8101 85.7893 41.8101C85.6611 41.8101 85.5571 41.914 85.5571 42.0422C85.5571 42.1704 85.6611 42.2744 85.7893 42.2744Z" fill="#82B473"/>
<path d="M85.5601 40.8059C85.5601 40.9337 85.6644 41.038 85.7922 41.038C85.92 41.038 86.0244 40.9337 86.0244 40.8059C86.0244 40.6781 85.92 40.5737 85.7922 40.5737C85.6644 40.5737 85.5601 40.6781 85.5601 40.8059Z" fill="#82B473"/>
<path d="M85.5601 41.2102C85.5601 41.338 85.6644 41.4423 85.7922 41.4423C85.92 41.4423 86.0244 41.338 86.0244 41.2102C86.0244 41.0824 85.92 40.978 85.7922 40.978C85.6644 40.978 85.5601 41.0824 85.5601 41.2102Z" fill="#82B473"/>
<path d="M85.5601 41.6404C85.5601 41.7682 85.6644 41.8725 85.7922 41.8725C85.92 41.8725 86.0244 41.7682 86.0244 41.6404C86.0244 41.5125 85.92 41.4082 85.7922 41.4082C85.6644 41.4082 85.5601 41.5125 85.5601 41.6404Z" fill="#82B473"/>
<path d="M85.7893 44.288C86.1519 44.288 86.4493 43.9906 86.4493 43.628V42.8689C86.4493 42.5064 86.1519 42.209 85.7893 42.209C85.4268 42.209 85.1294 42.5064 85.1294 42.8689V43.628C85.1294 43.9906 85.4268 44.288 85.7893 44.288Z" fill="#CDEFC3"/>
<path d="M85.7504 45.4409C86.2763 45.4409 86.7025 45.1185 86.7025 44.7209C86.7025 44.3233 86.2763 44.001 85.7504 44.001C85.2246 44.001 84.7983 44.3233 84.7983 44.7209C84.7983 45.1185 85.2246 45.4409 85.7504 45.4409Z" fill="#82B473"/>
<path d="M86.718 46.8601H84.7799C84.459 46.6514 84.2529 46.3436 84.2529 45.9993C84.2529 45.3732 84.9233 44.8672 85.7502 44.8672C86.5771 44.8672 87.2475 45.3732 87.2475 45.9993C87.2475 46.3436 87.0414 46.654 86.7206 46.8601H86.718Z" fill="#CDEFC3"/>
<path d="M84.8139 49.0488H86.4938L87.6337 49.3279L87.1459 49.9409H86.2955H85.0408H84.2661L83.7783 49.3279L84.8139 49.0488Z" fill="#82B473"/>
<path d="M84.2661 64.6922H87.1459V49.9411L86.2955 49.7324H85.0408L84.2661 49.9411V64.6922Z" fill="#82B473"/>
<path d="M85.0433 64.6919H86.2954V49.7322H85.0433V64.6919Z" fill="#CDEFC3"/>
<path d="M83.8828 49.192L84.8349 48.9207H86.4757L87.4721 49.192V46.8052H83.8828V49.192Z" fill="#5A7851"/>
<path d="M83.7783 46.9149V49.3303L84.8139 49.0512H86.4938L87.6337 49.3303V46.9149L86.4938 46.6357H84.8139L83.7783 46.9149ZM86.7364 47.6087C86.7364 47.3505 86.8772 47.1731 87.052 47.2122C87.2268 47.254 87.3676 47.4992 87.3676 47.7574V48.9703L86.7364 48.8217V47.6087ZM85.1843 47.5409C85.1843 47.2826 85.3956 47.0714 85.6538 47.0714C85.9121 47.0714 86.1234 47.2826 86.1234 47.5409V48.7538H85.1843V47.5409ZM83.9374 47.7574C83.9374 47.4992 84.0783 47.254 84.2531 47.2122C84.4278 47.1705 84.5687 47.3505 84.5687 47.6087V48.8217L83.9374 48.9703V47.7574Z" fill="#CDEFC3"/>
<path d="M84.814 49.0488H86.4938V46.6333H84.814V49.0488ZM85.1844 47.5384C85.1844 47.2802 85.3957 47.0689 85.6539 47.0689C85.9121 47.0689 86.1234 47.2802 86.1234 47.5384V48.7514H85.1844V47.5384Z" fill="#82B473"/>
<path d="M84.5035 46.1299H86.7025L88.8702 46.9803L87.6337 47.575V47.0689L86.4417 46.7768H84.8009L83.7784 47.0689V47.575L82.4663 46.9907L84.5035 46.1299Z" fill="#82B473"/>
<path d="M85.6668 63.4319L15 54.2344V95.5999L85.6668 87.1067V63.4319Z" fill="url(#paint0_linear_7208_85107)"/>
<path d="M39.5933 79.871C39.5933 79.4458 39.8437 79.0572 40.3471 78.9006C40.1802 78.0581 40.2219 77.299 41.6018 76.8347C41.6435 75.087 43.1721 74.6279 43.1721 74.6279C43.1721 74.6279 44.7007 75.087 44.7424 76.7878C46.1249 77.1999 46.1667 77.9094 45.9971 78.7207C46.5006 78.8407 46.751 79.1876 46.751 79.5893C46.751 81.6604 46.751 83.729 46.751 85.8001L39.5933 86.2879V79.8684V79.871Z" fill="#F0C990"/>
<path d="M39.5933 79.871C39.5933 79.4458 39.8437 79.0572 40.3471 78.9006C40.1802 78.0581 40.2219 77.299 41.6018 76.8347C41.6435 75.087 43.1721 74.6279 43.1721 74.6279C43.1721 74.6279 44.7007 75.087 44.7424 76.7878C46.1249 77.1999 46.1667 77.9094 45.9971 78.7207C46.5006 78.8407 46.751 79.1876 46.751 79.5893C46.751 81.6604 46.751 83.729 46.751 85.8001L39.5933 86.2879V79.8684V79.871Z" fill="#B6D5AC"/>
<path d="M50.5254 79.6912C50.5254 79.3025 50.7549 78.9478 51.214 78.8043C51.0601 78.0374 51.0993 77.341 52.3592 76.921C52.3983 75.3272 53.7912 74.9072 53.7912 74.9072C53.7912 74.9072 55.1868 75.3272 55.2233 76.8792C56.4832 77.2549 56.5223 77.9018 56.3684 78.6452C56.8275 78.7548 57.0571 79.0704 57.0571 79.4382C57.0571 80.8833 57.0571 83.5257 57.0571 85.1012L50.5254 85.5447C50.5254 83.857 50.5254 81.1754 50.5254 79.6912Z" fill="#B6D5AC"/>
<path d="M60.4507 79.5109C60.4507 79.1588 60.6568 78.8405 61.0715 78.7101C60.9333 78.0163 60.9672 77.3876 62.1071 77.0068C62.141 75.5643 63.4035 75.186 63.4035 75.186C63.4035 75.186 64.6634 75.5669 64.6999 76.9703C65.8398 77.3094 65.8737 77.8963 65.7355 78.5666C66.1502 78.6658 66.3563 78.9527 66.3563 79.284C66.3563 80.1265 66.3563 83.2985 66.3563 84.4697L60.4507 84.8714C60.4507 83.528 60.4507 80.3743 60.4507 79.5135V79.5109Z" fill="#B6D5AC"/>
<path d="M68.8423 79.3336C68.8423 79.0179 69.0275 78.7336 69.3979 78.6188C69.2753 77.998 69.304 77.4372 70.3239 77.0955C70.3552 75.8069 71.4821 75.4678 71.4821 75.4678C71.4821 75.4678 72.609 75.8069 72.6403 77.0616C73.6602 77.3642 73.6915 77.8885 73.5663 78.4884C73.9367 78.5771 74.1219 78.8327 74.1219 79.1301C74.1219 79.3988 74.1219 83.2594 74.1219 83.9428L68.8423 84.3028C68.8423 83.2959 68.8423 79.6075 68.8423 79.3362V79.3336Z" fill="#B6D5AC"/>
<path d="M45.8457 79.5917C45.8457 79.19 45.5953 78.8431 45.0918 78.7231C45.2588 77.9093 45.217 77.1997 43.8371 76.7902C43.8111 75.7025 43.1746 75.1234 42.7207 74.8469C42.9737 74.6904 43.172 74.6304 43.172 74.6304C43.172 74.6304 44.7006 75.0895 44.7423 76.7902C46.1248 77.2023 46.1665 77.9119 45.997 78.7231C46.5004 78.8431 46.7508 79.19 46.7508 79.5917C46.7508 81.6629 46.7508 83.7314 46.7508 85.8026L45.8457 85.8652V79.5943V79.5917Z" fill="#A1BB98"/>
<path d="M56.2981 79.4377C56.2981 79.0725 56.0685 78.7543 55.6094 78.6447C55.7633 77.9039 55.7242 77.2544 54.4643 76.8788C54.4382 75.8588 53.8278 75.3293 53.4131 75.0841C53.627 74.9563 53.7913 74.9067 53.7913 74.9067C53.7913 74.9067 55.1869 75.3267 55.2234 76.8788C56.4833 77.2544 56.5224 77.9013 56.3685 78.6447C56.8276 78.7543 57.0572 79.0699 57.0572 79.4377C57.0572 80.8828 57.0572 83.5252 57.0572 85.1007L56.2981 85.1529V79.4377Z" fill="#A1BB98"/>
<path d="M65.7588 79.2815C65.7588 78.9503 65.5527 78.6633 65.138 78.5642C65.2762 77.8938 65.2423 77.3069 64.1024 76.9678C64.0789 76.0079 63.4816 75.5279 63.106 75.3192C63.2781 75.2227 63.4033 75.1836 63.4033 75.1836C63.4033 75.1836 64.6632 75.5644 64.6997 76.9678C65.8397 77.3069 65.8736 77.8938 65.7353 78.5642C66.1501 78.6633 66.3561 78.9503 66.3561 79.2815C66.3561 80.1241 66.3561 83.296 66.3561 84.4672L65.7588 84.509V79.2815Z" fill="#A1BB98"/>
<path d="M73.6288 79.1277C73.6288 78.8329 73.4436 78.5747 73.0732 78.486C73.1958 77.886 73.1671 77.3617 72.1472 77.0591C72.1263 76.1853 71.5707 75.7549 71.2368 75.5749C71.3803 75.4966 71.4846 75.4653 71.4846 75.4653C71.4846 75.4653 72.6115 75.8044 72.6428 77.0591C73.6627 77.3617 73.694 77.886 73.5688 78.486C73.9392 78.5747 74.1244 78.8303 74.1244 79.1277C74.1244 79.3963 74.1244 83.2569 74.1244 83.9403L73.6288 83.9742C73.6288 82.9152 73.6288 79.3781 73.6288 79.1277Z" fill="#A1BB98"/>
<path d="M39.5933 65.7378C39.5933 65.3126 39.8437 64.9422 40.3471 64.8196C40.1802 63.9666 40.2219 63.2075 41.6018 62.8423C41.6435 61.0973 43.1721 60.7451 43.1721 60.7451C43.1721 60.7451 44.7007 61.3138 44.7424 63.0171C46.1249 63.5258 46.1667 64.2379 45.9971 65.0387C46.5006 65.1926 46.751 65.5578 46.751 65.9595C46.751 68.0306 46.751 70.0992 46.751 72.1703L39.5933 72.1547V65.7352V65.7378Z" fill="#DCA95F"/>
<path d="M39.5933 65.7378C39.5933 65.3126 39.8437 64.9422 40.3471 64.8196C40.1802 63.9666 40.2219 63.2075 41.6018 62.8423C41.6435 61.0973 43.1721 60.7451 43.1721 60.7451C43.1721 60.7451 44.7007 61.3138 44.7424 63.0171C46.1249 63.5258 46.1667 64.2379 45.9971 65.0387C46.5006 65.1926 46.751 65.5578 46.751 65.9595C46.751 68.0306 46.751 70.0992 46.751 72.1703L39.5933 72.1547V65.7352V65.7378Z" fill="#C6E7BB"/>
<path d="M50.5254 66.3245C50.5254 65.9358 50.7549 65.5993 51.214 65.4871C51.0601 64.7072 51.0993 64.0159 52.3592 63.682C52.3983 62.0909 53.7912 61.77 53.7912 61.77C53.7912 61.77 55.1868 62.2891 55.2233 63.8438C56.4832 64.3081 56.5223 64.9576 56.3684 65.688C56.8275 65.8288 57.0571 66.1627 57.0571 66.5279C57.0571 67.973 57.0571 70.6154 57.0571 72.191L50.5254 72.1779C50.5254 70.4902 50.5254 67.8087 50.5254 66.3245Z" fill="#C6E7BB"/>
<path d="M60.4507 66.8437C60.4507 66.4916 60.6568 66.1864 61.0715 66.0873C60.9333 65.383 60.9672 64.757 62.1071 64.457C62.141 63.0171 63.4035 62.7275 63.4035 62.7275C63.4035 62.7275 64.6634 63.1971 64.6999 64.6004C65.8398 65.0204 65.8737 65.6073 65.7355 66.2699C66.1502 66.3977 66.3563 66.6977 66.3563 67.029C66.3563 67.8715 66.3563 71.0434 66.3563 72.2146L60.4507 72.2016C60.4507 70.8582 60.4507 67.7046 60.4507 66.8437Z" fill="#C6E7BB"/>
<path d="M68.8423 67.2533C68.8423 66.9403 69.0275 66.6664 69.3979 66.5777C69.2753 65.9491 69.304 65.3883 70.3239 65.1196C70.3552 63.8336 71.4821 63.5728 71.4821 63.5728C71.4821 63.5728 72.609 63.9901 72.6403 65.2474C73.6602 65.623 73.6915 66.1473 73.5663 66.7395C73.9367 66.8542 74.1219 67.1229 74.1219 67.4177C74.1219 67.6864 74.1219 71.5469 74.1219 72.2304L68.8423 72.2199C68.8423 71.213 68.8423 67.5246 68.8423 67.2533Z" fill="#C6E7BB"/>
<path d="M45.8457 65.8967C45.8457 65.495 45.5953 65.1298 45.0918 64.9759C45.2588 64.1751 45.217 63.4604 43.8371 62.9543C43.8111 61.864 43.1746 61.2406 42.7207 60.9328C42.9737 60.7945 43.172 60.7476 43.172 60.7476C43.172 60.7476 44.7006 61.3162 44.7423 63.0196C46.1248 63.5282 46.1665 64.2403 45.997 65.0411C46.5004 65.195 46.7508 65.5602 46.7508 65.9619C46.7508 68.0331 46.7508 70.1016 46.7508 72.1728H45.8457V65.8993V65.8967Z" fill="#A5C59B"/>
<path d="M27.9956 65.2266C27.9956 64.8014 28.246 64.431 28.7495 64.3084C28.5825 63.4554 28.6243 62.6963 30.0041 62.3311C30.0459 60.586 31.5745 60.2339 31.5745 60.2339C31.5745 60.2339 33.103 60.8025 33.1448 62.5059C34.5273 63.0145 34.569 63.7267 34.3995 64.5275C34.9029 64.6814 35.1533 65.0466 35.1533 65.4483V72.1782L27.9956 72.1625V65.2239V65.2266Z" fill="#DCA95F"/>
<path d="M27.9956 65.2266C27.9956 64.8014 28.246 64.431 28.7495 64.3084C28.5825 63.4554 28.6243 62.6963 30.0041 62.3311C30.0459 60.586 31.5745 60.2339 31.5745 60.2339C31.5745 60.2339 33.103 60.8025 33.1448 62.5059C34.5273 63.0145 34.569 63.7267 34.3995 64.5275C34.9029 64.6814 35.1533 65.0466 35.1533 65.4483V72.1782L27.9956 72.1625V65.2239V65.2266Z" fill="#C6E7BB"/>
<path d="M34.251 65.3855C34.251 64.9838 34.0005 64.6186 33.4971 64.4647C33.664 63.6639 33.6223 62.9492 32.2424 62.4431C32.2163 61.3528 31.5799 60.7293 31.126 60.4215C31.379 60.2833 31.5772 60.2363 31.5772 60.2363C31.5772 60.2363 33.1058 60.805 33.1476 62.5083C34.5301 63.017 34.5718 63.7291 34.4022 64.5299C34.9057 64.6838 35.1561 65.049 35.1561 65.4507V72.1806H34.251V65.3881V65.3855Z" fill="#A5C59B"/>
<path d="M27.9956 79.4766C27.9956 79.0514 28.246 78.681 28.7495 78.5584C28.5825 77.7054 28.6243 76.9463 30.0041 76.5811C30.0459 74.836 31.5745 74.4839 31.5745 74.4839C31.5745 74.4839 33.103 75.0525 33.1448 76.7559C34.5273 77.2645 34.569 77.9767 34.3995 78.7775C34.9029 78.9314 35.1533 79.2966 35.1533 79.6983V86.4282L27.9956 86.4125V79.4739V79.4766Z" fill="#DCA95F"/>
<path d="M27.9956 79.4766C27.9956 79.0514 28.246 78.681 28.7495 78.5584C28.5825 77.7054 28.6243 76.9463 30.0041 76.5811C30.0459 74.836 31.5745 74.4839 31.5745 74.4839C31.5745 74.4839 33.103 75.0525 33.1448 76.7559C34.5273 77.2645 34.569 77.9767 34.3995 78.7775C34.9029 78.9314 35.1533 79.2966 35.1533 79.6983V86.4282L27.9956 86.8012V79.4766Z" fill="#B6D5AC"/>
<path d="M34.251 79.6384C34.251 79.2367 34.0005 78.8715 33.4971 78.7176C33.664 77.9168 33.6223 77.2021 32.2424 76.696C32.2163 75.6057 31.5799 74.9823 31.126 74.6745C31.379 74.5362 31.5772 74.4893 31.5772 74.4893C31.5772 74.4893 33.1058 75.0579 33.1476 76.7613C34.5301 77.2699 34.5718 77.982 34.4022 78.7828C34.9057 78.9367 35.1561 79.3019 35.1561 79.7036V86.4336H34.251V79.641V79.6384Z" fill="#A1BB98"/>
<path d="M56.2976 66.4761C56.2976 66.1109 56.068 65.777 55.609 65.6361C55.7629 64.9058 55.7237 64.2536 54.4638 63.7919C54.4377 62.7694 53.8273 62.1981 53.4126 61.9242C53.6265 61.8121 53.7908 61.7729 53.7908 61.7729C53.7908 61.7729 55.1864 62.292 55.2229 63.8467C56.4828 64.311 56.5219 64.9605 56.368 65.6909C56.8271 65.8318 57.0567 66.1657 57.0567 66.5308C57.0567 67.976 57.0567 70.6184 57.0567 72.1939H56.2976V66.4761Z" fill="#A5C59B"/>
<path d="M65.7588 66.9845C65.7588 66.6532 65.5527 66.3506 65.138 66.2254C65.2762 65.5654 65.2423 64.9759 64.1024 64.5559C64.0789 63.596 63.4816 63.0717 63.106 62.8369C63.2781 62.7535 63.4033 62.7222 63.4033 62.7222C63.4033 62.7222 64.6632 63.1917 64.6997 64.5951C65.8397 65.015 65.8736 65.6019 65.7353 66.2645C66.1501 66.3923 66.3561 66.6923 66.3561 67.0236C66.3561 67.8661 66.3561 71.0381 66.3561 72.2093H65.7588V66.9818V66.9845Z" fill="#A5C59B"/>
<path d="M73.6288 67.3838C73.6288 67.089 73.4436 66.8177 73.0732 66.7056C73.1958 66.1134 73.1671 65.5891 72.1472 65.2135C72.1263 64.337 71.5707 63.8701 71.2368 63.6667C71.3803 63.5988 71.4846 63.5728 71.4846 63.5728C71.4846 63.5728 72.6115 63.9901 72.6428 65.2474C73.6627 65.623 73.694 66.1473 73.5688 66.7395C73.9392 66.8542 74.1244 67.1229 74.1244 67.4177C74.1244 67.6864 74.1244 71.5469 74.1244 72.2304H73.6288C73.6288 71.1713 73.6288 67.6316 73.6288 67.3838Z" fill="#A5C59B"/>
<path d="M75.9526 78.6367C75.9526 78.3576 76.117 78.102 76.4483 77.9977C76.3387 77.4447 76.3648 76.9438 77.2751 76.6412C77.3038 75.4935 78.3081 75.1909 78.3081 75.1909C78.3081 75.1909 79.3124 75.4935 79.3411 76.6125C80.2488 76.8838 80.2775 77.3508 80.168 77.8855C80.4992 77.9638 80.6636 78.1933 80.6636 78.4568C80.6636 78.6967 80.6636 82.8677 80.6636 83.4755L75.9579 83.7964V78.6394L75.9526 78.6367Z" fill="#B6D5AC"/>
<path d="M80.2153 78.4543C80.2153 78.1909 80.051 77.9613 79.7197 77.8831C79.8292 77.3483 79.8032 76.8814 78.8928 76.6101C78.8745 75.8302 78.3789 75.4467 78.0815 75.2876C78.2094 75.2172 78.3033 75.1885 78.3033 75.1885C78.3033 75.1885 79.3075 75.4911 79.3362 76.6101C80.244 76.8814 80.2727 77.3483 80.1631 77.8831C80.4944 77.9613 80.6587 78.1909 80.6587 78.4543C80.6587 78.6943 80.6587 82.8653 80.6587 83.4731L80.2153 83.5044V78.4543Z" fill="#A1BB98"/>
<path d="M75.9526 67.8687C75.9526 67.5896 76.117 67.3444 76.4483 67.2662C76.3387 66.7053 76.3648 66.2071 77.2751 65.9671C77.3038 64.8194 78.3081 64.5898 78.3081 64.5898C78.3081 64.5898 79.3124 64.9629 79.3411 66.0819C80.2488 66.4158 80.2775 66.8853 80.168 67.4122C80.4992 67.514 80.6636 67.754 80.6636 68.0174C80.6636 68.2574 80.6636 71.698 80.6636 72.3084L75.9579 72.298V67.8713L75.9526 67.8687Z" fill="#C6E7BB"/>
<path d="M80.2153 67.9863C80.2153 67.7228 80.051 67.4828 79.7197 67.3811C79.8292 66.8542 79.8032 66.3847 78.8928 66.0508C78.8745 65.2708 78.3789 64.8535 78.0815 64.6709C78.2094 64.6109 78.3033 64.5874 78.3033 64.5874C78.3033 64.5874 79.3075 64.9604 79.3362 66.0795C80.244 66.4134 80.2727 66.8829 80.1631 67.4098C80.4944 67.5115 80.6587 67.7515 80.6587 68.015C80.6587 68.2549 80.6587 71.6956 80.6587 72.3059H80.2153V67.9863Z" fill="#A5C59B"/>
<path d="M85.7922 63.4319L156.459 54.2344V95.5999L85.7922 87.1067V63.4319Z" fill="url(#paint1_linear_7208_85107)"/>
<path d="M131.866 79.871C131.866 79.4458 131.615 79.0572 131.112 78.9006C131.279 78.0581 131.237 77.299 129.857 76.8347C129.815 75.087 128.287 74.6279 128.287 74.6279C128.287 74.6279 126.758 75.087 126.717 76.7878C125.334 77.1999 125.292 77.9094 125.462 78.7207C124.958 78.8407 124.708 79.1876 124.708 79.5893C124.708 81.6604 124.708 83.729 124.708 85.8001L131.866 86.2879V79.8684V79.871Z" fill="#F0C990"/>
<path d="M131.866 79.871C131.866 79.4458 131.615 79.0572 131.112 78.9006C131.279 78.0581 131.237 77.299 129.857 76.8347C129.815 75.087 128.287 74.6279 128.287 74.6279C128.287 74.6279 126.758 75.087 126.717 76.7878C125.334 77.1999 125.292 77.9094 125.462 78.7207C124.958 78.8407 124.708 79.1876 124.708 79.5893C124.708 81.6604 124.708 83.729 124.708 85.8001L131.866 86.2879V79.8684V79.871Z" fill="#B6D5AC"/>
<path d="M120.934 79.6912C120.934 79.3025 120.704 78.9478 120.245 78.8043C120.399 78.0374 120.36 77.341 119.1 76.921C119.061 75.3272 117.668 74.9072 117.668 74.9072C117.668 74.9072 116.272 75.3272 116.236 76.8792C114.976 77.2549 114.937 77.9018 115.091 78.6452C114.631 78.7548 114.402 79.0704 114.402 79.4382C114.402 80.8833 114.402 83.5257 114.402 85.1012L120.934 85.5447C120.934 83.857 120.934 81.1754 120.934 79.6912Z" fill="#B6D5AC"/>
<path d="M111.008 79.5109C111.008 79.1588 110.802 78.8405 110.387 78.7101C110.526 78.0163 110.492 77.3876 109.352 77.0068C109.318 75.5643 108.055 75.186 108.055 75.186C108.055 75.186 106.796 75.5669 106.759 76.9703C105.619 77.3094 105.585 77.8963 105.723 78.5666C105.309 78.6658 105.103 78.9527 105.103 79.284C105.103 80.1265 105.103 83.2985 105.103 84.4697L111.008 84.8714C111.008 83.528 111.008 80.3743 111.008 79.5135V79.5109Z" fill="#B6D5AC"/>
<path d="M102.617 79.3336C102.617 79.0179 102.431 78.7336 102.061 78.6188C102.184 77.998 102.155 77.4372 101.135 77.0955C101.104 75.8069 99.9769 75.4678 99.9769 75.4678C99.9769 75.4678 98.85 75.8069 98.8187 77.0616C97.7988 77.3642 97.7675 77.8885 97.8927 78.4884C97.5223 78.5771 97.3371 78.8327 97.3371 79.1301C97.3371 79.3988 97.3371 83.2594 97.3371 83.9428L102.617 84.3028C102.617 83.2959 102.617 79.6075 102.617 79.3362V79.3336Z" fill="#B6D5AC"/>
<path d="M125.613 79.5917C125.613 79.19 125.864 78.8431 126.367 78.7231C126.2 77.9093 126.242 77.1997 127.622 76.7902C127.648 75.7025 128.284 75.1234 128.738 74.8469C128.485 74.6904 128.287 74.6304 128.287 74.6304C128.287 74.6304 126.758 75.0895 126.717 76.7902C125.334 77.2023 125.292 77.9119 125.462 78.7231C124.959 78.8431 124.708 79.19 124.708 79.5917C124.708 81.6629 124.708 83.7314 124.708 85.8026L125.613 85.8652V79.5943V79.5917Z" fill="#A1BB98"/>
<path d="M115.161 79.4377C115.161 79.0725 115.39 78.7543 115.85 78.6447C115.696 77.9039 115.735 77.2544 116.995 76.8788C117.021 75.8588 117.631 75.3293 118.046 75.0841C117.832 74.9563 117.668 74.9067 117.668 74.9067C117.668 74.9067 116.272 75.3267 116.236 76.8788C114.976 77.2544 114.937 77.9013 115.09 78.6447C114.631 78.7543 114.402 79.0699 114.402 79.4377C114.402 80.8828 114.402 83.5252 114.402 85.1007L115.161 85.1529V79.4377Z" fill="#A1BB98"/>
<path d="M105.7 79.2815C105.7 78.9503 105.906 78.6633 106.321 78.5642C106.183 77.8938 106.217 77.3069 107.357 76.9678C107.38 76.0079 107.977 75.5279 108.353 75.3192C108.181 75.2227 108.056 75.1836 108.056 75.1836C108.056 75.1836 106.796 75.5644 106.759 76.9678C105.619 77.3069 105.585 77.8938 105.724 78.5642C105.309 78.6633 105.103 78.9503 105.103 79.2815C105.103 80.1241 105.103 83.296 105.103 84.4672L105.7 84.509V79.2815Z" fill="#A1BB98"/>
<path d="M97.8302 79.1277C97.8302 78.8329 98.0154 78.5747 98.3858 78.486C98.2632 77.886 98.2919 77.3617 99.3118 77.0591C99.3327 76.1853 99.8883 75.7549 100.222 75.5749C100.079 75.4966 99.9744 75.4653 99.9744 75.4653C99.9744 75.4653 98.8475 75.8044 98.8162 77.0591C97.7963 77.3617 97.765 77.886 97.8902 78.486C97.5198 78.5747 97.3346 78.8303 97.3346 79.1277C97.3346 79.3963 97.3346 83.2569 97.3346 83.9403L97.8302 83.9742C97.8302 82.9152 97.8302 79.3781 97.8302 79.1277Z" fill="#A1BB98"/>
<path d="M131.866 65.7378C131.866 65.3126 131.615 64.9422 131.112 64.8196C131.279 63.9666 131.237 63.2075 129.857 62.8423C129.815 61.0973 128.287 60.7451 128.287 60.7451C128.287 60.7451 126.758 61.3138 126.717 63.0171C125.334 63.5258 125.292 64.2379 125.462 65.0387C124.958 65.1926 124.708 65.5578 124.708 65.9595C124.708 68.0306 124.708 70.0992 124.708 72.1703L131.866 72.1547V65.7352V65.7378Z" fill="#DCA95F"/>
<path d="M131.866 65.7378C131.866 65.3126 131.615 64.9422 131.112 64.8196C131.279 63.9666 131.237 63.2075 129.857 62.8423C129.815 61.0973 128.287 60.7451 128.287 60.7451C128.287 60.7451 126.758 61.3138 126.717 63.0171C125.334 63.5258 125.292 64.2379 125.462 65.0387C124.958 65.1926 124.708 65.5578 124.708 65.9595C124.708 68.0306 124.708 70.0992 124.708 72.1703L131.866 72.1547V65.7352V65.7378Z" fill="#C6E7BB"/>
<path d="M120.934 66.3245C120.934 65.9358 120.704 65.5993 120.245 65.4871C120.399 64.7072 120.36 64.0159 119.1 63.682C119.061 62.0909 117.668 61.77 117.668 61.77C117.668 61.77 116.272 62.2891 116.236 63.8438C114.976 64.3081 114.937 64.9576 115.091 65.688C114.631 65.8288 114.402 66.1627 114.402 66.5279C114.402 67.973 114.402 70.6154 114.402 72.191L120.934 72.1779C120.934 70.4902 120.934 67.8087 120.934 66.3245Z" fill="#C6E7BB"/>
<path d="M111.008 66.8437C111.008 66.4916 110.802 66.1864 110.387 66.0873C110.526 65.383 110.492 64.757 109.352 64.457C109.318 63.0171 108.055 62.7275 108.055 62.7275C108.055 62.7275 106.796 63.1971 106.759 64.6004C105.619 65.0204 105.585 65.6073 105.723 66.2699C105.309 66.3977 105.103 66.6977 105.103 67.029C105.103 67.8715 105.103 71.0434 105.103 72.2146L111.008 72.2016C111.008 70.8582 111.008 67.7046 111.008 66.8437Z" fill="#C6E7BB"/>
<path d="M102.617 67.2533C102.617 66.9403 102.431 66.6664 102.061 66.5777C102.184 65.9491 102.155 65.3883 101.135 65.1196C101.104 63.8336 99.9769 63.5728 99.9769 63.5728C99.9769 63.5728 98.85 63.9901 98.8187 65.2474C97.7988 65.623 97.7675 66.1473 97.8927 66.7395C97.5223 66.8542 97.3371 67.1229 97.3371 67.4177C97.3371 67.6864 97.3371 71.5469 97.3371 72.2304L102.617 72.2199C102.617 71.213 102.617 67.5246 102.617 67.2533Z" fill="#C6E7BB"/>
<path d="M125.613 65.8967C125.613 65.495 125.864 65.1298 126.367 64.9759C126.2 64.1751 126.242 63.4604 127.622 62.9543C127.648 61.864 128.284 61.2406 128.738 60.9328C128.485 60.7945 128.287 60.7476 128.287 60.7476C128.287 60.7476 126.758 61.3162 126.717 63.0196C125.334 63.5282 125.292 64.2403 125.462 65.0411C124.959 65.195 124.708 65.5602 124.708 65.9619C124.708 68.0331 124.708 70.1016 124.708 72.1728H125.613V65.8993V65.8967Z" fill="#A5C59B"/>
<path d="M143.463 65.2266C143.463 64.8014 143.213 64.431 142.71 64.3084C142.876 63.4554 142.835 62.6963 141.455 62.3311C141.413 60.586 139.885 60.2339 139.885 60.2339C139.885 60.2339 138.356 60.8025 138.314 62.5059C136.932 63.0145 136.89 63.7267 137.06 64.5275C136.556 64.6814 136.306 65.0466 136.306 65.4483V72.1782L143.463 72.1625V65.2239V65.2266Z" fill="#DCA95F"/>
<path d="M143.463 65.2266C143.463 64.8014 143.213 64.431 142.71 64.3084C142.876 63.4554 142.835 62.6963 141.455 62.3311C141.413 60.586 139.885 60.2339 139.885 60.2339C139.885 60.2339 138.356 60.8025 138.314 62.5059C136.932 63.0145 136.89 63.7267 137.06 64.5275C136.556 64.6814 136.306 65.0466 136.306 65.4483V72.1782L143.463 72.1625V65.2239V65.2266Z" fill="#C6E7BB"/>
<path d="M137.208 65.3855C137.208 64.9838 137.458 64.6186 137.962 64.4647C137.795 63.6639 137.837 62.9492 139.217 62.4431C139.243 61.3528 139.879 60.7293 140.333 60.4215C140.08 60.2833 139.882 60.2363 139.882 60.2363C139.882 60.2363 138.353 60.805 138.311 62.5083C136.929 63.017 136.887 63.7291 137.057 64.5299C136.553 64.6838 136.303 65.049 136.303 65.4507V72.1806H137.208V65.3881V65.3855Z" fill="#A5C59B"/>
<path d="M143.463 79.4766C143.463 79.0514 143.213 78.681 142.71 78.5584C142.876 77.7054 142.835 76.9463 141.455 76.5811C141.413 74.836 139.885 74.4839 139.885 74.4839C139.885 74.4839 138.356 75.0525 138.314 76.7559C136.932 77.2645 136.89 77.9767 137.06 78.7775C136.556 78.9314 136.306 79.2966 136.306 79.6983V86.4282L143.463 86.4125V79.4739V79.4766Z" fill="#DCA95F"/>
<path d="M143.463 79.4766C143.463 79.0514 143.213 78.681 142.71 78.5584C142.876 77.7054 142.835 76.9463 141.455 76.5811C141.413 74.836 139.885 74.4839 139.885 74.4839C139.885 74.4839 138.356 75.0525 138.314 76.7559C136.932 77.2645 136.89 77.9767 137.06 78.7775C136.556 78.9314 136.306 79.2966 136.306 79.6983V86.4282L143.463 86.8012V79.4766Z" fill="#B6D5AC"/>
<path d="M137.208 79.6384C137.208 79.2367 137.458 78.8715 137.962 78.7176C137.795 77.9168 137.837 77.2021 139.217 76.696C139.243 75.6057 139.879 74.9823 140.333 74.6745C140.08 74.5362 139.882 74.4893 139.882 74.4893C139.882 74.4893 138.353 75.0579 138.311 76.7613C136.929 77.2699 136.887 77.982 137.057 78.7828C136.553 78.9367 136.303 79.3019 136.303 79.7036V86.4336H137.208V79.641V79.6384Z" fill="#A1BB98"/>
<path d="M115.161 66.4761C115.161 66.1109 115.391 65.777 115.85 65.6361C115.696 64.9058 115.735 64.2536 116.995 63.7919C117.021 62.7694 117.632 62.1981 118.046 61.9242C117.832 61.8121 117.668 61.7729 117.668 61.7729C117.668 61.7729 116.273 62.292 116.236 63.8467C114.976 64.311 114.937 64.9605 115.091 65.6909C114.632 65.8318 114.402 66.1657 114.402 66.5308C114.402 67.976 114.402 70.6184 114.402 72.1939H115.161V66.4761Z" fill="#A5C59B"/>
<path d="M105.7 66.9845C105.7 66.6532 105.906 66.3506 106.321 66.2254C106.183 65.5654 106.217 64.9759 107.357 64.5559C107.38 63.596 107.977 63.0717 108.353 62.8369C108.181 62.7535 108.056 62.7222 108.056 62.7222C108.056 62.7222 106.796 63.1917 106.759 64.5951C105.619 65.015 105.585 65.6019 105.724 66.2645C105.309 66.3923 105.103 66.6923 105.103 67.0236C105.103 67.8661 105.103 71.0381 105.103 72.2093H105.7V66.9818V66.9845Z" fill="#A5C59B"/>
<path d="M97.8302 67.3838C97.8302 67.089 98.0154 66.8177 98.3858 66.7056C98.2632 66.1134 98.2919 65.5891 99.3118 65.2135C99.3327 64.337 99.8883 63.8701 100.222 63.6667C100.079 63.5988 99.9744 63.5728 99.9744 63.5728C99.9744 63.5728 98.8475 63.9901 98.8162 65.2474C97.7963 65.623 97.765 66.1473 97.8902 66.7395C97.5198 66.8542 97.3346 67.1229 97.3346 67.4177C97.3346 67.6864 97.3346 71.5469 97.3346 72.2304H97.8302C97.8302 71.1713 97.8302 67.6316 97.8302 67.3838Z" fill="#A5C59B"/>
<path d="M95.5063 78.6367C95.5063 78.3576 95.342 78.102 95.0107 77.9977C95.1203 77.4447 95.0942 76.9438 94.1838 76.6412C94.1551 75.4935 93.1509 75.1909 93.1509 75.1909C93.1509 75.1909 92.1466 75.4935 92.1179 76.6125C91.2102 76.8838 91.1815 77.3508 91.291 77.8855C90.9597 77.9638 90.7954 78.1933 90.7954 78.4568C90.7954 78.6967 90.7954 82.8677 90.7954 83.4755L95.5011 83.7964V78.6394L95.5063 78.6367Z" fill="#B6D5AC"/>
<path d="M91.2437 78.4543C91.2437 78.1909 91.408 77.9613 91.7393 77.8831C91.6297 77.3483 91.6558 76.8814 92.5662 76.6101C92.5845 75.8302 93.0801 75.4467 93.3774 75.2876C93.2496 75.2172 93.1557 75.1885 93.1557 75.1885C93.1557 75.1885 92.1514 75.4911 92.1228 76.6101C91.215 76.8814 91.1863 77.3483 91.2959 77.8831C90.9646 77.9613 90.8002 78.1909 90.8002 78.4543C90.8002 78.6943 90.8002 82.8653 90.8002 83.4731L91.2437 83.5044V78.4543Z" fill="#A1BB98"/>
<path d="M95.5063 67.8687C95.5063 67.5896 95.342 67.3444 95.0107 67.2662C95.1203 66.7053 95.0942 66.2071 94.1838 65.9671C94.1551 64.8194 93.1509 64.5898 93.1509 64.5898C93.1509 64.5898 92.1466 64.9629 92.1179 66.0819C91.2102 66.4158 91.1815 66.8853 91.291 67.4122C90.9597 67.514 90.7954 67.754 90.7954 68.0174C90.7954 68.2574 90.7954 71.698 90.7954 72.3084L95.5011 72.298V67.8713L95.5063 67.8687Z" fill="#C6E7BB"/>
<path d="M91.2437 67.9863C91.2437 67.7228 91.408 67.4828 91.7393 67.3811C91.6297 66.8542 91.6558 66.3847 92.5662 66.0508C92.5845 65.2708 93.0801 64.8535 93.3774 64.6709C93.2496 64.6109 93.1557 64.5874 93.1557 64.5874C93.1557 64.5874 92.1514 64.9604 92.1228 66.0795C91.215 66.4134 91.1863 66.8829 91.2959 67.4098C90.9646 67.5115 90.8002 67.7515 90.8002 68.015C90.8002 68.2549 90.8002 71.6956 90.8002 72.3059H91.2437V67.9863Z" fill="#A5C59B"/>
<path d="M99 84.1001C65.9019 86.5045 47.5671 89.4343 15 95.6001L6 102.6H150.5V94.1001C136.858 88.7702 125.024 86.7018 99 84.1001Z" fill="#CEE5C6"/>
<path d="M85 85.1001C58.852 88.5179 48.4459 91.0063 35 96.1001L25 97.6001L12.5 96.1001L77.5 83.1001L123 85.6001L128 86.1001L151 93.6001L149 95.1001C128.838 88.7983 113.16 87.4349 85 85.1001Z" fill="#CEE5C6"/>
</g>
<g clip-path="url(#clip2_7208_85107)">
<path d="M84.7365 87.5625L65 94.002L115.304 95.6002L133 90.2435L84.7365 87.5625Z" fill="#CEE5C6"/>
<path d="M126.831 52.8651L118.507 49.6001V92.6394L126.831 90.6574V52.8651Z" fill="#1E2124"/>
<path d="M82.7939 51.0311L118.507 49.6001V92.6394L82.7939 91.8335V51.0311Z" fill="#292D32"/>
<path d="M118.485 60.6024L126.831 62.1779V64.5383L118.485 63.5102L118.485 60.6024Z" fill="#DCA95F"/>
<path d="M82.7939 60.8838L118.507 60.585L118.485 63.51L82.7939 63.998V60.8838Z" fill="#F0C990"/>
<path d="M118.518 59.7213L118.529 59.723L118.518 59.7202L82.7803 60.2109V60.4412L118.496 59.9505L118.518 59.9571V59.7213Z" fill="#F0C990"/>
<path d="M118.518 59.7217H118.507V59.9547L126.831 61.7256V61.4899L118.529 59.7244L118.518 59.7217Z" fill="#DCA95F"/>
<path d="M82.7803 64.5467L118.505 64.1245L118.494 64.352L82.7803 64.777V64.5467Z" fill="#F0C990"/>
<path d="M118.507 64.3548L126.831 65.2211V64.9908L118.507 64.1245V64.3548Z" fill="#DCA95F"/>
<path d="M85.2524 66.0185V69.119L92.3351 68.9901V65.9253L85.2524 66.0185Z" fill="#F0C990"/>
<path d="M95.5923 65.8816V68.93L103.878 68.7738V65.772L95.5923 65.8816Z" fill="#F0C990"/>
<path d="M107.534 65.7225V68.7079L115.304 68.5626V65.6211L107.534 65.7225Z" fill="#F0C990"/>
<path d="M94.0973 68.9298C94.6187 68.9298 95.0413 68.2572 95.0413 67.4276C95.0413 66.5979 94.6187 65.9253 94.0973 65.9253C93.576 65.9253 93.1533 66.5979 93.1533 67.4276C93.1533 68.2572 93.576 68.9298 94.0973 68.9298Z" fill="#F0C990"/>
<path d="M106.648 67.4276C106.648 68.2582 106.225 68.9298 105.704 68.9298C105.183 68.9298 104.76 68.2582 104.76 67.4276C104.76 66.5969 105.183 65.9253 105.704 65.9253C106.225 65.9253 106.648 66.5969 106.648 67.4276Z" fill="#F0C990"/>
<path d="M118.074 67.1644C118.074 67.995 117.651 68.6666 117.13 68.6666C116.608 68.6666 116.186 67.995 116.186 67.1644C116.186 66.3337 116.608 65.6621 117.13 65.6621C117.651 65.6621 118.074 66.3337 118.074 67.1644Z" fill="#F0C990"/>
<path d="M83.9181 68.9298C84.3701 68.9298 84.7366 68.2572 84.7366 67.4276C84.7366 66.5979 84.3701 65.9253 83.9181 65.9253C83.4661 65.9253 83.0996 66.5979 83.0996 67.4276C83.0996 68.2572 83.4661 68.9298 83.9181 68.9298Z" fill="#F0C990"/>
<path d="M119.099 65.6348V88.865L121.874 88.2921V65.9007L119.099 65.6348Z" fill="#DCA95F"/>
<path d="M124.283 66.1226L122.873 65.9883V68.6035L124.283 68.631V66.1226Z" fill="#DCA95F"/>
<path d="M126.127 66.2925L125.102 66.1938V68.6446L126.127 68.6666V66.2925Z" fill="#DCA95F"/>
<path d="M122.668 67.2632C122.668 67.8005 122.578 68.2364 122.466 68.2364C122.354 68.2364 122.264 67.8005 122.264 67.2632C122.264 66.7259 122.354 66.29 122.466 66.29C122.578 66.29 122.668 66.7259 122.668 67.2632Z" fill="#DCA95F"/>
<path d="M124.951 67.4304C124.951 67.954 124.861 68.379 124.749 68.379C124.637 68.379 124.547 67.954 124.547 67.4304C124.547 66.9068 124.637 66.4819 124.749 66.4819C124.861 66.4819 124.951 66.9068 124.951 67.4304Z" fill="#DCA95F"/>
<path d="M126.681 67.4634C126.681 67.9541 126.599 68.3516 126.498 68.3516C126.397 68.3516 126.315 67.9541 126.315 67.4634C126.315 66.9727 126.397 66.5752 126.498 66.5752C126.599 66.5752 126.681 66.9727 126.681 67.4634Z" fill="#DCA95F"/>
</g>
</g>
<defs>
<linearGradient id="paint0_linear_7208_85107" x1="85.5" y1="74.6001" x2="13.5" y2="75.6001" gradientUnits="userSpaceOnUse">
<stop stop-color="#F4FFF0"/>
<stop offset="1" stop-color="#E4F9DD"/>
</linearGradient>
<linearGradient id="paint1_linear_7208_85107" x1="85.959" y1="74.6001" x2="157.959" y2="75.6001" gradientUnits="userSpaceOnUse">
<stop stop-color="#F4FFF0"/>
<stop offset="1" stop-color="#E4F9DD"/>
</linearGradient>
<clipPath id="clip0_7208_85107">
<rect width="149" height="95" fill="white"/>
</clipPath>
<clipPath id="clip1_7208_85107">
<rect width="134.241" height="80" fill="white" transform="translate(15 15.6001)"/>
</clipPath>
<clipPath id="clip2_7208_85107">
<rect width="68" height="46" fill="white" transform="translate(65 49.6001)"/>
</clipPath>
</defs>
</svg>
