<svg width="149" height="95" viewBox="0 0 149 95" fill="none" xmlns="http://www.w3.org/2000/svg">
<g clip-path="url(#clip0_8501_21926)">
<path d="M94.5 12.5C37 19 71 83.5 -1 95L-9.50013 101.5L163 99.5001C134 52 135.764 7.83534 94.5 12.5Z" fill="#F7F1EA"/>
<g clip-path="url(#clip1_8501_21926)">
<path d="M48.324 27.7319C48.3762 27.8076 48.4101 27.8937 48.4101 27.985C48.4101 28.2589 48.1492 28.4806 47.8258 28.4806C47.5023 28.4806 47.2415 28.2589 47.2415 27.985C47.2415 27.8911 47.2728 27.805 47.3276 27.7319C47.1919 27.8624 47.1058 28.045 47.1058 28.251C47.1058 28.6475 47.4293 28.971 47.8258 28.971C48.2223 28.971 48.5457 28.6475 48.5457 28.251C48.5457 28.0476 48.4596 27.865 48.324 27.7319Z" fill="#DCA95F"/>
<path d="M47.8231 31.3032C48.0104 31.3032 48.1622 31.1514 48.1622 30.9641C48.1622 30.7768 48.0104 30.625 47.8231 30.625C47.6358 30.625 47.484 30.7768 47.484 30.9641C47.484 31.1514 47.6358 31.3032 47.8231 31.3032Z" fill="#DCA95F"/>
<path d="M48.1648 29.1536C48.1648 29.3414 48.0135 29.4927 47.8257 29.4927C47.6379 29.4927 47.4866 29.3414 47.4866 29.1536C47.4866 28.9657 47.6379 28.8145 47.8257 28.8145C48.0135 28.8145 48.1648 28.9657 48.1648 29.1536Z" fill="#DCA95F"/>
<path d="M48.1648 29.7483C48.1648 29.9361 48.0135 30.0874 47.8257 30.0874C47.6379 30.0874 47.4866 29.9361 47.4866 29.7483C47.4866 29.5605 47.6379 29.4092 47.8257 29.4092C48.0135 29.4092 48.1648 29.5605 48.1648 29.7483Z" fill="#DCA95F"/>
<path d="M47.8231 30.7187C48.0104 30.7187 48.1622 30.5669 48.1622 30.3796C48.1622 30.1923 48.0104 30.0405 47.8231 30.0405C47.6358 30.0405 47.484 30.1923 47.484 30.3796C47.484 30.5669 47.6358 30.7187 47.8231 30.7187Z" fill="#DCA95F"/>
<path d="M47.8231 34.2583C47.291 34.2583 46.858 33.8227 46.858 33.2932V32.1819C46.858 31.6498 47.2936 31.2168 47.8231 31.2168C48.3552 31.2168 48.7883 31.6524 48.7883 32.1819V33.2932C48.7883 33.8253 48.3526 34.2583 47.8231 34.2583Z" fill="#F0C990"/>
<path d="M49.2813 34.8948C49.2813 35.4791 48.6552 35.9513 47.8857 35.9513C47.1162 35.9513 46.4902 35.4791 46.4902 34.8948C46.4902 34.3105 47.1162 33.8384 47.8857 33.8384C48.6552 33.8384 49.2813 34.3105 49.2813 34.8948Z" fill="#DCA95F"/>
<path d="M46.4641 38.0304H49.3048C49.7769 37.7252 50.0769 37.2739 50.0769 36.7679C50.0769 35.8523 49.0961 35.1089 47.8831 35.1089C46.6702 35.1089 45.6894 35.8523 45.6894 36.7679C45.6894 37.2739 45.9894 37.7252 46.4615 38.0304H46.4641Z" fill="#F0C990"/>
<path d="M49.2552 41.2363H46.7928L45.1234 41.6459L45.8381 42.5432H47.0876H48.9239H50.056L50.7734 41.6459L49.2552 41.2363Z" fill="#DCA95F"/>
<path d="M50.056 59.6992H45.8381V42.5432L47.0875 42.2354H48.9239L50.056 42.5432V59.6992Z" fill="#DCA95F"/>
<path d="M48.9238 42.2354H47.0875V59.6966H48.9238V42.2354Z" fill="#F0C990"/>
<path d="M50.622 41.4446L49.2265 41.0481H46.8215L45.3581 41.4446V37.9492H50.622V41.4446Z" fill="#FEEACC"/>
<path d="M49.2552 37.6963H46.7954L45.1234 38.1058V41.6456L46.7954 41.236H49.2552L50.7734 41.6456V38.1058L49.2552 37.6963ZM46.4406 40.8995L45.5146 41.116V39.3396C45.5146 38.9614 45.7233 38.6014 45.9763 38.5414C46.2294 38.4814 46.438 38.7423 46.438 39.1205V40.8969L46.4406 40.8995ZM48.7126 40.7978H47.3354V39.0214C47.3354 38.6432 47.6458 38.3328 48.024 38.3328C48.4022 38.3328 48.7126 38.6432 48.7126 39.0214V40.7978ZM50.5386 41.116L49.6126 40.8995V39.1231C49.6126 38.7449 49.8213 38.4841 50.0743 38.5441C50.3273 38.604 50.536 38.9614 50.536 39.3423V41.1186L50.5386 41.116Z" fill="#F0C990"/>
<path d="M49.2552 37.6963H46.7954V41.236H49.2552V37.6963ZM48.7127 40.7978H47.3354V39.0214C47.3354 38.6432 47.6458 38.3328 48.024 38.3328C48.4022 38.3328 48.7127 38.6432 48.7127 39.0214V40.7978Z" fill="#DCA95F"/>
<path d="M49.7117 36.958H46.4876L43.313 38.2023L45.1233 39.0761V38.3327L46.871 37.9049H49.2761L50.7734 38.3327V39.0761L52.6984 38.2179L49.7117 36.958Z" fill="#DCA95F"/>
<path d="M67.277 35.2417C67.3213 35.3043 67.3474 35.3747 67.3474 35.4504C67.3474 35.6773 67.1309 35.8599 66.8648 35.8599C66.5988 35.8599 66.3822 35.6773 66.3822 35.4504C66.3822 35.3721 66.4083 35.3017 66.4527 35.2417C66.3405 35.3486 66.2701 35.4999 66.2701 35.6695C66.2701 35.9982 66.5361 36.2642 66.8648 36.2642C67.1935 36.2642 67.4596 35.9982 67.4596 35.6695C67.4596 35.4999 67.3891 35.3486 67.277 35.2417Z" fill="#DCA95F"/>
<path d="M67.1466 37.9126C67.1466 38.0665 67.0214 38.1943 66.8648 38.1943C66.7083 38.1943 66.5831 38.0691 66.5831 37.9126C66.5831 37.7561 66.7083 37.6309 66.8648 37.6309C67.0214 37.6309 67.1466 37.7561 67.1466 37.9126Z" fill="#DCA95F"/>
<path d="M67.1466 36.4155C67.1466 36.5694 67.0214 36.6972 66.8648 36.6972C66.7083 36.6972 66.5831 36.572 66.5831 36.4155C66.5831 36.259 66.7083 36.1338 66.8648 36.1338C67.0214 36.1338 67.1466 36.259 67.1466 36.4155Z" fill="#DCA95F"/>
<path d="M67.1466 36.9057C67.1466 37.0596 67.0214 37.1875 66.8648 37.1875C66.7083 37.1875 66.5831 37.0623 66.5831 36.9057C66.5831 36.7492 66.7083 36.624 66.8648 36.624C67.0214 36.624 67.1466 36.7492 67.1466 36.9057Z" fill="#DCA95F"/>
<path d="M67.1466 37.4277C67.1466 37.5816 67.0214 37.7094 66.8648 37.7094C66.7083 37.7094 66.5831 37.5842 66.5831 37.4277C66.5831 37.2712 66.7083 37.146 66.8648 37.146C67.0214 37.146 67.1466 37.2712 67.1466 37.4277Z" fill="#DCA95F"/>
<path d="M66.8648 40.6332C66.4266 40.6332 66.0667 40.2733 66.0667 39.835V38.9169C66.0667 38.4786 66.4266 38.1187 66.8648 38.1187C67.3031 38.1187 67.663 38.4786 67.663 38.9169V39.835C67.663 40.2733 67.3031 40.6332 66.8648 40.6332Z" fill="#F0C990"/>
<path d="M68.0674 41.1579C68.0674 41.6404 67.5509 42.0291 66.9144 42.0291C66.278 42.0291 65.7615 41.6378 65.7615 41.1579C65.7615 40.6779 66.278 40.2866 66.9144 40.2866C67.5509 40.2866 68.0674 40.6779 68.0674 41.1579Z" fill="#DCA95F"/>
<path d="M65.7406 43.7478H68.0882C68.4769 43.4974 68.7247 43.1244 68.7247 42.7044C68.7247 41.948 67.9135 41.335 66.9144 41.335C65.9154 41.335 65.1041 41.948 65.1041 42.7044C65.1041 43.1218 65.3519 43.4948 65.7406 43.7478Z" fill="#F0C990"/>
<path d="M68.0465 46.3955H66.0119L64.632 46.7346L65.2241 47.4754H66.2545H67.7726H68.7091L69.3012 46.7346L68.0465 46.3955Z" fill="#DCA95F"/>
<path d="M68.7091 61.6445H65.2241V47.4752L66.2545 47.2222H67.7726L68.7091 47.4752V61.6445Z" fill="#DCA95F"/>
<path d="M67.7727 47.2222H66.2545V61.6472H67.7727V47.2222Z" fill="#F0C990"/>
<path d="M69.176 46.5704L68.023 46.2391H66.038L64.8276 46.5704V43.6802H69.176V46.5704Z" fill="#FEEACC"/>
<path d="M68.0465 43.4717H66.0145L64.6346 43.8108V46.7349L66.0145 46.3958H68.0465L69.3012 46.7349V43.8108L68.0465 43.4717ZM65.7223 46.1167L64.958 46.2967V44.8281C64.958 44.5151 65.1302 44.2177 65.3389 44.1681C65.5502 44.1186 65.7197 44.3351 65.7197 44.6481V46.1167H65.7223ZM67.6004 46.0332H66.4631V44.5646C66.4631 44.2516 66.7188 43.996 67.0318 43.996C67.3448 43.996 67.6004 44.2516 67.6004 44.5646V46.0332ZM69.1082 46.2967L68.3439 46.1167V44.6481C68.3439 44.3351 68.516 44.1186 68.7247 44.1681C68.936 44.2177 69.1055 44.5151 69.1055 44.8281V46.2967H69.1082Z" fill="#F0C990"/>
<path d="M68.0465 43.4717H66.0145V46.3958H68.0465V43.4717ZM67.5978 46.0332H66.4605V44.5646C66.4605 44.2516 66.7162 43.996 67.0292 43.996C67.3422 43.996 67.5978 44.2516 67.5978 44.5646V46.0332Z" fill="#DCA95F"/>
<path d="M68.4221 42.8613H65.7589L63.1373 43.8917L64.632 44.6116V43.9986L66.0771 43.6439H68.0648L69.3012 43.9986V44.6116L70.8898 43.9021L68.4221 42.8613Z" fill="#DCA95F"/>
<path d="M125.566 15.5996C125.496 15.7013 125.452 15.8187 125.452 15.9439C125.452 16.3169 125.806 16.6169 126.245 16.6169C126.683 16.6169 127.038 16.3143 127.038 15.9439C127.038 15.8161 126.993 15.6987 126.923 15.5996C127.108 15.777 127.223 16.0248 127.223 16.3039C127.223 16.8439 126.785 17.2821 126.245 17.2821C125.705 17.2821 125.266 16.8439 125.266 16.3039C125.266 16.0274 125.381 15.7796 125.566 15.5996Z" fill="#DCA95F"/>
<path d="M126.245 20.4517C126.5 20.4517 126.706 20.245 126.706 19.99C126.706 19.735 126.5 19.5283 126.245 19.5283C125.99 19.5283 125.783 19.735 125.783 19.99C125.783 20.245 125.99 20.4517 126.245 20.4517Z" fill="#DCA95F"/>
<path d="M126.245 17.9918C126.5 17.9918 126.706 17.7851 126.706 17.5301C126.706 17.2751 126.5 17.0684 126.245 17.0684C125.99 17.0684 125.783 17.2751 125.783 17.5301C125.783 17.7851 125.99 17.9918 126.245 17.9918Z" fill="#DCA95F"/>
<path d="M125.783 18.3387C125.783 18.5943 125.989 18.8004 126.245 18.8004C126.5 18.8004 126.706 18.5943 126.706 18.3387C126.706 18.083 126.5 17.877 126.245 17.877C125.989 17.877 125.783 18.083 125.783 18.3387Z" fill="#DCA95F"/>
<path d="M126.245 19.6558C126.5 19.6558 126.706 19.4491 126.706 19.1941C126.706 18.9391 126.5 18.7324 126.245 18.7324C125.99 18.7324 125.783 18.9391 125.783 19.1941C125.783 19.4491 125.99 19.6558 126.245 19.6558Z" fill="#DCA95F"/>
<path d="M126.245 24.4631C126.967 24.4631 127.557 23.8736 127.557 23.151V21.6407C127.557 20.9181 126.967 20.3286 126.245 20.3286C125.522 20.3286 124.932 20.9181 124.932 21.6407V23.151C124.932 23.8736 125.522 24.4631 126.245 24.4631Z" fill="#F0C990"/>
<path d="M126.164 26.759C127.211 26.759 128.06 26.1167 128.06 25.3243C128.06 24.532 127.211 23.8896 126.164 23.8896C125.116 23.8896 124.267 24.532 124.267 25.3243C124.267 26.1167 125.116 26.759 126.164 26.759Z" fill="#DCA95F"/>
<path d="M128.091 29.5811H124.233C123.592 29.169 123.185 28.5534 123.185 27.8673C123.185 26.6231 124.518 25.6162 126.161 25.6162C127.804 25.6162 129.137 26.6231 129.137 27.8673C129.137 28.5534 128.73 29.1664 128.089 29.5811H128.091Z" fill="#F0C990"/>
<path d="M124.304 33.9346H127.643L129.912 34.4928L128.939 35.7083H127.246H124.753H123.214L122.241 34.4928L124.304 33.9346Z" fill="#DCA95F"/>
<path d="M123.214 58.9995H128.939V35.7082L127.246 35.2935H124.753L123.214 35.7082V58.9995Z" fill="#DCA95F"/>
<path d="M124.753 58.9995H127.246V35.2909H124.753V58.9995Z" fill="#F0C990"/>
<path d="M122.447 34.2191L124.34 33.6792H127.604L129.591 34.2191V29.4717H122.447V34.2191Z" fill="#FEEACC"/>
<path d="M122.241 29.6855V34.4903L124.304 33.9321H127.645L129.915 34.4903V29.6855L127.645 29.1299H124.304L122.241 29.6855ZM128.125 31.0654C128.125 30.5515 128.407 30.1968 128.754 30.2776C129.098 30.3585 129.383 30.8463 129.383 31.3601V33.773L128.128 33.4782V31.0654H128.125ZM125.04 30.9271C125.04 30.4133 125.459 29.9907 125.976 29.9907C126.492 29.9907 126.912 30.4107 126.912 30.9271V33.34H125.042V30.9271H125.04ZM122.561 31.3601C122.561 30.8463 122.843 30.3585 123.19 30.2776C123.537 30.1968 123.819 30.5515 123.819 31.0654V33.4782L122.564 33.773V31.3601H122.561Z" fill="#F0C990"/>
<path d="M124.304 33.9347H127.645V29.1299H124.304V33.9347ZM125.04 30.9271C125.04 30.4133 125.46 29.9907 125.976 29.9907C126.492 29.9907 126.912 30.4107 126.912 30.9271V33.34H125.042V30.9271H125.04Z" fill="#DCA95F"/>
<path d="M123.683 28.1255H128.06L132.372 29.8158L129.912 31.0027V29.9932L127.541 29.4115H124.273L122.241 29.9932V31.0027L119.627 29.8367L123.683 28.1255Z" fill="#DCA95F"/>
<path d="M105.351 25.7964C105.291 25.8799 105.257 25.9764 105.257 26.0807C105.257 26.3885 105.549 26.6363 105.912 26.6363C106.274 26.6363 106.566 26.3885 106.566 26.0807C106.566 25.9764 106.53 25.8799 106.473 25.7964C106.624 25.9425 106.72 26.1485 106.72 26.3781C106.72 26.8241 106.358 27.1867 105.912 27.1867C105.466 27.1867 105.103 26.8241 105.103 26.3781C105.103 26.1485 105.2 25.9451 105.351 25.7964Z" fill="#DCA95F"/>
<path d="M105.528 29.4223C105.528 29.6336 105.698 29.8032 105.909 29.8032C106.12 29.8032 106.29 29.6336 106.29 29.4223C106.29 29.2111 106.12 29.0415 105.909 29.0415C105.698 29.0415 105.528 29.2111 105.528 29.4223Z" fill="#DCA95F"/>
<path d="M105.528 27.3901C105.528 27.6014 105.698 27.771 105.909 27.771C106.12 27.771 106.29 27.6014 106.29 27.3901C106.29 27.1788 106.12 27.0093 105.909 27.0093C105.698 27.0093 105.528 27.1788 105.528 27.3901Z" fill="#DCA95F"/>
<path d="M105.528 28.0581C105.528 28.2694 105.698 28.4389 105.909 28.4389C106.12 28.4389 106.29 28.2694 106.29 28.0581C106.29 27.8468 106.12 27.6772 105.909 27.6772C105.698 27.6772 105.528 27.8468 105.528 28.0581Z" fill="#DCA95F"/>
<path d="M105.528 28.7646C105.528 28.9759 105.698 29.1455 105.909 29.1455C106.12 29.1455 106.29 28.9759 106.29 28.7646C106.29 28.5533 106.12 28.3838 105.909 28.3838C105.698 28.3838 105.528 28.5533 105.528 28.7646Z" fill="#DCA95F"/>
<path d="M105.912 33.116C106.506 33.116 106.994 32.6282 106.994 32.0335V30.7866C106.994 30.1919 106.506 29.7041 105.912 29.7041C105.317 29.7041 104.829 30.1919 104.829 30.7866V32.0335C104.829 32.6282 105.317 33.116 105.912 33.116Z" fill="#F0C990"/>
<path d="M104.279 33.8278C104.279 34.4825 104.98 35.0121 105.844 35.0121C106.707 35.0121 107.409 34.4825 107.409 33.8278C107.409 33.1731 106.707 32.6436 105.844 32.6436C104.98 32.6436 104.279 33.1731 104.279 33.8278Z" fill="#DCA95F"/>
<path d="M107.438 37.3441H104.253C103.723 37.0024 103.387 36.4964 103.387 35.9277C103.387 34.9 104.488 34.0679 105.847 34.0679C107.206 34.0679 108.306 34.9 108.306 35.9277C108.306 36.4938 107.97 37.0024 107.44 37.3441H107.438Z" fill="#F0C990"/>
<path d="M104.308 40.9414H107.067L108.94 41.4005L108.137 42.4048H106.739H104.678H103.408L102.604 41.4005L104.308 40.9414Z" fill="#DCA95F"/>
<path d="M103.408 61.645H108.137V42.4047L106.739 42.063H104.678L103.408 42.4047V61.645Z" fill="#DCA95F"/>
<path d="M104.678 61.645H106.739V42.0604H104.678V61.645Z" fill="#F0C990"/>
<path d="M102.774 41.1759L104.339 40.7299H107.036L108.677 41.1759V37.2554H102.774V41.1759Z" fill="#FEEACC"/>
<path d="M102.604 37.4303V41.4004L104.308 40.9413H107.067L108.94 41.4004V37.4303L107.067 36.9712H104.308L102.604 37.4303ZM107.464 38.5702C107.464 38.145 107.696 37.8529 107.983 37.9207C108.267 37.9885 108.502 38.3902 108.502 38.8154V40.8083L107.464 40.5657V38.5728V38.5702ZM104.915 38.4554C104.915 38.0302 105.262 37.6833 105.687 37.6833C106.113 37.6833 106.46 38.0302 106.46 38.4554V40.4483H104.915V38.4554ZM102.868 38.8128C102.868 38.3876 103.1 37.9859 103.387 37.9181C103.671 37.8503 103.906 38.145 103.906 38.5676V40.5605L102.868 40.8031V38.8102V38.8128Z" fill="#F0C990"/>
<path d="M104.307 40.9413H107.067V36.9712H104.307V40.9413ZM104.915 38.458C104.915 38.0328 105.262 37.6859 105.687 37.6859C106.113 37.6859 106.46 38.0328 106.46 38.458V40.4509H104.915V38.458Z" fill="#DCA95F"/>
<path d="M103.796 36.1445H107.412L110.972 37.5401L108.94 38.5183V37.6835L106.981 37.2036H104.281L102.604 37.6835V38.5183L100.444 37.5557L103.796 36.1445Z" fill="#DCA95F"/>
<path d="M85.4507 39.8354C85.4142 39.8876 85.3933 39.945 85.3933 40.0076C85.3933 40.1954 85.5707 40.3467 85.7924 40.3467C86.0141 40.3467 86.1915 40.1954 86.1915 40.0076C86.1915 39.945 86.1707 39.885 86.1341 39.8354C86.228 39.9241 86.2854 40.0493 86.2854 40.1876C86.2854 40.4589 86.0663 40.678 85.795 40.678C85.5237 40.678 85.3046 40.4589 85.3046 40.1876C85.3046 40.0493 85.362 39.9241 85.4559 39.8354H85.4507Z" fill="#DCA95F"/>
<path d="M85.7898 42.2744C85.9181 42.2744 86.022 42.1704 86.022 42.0422C86.022 41.914 85.9181 41.8101 85.7898 41.8101C85.6616 41.8101 85.5577 41.914 85.5577 42.0422C85.5577 42.1704 85.6616 42.2744 85.7898 42.2744Z" fill="#DCA95F"/>
<path d="M85.5603 40.8059C85.5603 40.9337 85.6646 41.038 85.7925 41.038C85.9203 41.038 86.0246 40.9337 86.0246 40.8059C86.0246 40.6781 85.9203 40.5737 85.7925 40.5737C85.6646 40.5737 85.5603 40.6781 85.5603 40.8059Z" fill="#DCA95F"/>
<path d="M85.5603 41.2102C85.5603 41.338 85.6646 41.4423 85.7925 41.4423C85.9203 41.4423 86.0246 41.338 86.0246 41.2102C86.0246 41.0824 85.9203 40.978 85.7925 40.978C85.6646 40.978 85.5603 41.0824 85.5603 41.2102Z" fill="#DCA95F"/>
<path d="M85.5603 41.6404C85.5603 41.7682 85.6646 41.8725 85.7925 41.8725C85.9203 41.8725 86.0246 41.7682 86.0246 41.6404C86.0246 41.5125 85.9203 41.4082 85.7925 41.4082C85.6646 41.4082 85.5603 41.5125 85.5603 41.6404Z" fill="#DCA95F"/>
<path d="M85.7898 44.288C86.1524 44.288 86.4498 43.9906 86.4498 43.628V42.8689C86.4498 42.5064 86.1524 42.209 85.7898 42.209C85.4273 42.209 85.1299 42.5064 85.1299 42.8689V43.628C85.1299 43.9906 85.4273 44.288 85.7898 44.288Z" fill="#F0C990"/>
<path d="M85.7507 45.4409C86.2765 45.4409 86.7028 45.1185 86.7028 44.7209C86.7028 44.3233 86.2765 44.001 85.7507 44.001C85.2249 44.001 84.7986 44.3233 84.7986 44.7209C84.7986 45.1185 85.2249 45.4409 85.7507 45.4409Z" fill="#DCA95F"/>
<path d="M86.7185 46.8601H84.7803C84.4595 46.6514 84.2534 46.3436 84.2534 45.9993C84.2534 45.3732 84.9238 44.8672 85.7507 44.8672C86.5776 44.8672 87.248 45.3732 87.248 45.9993C87.248 46.3436 87.0419 46.654 86.7211 46.8601H86.7185Z" fill="#F0C990"/>
<path d="M84.8143 49.0488H86.4941L87.634 49.3279L87.1462 49.9409H86.2959H85.0412H84.2665L83.7787 49.3279L84.8143 49.0488Z" fill="#DCA95F"/>
<path d="M84.2665 64.6922H87.1463V49.9411L86.2959 49.7324H85.0412L84.2665 49.9411V64.6922Z" fill="#DCA95F"/>
<path d="M85.0437 64.6919H86.2958V49.7322H85.0437V64.6919Z" fill="#F0C990"/>
<path d="M83.883 49.192L84.8351 48.9207H86.4758L87.4723 49.192V46.8052H83.883V49.192Z" fill="#FEEACC"/>
<path d="M83.7787 46.9149V49.3303L84.8143 49.0512H86.4941L87.634 49.3303V46.9149L86.4941 46.6357H84.8143L83.7787 46.9149ZM86.7367 47.6087C86.7367 47.3505 86.8776 47.1731 87.0523 47.2122C87.2271 47.254 87.368 47.4992 87.368 47.7574V48.9703L86.7367 48.8217V47.6087ZM85.1847 47.5409C85.1847 47.2826 85.3959 47.0714 85.6542 47.0714C85.9124 47.0714 86.1237 47.2826 86.1237 47.5409V48.7538H85.1847V47.5409ZM83.9378 47.7574C83.9378 47.4992 84.0787 47.254 84.2534 47.2122C84.4282 47.1705 84.5691 47.3505 84.5691 47.6087V48.8217L83.9378 48.9703V47.7574Z" fill="#F0C990"/>
<path d="M84.8143 49.0488H86.4941V46.6333H84.8143V49.0488ZM85.1847 47.5384C85.1847 47.2802 85.396 47.0689 85.6542 47.0689C85.9124 47.0689 86.1237 47.2802 86.1237 47.5384V48.7514H85.1847V47.5384Z" fill="#DCA95F"/>
<path d="M84.5038 46.1299H86.7028L88.8705 46.9803L87.634 47.575V47.0689L86.442 46.7768H84.8012L83.7787 47.0689V47.575L82.4666 46.9907L84.5038 46.1299Z" fill="#DCA95F"/>
<path d="M85.6669 63.4319L15.0001 54.2344V95.5999L85.6669 87.1067V63.4319Z" fill="url(#paint0_linear_8501_21926)"/>
<path d="M39.5931 79.871C39.5931 79.4458 39.8436 79.0572 40.347 78.9006C40.1801 78.0581 40.2218 77.299 41.6017 76.8347C41.6434 75.087 43.172 74.6279 43.172 74.6279C43.172 74.6279 44.7006 75.087 44.7423 76.7878C46.1248 77.1999 46.1666 77.9094 45.997 78.7207C46.5004 78.8407 46.7509 79.1876 46.7509 79.5893C46.7509 81.6604 46.7509 83.729 46.7509 85.8001L39.5931 86.2879V79.8684V79.871Z" fill="#F0C990"/>
<path d="M39.5931 79.871C39.5931 79.4458 39.8436 79.0572 40.347 78.9006C40.1801 78.0581 40.2218 77.299 41.6017 76.8347C41.6434 75.087 43.172 74.6279 43.172 74.6279C43.172 74.6279 44.7006 75.087 44.7423 76.7878C46.1248 77.1999 46.1666 77.9094 45.997 78.7207C46.5004 78.8407 46.7509 79.1876 46.7509 79.5893C46.7509 81.6604 46.7509 83.729 46.7509 85.8001L39.5931 86.2879V79.8684V79.871Z" fill="#DCA95F"/>
<path d="M50.5253 79.6912C50.5253 79.3025 50.7549 78.9478 51.214 78.8043C51.0601 78.0374 51.0992 77.341 52.3591 76.921C52.3982 75.3272 53.7912 74.9072 53.7912 74.9072C53.7912 74.9072 55.1867 75.3272 55.2232 76.8792C56.4831 77.2549 56.5223 77.9018 56.3684 78.6452C56.8275 78.7548 57.057 79.0704 57.057 79.4382C57.057 80.8833 57.057 83.5257 57.057 85.1012L50.5253 85.5447C50.5253 83.857 50.5253 81.1754 50.5253 79.6912Z" fill="#DCA95F"/>
<path d="M60.4507 79.5109C60.4507 79.1588 60.6568 78.8405 61.0715 78.7101C60.9333 78.0163 60.9672 77.3876 62.1071 77.0068C62.141 75.5643 63.4035 75.186 63.4035 75.186C63.4035 75.186 64.6634 75.5669 64.6999 76.9703C65.8398 77.3094 65.8737 77.8963 65.7355 78.5666C66.1502 78.6658 66.3563 78.9527 66.3563 79.284C66.3563 80.1265 66.3563 83.2985 66.3563 84.4697L60.4507 84.8714C60.4507 83.528 60.4507 80.3743 60.4507 79.5135V79.5109Z" fill="#DCA95F"/>
<path d="M68.8422 79.3336C68.8422 79.0179 69.0274 78.7336 69.3978 78.6188C69.2752 77.998 69.3039 77.4372 70.3238 77.0955C70.3552 75.8069 71.482 75.4678 71.482 75.4678C71.482 75.4678 72.6089 75.8069 72.6402 77.0616C73.6601 77.3642 73.6914 77.8885 73.5662 78.4884C73.9366 78.5771 74.1218 78.8327 74.1218 79.1301C74.1218 79.3988 74.1218 83.2594 74.1218 83.9428L68.8422 84.3028C68.8422 83.2959 68.8422 79.6075 68.8422 79.3362V79.3336Z" fill="#DCA95F"/>
<path d="M45.8457 79.5917C45.8457 79.19 45.5953 78.8431 45.0919 78.7231C45.2588 77.9093 45.2171 77.1997 43.8372 76.7902C43.8111 75.7025 43.1746 75.1234 42.7208 74.8469C42.9738 74.6904 43.172 74.6304 43.172 74.6304C43.172 74.6304 44.7006 75.0895 44.7423 76.7902C46.1249 77.2023 46.1666 77.9119 45.997 78.7231C46.5005 78.8431 46.7509 79.19 46.7509 79.5917C46.7509 81.6629 46.7509 83.7314 46.7509 85.8026L45.8457 85.8652V79.5943V79.5917Z" fill="#B98D4C"/>
<path d="M56.298 79.4377C56.298 79.0725 56.0684 78.7543 55.6093 78.6447C55.7632 77.9039 55.7241 77.2544 54.4642 76.8788C54.4381 75.8588 53.8277 75.3293 53.413 75.0841C53.6269 74.9563 53.7912 74.9067 53.7912 74.9067C53.7912 74.9067 55.1867 75.3267 55.2233 76.8788C56.4832 77.2544 56.5223 77.9013 56.3684 78.6447C56.8275 78.7543 57.057 79.0699 57.057 79.4377C57.057 80.8828 57.057 83.5252 57.057 85.1007L56.298 85.1529V79.4377Z" fill="#B98D4C"/>
<path d="M65.759 79.2815C65.759 78.9503 65.5529 78.6633 65.1382 78.5642C65.2764 77.8938 65.2425 77.3069 64.1026 76.9678C64.0791 76.0079 63.4818 75.5279 63.1061 75.3192C63.2783 75.2227 63.4035 75.1836 63.4035 75.1836C63.4035 75.1836 64.6634 75.5644 64.6999 76.9678C65.8398 77.3069 65.8738 77.8938 65.7355 78.5642C66.1503 78.6633 66.3563 78.9503 66.3563 79.2815C66.3563 80.1241 66.3563 83.296 66.3563 84.4672L65.759 84.509V79.2815Z" fill="#B98D4C"/>
<path d="M73.6289 79.1277C73.6289 78.8329 73.4437 78.5747 73.0733 78.486C73.1959 77.886 73.1672 77.3617 72.1472 77.0591C72.1264 76.1853 71.5708 75.7549 71.2369 75.5749C71.3803 75.4966 71.4847 75.4653 71.4847 75.4653C71.4847 75.4653 72.6116 75.8044 72.6429 77.0591C73.6628 77.3617 73.6941 77.886 73.5689 78.486C73.9393 78.5747 74.1245 78.8303 74.1245 79.1277C74.1245 79.3963 74.1245 83.2569 74.1245 83.9403L73.6289 83.9742C73.6289 82.9152 73.6289 79.3781 73.6289 79.1277Z" fill="#B98D4C"/>
<path d="M39.5932 65.7378C39.5932 65.3126 39.8436 64.9422 40.3471 64.8196C40.1801 63.9666 40.2218 63.2075 41.6017 62.8423C41.6435 61.0973 43.1721 60.7451 43.1721 60.7451C43.1721 60.7451 44.7006 61.3138 44.7424 63.0171C46.1249 63.5258 46.1666 64.2379 45.9971 65.0387C46.5005 65.1926 46.7509 65.5578 46.7509 65.9595C46.7509 68.0306 46.7509 70.0992 46.7509 72.1703L39.5932 72.1547V65.7352V65.7378Z" fill="#DCA95F"/>
<path d="M39.5932 65.7378C39.5932 65.3126 39.8436 64.9422 40.3471 64.8196C40.1801 63.9666 40.2218 63.2075 41.6017 62.8423C41.6435 61.0973 43.1721 60.7451 43.1721 60.7451C43.1721 60.7451 44.7006 61.3138 44.7424 63.0171C46.1249 63.5258 46.1666 64.2379 45.9971 65.0387C46.5005 65.1926 46.7509 65.5578 46.7509 65.9595C46.7509 68.0306 46.7509 70.0992 46.7509 72.1703L39.5932 72.1547V65.7352V65.7378Z" fill="#F0C990"/>
<path d="M50.5254 66.3245C50.5254 65.9358 50.7549 65.5993 51.214 65.4871C51.0601 64.7072 51.0993 64.0159 52.3592 63.682C52.3983 62.0909 53.7912 61.77 53.7912 61.77C53.7912 61.77 55.1868 62.2891 55.2233 63.8438C56.4832 64.3081 56.5223 64.9576 56.3684 65.688C56.8275 65.8288 57.0571 66.1627 57.0571 66.5279C57.0571 67.973 57.0571 70.6154 57.0571 72.191L50.5254 72.1779C50.5254 70.4902 50.5254 67.8087 50.5254 66.3245Z" fill="#F0C990"/>
<path d="M60.4507 66.8437C60.4507 66.4916 60.6568 66.1864 61.0716 66.0873C60.9333 65.383 60.9672 64.757 62.1071 64.457C62.141 63.0171 63.4036 62.7275 63.4036 62.7275C63.4036 62.7275 64.6635 63.1971 64.7 64.6004C65.8399 65.0204 65.8738 65.6073 65.7356 66.2699C66.1503 66.3977 66.3564 66.6977 66.3564 67.029C66.3564 67.8715 66.3564 71.0434 66.3564 72.2146L60.4507 72.2016C60.4507 70.8582 60.4507 67.7046 60.4507 66.8437Z" fill="#F0C990"/>
<path d="M68.8423 67.2533C68.8423 66.9403 69.0275 66.6664 69.3979 66.5777C69.2753 65.9491 69.304 65.3883 70.3239 65.1196C70.3552 63.8336 71.4821 63.5728 71.4821 63.5728C71.4821 63.5728 72.609 63.9901 72.6403 65.2474C73.6602 65.623 73.6915 66.1473 73.5663 66.7395C73.9367 66.8542 74.1219 67.1229 74.1219 67.4177C74.1219 67.6864 74.1219 71.5469 74.1219 72.2304L68.8423 72.2199C68.8423 71.213 68.8423 67.5246 68.8423 67.2533Z" fill="#F0C990"/>
<path d="M45.8455 65.8967C45.8455 65.495 45.5951 65.1298 45.0916 64.9759C45.2586 64.1751 45.2169 63.4604 43.837 62.9543C43.8109 61.864 43.1744 61.2406 42.7205 60.9328C42.9735 60.7945 43.1718 60.7476 43.1718 60.7476C43.1718 60.7476 44.7004 61.3162 44.7421 63.0196C46.1246 63.5282 46.1663 64.2403 45.9968 65.0411C46.5002 65.195 46.7506 65.5602 46.7506 65.9619C46.7506 68.0331 46.7506 70.1016 46.7506 72.1728H45.8455V65.8993V65.8967Z" fill="#DCA95F"/>
<path d="M27.9955 65.2266C27.9955 64.8014 28.246 64.431 28.7494 64.3084C28.5825 63.4554 28.6242 62.6963 30.0041 62.3311C30.0458 60.586 31.5744 60.2339 31.5744 60.2339C31.5744 60.2339 33.103 60.8025 33.1447 62.5059C34.5272 63.0145 34.569 63.7267 34.3994 64.5275C34.9028 64.6814 35.1533 65.0466 35.1533 65.4483V72.1782L27.9955 72.1625V65.2239V65.2266Z" fill="#DCA95F"/>
<path d="M27.9955 65.2266C27.9955 64.8014 28.246 64.431 28.7494 64.3084C28.5825 63.4554 28.6242 62.6963 30.0041 62.3311C30.0458 60.586 31.5744 60.2339 31.5744 60.2339C31.5744 60.2339 33.103 60.8025 33.1447 62.5059C34.5272 63.0145 34.569 63.7267 34.3994 64.5275C34.9028 64.6814 35.1533 65.0466 35.1533 65.4483V72.1782L27.9955 72.1625V65.2239V65.2266Z" fill="#F0C990"/>
<path d="M34.2507 65.3855C34.2507 64.9838 34.0003 64.6186 33.4969 64.4647C33.6638 63.6639 33.6221 62.9492 32.2422 62.4431C32.2161 61.3528 31.5796 60.7293 31.1257 60.4215C31.3788 60.2833 31.577 60.2363 31.577 60.2363C31.577 60.2363 33.1056 60.805 33.1473 62.5083C34.5298 63.017 34.5716 63.7291 34.402 64.5299C34.9054 64.6838 35.1559 65.049 35.1559 65.4507V72.1806H34.2507V65.3881V65.3855Z" fill="#DCA95F"/>
<path d="M27.9955 79.4766C27.9955 79.0514 28.246 78.681 28.7494 78.5584C28.5825 77.7054 28.6242 76.9463 30.0041 76.5811C30.0458 74.836 31.5744 74.4839 31.5744 74.4839C31.5744 74.4839 33.103 75.0525 33.1447 76.7559C34.5272 77.2645 34.569 77.9767 34.3994 78.7775C34.9028 78.9314 35.1533 79.2966 35.1533 79.6983V86.4282L27.9955 86.4125V79.4739V79.4766Z" fill="#DCA95F"/>
<path d="M27.9955 79.4766C27.9955 79.0514 28.246 78.681 28.7494 78.5584C28.5825 77.7054 28.6242 76.9463 30.0041 76.5811C30.0458 74.836 31.5744 74.4839 31.5744 74.4839C31.5744 74.4839 33.103 75.0525 33.1447 76.7559C34.5272 77.2645 34.569 77.9767 34.3994 78.7775C34.9028 78.9314 35.1533 79.2966 35.1533 79.6983V86.4282L27.9955 86.8012V79.4766Z" fill="#DCA95F"/>
<path d="M34.2507 79.6384C34.2507 79.2367 34.0003 78.8715 33.4969 78.7176C33.6638 77.9168 33.6221 77.2021 32.2422 76.696C32.2161 75.6057 31.5796 74.9823 31.1257 74.6745C31.3788 74.5362 31.577 74.4893 31.577 74.4893C31.577 74.4893 33.1056 75.0579 33.1473 76.7613C34.5298 77.2699 34.5716 77.982 34.402 78.7828C34.9054 78.9367 35.1559 79.3019 35.1559 79.7036V86.4336H34.2507V79.641V79.6384Z" fill="#B98D4C"/>
<path d="M56.2977 66.4761C56.2977 66.1109 56.0682 65.777 55.6091 65.6361C55.763 64.9058 55.7238 64.2536 54.4639 63.7919C54.4379 62.7694 53.8275 62.1981 53.4127 61.9242C53.6266 61.8121 53.791 61.7729 53.791 61.7729C53.791 61.7729 55.1865 62.292 55.223 63.8467C56.4829 64.311 56.522 64.9605 56.3681 65.6909C56.8272 65.8318 57.0568 66.1657 57.0568 66.5308C57.0568 67.976 57.0568 70.6184 57.0568 72.1939H56.2977V66.4761Z" fill="#DCA95F"/>
<path d="M65.7587 66.9845C65.7587 66.6532 65.5527 66.3506 65.1379 66.2254C65.2762 65.5654 65.2423 64.9759 64.1023 64.5559C64.0789 63.596 63.4815 63.0717 63.1059 62.8369C63.2781 62.7535 63.4033 62.7222 63.4033 62.7222C63.4033 62.7222 64.6632 63.1917 64.6997 64.5951C65.8396 65.015 65.8735 65.6019 65.7353 66.2645C66.15 66.3923 66.3561 66.6923 66.3561 67.0236C66.3561 67.8661 66.3561 71.0381 66.3561 72.2093H65.7587V66.9818V66.9845Z" fill="#DCA95F"/>
<path d="M73.6286 67.3838C73.6286 67.089 73.4434 66.8177 73.073 66.7056C73.1956 66.1134 73.1669 65.5891 72.1469 65.2135C72.1261 64.337 71.5705 63.8701 71.2366 63.6667C71.38 63.5988 71.4844 63.5728 71.4844 63.5728C71.4844 63.5728 72.6113 63.9901 72.6426 65.2474C73.6625 65.623 73.6938 66.1473 73.5686 66.7395C73.939 66.8542 74.1242 67.1229 74.1242 67.4177C74.1242 67.6864 74.1242 71.5469 74.1242 72.2304H73.6286C73.6286 71.1713 73.6286 67.6316 73.6286 67.3838Z" fill="#DCA95F"/>
<path d="M75.9528 78.6367C75.9528 78.3576 76.1171 78.102 76.4484 77.9977C76.3388 77.4447 76.3649 76.9438 77.2753 76.6412C77.304 75.4935 78.3082 75.1909 78.3082 75.1909C78.3082 75.1909 79.3125 75.4935 79.3412 76.6125C80.249 76.8838 80.2776 77.3508 80.1681 77.8855C80.4994 77.9638 80.6637 78.1933 80.6637 78.4568C80.6637 78.6967 80.6637 82.8677 80.6637 83.4755L75.958 83.7964V78.6394L75.9528 78.6367Z" fill="#DCA95F"/>
<path d="M80.2151 78.4543C80.2151 78.1909 80.0508 77.9613 79.7195 77.8831C79.8291 77.3483 79.803 76.8814 78.8926 76.6101C78.8743 75.8302 78.3787 75.4467 78.0814 75.2876C78.2092 75.2172 78.3031 75.1885 78.3031 75.1885C78.3031 75.1885 79.3074 75.4911 79.336 76.6101C80.2438 76.8814 80.2725 77.3483 80.1629 77.8831C80.4942 77.9613 80.6586 78.1909 80.6586 78.4543C80.6586 78.6943 80.6586 82.8653 80.6586 83.4731L80.2151 83.5044V78.4543Z" fill="#B98D4C"/>
<path d="M75.9528 67.8687C75.9528 67.5896 76.1171 67.3444 76.4484 67.2662C76.3388 66.7053 76.3649 66.2071 77.2753 65.9671C77.304 64.8194 78.3082 64.5898 78.3082 64.5898C78.3082 64.5898 79.3125 64.9629 79.3412 66.0819C80.249 66.4158 80.2776 66.8853 80.1681 67.4122C80.4994 67.514 80.6637 67.754 80.6637 68.0174C80.6637 68.2574 80.6637 71.698 80.6637 72.3084L75.958 72.298V67.8713L75.9528 67.8687Z" fill="#F0C990"/>
<path d="M80.2151 67.9863C80.2151 67.7228 80.0508 67.4828 79.7195 67.3811C79.8291 66.8542 79.803 66.3847 78.8926 66.0508C78.8743 65.2708 78.3787 64.8535 78.0814 64.6709C78.2092 64.6109 78.3031 64.5874 78.3031 64.5874C78.3031 64.5874 79.3074 64.9604 79.336 66.0795C80.2438 66.4134 80.2725 66.8829 80.1629 67.4098C80.4942 67.5115 80.6586 67.7515 80.6586 68.015C80.6586 68.2549 80.6586 71.6956 80.6586 72.3059H80.2151V67.9863Z" fill="#DCA95F"/>
<path d="M85.7924 63.4319L156.459 54.2344V95.5999L85.7924 87.1067V63.4319Z" fill="url(#paint1_linear_8501_21926)"/>
<path d="M131.866 79.871C131.866 79.4458 131.616 79.0572 131.112 78.9006C131.279 78.0581 131.237 77.299 129.858 76.8347C129.816 75.087 128.287 74.6279 128.287 74.6279C128.287 74.6279 126.759 75.087 126.717 76.7878C125.334 77.1999 125.293 77.9094 125.462 78.7207C124.959 78.8407 124.708 79.1876 124.708 79.5893C124.708 81.6604 124.708 83.729 124.708 85.8001L131.866 86.2879V79.8684V79.871Z" fill="#F0C990"/>
<path d="M131.866 79.871C131.866 79.4458 131.616 79.0572 131.112 78.9006C131.279 78.0581 131.237 77.299 129.858 76.8347C129.816 75.087 128.287 74.6279 128.287 74.6279C128.287 74.6279 126.759 75.087 126.717 76.7878C125.334 77.1999 125.293 77.9094 125.462 78.7207C124.959 78.8407 124.708 79.1876 124.708 79.5893C124.708 81.6604 124.708 83.729 124.708 85.8001L131.866 86.2879V79.8684V79.871Z" fill="#DCA95F"/>
<path d="M120.934 79.6912C120.934 79.3025 120.704 78.9478 120.245 78.8043C120.399 78.0374 120.36 77.341 119.1 76.921C119.061 75.3272 117.668 74.9072 117.668 74.9072C117.668 74.9072 116.272 75.3272 116.236 76.8792C114.976 77.2549 114.937 77.9018 115.091 78.6452C114.632 78.7548 114.402 79.0704 114.402 79.4382C114.402 80.8833 114.402 83.5257 114.402 85.1012L120.934 85.5447C120.934 83.857 120.934 81.1754 120.934 79.6912Z" fill="#DCA95F"/>
<path d="M111.009 79.5109C111.009 79.1588 110.802 78.8405 110.388 78.7101C110.526 78.0163 110.492 77.3876 109.352 77.0068C109.318 75.5643 108.056 75.186 108.056 75.186C108.056 75.186 106.796 75.5669 106.759 76.9703C105.619 77.3094 105.585 77.8963 105.724 78.5666C105.309 78.6658 105.103 78.9527 105.103 79.284C105.103 80.1265 105.103 83.2985 105.103 84.4697L111.009 84.8714C111.009 83.528 111.009 80.3743 111.009 79.5135V79.5109Z" fill="#DCA95F"/>
<path d="M102.617 79.3336C102.617 79.0179 102.432 78.7336 102.061 78.6188C102.184 77.998 102.155 77.4372 101.135 77.0955C101.104 75.8069 99.9772 75.4678 99.9772 75.4678C99.9772 75.4678 98.8503 75.8069 98.819 77.0616C97.7991 77.3642 97.7678 77.8885 97.893 78.4884C97.5226 78.5771 97.3374 78.8327 97.3374 79.1301C97.3374 79.3988 97.3374 83.2594 97.3374 83.9428L102.617 84.3028C102.617 83.2959 102.617 79.6075 102.617 79.3362V79.3336Z" fill="#DCA95F"/>
<path d="M125.613 79.5917C125.613 79.19 125.864 78.8431 126.367 78.7231C126.2 77.9093 126.242 77.1997 127.622 76.7902C127.648 75.7025 128.285 75.1234 128.738 74.8469C128.485 74.6904 128.287 74.6304 128.287 74.6304C128.287 74.6304 126.759 75.0895 126.717 76.7902C125.334 77.2023 125.293 77.9119 125.462 78.7231C124.959 78.8431 124.708 79.19 124.708 79.5917C124.708 81.6629 124.708 83.7314 124.708 85.8026L125.613 85.8652V79.5943V79.5917Z" fill="#B98D4C"/>
<path d="M115.161 79.4377C115.161 79.0725 115.391 78.7543 115.85 78.6447C115.696 77.9039 115.735 77.2544 116.995 76.8788C117.021 75.8588 117.631 75.3293 118.046 75.0841C117.832 74.9563 117.668 74.9067 117.668 74.9067C117.668 74.9067 116.272 75.3267 116.236 76.8788C114.976 77.2544 114.937 77.9013 115.091 78.6447C114.632 78.7543 114.402 79.0699 114.402 79.4377C114.402 80.8828 114.402 83.5252 114.402 85.1007L115.161 85.1529V79.4377Z" fill="#B98D4C"/>
<path d="M105.7 79.2815C105.7 78.9503 105.906 78.6633 106.321 78.5642C106.183 77.8938 106.217 77.3069 107.357 76.9678C107.38 76.0079 107.977 75.5279 108.353 75.3192C108.181 75.2227 108.056 75.1836 108.056 75.1836C108.056 75.1836 106.796 75.5644 106.759 76.9678C105.619 77.3069 105.585 77.8938 105.724 78.5642C105.309 78.6633 105.103 78.9503 105.103 79.2815C105.103 80.1241 105.103 83.296 105.103 84.4672L105.7 84.509V79.2815Z" fill="#B98D4C"/>
<path d="M97.8303 79.1277C97.8303 78.8329 98.0155 78.5747 98.3859 78.486C98.2633 77.886 98.292 77.3617 99.3119 77.0591C99.3328 76.1853 99.8884 75.7549 100.222 75.5749C100.079 75.4966 99.9745 75.4653 99.9745 75.4653C99.9745 75.4653 98.8476 75.8044 98.8163 77.0591C97.7964 77.3617 97.7651 77.886 97.8903 78.486C97.5199 78.5747 97.3347 78.8303 97.3347 79.1277C97.3347 79.3963 97.3347 83.2569 97.3347 83.9403L97.8303 83.9742C97.8303 82.9152 97.8303 79.3781 97.8303 79.1277Z" fill="#B98D4C"/>
<path d="M131.866 65.7378C131.866 65.3126 131.616 64.9422 131.112 64.8196C131.279 63.9666 131.237 63.2075 129.858 62.8423C129.816 61.0973 128.287 60.7451 128.287 60.7451C128.287 60.7451 126.759 61.3138 126.717 63.0171C125.334 63.5258 125.293 64.2379 125.462 65.0387C124.959 65.1926 124.708 65.5578 124.708 65.9595C124.708 68.0306 124.708 70.0992 124.708 72.1703L131.866 72.1547V65.7352V65.7378Z" fill="#DCA95F"/>
<path d="M131.866 65.7378C131.866 65.3126 131.616 64.9422 131.112 64.8196C131.279 63.9666 131.237 63.2075 129.858 62.8423C129.816 61.0973 128.287 60.7451 128.287 60.7451C128.287 60.7451 126.759 61.3138 126.717 63.0171C125.334 63.5258 125.293 64.2379 125.462 65.0387C124.959 65.1926 124.708 65.5578 124.708 65.9595C124.708 68.0306 124.708 70.0992 124.708 72.1703L131.866 72.1547V65.7352V65.7378Z" fill="#F0C990"/>
<path d="M120.934 66.3245C120.934 65.9358 120.704 65.5993 120.245 65.4871C120.399 64.7072 120.36 64.0159 119.1 63.682C119.061 62.0909 117.668 61.77 117.668 61.77C117.668 61.77 116.272 62.2891 116.236 63.8438C114.976 64.3081 114.937 64.9576 115.091 65.688C114.632 65.8288 114.402 66.1627 114.402 66.5279C114.402 67.973 114.402 70.6154 114.402 72.191L120.934 72.1779C120.934 70.4902 120.934 67.8087 120.934 66.3245Z" fill="#F0C990"/>
<path d="M111.009 66.8437C111.009 66.4916 110.802 66.1864 110.388 66.0873C110.526 65.383 110.492 64.757 109.352 64.457C109.318 63.0171 108.056 62.7275 108.056 62.7275C108.056 62.7275 106.796 63.1971 106.759 64.6004C105.619 65.0204 105.585 65.6073 105.724 66.2699C105.309 66.3977 105.103 66.6977 105.103 67.029C105.103 67.8715 105.103 71.0434 105.103 72.2146L111.009 72.2016C111.009 70.8582 111.009 67.7046 111.009 66.8437Z" fill="#F0C990"/>
<path d="M102.617 67.2533C102.617 66.9403 102.432 66.6664 102.061 66.5777C102.184 65.9491 102.155 65.3883 101.135 65.1196C101.104 63.8336 99.9772 63.5728 99.9772 63.5728C99.9772 63.5728 98.8503 63.9901 98.819 65.2474C97.7991 65.623 97.7678 66.1473 97.893 66.7395C97.5226 66.8542 97.3374 67.1229 97.3374 67.4177C97.3374 67.6864 97.3374 71.5469 97.3374 72.2304L102.617 72.2199C102.617 71.213 102.617 67.5246 102.617 67.2533Z" fill="#F0C990"/>
<path d="M125.614 65.8967C125.614 65.495 125.864 65.1298 126.368 64.9759C126.201 64.1751 126.242 63.4604 127.622 62.9543C127.648 61.864 128.285 61.2406 128.739 60.9328C128.486 60.7945 128.287 60.7476 128.287 60.7476C128.287 60.7476 126.759 61.3162 126.717 63.0196C125.335 63.5282 125.293 64.2403 125.462 65.0411C124.959 65.195 124.709 65.5602 124.709 65.9619C124.709 68.0331 124.709 70.1016 124.709 72.1728H125.614V65.8993V65.8967Z" fill="#DCA95F"/>
<path d="M143.464 65.2266C143.464 64.8014 143.213 64.431 142.71 64.3084C142.877 63.4554 142.835 62.6963 141.455 62.3311C141.413 60.586 139.885 60.2339 139.885 60.2339C139.885 60.2339 138.356 60.8025 138.315 62.5059C136.932 63.0145 136.89 63.7267 137.06 64.5275C136.556 64.6814 136.306 65.0466 136.306 65.4483V72.1782L143.464 72.1625V65.2239V65.2266Z" fill="#DCA95F"/>
<path d="M143.464 65.2266C143.464 64.8014 143.213 64.431 142.71 64.3084C142.877 63.4554 142.835 62.6963 141.455 62.3311C141.413 60.586 139.885 60.2339 139.885 60.2339C139.885 60.2339 138.356 60.8025 138.315 62.5059C136.932 63.0145 136.89 63.7267 137.06 64.5275C136.556 64.6814 136.306 65.0466 136.306 65.4483V72.1782L143.464 72.1625V65.2239V65.2266Z" fill="#F0C990"/>
<path d="M137.209 65.3855C137.209 64.9838 137.459 64.6186 137.962 64.4647C137.795 63.6639 137.837 62.9492 139.217 62.4431C139.243 61.3528 139.88 60.7293 140.333 60.4215C140.08 60.2833 139.882 60.2363 139.882 60.2363C139.882 60.2363 138.354 60.805 138.312 62.5083C136.929 63.017 136.888 63.7291 137.057 64.5299C136.554 64.6838 136.303 65.049 136.303 65.4507V72.1806H137.209V65.3881V65.3855Z" fill="#DCA95F"/>
<path d="M143.464 79.4766C143.464 79.0514 143.213 78.681 142.71 78.5584C142.877 77.7054 142.835 76.9463 141.455 76.5811C141.413 74.836 139.885 74.4839 139.885 74.4839C139.885 74.4839 138.356 75.0525 138.315 76.7559C136.932 77.2645 136.89 77.9767 137.06 78.7775C136.556 78.9314 136.306 79.2966 136.306 79.6983V86.4282L143.464 86.4125V79.4739V79.4766Z" fill="#DCA95F"/>
<path d="M143.464 79.4766C143.464 79.0514 143.213 78.681 142.71 78.5584C142.877 77.7054 142.835 76.9463 141.455 76.5811C141.413 74.836 139.885 74.4839 139.885 74.4839C139.885 74.4839 138.356 75.0525 138.315 76.7559C136.932 77.2645 136.89 77.9767 137.06 78.7775C136.556 78.9314 136.306 79.2966 136.306 79.6983V86.4282L143.464 86.8012V79.4766Z" fill="#DCA95F"/>
<path d="M137.209 79.6384C137.209 79.2367 137.459 78.8715 137.962 78.7176C137.795 77.9168 137.837 77.2021 139.217 76.696C139.243 75.6057 139.88 74.9823 140.333 74.6745C140.08 74.5362 139.882 74.4893 139.882 74.4893C139.882 74.4893 138.354 75.0579 138.312 76.7613C136.929 77.2699 136.888 77.982 137.057 78.7828C136.554 78.9367 136.303 79.3019 136.303 79.7036V86.4336H137.209V79.641V79.6384Z" fill="#B98D4C"/>
<path d="M115.162 66.4761C115.162 66.1109 115.391 65.777 115.85 65.6361C115.696 64.9058 115.735 64.2536 116.995 63.7919C117.021 62.7694 117.632 62.1981 118.047 61.9242C117.833 61.8121 117.668 61.7729 117.668 61.7729C117.668 61.7729 116.273 62.292 116.236 63.8467C114.976 64.311 114.937 64.9605 115.091 65.6909C114.632 65.8318 114.402 66.1657 114.402 66.5308C114.402 67.976 114.402 70.6184 114.402 72.1939H115.162V66.4761Z" fill="#DCA95F"/>
<path d="M105.701 66.9845C105.701 66.6532 105.907 66.3506 106.321 66.2254C106.183 65.5654 106.217 64.9759 107.357 64.5559C107.38 63.596 107.978 63.0717 108.353 62.8369C108.181 62.7535 108.056 62.7222 108.056 62.7222C108.056 62.7222 106.796 63.1917 106.76 64.5951C105.62 65.015 105.586 65.6019 105.724 66.2645C105.309 66.3923 105.103 66.6923 105.103 67.0236C105.103 67.8661 105.103 71.0381 105.103 72.2093H105.701V66.9818V66.9845Z" fill="#DCA95F"/>
<path d="M97.8307 67.3838C97.8307 67.089 98.0159 66.8177 98.3863 66.7056C98.2637 66.1134 98.2924 65.5891 99.3124 65.2135C99.3332 64.337 99.8888 63.8701 100.223 63.6667C100.079 63.5988 99.9749 63.5728 99.9749 63.5728C99.9749 63.5728 98.848 63.9901 98.8167 65.2474C97.7968 65.623 97.7655 66.1473 97.8907 66.7395C97.5203 66.8542 97.3351 67.1229 97.3351 67.4177C97.3351 67.6864 97.3351 71.5469 97.3351 72.2304H97.8307C97.8307 71.1713 97.8307 67.6316 97.8307 67.3838Z" fill="#DCA95F"/>
<path d="M95.5065 78.6367C95.5065 78.3576 95.3422 78.102 95.0109 77.9977C95.1205 77.4447 95.0944 76.9438 94.184 76.6412C94.1553 75.4935 93.1511 75.1909 93.1511 75.1909C93.1511 75.1909 92.1468 75.4935 92.1181 76.6125C91.2103 76.8838 91.1816 77.3508 91.2912 77.8855C90.9599 77.9638 90.7956 78.1933 90.7956 78.4568C90.7956 78.6967 90.7956 82.8677 90.7956 83.4755L95.5013 83.7964V78.6394L95.5065 78.6367Z" fill="#DCA95F"/>
<path d="M91.2442 78.4543C91.2442 78.1909 91.4085 77.9613 91.7398 77.8831C91.6302 77.3483 91.6563 76.8814 92.5667 76.6101C92.5849 75.8302 93.0806 75.4467 93.3779 75.2876C93.2501 75.2172 93.1562 75.1885 93.1562 75.1885C93.1562 75.1885 92.1519 75.4911 92.1232 76.6101C91.2155 76.8814 91.1868 77.3483 91.2964 77.8831C90.9651 77.9613 90.8007 78.1909 90.8007 78.4543C90.8007 78.6943 90.8007 82.8653 90.8007 83.4731L91.2442 83.5044V78.4543Z" fill="#B98D4C"/>
<path d="M95.5065 67.8687C95.5065 67.5896 95.3422 67.3444 95.0109 67.2662C95.1205 66.7053 95.0944 66.2071 94.184 65.9671C94.1553 64.8194 93.1511 64.5898 93.1511 64.5898C93.1511 64.5898 92.1468 64.9629 92.1181 66.0819C91.2103 66.4158 91.1816 66.8853 91.2912 67.4122C90.9599 67.514 90.7956 67.754 90.7956 68.0174C90.7956 68.2574 90.7956 71.698 90.7956 72.3084L95.5013 72.298V67.8713L95.5065 67.8687Z" fill="#F0C990"/>
<path d="M91.2442 67.9863C91.2442 67.7228 91.4085 67.4828 91.7398 67.3811C91.6302 66.8542 91.6563 66.3847 92.5667 66.0508C92.5849 65.2708 93.0806 64.8535 93.3779 64.6709C93.2501 64.6109 93.1562 64.5874 93.1562 64.5874C93.1562 64.5874 92.1519 64.9604 92.1232 66.0795C91.2155 66.4134 91.1868 66.8829 91.2964 67.4098C90.9651 67.5115 90.8007 67.7515 90.8007 68.015C90.8007 68.2549 90.8007 71.6956 90.8007 72.3059H91.2442V67.9863Z" fill="#DCA95F"/>
<path d="M99.0001 84.1001C65.9019 86.5045 47.5672 89.4343 15.0001 95.6001L6.00006 102.6H150.5V94.1001C136.858 88.7702 125.024 86.7018 99.0001 84.1001Z" fill="#F0DBBD"/>
<path d="M85.0001 85.1001C58.8521 88.5179 48.4459 91.0063 35.0001 96.1001L25.0001 97.6001L12.5001 96.1001L77.5001 83.1001L123 85.6001L128 86.1001L151 93.6001L149 95.1001C128.838 88.7983 113.16 87.4349 85.0001 85.1001Z" fill="#F0DBBD"/>
</g>
<g clip-path="url(#clip2_8501_21926)">
<path d="M84.7363 87.5625L64.9998 94.002L115.304 95.6002L133 90.2435L84.7363 87.5625Z" fill="#F0DBBD"/>
<path d="M126.831 52.8651L118.507 49.6001V92.6394L126.831 90.6574V52.8651Z" fill="#1E2124"/>
<path d="M82.7937 51.0311L118.507 49.6001V92.6394L82.7937 91.8335V51.0311Z" fill="#292D32"/>
<path d="M118.485 60.6024L126.831 62.1779V64.5383L118.485 63.5102L118.485 60.6024Z" fill="#DCA95F"/>
<path d="M82.7936 60.8838L118.507 60.585L118.485 63.51L82.7936 63.998V60.8838Z" fill="#F0C990"/>
<path d="M118.518 59.7213L118.529 59.723L118.518 59.7202L82.78 60.2109V60.4412L118.496 59.9505L118.518 59.9571V59.7213Z" fill="#F0C990"/>
<path d="M118.518 59.7217H118.507V59.9547L126.831 61.7256V61.4899L118.529 59.7244L118.518 59.7217Z" fill="#DCA95F"/>
<path d="M82.78 64.5467L118.504 64.1245L118.493 64.352L82.78 64.777V64.5467Z" fill="#F0C990"/>
<path d="M118.507 64.3548L126.831 65.2211V64.9908L118.507 64.1245V64.3548Z" fill="#DCA95F"/>
<path d="M85.2519 66.0185V69.119L92.3345 68.9901V65.9253L85.2519 66.0185Z" fill="#F0C990"/>
<path d="M95.5921 65.8816V68.93L103.878 68.7738V65.772L95.5921 65.8816Z" fill="#F0C990"/>
<path d="M107.534 65.7225V68.7079L115.304 68.5626V65.6211L107.534 65.7225Z" fill="#F0C990"/>
<path d="M94.097 68.9298C94.6184 68.9298 95.041 68.2572 95.041 67.4276C95.041 66.5979 94.6184 65.9253 94.097 65.9253C93.5757 65.9253 93.153 66.5979 93.153 67.4276C93.153 68.2572 93.5757 68.9298 94.097 68.9298Z" fill="#F0C990"/>
<path d="M106.647 67.4276C106.647 68.2582 106.224 68.9298 105.703 68.9298C105.182 68.9298 104.759 68.2582 104.759 67.4276C104.759 66.5969 105.182 65.9253 105.703 65.9253C106.224 65.9253 106.647 66.5969 106.647 67.4276Z" fill="#F0C990"/>
<path d="M118.073 67.1644C118.073 67.995 117.65 68.6666 117.129 68.6666C116.608 68.6666 116.185 67.995 116.185 67.1644C116.185 66.3337 116.608 65.6621 117.129 65.6621C117.65 65.6621 118.073 66.3337 118.073 67.1644Z" fill="#F0C990"/>
<path d="M83.9177 68.9298C84.3698 68.9298 84.7362 68.2572 84.7362 67.4276C84.7362 66.5979 84.3698 65.9253 83.9177 65.9253C83.4657 65.9253 83.0992 66.5979 83.0992 67.4276C83.0992 68.2572 83.4657 68.9298 83.9177 68.9298Z" fill="#F0C990"/>
<path d="M119.099 65.6348V88.865L121.874 88.2921V65.9007L119.099 65.6348Z" fill="#DCA95F"/>
<path d="M124.283 66.1226L122.872 65.9883V68.6035L124.283 68.631V66.1226Z" fill="#DCA95F"/>
<path d="M126.127 66.2925L125.101 66.1938V68.6446L126.127 68.6666V66.2925Z" fill="#DCA95F"/>
<path d="M122.667 67.2632C122.667 67.8005 122.577 68.2364 122.466 68.2364C122.354 68.2364 122.264 67.8005 122.264 67.2632C122.264 66.7259 122.354 66.29 122.466 66.29C122.577 66.29 122.667 66.7259 122.667 67.2632Z" fill="#DCA95F"/>
<path d="M124.951 67.4304C124.951 67.954 124.861 68.379 124.749 68.379C124.637 68.379 124.547 67.954 124.547 67.4304C124.547 66.9068 124.637 66.4819 124.749 66.4819C124.861 66.4819 124.951 66.9068 124.951 67.4304Z" fill="#DCA95F"/>
<path d="M126.681 67.4634C126.681 67.9541 126.599 68.3516 126.498 68.3516C126.397 68.3516 126.315 67.9541 126.315 67.4634C126.315 66.9727 126.397 66.5752 126.498 66.5752C126.599 66.5752 126.681 66.9727 126.681 67.4634Z" fill="#DCA95F"/>
</g>
</g>
<defs>
<linearGradient id="paint0_linear_8501_21926" x1="85.5001" y1="74.6001" x2="13.5001" y2="75.6001" gradientUnits="userSpaceOnUse">
<stop stop-color="#FDE2BA"/>
<stop offset="1" stop-color="#FBECD6"/>
</linearGradient>
<linearGradient id="paint1_linear_8501_21926" x1="85.9592" y1="74.6001" x2="157.959" y2="75.6001" gradientUnits="userSpaceOnUse">
<stop stop-color="#FDE2BA"/>
<stop offset="1" stop-color="#FBECD6"/>
</linearGradient>
<clipPath id="clip0_8501_21926">
<rect width="149" height="95" fill="white"/>
</clipPath>
<clipPath id="clip1_8501_21926">
<rect width="134.241" height="80" fill="white" transform="translate(15 15.6001)"/>
</clipPath>
<clipPath id="clip2_8501_21926">
<rect width="68" height="46" fill="white" transform="translate(65 49.6001)"/>
</clipPath>
</defs>
</svg>
