<svg width="56" height="56" viewBox="0 0 56 56" fill="none" xmlns="http://www.w3.org/2000/svg">
<path d="M26.5809 36.7854H11.083C10.361 36.7854 10 35.7024 10 33.5364C10 31.3704 10.4419 30.2501 11.3257 30.1754H26.6369C27.4336 30.1754 27.8506 31.2646 27.888 33.4431V33.5551C27.888 35.6464 27.4523 36.7231 26.5809 36.7854Z" fill="white"/>
<path d="M41.9855 27.748C41.9855 27.7729 41.9232 27.6236 41.7988 27.2999C41.6867 26.9763 41.5311 26.6713 41.332 26.385C41.1328 26.0862 40.9149 25.8497 40.6784 25.6754C40.4419 25.4887 40.2116 25.3767 39.9876 25.3393L39.8008 25.3207C39.6763 25.3207 39.5021 25.3518 39.278 25.414C39.0539 25.4638 38.8112 25.5572 38.5498 25.6941C38.3008 25.8186 38.0768 25.9742 37.8776 26.1609C37.6909 26.3352 37.5975 26.4285 37.5975 26.441C37.7095 26.5157 37.9772 26.6402 38.4004 26.8144C38.8237 26.9763 39.2718 27.1319 39.7448 27.2812C40.2303 27.4182 40.7158 27.5302 41.2012 27.6173C41.6992 27.7045 41.9606 27.748 41.9855 27.748ZM28.1867 36.7854H27.1971C26.9481 36.7854 26.7427 36.6547 26.5809 36.3933C26.4191 36.1319 26.2822 35.8518 26.1701 35.553C26.0581 35.2543 25.9585 34.9244 25.8714 34.5634C25.7842 34.2024 25.7407 33.8352 25.7407 33.4617C25.7407 33.1132 25.7842 32.7584 25.8714 32.3974C25.9585 32.0364 26.0581 31.7065 26.1701 31.4078C26.2822 31.0966 26.4191 30.8165 26.5809 30.5675C26.7427 30.3061 26.9481 30.1754 27.1971 30.1754H28.2241C28.7469 30.1754 29.2759 30.1568 29.8112 30.1194C30.3589 30.0821 30.8693 29.9887 31.3423 29.8393C31.8278 29.6899 32.2635 29.4721 32.6494 29.1858C33.0353 28.887 33.3527 28.4576 33.6017 27.8974C33.7759 27.4866 33.9938 26.9949 34.2552 26.4223C34.529 25.8373 34.8216 25.2273 35.1328 24.5924C35.4564 23.9576 35.8112 23.329 36.1971 22.7065C36.5954 22.0841 37.0249 21.5177 37.4855 21.0074C37.9461 20.4846 38.4502 20.0551 38.9979 19.719C39.5456 19.3829 40.1369 19.2148 40.7718 19.2148C41.3444 19.2148 41.8797 19.3891 42.3776 19.7377C42.8755 20.0862 43.3237 20.5281 43.722 21.0634C44.1328 21.5862 44.4938 22.1837 44.805 22.8559C45.1162 23.5281 45.3714 24.219 45.5705 24.9285C45.7697 25.6256 45.9004 26.329 45.9627 27.0385C45.9876 27.3248 46 27.6049 46 27.8787C46 28.2522 45.9751 28.6132 45.9253 28.9617C45.8755 29.2356 45.7697 29.6277 45.6079 30.1381C45.4585 30.636 45.2718 31.1464 45.0477 31.6692C44.8237 32.192 44.5685 32.6899 44.2822 33.163C43.9958 33.636 43.666 33.9472 43.2925 34.0966C43.0809 34.1837 42.7946 34.2273 42.4336 34.2273C42.1971 34.2273 41.8237 34.1899 41.3133 34.1153C40.8029 34.053 40.1183 33.8974 39.2593 33.6485C38.4129 33.4119 37.5539 33.1194 36.6826 32.7709C35.8237 32.4099 35.2573 32.1298 34.9834 31.9306C34.6846 32.5779 34.2303 33.2439 33.6203 33.9285C33.0228 34.6256 32.4066 35.1858 31.7718 35.609C31.1369 36.0323 30.5021 36.331 29.8672 36.5053C29.2448 36.692 28.6846 36.7854 28.1867 36.7854Z" fill="white"/>
</svg>
