<svg width="56" height="56" viewBox="0 0 56 56" fill="none" xmlns="http://www.w3.org/2000/svg">
<path d="M28 19.5362C25.4723 19.5362 23.4043 17.4681 23.4043 14.9405C23.4043 12.4128 25.4723 10.3447 28 10.3447C30.5277 10.3447 32.5957 12.4128 32.5957 14.9405C32.5957 17.4681 30.5277 19.5362 28 19.5362ZM14.5957 45.6554C12.0681 45.6554 10 43.5873 10 41.0596C10 38.532 12.0681 36.4639 14.5957 36.4639C17.1234 36.4639 19.1915 38.532 19.1915 41.0596C19.1915 43.5873 17.1234 45.6554 14.5957 45.6554ZM41.4043 45.6554C38.8766 45.6554 36.8085 43.5873 36.8085 41.0596C36.8085 38.532 38.8766 36.4639 41.4043 36.4639C43.9319 36.4639 46 38.532 46 41.0596C46 43.5873 43.9319 45.6554 41.4043 45.6554Z" fill="white"/>
</svg>
