<svg width="56" height="56" viewBox="0 0 56 56" fill="none" xmlns="http://www.w3.org/2000/svg">
<path d="M30.2974 26.7052C30.1415 26.7052 29.9855 26.6551 29.8296 26.5548C27.7244 24.8172 26.6718 23.8816 26.6718 23.7479C26.6718 23.6477 27.5351 22.6396 29.2615 20.7238C29.4175 20.5678 29.5957 20.4899 29.7962 20.4899C29.9298 20.4899 30.0746 20.5344 30.2306 20.6235C32.3246 22.3946 33.3717 23.3413 33.3717 23.4639C33.3717 23.553 32.5196 24.561 30.8154 26.488C30.6706 26.6328 30.4979 26.7052 30.2974 26.7052ZM29.3785 47.1222C28.454 47.1222 27.4181 47.0219 26.2708 46.8214C25.1347 46.6209 23.9317 46.2255 22.6619 45.6352C21.4033 45.056 20.2449 44.3041 19.1867 43.3796C18.1397 42.4663 17.2375 41.4081 16.48 40.2051C15.7226 39.0022 15.1323 37.6655 14.709 36.1952C14.2969 34.7361 14.0908 33.16 14.0908 31.4669C14.0908 30.4645 14.1966 29.4119 14.4083 28.3091C14.631 27.2176 14.9318 26.126 15.3105 25.0344C15.7003 23.9428 16.1737 22.868 16.7307 21.8098C17.2876 20.7516 17.9113 19.7603 18.6019 18.8358C19.2925 17.9002 20.0444 17.0536 20.8575 16.2962C21.6706 15.5388 22.4726 14.9373 23.2634 14.4918C23.2634 14.6923 23.2022 14.7869 23.0796 14.7758C22.9571 14.7535 22.7232 14.7257 22.3779 14.6923C21.2641 14.5809 20.4676 14.5252 19.9887 14.5252C19.5988 14.5252 19.1589 14.553 18.6688 14.6087C18.1787 14.6533 17.6774 14.7758 17.1651 14.9763C16.6527 15.1768 16.1904 15.472 15.7783 15.8618C15.6446 16.0066 15.472 16.079 15.2604 16.079C14.8482 16.079 14.6422 15.9064 14.6422 15.5611L14.6589 15.4441C14.748 14.8204 14.8984 14.1353 15.11 13.389C15.3328 12.6316 15.6335 11.9299 16.0122 11.2839C16.4021 10.6267 16.9033 10.0642 17.5159 9.59637C18.1285 9.12855 18.886 8.88907 19.7882 8.87793H20.0388C20.6626 8.87793 21.2919 8.91691 21.9268 8.99488C22.5728 9.06172 23.2356 9.15082 23.915 9.26221C24.6056 9.3736 25.2795 9.48498 25.9367 9.59637C26.5939 9.69661 27.251 9.76901 27.9082 9.81357C29.0221 9.89154 30.1526 9.93052 31.2999 9.93052C31.4447 9.93052 31.8735 9.93052 32.5864 9.93052C33.2993 9.93052 34.2516 9.86926 35.4434 9.74674H35.5437C35.889 9.74674 36.0616 9.88597 36.0616 10.1644L36.0282 10.2647C35.8054 10.9998 35.566 11.7962 35.3098 12.6539C35.0647 13.5116 34.7696 14.3859 34.4243 15.277C33.2658 15.355 32.1743 15.472 31.1495 15.6279C30.1359 15.7727 29.1279 15.9843 28.1254 16.2628C27.1341 16.5413 26.1817 16.881 25.2684 17.282C24.355 17.6718 23.5363 18.1396 22.8123 18.6854C22.066 19.2089 21.342 19.8828 20.6403 20.7071C19.9497 21.5202 19.3315 22.4168 18.7857 23.397C18.2511 24.3884 17.8167 25.4243 17.4825 26.5047C17.1595 27.5851 16.998 28.6656 16.998 29.746C16.998 30.6371 17.1428 31.556 17.4324 32.5028C17.722 33.4607 18.1174 34.3741 18.6186 35.2429C19.131 36.1117 19.7214 36.9081 20.3897 37.6321C21.058 38.3673 21.7597 38.9465 22.4949 39.3697C23.6867 40.0937 24.9621 40.5894 26.321 40.8567C27.4571 41.0684 28.7325 41.1742 30.1471 41.1742L31.0493 41.1575C32.5975 41.1129 34.1569 41.0405 35.7275 40.9403C37.3091 40.84 39.0189 40.7899 40.8568 40.7899C41.5585 40.7899 41.9094 41.0851 41.9094 41.6754L41.8927 41.8592C41.8258 42.1488 41.6755 42.3771 41.4415 42.5442C41.2188 42.7113 40.9626 42.8283 40.673 42.8951C40.2831 42.9842 39.7429 43.2237 39.0523 43.6135C38.3617 44.0145 37.582 44.4545 36.7132 44.9334C35.8444 45.4124 34.9144 45.8579 33.923 46.2701C32.9428 46.6822 31.9738 46.9384 31.0159 47.0386C30.4701 47.0943 29.9243 47.1222 29.3785 47.1222Z" fill="white"/>
</svg>
