<svg width="320" height="135" viewBox="0 0 320 135" fill="none" xmlns="http://www.w3.org/2000/svg">
<g clip-path="url(#clip0_5862_59872)">
<rect width="320" height="134.139" rx="14" fill="#F5F1E9"/>
<g clip-path="url(#clip1_5862_59872)">
<path d="M283.493 117.752C288.582 116.333 294.129 117.741 298.685 120.418C300.82 121.673 302.878 123.232 305.314 123.681C307.493 124.083 309.722 123.547 311.936 123.536C314.852 123.45 317.849 124.54 320 126.484V131.921C315.396 132.712 311.017 135.836 305.441 133.62C303.114 132.12 300.812 130.278 297.869 130.373C295.974 130.33 294.118 130.841 292.255 131.186C290.392 131.53 288.477 131.229 286.603 130.957C279.298 129.926 274.023 120.326 283.493 117.752Z" fill="#EEE8E0"/>
<path d="M287.174 122.523C289.188 123.444 291.364 123.934 293.545 124.282C299.172 124.718 304.297 127.001 309.623 128.636C312.797 129.589 316.54 129.863 320 130.647V131.455C319.429 131.323 318.858 131.204 318.304 131.083C314.722 130.359 311.069 129.923 307.584 128.794C304.076 127.618 300.699 126.029 297.026 125.396C293.666 124.75 290.101 124.419 287.066 122.717C286.956 122.655 287.061 122.469 287.174 122.523Z" fill="#CFC4B9"/>
<path d="M306.222 74.4248C310.046 74.9768 313.139 78.0949 314.908 81.3826C316.266 84.0214 316.791 87.0156 318.075 89.6894C318.67 90.7314 319.332 91.7546 320.003 92.7698V106.963C319.136 106.338 318.285 105.686 317.641 104.819C315.202 100.735 315.186 97.6919 310.476 95.0047C306.505 92.8425 302.953 89.5898 301.833 85.0581C300.43 80.9195 300.462 73.9455 306.222 74.4248Z" fill="#EEE8E0"/>
<path d="M299.237 94.1455C302.961 95.6668 305.075 99.283 308.104 101.69C310.237 103.163 312.986 103.54 315.089 105.056C317.644 107.057 319.324 110.153 320 113.314V113.694C318.473 111.273 315.563 110.673 312.913 110.194C309.819 109.512 306.308 107.434 303.187 106.879C284.969 105.043 284.646 88.7602 299.237 94.1455Z" fill="#EEE8E0"/>
<path d="M320 104.003C316.86 97.673 312.803 91.7034 308.667 84.6649C308.511 84.2637 307.21 82.5081 307.999 82.7854C312.014 89.2289 316.424 95.5485 320 102.272V104.003Z" fill="#CFC4B9"/>
<path d="M296.019 98.3408C307.24 105.062 314.593 106.179 320 113.363V114.437C319.106 113.153 318.094 111.955 316.933 110.875C313.67 107.824 309.437 106.19 305.481 104.254C302.511 102.781 299.638 101.109 296.854 99.3075C296.526 99.0517 295.22 98.4135 296.019 98.3408Z" fill="#CFC4B9"/>
</g>
<g clip-path="url(#clip2_5862_59872)">
<path d="M7.01687 107.465C4.10079 108.126 1.90205 110.723 0.739687 113.368C0.430807 114.108 0.203211 114.874 0 115.65V131.724C0.0203211 131.692 0.0426743 131.661 0.0629953 131.629C1.69681 128.327 1.52205 125.976 4.99492 123.616C7.92725 121.704 10.4714 118.977 11.0587 115.411C11.8858 112.127 11.4326 106.744 7.01687 107.465Z" fill="#EEE8E0"/>
<path d="M13.6151 122.263C10.8332 123.665 9.42288 126.587 7.23227 128.629C5.67771 129.897 3.57651 130.357 2.04633 131.655C1.21114 132.421 0.528348 133.352 0 134.368V137.174C1.12985 136.284 2.63361 135.86 4.03983 135.488C6.38691 134.772 8.96972 132.954 11.3432 132.334C25.3465 129.773 24.4991 117.215 13.6131 122.263H13.6151Z" fill="#EEE8E0"/>
<path d="M16.3544 125.304C8.92705 130.601 3.68827 132.166 0 136.651V137.403C2.39179 134.273 6.02723 132.38 9.41272 130.449C11.6155 129.13 13.7309 127.663 15.7692 126.102C16.0923 125.834 16.96 125.298 16.3544 125.306V125.304Z" fill="#CFC4B9"/>
<path d="M0 127.049C1.94066 122.94 4.21256 118.821 6.37269 114.155C6.42552 114.027 6.23044 113.903 6.15525 114.031C5.11685 115.783 4.19833 117.612 3.26966 119.423C2.23329 121.571 1.09327 123.684 0 125.818V127.051V127.049Z" fill="#CFC4B9"/>
</g>
<g clip-path="url(#clip3_5862_59872)">
<path d="M297.746 7.46578C295.807 7.00951 293.28 9.01862 291.542 12.1818C289.212 9.43654 286.34 7.97956 284.53 8.81924C282.325 9.84296 282.53 13.8918 284.989 17.8602C287.182 21.403 292.669 23.4044 292.669 23.4044C292.669 23.4044 297.648 20.3294 299.093 16.4147C300.714 12.0284 300.11 8.02173 297.746 7.46578Z" fill="#EEE8E0"/>
</g>
<g clip-path="url(#clip4_5862_59872)">
<path d="M69.1438 84.4537C67.5469 84.083 65.4657 85.7154 64.0344 88.2855C62.1157 86.0549 59.7501 84.8711 58.2594 85.5534C56.4438 86.3852 56.6126 89.6749 58.6376 92.8992C60.4438 95.7777 64.9626 97.4039 64.9626 97.4039C64.9626 97.4039 69.0626 94.9054 70.2532 91.7247C71.5876 88.1609 71.0907 84.9054 69.1438 84.4537Z" fill="#EEE8E0"/>
</g>
<g clip-path="url(#clip5_5862_59872)">
<path d="M47.5418 8.44162C46.2871 8.15646 44.6518 9.41215 43.5273 11.3891C42.0197 9.67335 40.161 8.76274 38.9898 9.28754C37.5632 9.92737 37.6958 12.4579 39.2869 14.9381C40.7061 17.1524 44.2565 18.4033 44.2565 18.4033C44.2565 18.4033 47.4779 16.4814 48.4134 14.0347C49.4619 11.2933 49.0715 8.7891 47.5418 8.44162Z" fill="#EEE8E0"/>
</g>
<g clip-path="url(#clip6_5862_59872)">
<path d="M251.057 20.3437L255 21.9004L251.057 23.4571L249.5 27.4004L247.943 23.4571L244 21.9004L247.943 20.3437L249.5 16.4004L251.057 20.3437Z" fill="#FAFAFA"/>
</g>
<g clip-path="url(#clip7_5862_59872)">
<path d="M182.057 93.3437L186 94.9004L182.057 96.4571L180.5 100.4L178.943 96.4571L175 94.9004L178.943 93.3437L180.5 89.4004L182.057 93.3437Z" fill="#FAFAFA"/>
</g>
<g clip-path="url(#clip8_5862_59872)">
<path d="M45.0567 44.3437L49 45.9004L45.0567 47.4571L43.5 51.4004L41.9433 47.4571L38 45.9004L41.9433 44.3437L43.5 40.4004L45.0567 44.3437Z" fill="#FAFAFA"/>
</g>
<path d="M195.623 101.444C181.28 114.541 163.437 114.514 145.286 107.254C134.664 103.006 123.429 95.6346 117.321 86.1344C109.056 73.4597 111.942 62.5562 118.312 48.9199C126.766 30.8091 140.455 20.0727 160.59 22.2877C186.433 25.1248 202.748 43.7928 207.212 68.5819C209.46 81.0692 204.716 93.141 195.623 101.444Z" fill="#EEE8E0"/>
<mask id="mask0_5862_59872" style="mask-type:luminance" maskUnits="userSpaceOnUse" x="112" y="22" width="96" height="91">
<path d="M195.623 101.444C181.28 114.541 163.437 114.514 145.286 107.254C134.664 103.006 123.429 95.6346 117.321 86.1344C109.056 73.4597 111.942 62.5562 118.312 48.9199C126.766 30.8091 140.455 20.0727 160.59 22.2877C186.433 25.1248 202.748 43.7928 207.212 68.5819C209.46 81.0692 204.716 93.141 195.623 101.444Z" fill="white"/>
</mask>
<g mask="url(#mask0_5862_59872)">
<path d="M169.19 76.4491C169.19 76.4491 162.484 75.1086 161.363 75.215C160.243 75.3214 156.363 77.052 156.318 77.3692C156.273 77.6863 156.467 77.9386 157.147 77.967C157.826 77.9953 160.051 77.6519 159.916 77.9234C159.782 78.195 153.386 79.6186 153.348 80.9044C153.31 82.1902 156.897 84.4882 159.878 84.5703C162.86 84.6524 168.62 81.0675 169.12 81.0108C173.363 80.5315 169.19 76.4491 169.19 76.4491Z" fill="#ED975D"/>
<path d="M205.818 61.6493C203.198 64.8916 201.015 67.4004 199.864 68.3134C198.945 69.0389 197.791 69.7816 196.465 70.5253C186.904 75.8823 168.516 81.3194 168.516 81.3194L168.479 81.2931C167.516 80.5646 166.731 79.6294 166.184 78.5573C165.484 77.1509 165.627 76.2775 165.836 75.8215C165.899 75.6692 165.993 75.5313 166.112 75.4162C166.112 75.4162 188.153 61.4334 189.91 59.9764C190.91 59.1496 194.529 50.7832 197.477 43.6895C197.889 44.2832 198.289 44.8858 198.675 45.4971C201.768 50.3688 204.155 55.813 205.818 61.6493Z" fill="#ED7D2B"/>
<path d="M205.969 86.4128C205.833 86.804 205.687 87.1927 205.532 87.5791C204.816 89.3904 203.955 91.1418 202.958 92.8166C202.366 93.8136 201.727 94.7833 201.041 95.7256C199.492 97.8538 197.731 99.821 195.783 101.597C195.793 101.45 195.805 101.305 195.815 101.159C195.831 100.934 195.847 100.709 195.863 100.487C195.899 99.9944 195.933 99.5107 195.965 99.0359C195.979 98.8515 195.991 98.6691 196.005 98.4877C196.089 97.3134 196.169 96.1998 196.243 95.1551C196.265 94.8512 196.286 94.5604 196.307 94.2706L196.325 94.0142C196.338 93.844 196.35 93.6758 196.361 93.5076C196.372 93.3394 196.383 93.2036 196.393 93.0608V93.0162C196.405 92.8662 196.415 92.7183 196.425 92.5714C196.443 92.3241 196.461 92.0826 196.477 91.8469C196.487 91.699 196.497 91.5551 196.509 91.4112C196.524 91.1883 196.539 90.9711 196.555 90.7597C196.555 90.709 196.562 90.6583 196.566 90.6067C196.573 90.5053 196.58 90.404 196.587 90.3027C196.587 90.253 196.594 90.2014 196.597 90.1558C196.598 90.1497 196.598 90.1436 196.597 90.1375C196.612 89.9481 196.624 89.7626 196.637 89.5833C196.638 89.5738 196.638 89.5644 196.637 89.5549C196.646 89.4242 196.656 89.2955 196.665 89.1709C196.665 89.1283 196.671 89.0868 196.673 89.0473C196.679 88.975 196.684 88.9041 196.688 88.8345L196.701 88.6653C196.728 88.2742 196.755 87.9165 196.777 87.5963C196.777 87.5507 196.783 87.5051 196.786 87.4616C196.789 87.418 196.793 87.3714 196.795 87.3268C196.802 87.2427 196.808 87.1606 196.813 87.0826C196.854 86.5162 196.882 86.1038 196.9 85.8616C196.9 85.8373 196.9 85.814 196.9 85.7917C196.9 85.7856 196.9 85.7786 196.9 85.7715C196.9 85.7644 196.9 85.7289 196.9 85.7117C196.906 85.6438 196.908 85.6104 196.908 85.6104L205.969 86.4128Z" fill="#6BB7BF"/>
<path d="M205.969 86.4128C205.833 86.804 205.687 87.1927 205.532 87.5791C204.816 89.3904 203.955 91.1418 202.958 92.8166C202.366 93.8136 201.727 94.7833 201.041 95.7256C199.492 97.8538 197.731 99.821 195.783 101.597C195.793 101.45 195.805 101.305 195.815 101.159C195.831 100.934 195.847 100.709 195.863 100.487C195.899 99.9944 195.933 99.5107 195.965 99.0359C195.979 98.8515 195.991 98.6691 196.005 98.4877C196.089 97.3134 196.169 96.1998 196.243 95.1551C196.265 94.8512 196.286 94.5604 196.307 94.2706L196.325 94.0142C196.338 93.844 196.35 93.6758 196.361 93.5076C196.372 93.3394 196.383 93.2036 196.393 93.0608V93.0162C196.405 92.8662 196.415 92.7183 196.425 92.5714C196.443 92.3241 196.461 92.0826 196.477 91.8469C196.487 91.699 196.497 91.5551 196.509 91.4112C196.524 91.1883 196.539 90.9711 196.555 90.7597C196.555 90.709 196.562 90.6583 196.566 90.6067C196.573 90.5053 196.58 90.404 196.587 90.3027C196.587 90.253 196.594 90.2014 196.597 90.1558C196.598 90.1497 196.598 90.1436 196.597 90.1375C196.612 89.9481 196.624 89.7626 196.637 89.5833C196.638 89.5738 196.638 89.5644 196.637 89.5549C196.646 89.4242 196.656 89.2955 196.665 89.1709C196.665 89.1283 196.671 89.0868 196.673 89.0473C196.679 88.975 196.684 88.9041 196.688 88.8345L196.701 88.6653C196.728 88.2742 196.755 87.9165 196.777 87.5963C196.777 87.5507 196.783 87.5051 196.786 87.4616C196.789 87.418 196.793 87.3714 196.795 87.3268C196.802 87.2427 196.808 87.1606 196.813 87.0826C196.854 86.5162 196.882 86.1038 196.9 85.8616C196.9 85.8373 196.9 85.814 196.9 85.7917C196.9 85.7856 196.9 85.7786 196.9 85.7715C196.9 85.7644 196.9 85.7289 196.9 85.7117C196.906 85.6438 196.908 85.6104 196.908 85.6104L205.969 86.4128Z" fill="#599DAD"/>
<path d="M207.424 68.5892C208.508 74.555 208.006 80.6986 205.968 86.4132C205.832 86.8043 205.687 87.193 205.532 87.5794C204.816 89.3907 203.955 91.1422 202.957 92.8169C202.365 93.8139 201.727 94.7836 201.041 95.7259C199.076 95.4442 197.478 95.2142 196.492 95.1889C196.409 95.1862 196.326 95.175 196.245 95.1555C196.026 95.1031 195.825 94.9948 195.661 94.8414C195.467 94.6732 195.651 85.6603 196.249 74.3079C196.266 73.8702 196.284 73.3889 196.341 72.9542V72.7931C196.379 72.044 196.419 71.2878 196.46 70.5245C196.486 70.0837 196.51 69.6419 196.538 69.1981C196.723 66.1705 196.946 63.073 197.2 59.9847C197.225 59.6888 197.248 59.3933 197.272 59.0981C197.664 54.3449 198.126 49.6749 198.671 45.4922C201.763 50.3679 204.15 55.8121 205.813 61.6484C206.461 63.9066 206.998 66.2202 207.424 68.5892Z" fill="#F99746"/>
<path d="M125.143 85.3603C125.034 82.1818 124.872 78.3973 124.656 74.3088C124.639 73.8711 124.62 73.3898 124.565 72.9551L124.557 72.794C124.54 72.4323 124.523 72.0675 124.503 71.7017C124.493 71.495 124.482 71.288 124.471 71.0806C124.438 70.4571 124.402 69.8299 124.362 69.199C124.178 66.1714 123.947 63.0739 123.701 59.9856C123.675 59.6897 123.651 59.3938 123.628 59.099C123.265 54.6954 122.842 50.3617 122.348 46.4243L122.339 46.3584C122.278 45.8639 122.213 45.3735 122.148 44.8912C122.02 43.9216 121.885 42.9782 121.74 42.0693C121.549 42.3794 121.361 42.6921 121.177 43.0076C120.084 44.8632 119.063 46.8076 118.116 48.8409C116.184 52.9749 114.544 57.4484 113.177 62.158L113.15 62.2481C112.716 63.7386 112.403 65.2614 112.215 66.8017C112.188 67.0145 112.165 67.2283 112.143 67.441C111.485 74.2156 113.429 80.5555 117.121 86.2195C117.247 86.4148 117.376 86.6096 117.508 86.8042C117.769 87.1882 118.038 87.5712 118.316 87.9492C118.51 88.2194 118.71 88.4855 118.915 88.7476C118.956 88.8033 119 88.859 119.044 88.9148C120.488 90.7607 122.07 92.4959 123.777 94.1056C124.058 94.3725 124.343 94.6366 124.632 94.898C124.702 94.9628 124.776 95.0277 124.847 95.0925C124.99 95.0311 125.121 94.9465 125.236 94.8423C125.369 94.7338 125.339 91.0071 125.143 85.3603Z" fill="#614730"/>
<path d="M125.143 85.3603C120.002 80.0114 115.719 73.4455 112.223 66.8007C112.411 65.2603 112.724 63.7376 113.158 62.2471L113.185 62.1569C114.555 57.4474 116.192 52.9739 118.124 48.8398C121.28 53.3184 123.491 57.4403 123.628 59.1C123.651 59.3948 123.675 59.6907 123.701 59.9866C123.947 63.0749 124.178 66.1674 124.362 69.2C124.401 69.8316 124.437 70.4588 124.47 71.0816C124.481 71.289 124.492 71.496 124.503 71.7027C124.523 72.0685 124.54 72.4333 124.557 72.795L124.564 72.9561C124.619 73.3908 124.639 73.8681 124.656 74.3098C124.871 78.3973 125.034 82.1817 125.143 85.3603Z" fill="#614730"/>
<path d="M148.488 76.8477C148.488 76.8477 155.325 76.8548 156.405 77.179C157.486 77.5032 160.94 79.9654 160.92 80.2846C160.899 80.6038 160.661 80.8125 159.989 80.7061C159.318 80.5997 157.205 79.8256 157.283 80.1194C157.361 80.4133 163.345 83.066 163.125 84.3345C162.904 85.6031 158.932 87.1473 155.994 86.6417C153.057 86.1361 148.126 81.4873 147.646 81.3333C143.582 80.0272 148.488 76.8477 148.488 76.8477Z" fill="#FFB27D"/>
<path d="M149.726 79.1676C149.211 80.0243 148.539 80.7776 147.745 81.3887C147.572 81.5251 147.391 81.6516 147.204 81.7676C147.204 81.7676 134.041 76.8736 124.499 71.702C121.346 69.9927 118.587 68.2519 116.831 66.65C116.038 65.9255 114.75 64.3084 113.181 62.1562C114.551 57.4467 116.188 52.9732 118.119 48.8391C119.067 46.8126 120.087 44.8682 121.181 43.0059C121.561 44.1326 121.953 45.2826 122.347 46.4225C124.437 52.4777 126.579 58.2775 127.347 59.006C129.003 60.5796 150.017 76.0367 150.017 76.0367C150.017 76.0367 150.288 76.2981 150.363 76.8605C150.428 77.3722 150.334 78.1311 149.726 79.1676Z" fill="#614730"/>
<path d="M175.612 31.1396H139.723V63.4643H175.612V31.1396Z" fill="#F1F4F8"/>
<path d="M175.612 29.2002H139.723V31.1385H175.612V29.2002Z" fill="#614730"/>
<path d="M140.927 29.7822C140.85 29.7822 140.774 29.805 140.71 29.8476C140.646 29.8903 140.595 29.9509 140.566 30.0218C140.536 30.0927 140.529 30.1707 140.544 30.246C140.559 30.3213 140.596 30.3904 140.651 30.4447C140.705 30.499 140.775 30.5359 140.851 30.5509C140.927 30.5659 141.005 30.5582 141.076 30.5288C141.148 30.4995 141.209 30.4497 141.252 30.3859C141.295 30.3221 141.318 30.2471 141.318 30.1703C141.318 30.1193 141.308 30.0688 141.288 30.0216C141.269 29.9745 141.24 29.9317 141.204 29.8956C141.167 29.8595 141.124 29.831 141.077 29.8115C141.029 29.792 140.978 29.7821 140.927 29.7822Z" fill="#DDEBFD"/>
<path d="M142.456 29.7822C142.379 29.7822 142.303 29.805 142.239 29.8476C142.175 29.8903 142.125 29.9509 142.095 30.0218C142.066 30.0927 142.058 30.1707 142.073 30.246C142.088 30.3213 142.125 30.3904 142.18 30.4447C142.235 30.499 142.304 30.5359 142.38 30.5509C142.456 30.5659 142.534 30.5582 142.606 30.5288C142.677 30.4995 142.738 30.4497 142.781 30.3859C142.824 30.3221 142.847 30.2471 142.847 30.1703C142.847 30.1193 142.837 30.0688 142.818 30.0216C142.798 29.9745 142.769 29.9317 142.733 29.8956C142.697 29.8595 142.653 29.831 142.606 29.8115C142.558 29.792 142.508 29.7821 142.456 29.7822Z" fill="#DDEBFD"/>
<path d="M143.996 29.7822C143.919 29.7822 143.843 29.805 143.779 29.8476C143.715 29.8903 143.665 29.9509 143.635 30.0218C143.606 30.0927 143.598 30.1707 143.613 30.246C143.628 30.3213 143.665 30.3904 143.72 30.4447C143.775 30.499 143.844 30.5359 143.92 30.5509C143.996 30.5659 144.074 30.5582 144.146 30.5288C144.217 30.4995 144.278 30.4497 144.321 30.3859C144.364 30.3221 144.387 30.2471 144.387 30.1703C144.387 30.0674 144.346 29.9687 144.273 29.8959C144.199 29.8231 144.1 29.7822 143.996 29.7822Z" fill="#DDEBFD"/>
<path opacity="0.5" d="M150.5 35.3505H164.211C164.383 35.35 164.548 35.2817 164.67 35.1606C164.792 35.0395 164.861 34.8754 164.862 34.7041C164.861 34.5328 164.792 34.3687 164.67 34.2475C164.548 34.1264 164.383 34.0582 164.211 34.0576H150.5C150.327 34.0582 150.162 34.1264 150.04 34.2475C149.918 34.3687 149.849 34.5328 149.849 34.7041C149.849 34.8754 149.918 35.0395 150.04 35.1606C150.162 35.2817 150.327 35.35 150.5 35.3505Z" fill="#614730"/>
<path opacity="0.5" d="M147.377 37.5688H167.337C167.424 37.5722 167.512 37.5581 167.594 37.5271C167.676 37.4962 167.751 37.4492 167.814 37.3889C167.877 37.3286 167.927 37.2562 167.962 37.1761C167.996 37.096 168.014 37.0099 168.014 36.9228C168.014 36.8358 167.996 36.7496 167.962 36.6695C167.927 36.5894 167.877 36.5171 167.814 36.4567C167.751 36.3964 167.676 36.3494 167.594 36.3185C167.512 36.2876 167.424 36.2734 167.337 36.2769H147.378C147.29 36.2734 147.203 36.2876 147.121 36.3185C147.039 36.3494 146.964 36.3964 146.901 36.4567C146.838 36.5171 146.788 36.5894 146.753 36.6695C146.719 36.7496 146.701 36.8358 146.701 36.9228C146.701 37.0099 146.719 37.096 146.753 37.1761C146.788 37.2562 146.838 37.3286 146.901 37.3889C146.964 37.4492 147.039 37.4962 147.121 37.5271C147.203 37.5581 147.29 37.5722 147.378 37.5688H147.377Z" fill="#614730"/>
<path opacity="0.5" d="M145.689 43.4069H169.745C169.809 43.4098 169.874 43.3998 169.934 43.3773C169.995 43.3548 170.05 43.3204 170.097 43.2762C170.143 43.2319 170.181 43.1787 170.206 43.1197C170.231 43.0608 170.245 42.9973 170.245 42.9332C170.245 42.8691 170.231 42.8056 170.206 42.7467C170.181 42.6877 170.143 42.6345 170.097 42.5902C170.05 42.5459 169.995 42.5115 169.934 42.4891C169.874 42.4666 169.809 42.4565 169.745 42.4595H145.689C145.625 42.4565 145.56 42.4666 145.5 42.4891C145.439 42.5115 145.384 42.5459 145.337 42.5902C145.291 42.6345 145.253 42.6877 145.228 42.7467C145.203 42.8056 145.189 42.8691 145.189 42.9332C145.189 42.9973 145.203 43.0608 145.228 43.1197C145.253 43.1787 145.291 43.2319 145.337 43.2762C145.384 43.3204 145.439 43.3548 145.5 43.3773C145.56 43.3998 145.625 43.4098 145.689 43.4069Z" fill="#614730"/>
<path opacity="0.5" d="M169.744 44.6465H145.688C145.425 44.6465 145.211 44.8586 145.211 45.1202C145.211 45.3818 145.425 45.5939 145.688 45.5939H169.744C170.008 45.5939 170.222 45.3818 170.222 45.1202C170.222 44.8586 170.008 44.6465 169.744 44.6465Z" fill="#614730"/>
<path opacity="0.5" d="M169.745 46.8296H145.689C145.625 46.8266 145.56 46.8367 145.5 46.8592C145.439 46.8816 145.384 46.9161 145.337 46.9603C145.291 47.0046 145.253 47.0578 145.228 47.1168C145.203 47.1757 145.189 47.2392 145.189 47.3033C145.189 47.3674 145.203 47.4309 145.228 47.4898C145.253 47.5488 145.291 47.602 145.337 47.6463C145.384 47.6906 145.439 47.725 145.5 47.7474C145.56 47.7699 145.625 47.78 145.689 47.777H169.745C169.809 47.78 169.874 47.7699 169.934 47.7474C169.995 47.725 170.05 47.6906 170.097 47.6463C170.143 47.602 170.181 47.5488 170.206 47.4898C170.231 47.4309 170.245 47.3674 170.245 47.3033C170.245 47.2392 170.231 47.1757 170.206 47.1168C170.181 47.0578 170.143 47.0046 170.097 46.9603C170.05 46.9161 169.995 46.8816 169.934 46.8592C169.874 46.8367 169.809 46.8266 169.745 46.8296Z" fill="#614730"/>
<path opacity="0.5" d="M148.104 54.7812H145.688C145.562 54.7812 145.44 54.8312 145.351 54.9201C145.261 55.0091 145.211 55.1297 145.211 55.2554C145.211 55.3812 145.261 55.5018 145.351 55.5908C145.44 55.6797 145.562 55.7297 145.688 55.7297H148.104C148.23 55.7297 148.352 55.6797 148.441 55.5908C148.531 55.5018 148.581 55.3812 148.581 55.2554C148.581 55.1297 148.531 55.0091 148.441 54.9201C148.352 54.8312 148.23 54.7812 148.104 54.7812Z" fill="#614730"/>
<path opacity="0.5" d="M152.14 54.7812H149.724C149.597 54.7812 149.476 54.8312 149.386 54.9201C149.296 55.0091 149.246 55.1297 149.246 55.2554C149.246 55.3812 149.296 55.5018 149.386 55.5908C149.476 55.6797 149.597 55.7297 149.724 55.7297H152.14C152.267 55.7297 152.388 55.6797 152.478 55.5908C152.567 55.5018 152.617 55.3812 152.617 55.2554C152.617 55.1297 152.567 55.0091 152.478 54.9201C152.388 54.8312 152.267 54.7812 152.14 54.7812Z" fill="#614730"/>
<path opacity="0.5" d="M165.709 54.7812H163.294C163.167 54.7812 163.046 54.8312 162.956 54.9201C162.867 55.0091 162.816 55.1297 162.816 55.2554C162.816 55.3812 162.867 55.5018 162.956 55.5908C163.046 55.6797 163.167 55.7297 163.294 55.7297H165.709C165.836 55.7297 165.957 55.6797 166.047 55.5908C166.136 55.5018 166.187 55.3812 166.187 55.2554C166.187 55.1297 166.136 55.0091 166.047 54.9201C165.957 54.8312 165.836 54.7812 165.709 54.7812Z" fill="#614730"/>
<path opacity="0.5" d="M169.744 54.7812H167.329C167.202 54.7812 167.081 54.8312 166.991 54.9201C166.902 55.0091 166.852 55.1297 166.852 55.2554C166.852 55.3812 166.902 55.5018 166.991 55.5908C167.081 55.6797 167.202 55.7297 167.329 55.7297H169.744C169.871 55.7297 169.993 55.6797 170.082 55.5908C170.172 55.5018 170.222 55.3812 170.222 55.2554C170.222 55.1297 170.172 55.0091 170.082 54.9201C169.993 54.8312 169.871 54.7812 169.744 54.7812Z" fill="#614730"/>
<path opacity="0.5" d="M148.773 56.3066C148.27 56.3064 147.778 56.4544 147.36 56.7319C146.941 57.0093 146.615 57.4037 146.422 57.8653C146.23 58.3268 146.179 58.8348 146.277 59.3248C146.375 59.8149 146.618 60.2651 146.973 60.6185C147.329 60.9718 147.782 61.2125 148.276 61.3101C148.769 61.4076 149.281 61.3577 149.746 61.1665C150.211 60.9753 150.608 60.6516 150.887 60.2362C151.167 59.8207 151.316 59.3323 151.316 58.8327C151.314 58.1635 151.046 57.5222 150.569 57.0489C150.093 56.5756 149.447 56.3088 148.773 56.3066ZM148.773 61.232C148.295 61.2322 147.828 61.0917 147.431 60.8282C147.033 60.5646 146.723 60.19 146.54 59.7516C146.357 59.3132 146.309 58.8307 146.402 58.3652C146.495 57.8997 146.726 57.4721 147.063 57.1364C147.401 56.8008 147.832 56.5721 148.301 56.4795C148.769 56.3868 149.255 56.4343 149.697 56.6158C150.138 56.7974 150.516 57.1049 150.781 57.4995C151.047 57.8941 151.189 58.3581 151.189 58.8327C151.188 59.4687 150.934 60.0785 150.481 60.5283C150.028 60.9781 149.414 61.2312 148.773 61.232Z" fill="#614730"/>
<path opacity="0.5" d="M148.774 56.7969C148.368 56.7969 147.972 56.9163 147.635 57.1399C147.298 57.3636 147.035 57.6815 146.88 58.0535C146.725 58.4255 146.684 58.8347 146.763 59.2296C146.842 59.6245 147.037 59.9872 147.324 60.2719C147.611 60.5566 147.976 60.7504 148.374 60.829C148.771 60.9075 149.184 60.8672 149.558 60.7132C149.933 60.5591 150.253 60.2982 150.478 59.9634C150.703 59.6287 150.824 59.2351 150.824 58.8325C150.823 58.2929 150.607 57.7756 150.222 57.394C149.838 57.0124 149.317 56.7977 148.774 56.7969ZM148.774 60.7404C148.393 60.7406 148.021 60.6288 147.705 60.4191C147.389 60.2095 147.142 59.9113 146.997 59.5625C146.851 59.2136 146.813 58.8297 146.887 58.4593C146.961 58.0889 147.144 57.7487 147.413 57.4816C147.682 57.2146 148.025 57.0328 148.398 56.9591C148.771 56.8855 149.157 56.9234 149.509 57.068C149.86 57.2126 150.16 57.4575 150.371 57.7715C150.583 58.0856 150.695 58.4548 150.695 58.8325C150.694 59.3383 150.492 59.8231 150.131 60.1807C149.771 60.5384 149.283 60.7396 148.774 60.7404Z" fill="#614730"/>
<path opacity="0.5" d="M148.076 59.6653C147.803 59.643 147.662 59.5153 147.656 59.2863C147.653 59.2011 147.669 59.1163 147.702 59.0376C147.735 58.9589 147.785 58.8883 147.848 58.8303C147.901 59.0938 148.041 59.3167 148.197 59.3653C148.24 59.3782 148.287 59.377 148.33 59.3619C148.373 59.3467 148.41 59.3185 148.435 59.2812C148.508 59.1876 148.57 59.0856 148.618 58.9773C148.645 59.0045 148.682 59.0205 148.72 59.0219C148.815 59.0219 148.909 58.9519 148.993 58.806C149.016 58.7653 149.036 58.7234 149.054 58.6804C149.059 58.6869 149.066 58.6924 149.074 58.6966C149.089 58.7048 149.106 58.7079 149.123 58.7055C149.139 58.7032 149.155 58.6954 149.167 58.6834C149.232 58.6151 149.286 58.5363 149.325 58.4504C149.334 58.4704 149.349 58.4873 149.368 58.499C149.387 58.509 149.409 58.5119 149.431 58.5073C149.452 58.5027 149.471 58.4908 149.484 58.4737C149.496 58.4654 149.503 58.4533 149.506 58.4397C149.509 58.4261 149.507 58.4119 149.501 58.3997C149.486 58.3744 149.441 58.3562 149.375 58.345C149.445 58.1839 149.494 58.0147 149.469 57.9529C149.464 57.9403 149.456 57.9296 149.444 57.9224C149.433 57.9153 149.419 57.9121 149.406 57.9134C149.359 57.9184 149.325 57.965 149.304 58.0562C149.285 58.1472 149.281 58.2406 149.291 58.3328C149.243 58.3328 149.19 58.3328 149.132 58.3328C149.132 58.2992 149.124 58.2662 149.108 58.2366C149.083 58.2001 149.057 58.2001 149.043 58.2031C149.007 58.2113 148.993 58.2548 148.988 58.2913C148.988 58.3055 148.988 58.3217 148.988 58.3409C148.812 58.3549 148.638 58.3844 148.467 58.4291C148.269 58.4775 148.082 58.5609 147.914 58.6753C147.914 58.5953 147.914 58.497 147.973 58.4615C148.032 58.4261 148.16 58.4717 148.2 58.495L148.24 58.4261C148.232 58.4261 148.052 58.3187 147.934 58.3936C147.86 58.4402 147.832 58.5406 147.838 58.6905C147.838 58.7057 147.838 58.7199 147.838 58.7341C147.756 58.8004 147.69 58.8845 147.645 58.98C147.6 59.0756 147.578 59.18 147.58 59.2853C147.587 59.5538 147.763 59.7159 148.074 59.7413C148.323 59.7498 148.571 59.7113 148.805 59.6278C149.397 59.4373 149.947 59.031 150.057 58.6622C149.893 59.1272 148.741 59.72 148.076 59.6653ZM149.395 58.0268C149.391 58.0549 149.385 58.0826 149.377 58.1099C149.381 58.0817 149.387 58.0539 149.395 58.0268ZM149.128 58.4159C149.175 58.4159 149.218 58.4159 149.256 58.4159C149.221 58.4952 149.173 58.5678 149.113 58.6307C149.113 58.6307 149.102 58.6236 149.089 58.5862C149.108 58.5307 149.12 58.4737 149.128 58.4159ZM148.699 58.4605C148.801 58.4433 148.894 58.4311 148.983 58.424C148.985 58.4783 148.993 58.5323 149.006 58.5851C148.985 58.6496 148.957 58.7117 148.923 58.7706C148.858 58.8851 148.784 58.9499 148.719 58.9469C148.704 58.9453 148.69 58.9402 148.678 58.9319C148.665 58.9236 148.655 58.9124 148.649 58.8992C148.721 58.731 148.751 58.5608 148.699 58.4605ZM148.62 58.4848C148.659 58.5365 148.65 58.65 148.61 58.7817C148.588 58.6825 148.591 58.5793 148.62 58.4818V58.4848ZM148.156 58.6267C148.277 58.571 148.403 58.5272 148.532 58.496C148.511 58.5963 148.511 58.6997 148.532 58.8C148.54 58.8348 148.551 58.8687 148.565 58.9013C148.517 59.0185 148.452 59.1283 148.373 59.2275C148.358 59.2526 148.334 59.2719 148.306 59.2825C148.279 59.2931 148.248 59.2944 148.22 59.2863C148.101 59.2498 147.961 59.0452 147.914 58.7665C147.988 58.7107 148.068 58.6638 148.153 58.6267H148.156Z" fill="#614730"/>
<path d="M166.45 56.373C165.934 56.373 165.431 56.5248 165.002 56.8092C164.573 57.0935 164.239 57.4977 164.042 57.9706C163.845 58.4434 163.793 58.9637 163.894 59.4657C163.994 59.9677 164.243 60.4288 164.607 60.7908C164.972 61.1527 165.436 61.3991 165.941 61.499C166.447 61.5988 166.971 61.5476 167.447 61.3517C167.923 61.1559 168.33 60.8242 168.617 60.3986C168.903 59.973 169.056 59.4727 169.056 58.9609C169.055 58.2747 168.781 57.6168 168.292 57.1316C167.803 56.6464 167.141 56.3736 166.45 56.373ZM166.45 61.418C165.96 61.418 165.482 61.2739 165.075 61.0039C164.668 60.7339 164.351 60.3502 164.164 59.9012C163.976 59.4522 163.927 58.9582 164.023 58.4815C164.118 58.0049 164.354 57.5671 164.7 57.2234C165.046 56.8798 165.487 56.6458 165.967 56.551C166.447 56.4562 166.945 56.5048 167.397 56.6908C167.849 56.8768 168.235 57.1917 168.507 57.5958C168.779 57.9998 168.924 58.4749 168.924 58.9609C168.924 59.6127 168.663 60.2377 168.199 60.6987C167.735 61.1598 167.106 61.4192 166.45 61.42V61.418Z" fill="#F99746"/>
<path d="M166.45 56.876C166.034 56.876 165.628 56.9983 165.283 57.2274C164.938 57.4565 164.668 57.7822 164.509 58.1632C164.351 58.5443 164.309 58.9635 164.39 59.368C164.471 59.7725 164.671 60.1441 164.965 60.4357C165.258 60.7274 165.633 60.926 166.04 61.0064C166.447 61.0869 166.869 61.0456 167.253 60.8878C167.637 60.7299 167.965 60.4627 168.196 60.1197C168.426 59.7768 168.55 59.3737 168.55 58.9612C168.549 58.4084 168.328 57.8783 167.934 57.4873C167.54 57.0964 167.006 56.8765 166.45 56.876ZM166.45 60.9158C166.06 60.9158 165.68 60.8012 165.356 60.5864C165.032 60.3716 164.78 60.0664 164.631 59.7092C164.482 59.3521 164.443 58.9591 164.519 58.5799C164.595 58.2008 164.782 57.8525 165.058 57.5792C165.333 57.3058 165.684 57.1197 166.066 57.0442C166.447 56.9688 166.843 57.0075 167.203 57.1555C167.563 57.3034 167.87 57.5539 168.086 57.8753C168.302 58.1968 168.418 58.5747 168.418 58.9612C168.417 59.4791 168.209 59.9754 167.84 60.3414C167.471 60.7074 166.971 60.9132 166.45 60.9138V60.9158Z" fill="#F99746"/>
<path d="M167.76 58.7859C167.766 58.7701 167.77 58.7539 167.773 58.7373C167.77 58.7538 167.765 58.77 167.76 58.7859Z" fill="#A8C3F7"/>
<path d="M165.736 59.8141C165.456 59.7908 165.312 59.6601 165.305 59.426C165.303 59.3386 165.319 59.2516 165.353 59.171C165.387 59.0904 165.439 59.0181 165.503 58.9589C165.556 59.2295 165.7 59.4575 165.86 59.5061C165.904 59.5197 165.952 59.5186 165.996 59.5031C166.04 59.4876 166.078 59.4585 166.104 59.42C166.179 59.3262 166.242 59.2242 166.292 59.116C166.319 59.1431 166.356 59.1593 166.394 59.1616C166.496 59.1616 166.588 59.0896 166.674 58.9397C166.697 58.8984 166.718 58.8558 166.736 58.812C166.742 58.8183 166.749 58.8237 166.756 58.8282C166.772 58.8365 166.79 58.8396 166.807 58.8371C166.824 58.8345 166.84 58.8264 166.852 58.814C166.919 58.7443 166.974 58.6638 167.014 58.5759C167.023 58.5965 167.038 58.6138 167.057 58.6256C167.077 58.6347 167.1 58.6372 167.121 58.6326C167.143 58.628 167.162 58.6167 167.177 58.6002C167.188 58.5917 167.196 58.5793 167.199 58.5653C167.203 58.5513 167.2 58.5367 167.193 58.5243C167.179 58.4979 167.133 58.4787 167.065 58.4675C167.137 58.3024 167.187 58.1301 167.161 58.0622C167.156 58.0494 167.147 58.0386 167.135 58.0313C167.124 58.024 167.11 58.0206 167.096 58.0217C167.048 58.0217 167.014 58.0744 166.994 58.1686C166.975 58.2616 166.971 58.357 166.982 58.4513C166.934 58.4513 166.88 58.4513 166.819 58.4513C166.82 58.4159 166.812 58.3809 166.794 58.35C166.789 58.3378 166.779 58.3277 166.767 58.3215C166.755 58.3153 166.741 58.3132 166.728 58.3155C166.69 58.3246 166.677 58.3682 166.672 58.4057C166.672 58.4199 166.672 58.4371 166.672 58.4564C166.492 58.4709 166.313 58.5014 166.138 58.5476C165.935 58.5969 165.743 58.682 165.571 58.7988C165.566 58.7178 165.571 58.6165 165.631 58.58C165.691 58.5435 165.823 58.5901 165.865 58.6144L165.905 58.5445C165.897 58.5445 165.713 58.4341 165.588 58.5111C165.512 58.5587 165.478 58.661 165.486 58.8151C165.486 58.8292 165.486 58.8444 165.486 58.8596C165.402 58.9276 165.334 59.0137 165.288 59.1115C165.242 59.2093 165.22 59.3162 165.222 59.424C165.229 59.6986 165.409 59.8648 165.732 59.8911C165.987 59.8995 166.241 59.8599 166.481 59.7746C167.087 59.5801 167.65 59.1667 167.763 58.7857C167.597 59.2629 166.418 59.8709 165.736 59.8141ZM167.088 58.1362C167.083 58.1646 167.077 58.1927 167.069 58.2203C167.073 58.1917 167.079 58.1636 167.088 58.1362ZM166.814 58.5344C166.862 58.5344 166.905 58.5344 166.944 58.5344C166.909 58.6156 166.86 58.6901 166.798 58.7543C166.798 58.7543 166.787 58.7472 166.775 58.7087C166.793 58.6518 166.806 58.5935 166.814 58.5344ZM166.374 58.58C166.476 58.5617 166.578 58.5496 166.666 58.5425C166.668 58.5982 166.676 58.6536 166.689 58.7076C166.667 58.7737 166.639 58.8375 166.604 58.8981C166.537 59.0157 166.463 59.0805 166.4 59.0785C166.385 59.0768 166.371 59.0714 166.358 59.063C166.346 59.0545 166.335 59.0431 166.328 59.0299C166.396 58.8566 166.427 58.6843 166.374 58.583V58.58ZM166.293 58.6053C166.333 58.658 166.324 58.7745 166.283 58.9093C166.261 58.8087 166.265 58.7043 166.293 58.6053ZM165.818 58.7502C165.942 58.6929 166.071 58.6481 166.204 58.6165C166.183 58.7194 166.183 58.8256 166.204 58.9285C166.212 58.9651 166.224 59.0008 166.239 59.0349C166.189 59.1548 166.122 59.2672 166.041 59.3693C166.025 59.3945 166.001 59.414 165.973 59.4247C165.945 59.4355 165.914 59.437 165.885 59.4291C165.763 59.3906 165.619 59.1819 165.579 58.8961C165.653 58.8386 165.733 58.7896 165.818 58.7502Z" fill="#F99746"/>
</g>
</g>
<defs>
<clipPath id="clip0_5862_59872">
<rect width="320" height="134.139" rx="14" fill="white"/>
</clipPath>
<clipPath id="clip1_5862_59872">
<rect width="41.6147" height="60" fill="white" transform="matrix(-1 0 0 1 320 74.4004)"/>
</clipPath>
<clipPath id="clip2_5862_59872">
<rect width="21.8208" height="30" fill="white" transform="translate(0 107.4)"/>
</clipPath>
<clipPath id="clip3_5862_59872">
<rect width="17" height="16" fill="white" transform="translate(283 7.40039)"/>
</clipPath>
<clipPath id="clip4_5862_59872">
<rect width="14" height="13" fill="white" transform="translate(57 84.4004)"/>
</clipPath>
<clipPath id="clip5_5862_59872">
<rect width="11" height="10" fill="white" transform="translate(38 8.40039)"/>
</clipPath>
<clipPath id="clip6_5862_59872">
<rect width="11" height="11" fill="white" transform="translate(244 16.4004)"/>
</clipPath>
<clipPath id="clip7_5862_59872">
<rect width="11" height="11" fill="white" transform="translate(175 89.4004)"/>
</clipPath>
<clipPath id="clip8_5862_59872">
<rect width="11" height="11" fill="white" transform="translate(38 40.4004)"/>
</clipPath>
</defs>
</svg>
