<svg width="25" height="24" viewBox="0 0 25 24" fill="none" xmlns="http://www.w3.org/2000/svg">
<path d="M14.75 2C16.75 2 17.75 3.01 17.75 5.03V12.08C17.75 14.07 16.34 14.84 14.61 13.8L13.29 13C12.99 12.82 12.51 12.82 12.21 13L10.89 13.8C9.16 14.84 7.75 14.07 7.75 12.08V5.03C7.75 3.01 8.75 2 10.75 2H14.75Z" stroke="white" stroke-width="1.5" stroke-linecap="round" stroke-linejoin="round"/>
<path d="M7.57 4.98996C4.16 5.55996 2.75 7.65996 2.75 11.9V14.93C2.75 19.98 4.75 22 9.75 22H15.75C20.75 22 22.75 19.98 22.75 14.93V11.9C22.75 7.58996 21.29 5.47996 17.75 4.95996" stroke="white" stroke-width="1.5" stroke-linecap="round" stroke-linejoin="round"/>
</svg>
