<svg width="25" height="24" viewBox="0 0 25 24" fill="none" xmlns="http://www.w3.org/2000/svg">
<path d="M17.75 4.96V12.08C17.75 14.07 16.34 14.84 14.61 13.8L13.29 13C12.99 12.82 12.51 12.82 12.21 13L10.89 13.8C9.16 14.84 7.75 14.07 7.75 12.08V4.99C7.76 3 8.76 2 10.75 2H14.75C16.73 2 17.73 2.99 17.75 4.96Z" fill="white"/>
<path d="M22.75 11.8999V14.9299C22.75 19.9799 20.75 21.9999 15.75 21.9999H9.75C4.75 21.9999 2.75 19.9799 2.75 14.9299V11.8999C2.75 9.20986 3.32 7.37986 4.6 6.25986C5.25 5.70986 6.25 6.18986 6.25 7.03986V12.0799C6.25 13.5699 6.86 14.7699 7.92 15.3699C8.99 15.9799 10.35 15.8699 11.67 15.0799L12.75 14.4299L13.84 15.0799C14.58 15.5299 15.35 15.7599 16.07 15.7599C16.61 15.7599 17.12 15.6299 17.58 15.3699C18.64 14.7699 19.25 13.5699 19.25 12.0799V7.02986C19.25 6.17986 20.26 5.69986 20.9 6.25986C22.18 7.37986 22.75 9.20986 22.75 11.8999Z" fill="white"/>
</svg>
