<svg width="25" height="24" viewBox="0 0 25 24" fill="none" xmlns="http://www.w3.org/2000/svg">
<path d="M12.5001 7.89014L11.4301 9.75014C11.1901 10.1601 11.3901 10.5001 11.8601 10.5001H13.1301C13.6101 10.5001 13.8001 10.8401 13.5601 11.2501L12.5001 13.1101" stroke="white" stroke-width="1.5" stroke-linecap="round" stroke-linejoin="round"/>
<path d="M8.80011 18.0402V16.8802C6.50011 15.4902 4.61011 12.7802 4.61011 9.90018C4.61011 4.95018 9.16011 1.07018 14.3001 2.19018C16.5601 2.69018 18.5401 4.19018 19.5701 6.26018C21.6601 10.4602 19.4601 14.9202 16.2301 16.8702V18.0302C16.2301 18.3202 16.3401 18.9902 15.2701 18.9902H9.76011C8.66011 19.0002 8.80011 18.5702 8.80011 18.0402Z" stroke="white" stroke-width="1.5" stroke-linecap="round" stroke-linejoin="round"/>
<path d="M9 22.0002C11.29 21.3502 13.71 21.3502 16 22.0002" stroke="white" stroke-width="1.5" stroke-linecap="round" stroke-linejoin="round"/>
</svg>
