<svg width="25" height="24" viewBox="0 0 25 24" fill="none" xmlns="http://www.w3.org/2000/svg">
<path d="M15.7599 21.9999C15.6999 21.9999 15.6299 21.9899 15.5699 21.9699C13.5599 21.3999 11.4499 21.3999 9.43991 21.9699C9.06991 22.0699 8.67991 21.8599 8.57991 21.4899C8.46991 21.1199 8.68991 20.7299 9.05991 20.6299C11.3199 19.9899 13.6999 19.9899 15.9599 20.6299C16.3299 20.7399 16.5499 21.1199 16.4399 21.4899C16.3399 21.7999 16.0599 21.9999 15.7599 21.9999Z" fill="white"/>
<path d="M19.71 6.36001C18.67 4.26001 16.66 2.71001 14.33 2.20001C11.89 1.66001 9.38997 2.24001 7.47997 3.78001C5.55997 5.31001 4.46997 7.60001 4.46997 10.05C4.46997 12.64 6.01997 15.35 8.35997 16.92V17.75C8.34997 18.03 8.33997 18.46 8.67997 18.81C9.02997 19.17 9.54997 19.21 9.95997 19.21H15.09C15.63 19.21 16.04 19.06 16.32 18.78C16.7 18.39 16.69 17.89 16.68 17.62V16.92C19.78 14.83 21.73 10.42 19.71 6.36001ZM14.22 11.62L13.15 13.48C13.01 13.72 12.76 13.86 12.5 13.86C12.37 13.86 12.24 13.83 12.13 13.76C11.77 13.55 11.65 13.09 11.85 12.74L12.7 11.26H11.86C11.36 11.26 10.95 11.04 10.73 10.67C10.51 10.29 10.53 9.83001 10.78 9.39001L11.85 7.53001C12.06 7.17001 12.52 7.05001 12.87 7.25001C13.23 7.46001 13.35 7.92001 13.15 8.27001L12.3 9.75001H13.14C13.64 9.75001 14.05 9.97001 14.27 10.34C14.49 10.72 14.47 11.19 14.22 11.62Z" fill="white"/>
</svg>
