<svg width="25" height="24" viewBox="0 0 25 24" fill="none" xmlns="http://www.w3.org/2000/svg">
<path d="M21.25 16V18.5C21.25 20.43 19.68 22 17.75 22H7.75C5.82 22 4.25 20.43 4.25 18.5V17.85C4.25 16.28 5.53 15 7.1 15H20.25C20.8 15 21.25 15.45 21.25 16Z" fill="white"/>
<path d="M16.25 2H9.25C5.25 2 4.25 3 4.25 7V14.58C5.01 13.91 6.01 13.5 7.1 13.5H20.25C20.8 13.5 21.25 13.05 21.25 12.5V7C21.25 3 20.25 2 16.25 2ZM13.75 10.75H8.75C8.34 10.75 8 10.41 8 10C8 9.59 8.34 9.25 8.75 9.25H13.75C14.16 9.25 14.5 9.59 14.5 10C14.5 10.41 14.16 10.75 13.75 10.75ZM16.75 7.25H8.75C8.34 7.25 8 6.91 8 6.5C8 6.09 8.34 5.75 8.75 5.75H16.75C17.16 5.75 17.5 6.09 17.5 6.5C17.5 6.91 17.16 7.25 16.75 7.25Z" fill="white"/>
</svg>
