<svg width="25" height="24" viewBox="0 0 25 24" fill="none" xmlns="http://www.w3.org/2000/svg">
<path d="M0.95056 10.6836C1.41034 10.423 1.98476 10.6162 2.23361 11.0878L3.45949 13.5819C3.48247 13.6291 3.52259 13.6659 3.5717 13.6847C3.62082 13.7035 3.67527 13.703 3.72404 13.6833C3.76267 13.6679 3.79579 13.6413 3.81907 13.607C3.84239 13.5726 3.85477 13.5321 3.85468 13.4906V6.56347C3.85468 6.15246 4.23536 5.85432 4.64774 5.85432C5.06011 5.85432 5.41798 6.15246 5.41798 6.56347V11.1918C5.41698 11.2782 5.44983 11.3617 5.50952 11.4244C5.56919 11.487 5.65104 11.524 5.73763 11.5275C5.78095 11.5283 5.82399 11.5205 5.86425 11.5045C5.90451 11.4886 5.94119 11.4648 5.97208 11.4345C6.00301 11.4042 6.02757 11.3681 6.04434 11.3283C6.06111 11.2884 6.06973 11.2456 6.06973 11.2025V5.14518C6.06973 4.73417 6.39382 4.43604 6.8062 4.43604C7.21858 4.43604 7.55097 4.73417 7.55097 5.14518V11.1918C7.54996 11.2782 7.58282 11.3617 7.64251 11.4244C7.70217 11.487 7.78403 11.524 7.87062 11.5275C7.91393 11.5283 7.95698 11.5205 7.99724 11.5045C8.0375 11.4886 8.07417 11.4648 8.10507 11.4345C8.136 11.4042 8.16056 11.3681 8.17733 11.3283C8.19409 11.2884 8.20271 11.2456 8.20271 11.2025V6.0907C8.20271 5.6797 8.56058 5.38156 8.97296 5.38156C9.38534 5.38156 9.74321 5.70924 9.74321 6.12025V11.6646C9.7422 11.751 9.77505 11.8344 9.83475 11.8971C9.89441 11.9598 9.97626 11.9968 10.0629 12.0002C10.1062 12.0011 10.1492 11.9933 10.1895 11.9773C10.2297 11.9613 10.2664 11.9375 10.2973 11.9073C10.3282 11.877 10.3528 11.8409 10.3696 11.8011C10.3863 11.7612 10.395 11.7184 10.395 11.6752V7.98176C10.395 7.57075 10.7232 7.27261 11.1356 7.27261C11.5479 7.27261 11.8797 7.57459 11.8762 7.98176V14.3641C11.8762 17.8332 9.74321 19.5644 7.13622 19.5644H6.66222C4.05524 19.5644 3.23434 18.3944 2.63325 16.9642L0.597729 11.9707C0.401612 11.4388 0.491079 10.9439 0.95056 10.6836Z" fill="#895737"/>
<path d="M24.0494 10.6836C23.5897 10.423 23.0152 10.6162 22.7664 11.0878L21.5405 13.5819C21.5175 13.6291 21.4774 13.6659 21.4283 13.6847C21.3792 13.7035 21.3247 13.703 21.276 13.6833C21.2373 13.6679 21.2042 13.6413 21.1809 13.607C21.1576 13.5726 21.1452 13.5321 21.1453 13.4906V6.56347C21.1453 6.15246 20.7646 5.85432 20.3523 5.85432C19.9399 5.85432 19.582 6.15246 19.582 6.56347V11.1918C19.583 11.2782 19.5502 11.3617 19.4905 11.4244C19.4308 11.487 19.349 11.524 19.2624 11.5275C19.2191 11.5283 19.176 11.5205 19.1357 11.5045C19.0955 11.4886 19.0588 11.4648 19.0279 11.4345C18.997 11.4042 18.9724 11.3681 18.9557 11.3283C18.9389 11.2884 18.9303 11.2456 18.9303 11.2025V5.14518C18.9303 4.73417 18.6062 4.43604 18.1938 4.43604C17.7814 4.43604 17.449 4.73417 17.449 5.14518V11.1918C17.45 11.2782 17.4172 11.3617 17.3575 11.4244C17.2978 11.487 17.216 11.524 17.1294 11.5275C17.0861 11.5283 17.043 11.5205 17.0028 11.5045C16.9625 11.4886 16.9258 11.4648 16.8949 11.4345C16.864 11.4042 16.8394 11.3681 16.8227 11.3283C16.8059 11.2884 16.7973 11.2456 16.7973 11.2025V6.0907C16.7973 5.6797 16.4394 5.38156 16.027 5.38156C15.6147 5.38156 15.2568 5.70924 15.2568 6.12025V11.6646C15.2578 11.751 15.2249 11.8344 15.1653 11.8971C15.1056 11.9598 15.0237 11.9968 14.9371 12.0002C14.8938 12.0011 14.8508 11.9933 14.8105 11.9773C14.7703 11.9613 14.7336 11.9375 14.7027 11.9073C14.6718 11.877 14.6472 11.8409 14.6304 11.8011C14.6137 11.7612 14.605 11.7184 14.605 11.6752V7.98176C14.605 7.57075 14.2768 7.27261 13.8644 7.27261C13.4521 7.27261 13.1203 7.57459 13.1238 7.98176V14.3641C13.1238 17.8332 15.2568 19.5644 17.8638 19.5644H18.3378C20.9448 19.5644 21.7657 18.3944 22.3668 16.9642L24.4023 11.9707C24.5984 11.4388 24.5089 10.9439 24.0494 10.6836Z" fill="#895737"/>
</svg>
